G04 Layer_Color=32896*
%FSLAX43Y43*%
%MOMM*%
G71*
G01*
G75*
%ADD53C,0.127*%
%ADD57C,0.200*%
D53*
X-2775Y29025D02*
X233254D01*
X-2500Y9025D02*
X233000D01*
D57*
X-7275Y9350D02*
X-6950Y8975D01*
X-7325Y8650D02*
X-6950Y8975D01*
X-8975D02*
X-6950D01*
X236425Y8925D02*
X238450D01*
X236425D02*
X236800Y9250D01*
X236425Y8925D02*
X236750Y8550D01*
X-7275Y28958D02*
X-5250D01*
X-5625Y28633D02*
X-5250Y28958D01*
X-5575Y29333D02*
X-5250Y28958D01*
X234200Y28755D02*
X236225D01*
X234200D02*
X234575Y29080D01*
X234200Y28755D02*
X234525Y28380D01*
X236739Y29286D02*
Y28619D01*
X237072Y28286D01*
X237405Y28619D01*
Y29286D01*
X237739Y28786D02*
X238405D01*
X239405Y28953D02*
X238905D01*
X238738Y28786D01*
Y28453D01*
X238905Y28286D01*
X239405D01*
X239738Y28953D02*
Y28453D01*
X239905Y28286D01*
X240404D01*
Y28953D01*
X240904Y29119D02*
Y28953D01*
X240738D01*
X241071D01*
X240904D01*
Y28453D01*
X241071Y28286D01*
X-14000Y9525D02*
Y8858D01*
X-13667Y8525D01*
X-13334Y8858D01*
Y9525D01*
X-13000Y9025D02*
X-12334D01*
X-11334Y9192D02*
X-11834D01*
X-12001Y9025D01*
Y8692D01*
X-11834Y8525D01*
X-11334D01*
X-11001Y9192D02*
Y8692D01*
X-10834Y8525D01*
X-10335D01*
Y9192D01*
X-9835Y9358D02*
Y9192D01*
X-10001D01*
X-9668D01*
X-9835D01*
Y8692D01*
X-9668Y8525D01*
X239225Y9375D02*
Y8708D01*
X239558Y8375D01*
X239891Y8708D01*
Y9375D01*
X240225Y8875D02*
X240891D01*
X241891Y9042D02*
X241391D01*
X241224Y8875D01*
Y8542D01*
X241391Y8375D01*
X241891D01*
X242224Y9042D02*
Y8542D01*
X242391Y8375D01*
X242890D01*
Y9042D01*
X243390Y9208D02*
Y9042D01*
X243224D01*
X243557D01*
X243390D01*
Y8542D01*
X243557Y8375D01*
X-12300Y29508D02*
Y28842D01*
X-11967Y28508D01*
X-11634Y28842D01*
Y29508D01*
X-11300Y29008D02*
X-10634D01*
X-9634Y29175D02*
X-10134D01*
X-10301Y29008D01*
Y28675D01*
X-10134Y28508D01*
X-9634D01*
X-9301Y29175D02*
Y28675D01*
X-9134Y28508D01*
X-8635D01*
Y29175D01*
X-8135Y29341D02*
Y29175D01*
X-8301D01*
X-7968D01*
X-8135D01*
Y28675D01*
X-7968Y28508D01*
M02*
