G04 Layer_Color=3381555*
%FSLAX43Y43*%
%MOMM*%
G71*
G01*
G75*
%ADD122C,0.100*%
%ADD127C,0.050*%
%ADD128C,0.051*%
D122*
X29691Y25025D02*
Y26025D01*
X29191Y25525D02*
X30191D01*
X29691Y26775D02*
Y27775D01*
X29191Y27275D02*
X30191D01*
X48121Y13279D02*
X48829Y12572D01*
X48121D02*
X48829Y13279D01*
X43646Y19379D02*
X44354Y18672D01*
X43646D02*
X44354Y19379D01*
X35005Y13924D02*
X35713Y13217D01*
X35005D02*
X35713Y13924D01*
X35575Y9925D02*
Y10875D01*
X35100Y10400D02*
X36050D01*
X34375Y9850D02*
X36775D01*
X34375Y10950D02*
X36775D01*
X34375Y9850D02*
Y10950D01*
X36775Y9850D02*
Y10950D01*
X30864Y18672D02*
X31572Y19379D01*
X30864D02*
X31572Y18672D01*
X85691Y25025D02*
Y26025D01*
X85191Y25525D02*
X86191D01*
X85691Y26775D02*
Y27775D01*
X85191Y27275D02*
X86191D01*
X104121Y13279D02*
X104829Y12572D01*
X104121D02*
X104829Y13279D01*
X99646Y19379D02*
X100354Y18672D01*
X99646D02*
X100354Y19379D01*
X91005Y13924D02*
X91713Y13217D01*
X91005D02*
X91713Y13924D01*
X91575Y9925D02*
Y10875D01*
X91100Y10400D02*
X92050D01*
X90375Y9850D02*
X92775D01*
X90375Y10950D02*
X92775D01*
X90375Y9850D02*
Y10950D01*
X92775Y9850D02*
Y10950D01*
X86864Y18672D02*
X87572Y19379D01*
X86864D02*
X87572Y18672D01*
X141691Y25025D02*
Y26025D01*
X141191Y25525D02*
X142191D01*
X141691Y26775D02*
Y27775D01*
X141191Y27275D02*
X142191D01*
X160121Y13279D02*
X160829Y12572D01*
X160121D02*
X160829Y13279D01*
X155646Y19379D02*
X156354Y18672D01*
X155646D02*
X156354Y19379D01*
X147005Y13924D02*
X147713Y13217D01*
X147005D02*
X147712Y13924D01*
X147575Y9925D02*
Y10875D01*
X147100Y10400D02*
X148050D01*
X146375Y9850D02*
X148775D01*
X146375Y10950D02*
X148775D01*
X146375Y9850D02*
Y10950D01*
X148775Y9850D02*
Y10950D01*
X142864Y18672D02*
X143572Y19379D01*
X142864D02*
X143572Y18672D01*
X197691Y25025D02*
Y26025D01*
X197191Y25525D02*
X198191D01*
X197691Y26775D02*
Y27775D01*
X197191Y27275D02*
X198191D01*
X216121Y13279D02*
X216829Y12572D01*
X216121D02*
X216829Y13279D01*
X211646Y19379D02*
X212354Y18672D01*
X211646D02*
X212354Y19379D01*
X203005Y13924D02*
X203713Y13217D01*
X203005D02*
X203712Y13924D01*
X203575Y9925D02*
Y10875D01*
X203100Y10400D02*
X204050D01*
X202375Y9850D02*
X204775D01*
X202375Y10950D02*
X204775D01*
X202375Y9850D02*
Y10950D01*
X204775Y9850D02*
Y10950D01*
X198864Y18672D02*
X199572Y19379D01*
X198864D02*
X199572Y18672D01*
D127*
X27991Y26425D02*
X31391Y26425D01*
X27991Y24625D02*
X31391D01*
Y26425D01*
X27991Y24625D02*
X27991Y26425D01*
X27991Y28175D02*
X31391D01*
X27991Y26375D02*
X31391Y26375D01*
X31391Y28175D02*
X31391Y26375D01*
X27991Y26375D02*
Y28175D01*
X50657Y19177D02*
X51082Y18753D01*
X50657Y18753D02*
X51082Y19177D01*
X50587Y18117D02*
X51718Y19248D01*
X50021Y18682D02*
X51152Y19814D01*
X50021Y18682D02*
X50587Y18117D01*
X51152Y19814D02*
X51718Y19248D01*
X48978Y21937D02*
X49402Y21513D01*
X48978Y21513D02*
X49402Y21937D01*
X48907Y20877D02*
X50039Y22008D01*
X48342Y21442D02*
X49473Y22574D01*
X48342Y21442D02*
X48907Y20877D01*
X49473Y22574D02*
X50039Y22008D01*
X38166Y19025D02*
X44000Y24859D01*
X44000Y13192D02*
X49834Y19025D01*
X44000Y24859D02*
X49834Y19025D01*
X38166D02*
X44000Y13192D01*
X49571Y26023D02*
Y26623D01*
X49271Y26323D02*
X49871D01*
X48771Y26723D02*
X50371D01*
X48771Y25923D02*
X50371D01*
Y26723D01*
X48771Y25923D02*
Y26723D01*
X46311Y24604D02*
X46735Y24180D01*
X46311D02*
X46735Y24604D01*
X46240Y23544D02*
X47372Y24675D01*
X45675Y24109D02*
X46806Y25241D01*
X45675Y24109D02*
X46240Y23544D01*
X46806Y25241D02*
X47372Y24675D01*
X45600Y25316D02*
X46024Y24891D01*
X45600Y24891D02*
X46024Y25316D01*
X45529Y24255D02*
X46661Y25386D01*
X44963Y24821D02*
X46095Y25952D01*
X44963Y24821D02*
X45529Y24255D01*
X46095Y25952D02*
X46661Y25386D01*
X44838Y11113D02*
X45262Y11537D01*
X44838D02*
X45262Y11113D01*
X44201Y11608D02*
X45333Y10477D01*
X44767Y12174D02*
X45899Y11042D01*
X44201Y11608D02*
X44767Y12174D01*
X45333Y10477D02*
X45899Y11042D01*
X43388Y12787D02*
X43812Y12363D01*
X43388D02*
X43812Y12787D01*
X42751Y12292D02*
X43883Y13424D01*
X43317Y11727D02*
X44449Y12858D01*
X43883Y13424D02*
X44449Y12858D01*
X42751Y12292D02*
X43317Y11727D01*
X38132Y17500D02*
X38557Y17076D01*
X38132Y17076D02*
X38557Y17500D01*
X37496Y17005D02*
X38627Y18137D01*
X38062Y16440D02*
X39193Y17571D01*
X38627Y18137D02*
X39193Y17571D01*
X37496Y17005D02*
X38062Y16440D01*
X34283Y16039D02*
X34707Y15614D01*
X34283D02*
X34707Y16039D01*
X33646Y15544D02*
X34778Y16675D01*
X34212Y14978D02*
X35343Y16109D01*
X34778Y16675D02*
X35343Y16109D01*
X33646Y15544D02*
X34212Y14978D01*
X28788Y22938D02*
X29212Y23362D01*
X28788D02*
X29212Y22938D01*
X28717Y23999D02*
X29849Y22867D01*
X28151Y23433D02*
X29283Y22302D01*
X29849Y22867D01*
X28151Y23433D02*
X28717Y23999D01*
X37413Y20013D02*
X37837Y20437D01*
X37413D02*
X37837Y20013D01*
X37342Y21074D02*
X38474Y19942D01*
X36776Y20508D02*
X37908Y19377D01*
X38474Y19942D01*
X36776Y20508D02*
X37342Y21074D01*
X37878Y21292D02*
X38303Y21717D01*
X37878Y21717D02*
X38303Y21292D01*
X37808Y22353D02*
X38939Y21222D01*
X37242Y21787D02*
X38373Y20656D01*
X38939Y21222D01*
X37242Y21787D02*
X37808Y22353D01*
X55540Y24930D02*
X55540Y25530D01*
X55240Y25230D02*
X55840D01*
X54740Y24830D02*
X56340D01*
X54740Y25630D02*
X56340Y25630D01*
X54740Y24830D02*
Y25630D01*
X56340Y24830D02*
Y25630D01*
X40405Y15521D02*
X40829Y15945D01*
X40405D02*
X40829Y15521D01*
X40334Y16582D02*
X41466Y15450D01*
X39769Y16016D02*
X40900Y14885D01*
X41466Y15450D01*
X39769Y16016D02*
X40334Y16582D01*
X83991Y26425D02*
X87391Y26425D01*
X83991Y24625D02*
X87391D01*
Y26425D01*
X83991Y24625D02*
X83991Y26425D01*
X83991Y28175D02*
X87391D01*
X83991Y26375D02*
X87391Y26375D01*
X87391Y28175D02*
X87391Y26375D01*
X83991Y26375D02*
Y28175D01*
X106657Y19177D02*
X107082Y18753D01*
X106657Y18753D02*
X107082Y19177D01*
X106587Y18117D02*
X107718Y19248D01*
X106021Y18682D02*
X107152Y19814D01*
X106021Y18682D02*
X106587Y18117D01*
X107152Y19814D02*
X107718Y19248D01*
X104978Y21937D02*
X105402Y21513D01*
X104978Y21513D02*
X105402Y21937D01*
X104907Y20877D02*
X106039Y22008D01*
X104342Y21442D02*
X105473Y22574D01*
X104342Y21442D02*
X104907Y20877D01*
X105473Y22574D02*
X106039Y22008D01*
X94166Y19025D02*
X100000Y24859D01*
X100000Y13192D02*
X105834Y19025D01*
X100000Y24859D02*
X105834Y19025D01*
X94166D02*
X100000Y13192D01*
X105571Y26023D02*
Y26623D01*
X105271Y26323D02*
X105871D01*
X104771Y26723D02*
X106371D01*
X104771Y25923D02*
X106371D01*
Y26723D01*
X104771Y25923D02*
Y26723D01*
X102311Y24604D02*
X102735Y24180D01*
X102311D02*
X102735Y24604D01*
X102240Y23544D02*
X103372Y24675D01*
X101675Y24109D02*
X102806Y25241D01*
X101675Y24109D02*
X102240Y23544D01*
X102806Y25241D02*
X103372Y24675D01*
X101600Y25316D02*
X102024Y24891D01*
X101600Y24891D02*
X102024Y25316D01*
X101529Y24255D02*
X102661Y25386D01*
X100963Y24821D02*
X102095Y25952D01*
X100963Y24821D02*
X101529Y24255D01*
X102095Y25952D02*
X102661Y25386D01*
X100838Y11113D02*
X101262Y11537D01*
X100838D02*
X101262Y11113D01*
X100201Y11608D02*
X101333Y10477D01*
X100767Y12174D02*
X101899Y11042D01*
X100201Y11608D02*
X100767Y12174D01*
X101333Y10477D02*
X101899Y11042D01*
X99388Y12787D02*
X99812Y12363D01*
X99388D02*
X99812Y12787D01*
X98751Y12292D02*
X99883Y13424D01*
X99317Y11727D02*
X100449Y12858D01*
X99883Y13424D02*
X100449Y12858D01*
X98751Y12292D02*
X99317Y11727D01*
X94132Y17500D02*
X94557Y17076D01*
X94132Y17076D02*
X94557Y17500D01*
X93496Y17005D02*
X94627Y18137D01*
X94062Y16440D02*
X95193Y17571D01*
X94627Y18137D02*
X95193Y17571D01*
X93496Y17005D02*
X94062Y16440D01*
X90283Y16039D02*
X90707Y15614D01*
X90283D02*
X90707Y16039D01*
X89646Y15544D02*
X90778Y16675D01*
X90212Y14978D02*
X91343Y16109D01*
X90778Y16675D02*
X91343Y16109D01*
X89646Y15544D02*
X90212Y14978D01*
X84788Y22938D02*
X85212Y23362D01*
X84788D02*
X85212Y22938D01*
X84717Y23999D02*
X85849Y22867D01*
X84151Y23433D02*
X85283Y22302D01*
X85849Y22867D01*
X84151Y23433D02*
X84717Y23999D01*
X93413Y20013D02*
X93837Y20437D01*
X93413D02*
X93837Y20013D01*
X93342Y21074D02*
X94474Y19942D01*
X92776Y20508D02*
X93908Y19377D01*
X94474Y19942D01*
X92776Y20508D02*
X93342Y21074D01*
X93878Y21292D02*
X94303Y21717D01*
X93878Y21717D02*
X94303Y21292D01*
X93808Y22353D02*
X94939Y21222D01*
X93242Y21787D02*
X94373Y20656D01*
X94939Y21222D01*
X93242Y21787D02*
X93808Y22353D01*
X111540Y24930D02*
X111540Y25530D01*
X111240Y25230D02*
X111840D01*
X110740Y24830D02*
X112340D01*
X110740Y25630D02*
X112340Y25630D01*
X110740Y24830D02*
Y25630D01*
X112340Y24830D02*
Y25630D01*
X96405Y15521D02*
X96829Y15945D01*
X96405D02*
X96829Y15521D01*
X96334Y16582D02*
X97466Y15450D01*
X95769Y16016D02*
X96900Y14885D01*
X97466Y15450D01*
X95769Y16016D02*
X96334Y16582D01*
X139991Y26425D02*
X143391Y26425D01*
X139991Y24625D02*
X143391D01*
Y26425D01*
X139991Y24625D02*
X139991Y26425D01*
X139991Y28175D02*
X143391D01*
X139991Y26375D02*
X143391Y26375D01*
X143391Y28175D02*
X143391Y26375D01*
X139991Y26375D02*
Y28175D01*
X162657Y19177D02*
X163082Y18753D01*
X162657Y18753D02*
X163082Y19177D01*
X162587Y18117D02*
X163718Y19248D01*
X162021Y18682D02*
X163152Y19814D01*
X162021Y18682D02*
X162587Y18117D01*
X163152Y19814D02*
X163718Y19248D01*
X160978Y21937D02*
X161402Y21513D01*
X160978Y21513D02*
X161402Y21937D01*
X160907Y20877D02*
X162039Y22008D01*
X160342Y21442D02*
X161473Y22574D01*
X160342Y21442D02*
X160907Y20877D01*
X161473Y22574D02*
X162039Y22008D01*
X150166Y19025D02*
X156000Y24859D01*
X156000Y13192D02*
X161834Y19025D01*
X156000Y24859D02*
X161834Y19025D01*
X150166D02*
X156000Y13192D01*
X161571Y26023D02*
Y26623D01*
X161271Y26323D02*
X161871D01*
X160771Y26723D02*
X162371D01*
X160771Y25923D02*
X162371D01*
Y26723D01*
X160771Y25923D02*
Y26723D01*
X158311Y24604D02*
X158735Y24180D01*
X158311D02*
X158735Y24604D01*
X158240Y23544D02*
X159372Y24675D01*
X157675Y24109D02*
X158806Y25241D01*
X157675Y24109D02*
X158240Y23544D01*
X158806Y25241D02*
X159372Y24675D01*
X157600Y25316D02*
X158024Y24891D01*
X157600Y24891D02*
X158024Y25316D01*
X157529Y24255D02*
X158661Y25386D01*
X156963Y24821D02*
X158095Y25952D01*
X156963Y24821D02*
X157529Y24255D01*
X158095Y25952D02*
X158661Y25386D01*
X156838Y11113D02*
X157262Y11537D01*
X156838D02*
X157262Y11113D01*
X156201Y11608D02*
X157333Y10477D01*
X156767Y12174D02*
X157899Y11042D01*
X156201Y11608D02*
X156767Y12174D01*
X157333Y10477D02*
X157899Y11042D01*
X155388Y12787D02*
X155812Y12363D01*
X155388D02*
X155812Y12787D01*
X154751Y12292D02*
X155883Y13424D01*
X155317Y11727D02*
X156449Y12858D01*
X155883Y13424D02*
X156449Y12858D01*
X154751Y12292D02*
X155317Y11727D01*
X150132Y17500D02*
X150557Y17076D01*
X150132Y17076D02*
X150557Y17500D01*
X149496Y17005D02*
X150627Y18137D01*
X150062Y16440D02*
X151193Y17571D01*
X150627Y18137D02*
X151193Y17571D01*
X149496Y17005D02*
X150062Y16440D01*
X146283Y16039D02*
X146707Y15614D01*
X146283D02*
X146707Y16039D01*
X145646Y15544D02*
X146778Y16675D01*
X146212Y14978D02*
X147343Y16109D01*
X146778Y16675D02*
X147343Y16109D01*
X145646Y15544D02*
X146212Y14978D01*
X140788Y22938D02*
X141212Y23362D01*
X140788D02*
X141212Y22938D01*
X140717Y23999D02*
X141849Y22867D01*
X140151Y23433D02*
X141283Y22302D01*
X141849Y22867D01*
X140151Y23433D02*
X140717Y23999D01*
X149413Y20013D02*
X149837Y20437D01*
X149413D02*
X149837Y20013D01*
X149342Y21074D02*
X150474Y19942D01*
X148776Y20508D02*
X149908Y19377D01*
X150474Y19942D01*
X148776Y20508D02*
X149342Y21074D01*
X149878Y21292D02*
X150303Y21717D01*
X149878Y21717D02*
X150303Y21292D01*
X149808Y22353D02*
X150939Y21222D01*
X149242Y21787D02*
X150373Y20656D01*
X150939Y21222D01*
X149242Y21787D02*
X149808Y22353D01*
X167540Y24930D02*
X167540Y25530D01*
X167240Y25230D02*
X167840D01*
X166740Y24830D02*
X168340D01*
X166740Y25630D02*
X168340Y25630D01*
X166740Y24830D02*
Y25630D01*
X168340Y24830D02*
Y25630D01*
X152405Y15521D02*
X152829Y15945D01*
X152405D02*
X152829Y15521D01*
X152334Y16582D02*
X153466Y15450D01*
X151769Y16016D02*
X152900Y14885D01*
X153466Y15450D01*
X151769Y16016D02*
X152334Y16582D01*
X195991Y26425D02*
X199391Y26425D01*
X195991Y24625D02*
X199391D01*
Y26425D01*
X195991Y24625D02*
X195991Y26425D01*
X195991Y28175D02*
X199391D01*
X195991Y26375D02*
X199391Y26375D01*
X199391Y28175D02*
X199391Y26375D01*
X195991Y26375D02*
Y28175D01*
X218657Y19177D02*
X219082Y18753D01*
X218657Y18753D02*
X219082Y19177D01*
X218587Y18117D02*
X219718Y19248D01*
X218021Y18682D02*
X219152Y19814D01*
X218021Y18682D02*
X218587Y18117D01*
X219152Y19814D02*
X219718Y19248D01*
X216978Y21937D02*
X217402Y21513D01*
X216978Y21513D02*
X217402Y21937D01*
X216907Y20877D02*
X218039Y22008D01*
X216342Y21442D02*
X217473Y22574D01*
X216342Y21442D02*
X216907Y20877D01*
X217473Y22574D02*
X218039Y22008D01*
X206166Y19025D02*
X212000Y24859D01*
X212000Y13192D02*
X217834Y19025D01*
X212000Y24859D02*
X217834Y19025D01*
X206166D02*
X212000Y13192D01*
X217571Y26023D02*
Y26623D01*
X217271Y26323D02*
X217871D01*
X216771Y26723D02*
X218371D01*
X216771Y25923D02*
X218371D01*
Y26723D01*
X216771Y25923D02*
Y26723D01*
X214311Y24604D02*
X214735Y24180D01*
X214311D02*
X214735Y24604D01*
X214240Y23544D02*
X215372Y24675D01*
X213675Y24109D02*
X214806Y25241D01*
X213675Y24109D02*
X214240Y23544D01*
X214806Y25241D02*
X215372Y24675D01*
X213600Y25316D02*
X214024Y24891D01*
X213600Y24891D02*
X214024Y25316D01*
X213529Y24255D02*
X214661Y25386D01*
X212963Y24821D02*
X214095Y25952D01*
X212963Y24821D02*
X213529Y24255D01*
X214095Y25952D02*
X214661Y25386D01*
X212838Y11113D02*
X213262Y11537D01*
X212838D02*
X213262Y11113D01*
X212201Y11608D02*
X213333Y10477D01*
X212767Y12174D02*
X213899Y11042D01*
X212201Y11608D02*
X212767Y12174D01*
X213333Y10477D02*
X213899Y11042D01*
X211388Y12787D02*
X211812Y12363D01*
X211388D02*
X211812Y12787D01*
X210751Y12292D02*
X211883Y13424D01*
X211317Y11727D02*
X212449Y12858D01*
X211883Y13424D02*
X212449Y12858D01*
X210751Y12292D02*
X211317Y11727D01*
X206132Y17500D02*
X206557Y17076D01*
X206132Y17076D02*
X206557Y17500D01*
X205496Y17005D02*
X206627Y18137D01*
X206062Y16440D02*
X207193Y17571D01*
X206627Y18137D02*
X207193Y17571D01*
X205496Y17005D02*
X206062Y16440D01*
X202283Y16039D02*
X202707Y15614D01*
X202283D02*
X202707Y16039D01*
X201646Y15544D02*
X202778Y16675D01*
X202212Y14978D02*
X203343Y16109D01*
X202778Y16675D02*
X203343Y16109D01*
X201646Y15544D02*
X202212Y14978D01*
X196788Y22938D02*
X197212Y23362D01*
X196788D02*
X197212Y22938D01*
X196717Y23999D02*
X197849Y22867D01*
X196151Y23433D02*
X197283Y22302D01*
X197849Y22867D01*
X196151Y23433D02*
X196717Y23999D01*
X205413Y20013D02*
X205837Y20437D01*
X205413D02*
X205837Y20013D01*
X205342Y21074D02*
X206474Y19942D01*
X204776Y20508D02*
X205908Y19377D01*
X206474Y19942D01*
X204776Y20508D02*
X205342Y21074D01*
X205878Y21292D02*
X206303Y21717D01*
X205878Y21717D02*
X206303Y21292D01*
X205808Y22353D02*
X206939Y21222D01*
X205242Y21787D02*
X206373Y20656D01*
X206939Y21222D01*
X205242Y21787D02*
X205808Y22353D01*
X223540Y24930D02*
X223540Y25530D01*
X223240Y25230D02*
X223840D01*
X222740Y24830D02*
X224340D01*
X222740Y25630D02*
X224340Y25630D01*
X222740Y24830D02*
Y25630D01*
X224340Y24830D02*
Y25630D01*
X208405Y15521D02*
X208829Y15945D01*
X208405D02*
X208829Y15521D01*
X208334Y16582D02*
X209466Y15450D01*
X207769Y16016D02*
X208900Y14885D01*
X209466Y15450D01*
X207769Y16016D02*
X208334Y16582D01*
D128*
X56763Y12429D02*
X57163D01*
X56963Y12229D02*
Y12629D01*
X55763Y12929D02*
X58163D01*
X55763Y11929D02*
Y12929D01*
Y11929D02*
X58163D01*
Y12929D01*
X50184Y14742D02*
X50466Y14459D01*
X50184Y14459D02*
X50466Y14742D01*
X49830Y15802D02*
X51527Y14105D01*
X49123Y15095D02*
X49830Y15802D01*
X49123Y15095D02*
X50820Y13398D01*
X51527Y14105D01*
X48371Y24451D02*
Y25451D01*
X50771D01*
Y24451D02*
Y25451D01*
X48371Y24451D02*
X50771D01*
X49571Y24751D02*
Y25151D01*
X49371Y24951D02*
X49771D01*
X48623Y10655D02*
X49330Y9948D01*
X48623Y10655D02*
X50320Y12352D01*
X51027Y11645D01*
X49330Y9948D02*
X51027Y11645D01*
X49684Y11292D02*
X49966Y11009D01*
X49684D02*
X49966Y11292D01*
X46634Y11442D02*
X46916Y11159D01*
X46634D02*
X46916Y11442D01*
X45573Y11795D02*
X47270Y10098D01*
X47977Y10805D01*
X46280Y12502D02*
X47977Y10805D01*
X45573Y11795D02*
X46280Y12502D01*
X43326Y10405D02*
X43726Y10405D01*
X43526Y10605D02*
X43526Y10205D01*
X42326Y9905D02*
X44726Y9905D01*
X44726Y10905D01*
X42326Y10905D02*
X44726Y10905D01*
X42326Y9905D02*
Y10905D01*
X39750Y10775D02*
Y11775D01*
X42150Y11775D01*
Y10775D02*
Y11775D01*
X39750Y10775D02*
X42150Y10775D01*
X40950Y11475D02*
X40950Y11075D01*
X40750Y11275D02*
X41150Y11275D01*
X40750Y12600D02*
X41150Y12600D01*
X40950Y12400D02*
Y12800D01*
X39750Y12100D02*
X42150Y12100D01*
Y13100D01*
X39750Y13100D02*
X42150Y13100D01*
X39750Y13100D02*
X39750Y12100D01*
X40992Y13486D02*
Y14486D01*
X38592Y13486D02*
X40992D01*
X38592D02*
Y14486D01*
X40992D01*
X39792Y13786D02*
Y14186D01*
X39592Y13986D02*
X39992D01*
X38725Y12146D02*
X38725Y11746D01*
X38525Y11946D02*
X38925D01*
X39225Y10746D02*
X39225Y13146D01*
X38225D02*
X39225D01*
X38225D02*
X38225Y10746D01*
X39225Y10746D01*
X30299Y13994D02*
Y14994D01*
X27899Y13994D02*
X30299D01*
X27899D02*
Y14994D01*
X30299D01*
X29099Y14294D02*
Y14694D01*
X28899Y14494D02*
X29299D01*
X27576Y22585D02*
X27859Y22302D01*
X27576D02*
X27859Y22585D01*
X26515Y22939D02*
X28212Y21242D01*
X28919Y21949D01*
X27222Y23646D02*
X28919Y21949D01*
X26515Y22939D02*
X27222Y23646D01*
X34058Y23791D02*
Y24791D01*
X31658Y23791D02*
X34058D01*
X31658D02*
Y24791D01*
X34058Y24791D01*
X32858Y24491D02*
X32858Y24091D01*
X32658Y24291D02*
X33058D01*
X32129Y27929D02*
X33129D01*
X33129Y25529D02*
X33129Y27929D01*
X32129Y25529D02*
X33129D01*
X32129D02*
Y27929D01*
X32429Y26729D02*
X32829Y26729D01*
X32629Y26529D02*
Y26929D01*
X35503Y16601D02*
X36210Y15894D01*
X35503Y16601D02*
X37200Y18298D01*
X37907Y17591D01*
X36210Y15894D02*
X37907Y17591D01*
X36564Y17238D02*
X36846Y16955D01*
X36564D02*
X36846Y17238D01*
X35725Y17742D02*
X36008Y18025D01*
X35725D02*
X36008Y17742D01*
X35372Y16682D02*
X37069Y18379D01*
X36362Y19086D02*
X37069Y18379D01*
X34665Y17389D02*
X36362Y19086D01*
X34665Y17389D02*
X35372Y16682D01*
X38787Y22459D02*
X39070Y22176D01*
X38787D02*
X39070Y22459D01*
X37727Y22812D02*
X39424Y21115D01*
X40131Y21822D01*
X38434Y23519D02*
X40131Y21822D01*
X37727Y22812D02*
X38434Y23519D01*
X60601Y24629D02*
Y25629D01*
X58201Y24629D02*
X60601Y24629D01*
X58201Y24629D02*
Y25629D01*
X60601Y25629D01*
X59401Y24929D02*
Y25329D01*
X59201Y25129D02*
X59601D01*
X58949Y28291D02*
X59949Y28291D01*
X59949Y25891D01*
X58949D02*
X59949D01*
X58949D02*
Y28291D01*
X59249Y27091D02*
X59649D01*
X59449Y26891D02*
Y27291D01*
X55318Y27296D02*
Y28296D01*
X52918Y27296D02*
X55318D01*
X52918D02*
Y28296D01*
X55318D01*
X54118Y27596D02*
Y27996D01*
X53918Y27796D02*
X54318D01*
X56432Y25891D02*
X57432D01*
X56432D02*
Y28291D01*
X57432D01*
Y25891D02*
Y28291D01*
X56732Y27091D02*
X57132D01*
X56932Y26891D02*
Y27291D01*
X57693Y28291D02*
X58693D01*
Y25891D02*
Y28291D01*
X57693Y25891D02*
X58693D01*
X57693D02*
Y28291D01*
X57993Y27091D02*
X58393D01*
X58193Y26891D02*
Y27291D01*
X43350Y10525D02*
X43750D01*
X43550Y10325D02*
Y10725D01*
X42350Y10025D02*
X44975D01*
X42350D02*
Y11025D01*
X44975D01*
Y10025D02*
Y11025D01*
X46550Y10026D02*
Y11026D01*
Y10026D02*
X48950D01*
Y11026D01*
X46550D02*
X48950D01*
X47750Y10326D02*
Y10726D01*
X47550Y10526D02*
X47950D01*
X112763Y12429D02*
X113163D01*
X112963Y12229D02*
Y12629D01*
X111763Y12929D02*
X114163D01*
X111763Y11929D02*
Y12929D01*
Y11929D02*
X114163D01*
Y12929D01*
X106184Y14742D02*
X106466Y14459D01*
X106184Y14459D02*
X106466Y14742D01*
X105830Y15802D02*
X107527Y14105D01*
X105123Y15095D02*
X105830Y15802D01*
X105123Y15095D02*
X106820Y13398D01*
X107527Y14105D01*
X104371Y24451D02*
Y25451D01*
X106771D01*
Y24451D02*
Y25451D01*
X104371Y24451D02*
X106771D01*
X105571Y24751D02*
Y25151D01*
X105371Y24951D02*
X105771D01*
X104623Y10655D02*
X105330Y9948D01*
X104623Y10655D02*
X106320Y12352D01*
X107027Y11645D01*
X105330Y9948D02*
X107027Y11645D01*
X105684Y11292D02*
X105966Y11009D01*
X105684D02*
X105966Y11292D01*
X102634Y11442D02*
X102916Y11159D01*
X102634D02*
X102916Y11442D01*
X101573Y11795D02*
X103270Y10098D01*
X103977Y10805D01*
X102280Y12502D02*
X103977Y10805D01*
X101573Y11795D02*
X102280Y12502D01*
X99326Y10405D02*
X99726Y10405D01*
X99526Y10605D02*
X99526Y10205D01*
X98326Y9905D02*
X100726Y9905D01*
X100726Y10905D01*
X98326Y10905D02*
X100726Y10905D01*
X98326Y9905D02*
Y10905D01*
X95750Y10775D02*
Y11775D01*
X98150Y11775D01*
Y10775D02*
Y11775D01*
X95750Y10775D02*
X98150Y10775D01*
X96950Y11475D02*
X96950Y11075D01*
X96750Y11275D02*
X97150Y11275D01*
X96750Y12600D02*
X97150Y12600D01*
X96950Y12400D02*
Y12800D01*
X95750Y12100D02*
X98150Y12100D01*
Y13100D01*
X95750Y13100D02*
X98150Y13100D01*
X95750Y13100D02*
X95750Y12100D01*
X96992Y13486D02*
Y14486D01*
X94592Y13486D02*
X96992D01*
X94592D02*
Y14486D01*
X96992D01*
X95792Y13786D02*
Y14186D01*
X95592Y13986D02*
X95992D01*
X94725Y12146D02*
X94725Y11746D01*
X94525Y11946D02*
X94925D01*
X95225Y10746D02*
X95225Y13146D01*
X94225D02*
X95225D01*
X94225D02*
X94225Y10746D01*
X95225Y10746D01*
X86299Y13994D02*
Y14994D01*
X83899Y13994D02*
X86299D01*
X83899D02*
Y14994D01*
X86299D01*
X85099Y14294D02*
Y14694D01*
X84899Y14494D02*
X85299D01*
X83576Y22585D02*
X83859Y22302D01*
X83576D02*
X83859Y22585D01*
X82515Y22939D02*
X84212Y21242D01*
X84919Y21949D01*
X83222Y23646D02*
X84919Y21949D01*
X82515Y22939D02*
X83222Y23646D01*
X90058Y23791D02*
Y24791D01*
X87658Y23791D02*
X90058D01*
X87658D02*
Y24791D01*
X90058Y24791D01*
X88858Y24491D02*
X88858Y24091D01*
X88658Y24291D02*
X89058D01*
X88129Y27929D02*
X89129D01*
X89129Y25529D02*
X89129Y27929D01*
X88129Y25529D02*
X89129D01*
X88129D02*
Y27929D01*
X88429Y26729D02*
X88829Y26729D01*
X88629Y26529D02*
Y26929D01*
X91503Y16601D02*
X92210Y15894D01*
X91503Y16601D02*
X93200Y18298D01*
X93907Y17591D01*
X92210Y15894D02*
X93907Y17591D01*
X92564Y17238D02*
X92846Y16955D01*
X92564D02*
X92846Y17238D01*
X91725Y17742D02*
X92008Y18025D01*
X91725D02*
X92008Y17742D01*
X91372Y16682D02*
X93069Y18379D01*
X92362Y19086D02*
X93069Y18379D01*
X90665Y17389D02*
X92362Y19086D01*
X90665Y17389D02*
X91372Y16682D01*
X94787Y22459D02*
X95070Y22176D01*
X94787D02*
X95070Y22459D01*
X93727Y22812D02*
X95424Y21115D01*
X96131Y21822D01*
X94434Y23519D02*
X96131Y21822D01*
X93727Y22812D02*
X94434Y23519D01*
X116601Y24629D02*
Y25629D01*
X114201Y24629D02*
X116601Y24629D01*
X114201Y24629D02*
Y25629D01*
X116601Y25629D01*
X115401Y24929D02*
Y25329D01*
X115201Y25129D02*
X115601D01*
X114949Y28291D02*
X115949Y28291D01*
X115949Y25891D01*
X114949D02*
X115949D01*
X114949D02*
Y28291D01*
X115249Y27091D02*
X115649D01*
X115449Y26891D02*
Y27291D01*
X111318Y27296D02*
Y28296D01*
X108918Y27296D02*
X111318D01*
X108918D02*
Y28296D01*
X111318D01*
X110118Y27596D02*
Y27996D01*
X109918Y27796D02*
X110318D01*
X112432Y25891D02*
X113432D01*
X112432D02*
Y28291D01*
X113432D01*
Y25891D02*
Y28291D01*
X112732Y27091D02*
X113132D01*
X112932Y26891D02*
Y27291D01*
X113693Y28291D02*
X114693D01*
Y25891D02*
Y28291D01*
X113693Y25891D02*
X114693D01*
X113693D02*
Y28291D01*
X113993Y27091D02*
X114393D01*
X114193Y26891D02*
Y27291D01*
X99350Y10525D02*
X99750D01*
X99550Y10325D02*
Y10725D01*
X98350Y10025D02*
X100975D01*
X98350D02*
Y11025D01*
X100975D01*
Y10025D02*
Y11025D01*
X102550Y10026D02*
Y11026D01*
Y10026D02*
X104950D01*
Y11026D01*
X102550D02*
X104950D01*
X103750Y10326D02*
Y10726D01*
X103550Y10526D02*
X103950D01*
X168763Y12429D02*
X169163D01*
X168963Y12229D02*
Y12629D01*
X167763Y12929D02*
X170163D01*
X167763Y11929D02*
Y12929D01*
Y11929D02*
X170163D01*
Y12929D01*
X162184Y14742D02*
X162466Y14459D01*
X162184Y14459D02*
X162466Y14742D01*
X161830Y15802D02*
X163527Y14105D01*
X161123Y15095D02*
X161830Y15802D01*
X161123Y15095D02*
X162820Y13398D01*
X163527Y14105D01*
X160371Y24451D02*
Y25451D01*
X162771D01*
Y24451D02*
Y25451D01*
X160371Y24451D02*
X162771D01*
X161571Y24751D02*
Y25151D01*
X161371Y24951D02*
X161771D01*
X160623Y10655D02*
X161330Y9948D01*
X160623Y10655D02*
X162320Y12352D01*
X163027Y11645D01*
X161330Y9948D02*
X163027Y11645D01*
X161684Y11292D02*
X161966Y11009D01*
X161684D02*
X161966Y11292D01*
X158634Y11442D02*
X158916Y11159D01*
X158634D02*
X158916Y11442D01*
X157573Y11795D02*
X159270Y10098D01*
X159977Y10805D01*
X158280Y12502D02*
X159977Y10805D01*
X157573Y11795D02*
X158280Y12502D01*
X155326Y10405D02*
X155726Y10405D01*
X155526Y10605D02*
X155526Y10205D01*
X154326Y9905D02*
X156726Y9905D01*
X156726Y10905D01*
X154326Y10905D02*
X156726Y10905D01*
X154326Y9905D02*
Y10905D01*
X151750Y10775D02*
Y11775D01*
X154150Y11775D01*
Y10775D02*
Y11775D01*
X151750Y10775D02*
X154150Y10775D01*
X152950Y11475D02*
X152950Y11075D01*
X152750Y11275D02*
X153150Y11275D01*
X152750Y12600D02*
X153150Y12600D01*
X152950Y12400D02*
Y12800D01*
X151750Y12100D02*
X154150Y12100D01*
Y13100D01*
X151750Y13100D02*
X154150Y13100D01*
X151750Y13100D02*
X151750Y12100D01*
X152992Y13486D02*
Y14486D01*
X150592Y13486D02*
X152992D01*
X150592D02*
Y14486D01*
X152992D01*
X151792Y13786D02*
Y14186D01*
X151592Y13986D02*
X151992D01*
X150725Y12146D02*
X150725Y11746D01*
X150525Y11946D02*
X150925D01*
X151225Y10746D02*
X151225Y13146D01*
X150225D02*
X151225D01*
X150225D02*
X150225Y10746D01*
X151225Y10746D01*
X142299Y13994D02*
Y14994D01*
X139899Y13994D02*
X142299D01*
X139899D02*
Y14994D01*
X142299D01*
X141099Y14294D02*
Y14694D01*
X140899Y14494D02*
X141299D01*
X139576Y22585D02*
X139859Y22302D01*
X139576D02*
X139859Y22585D01*
X138515Y22939D02*
X140212Y21242D01*
X140919Y21949D01*
X139222Y23646D02*
X140919Y21949D01*
X138515Y22939D02*
X139222Y23646D01*
X146058Y23791D02*
Y24791D01*
X143658Y23791D02*
X146058D01*
X143658D02*
Y24791D01*
X146058Y24791D01*
X144858Y24491D02*
X144858Y24091D01*
X144658Y24291D02*
X145058D01*
X144129Y27929D02*
X145129D01*
X145129Y25529D02*
X145129Y27929D01*
X144129Y25529D02*
X145129D01*
X144129D02*
Y27929D01*
X144429Y26729D02*
X144829Y26729D01*
X144629Y26529D02*
Y26929D01*
X147503Y16601D02*
X148210Y15894D01*
X147503Y16601D02*
X149200Y18298D01*
X149907Y17591D01*
X148210Y15894D02*
X149907Y17591D01*
X148564Y17238D02*
X148846Y16955D01*
X148564D02*
X148846Y17238D01*
X147725Y17742D02*
X148008Y18025D01*
X147725D02*
X148008Y17742D01*
X147372Y16682D02*
X149069Y18379D01*
X148362Y19086D02*
X149069Y18379D01*
X146665Y17389D02*
X148362Y19086D01*
X146665Y17389D02*
X147372Y16682D01*
X150787Y22459D02*
X151070Y22176D01*
X150787D02*
X151070Y22459D01*
X149727Y22812D02*
X151424Y21115D01*
X152131Y21822D01*
X150434Y23519D02*
X152131Y21822D01*
X149727Y22812D02*
X150434Y23519D01*
X172601Y24629D02*
Y25629D01*
X170201Y24629D02*
X172601Y24629D01*
X170201Y24629D02*
Y25629D01*
X172601Y25629D01*
X171401Y24929D02*
Y25329D01*
X171201Y25129D02*
X171601D01*
X170949Y28291D02*
X171949Y28291D01*
X171949Y25891D01*
X170949D02*
X171949D01*
X170949D02*
Y28291D01*
X171249Y27091D02*
X171649D01*
X171449Y26891D02*
Y27291D01*
X167318Y27296D02*
Y28296D01*
X164918Y27296D02*
X167318D01*
X164918D02*
Y28296D01*
X167318D01*
X166118Y27596D02*
Y27996D01*
X165918Y27796D02*
X166318D01*
X168432Y25891D02*
X169432D01*
X168432D02*
Y28291D01*
X169432D01*
Y25891D02*
Y28291D01*
X168732Y27091D02*
X169132D01*
X168932Y26891D02*
Y27291D01*
X169693Y28291D02*
X170693D01*
Y25891D02*
Y28291D01*
X169693Y25891D02*
X170693D01*
X169693D02*
Y28291D01*
X169993Y27091D02*
X170393D01*
X170193Y26891D02*
Y27291D01*
X155350Y10525D02*
X155750D01*
X155550Y10325D02*
Y10725D01*
X154350Y10025D02*
X156975D01*
X154350D02*
Y11025D01*
X156975D01*
Y10025D02*
Y11025D01*
X158550Y10026D02*
Y11026D01*
Y10026D02*
X160950D01*
Y11026D01*
X158550D02*
X160950D01*
X159750Y10326D02*
Y10726D01*
X159550Y10526D02*
X159950D01*
X224763Y12429D02*
X225163D01*
X224963Y12229D02*
Y12629D01*
X223763Y12929D02*
X226163D01*
X223763Y11929D02*
Y12929D01*
Y11929D02*
X226163D01*
Y12929D01*
X218184Y14742D02*
X218466Y14459D01*
X218184Y14459D02*
X218466Y14742D01*
X217830Y15802D02*
X219527Y14105D01*
X217123Y15095D02*
X217830Y15802D01*
X217123Y15095D02*
X218820Y13398D01*
X219527Y14105D01*
X216371Y24451D02*
Y25451D01*
X218771D01*
Y24451D02*
Y25451D01*
X216371Y24451D02*
X218771D01*
X217571Y24751D02*
Y25151D01*
X217371Y24951D02*
X217771D01*
X216623Y10655D02*
X217330Y9948D01*
X216623Y10655D02*
X218320Y12352D01*
X219027Y11645D01*
X217330Y9948D02*
X219027Y11645D01*
X217684Y11292D02*
X217966Y11009D01*
X217684D02*
X217966Y11292D01*
X214634Y11442D02*
X214916Y11159D01*
X214634D02*
X214916Y11442D01*
X213573Y11795D02*
X215270Y10098D01*
X215977Y10805D01*
X214280Y12502D02*
X215977Y10805D01*
X213573Y11795D02*
X214280Y12502D01*
X211326Y10405D02*
X211726Y10405D01*
X211526Y10605D02*
X211526Y10205D01*
X210326Y9905D02*
X212726Y9905D01*
X212726Y10905D01*
X210326Y10905D02*
X212726Y10905D01*
X210326Y9905D02*
Y10905D01*
X207750Y10775D02*
Y11775D01*
X210150Y11775D01*
Y10775D02*
Y11775D01*
X207750Y10775D02*
X210150Y10775D01*
X208950Y11475D02*
X208950Y11075D01*
X208750Y11275D02*
X209150Y11275D01*
X208750Y12600D02*
X209150Y12600D01*
X208950Y12400D02*
Y12800D01*
X207750Y12100D02*
X210150Y12100D01*
Y13100D01*
X207750Y13100D02*
X210150Y13100D01*
X207750Y13100D02*
X207750Y12100D01*
X208992Y13486D02*
Y14486D01*
X206592Y13486D02*
X208992D01*
X206592D02*
Y14486D01*
X208992D01*
X207792Y13786D02*
Y14186D01*
X207592Y13986D02*
X207992D01*
X206725Y12146D02*
X206725Y11746D01*
X206525Y11946D02*
X206925D01*
X207225Y10746D02*
X207225Y13146D01*
X206225D02*
X207225D01*
X206225D02*
X206225Y10746D01*
X207225Y10746D01*
X198299Y13994D02*
Y14994D01*
X195899Y13994D02*
X198299D01*
X195899D02*
Y14994D01*
X198299D01*
X197099Y14294D02*
Y14694D01*
X196899Y14494D02*
X197299D01*
X195576Y22585D02*
X195859Y22302D01*
X195576D02*
X195859Y22585D01*
X194515Y22939D02*
X196212Y21242D01*
X196919Y21949D01*
X195222Y23646D02*
X196919Y21949D01*
X194515Y22939D02*
X195222Y23646D01*
X202058Y23791D02*
Y24791D01*
X199658Y23791D02*
X202058D01*
X199658D02*
Y24791D01*
X202058Y24791D01*
X200858Y24491D02*
X200858Y24091D01*
X200658Y24291D02*
X201058D01*
X200129Y27929D02*
X201129D01*
X201129Y25529D02*
X201129Y27929D01*
X200129Y25529D02*
X201129D01*
X200129D02*
Y27929D01*
X200429Y26729D02*
X200829Y26729D01*
X200629Y26529D02*
Y26929D01*
X203503Y16601D02*
X204210Y15894D01*
X203503Y16601D02*
X205200Y18298D01*
X205907Y17591D01*
X204210Y15894D02*
X205907Y17591D01*
X204564Y17238D02*
X204846Y16955D01*
X204564D02*
X204846Y17238D01*
X203725Y17742D02*
X204008Y18025D01*
X203725D02*
X204008Y17742D01*
X203372Y16682D02*
X205069Y18379D01*
X204362Y19086D02*
X205069Y18379D01*
X202665Y17389D02*
X204362Y19086D01*
X202665Y17389D02*
X203372Y16682D01*
X206787Y22459D02*
X207070Y22176D01*
X206787D02*
X207070Y22459D01*
X205727Y22812D02*
X207424Y21115D01*
X208131Y21822D01*
X206434Y23519D02*
X208131Y21822D01*
X205727Y22812D02*
X206434Y23519D01*
X228601Y24629D02*
Y25629D01*
X226201Y24629D02*
X228601Y24629D01*
X226201Y24629D02*
Y25629D01*
X228601Y25629D01*
X227401Y24929D02*
Y25329D01*
X227201Y25129D02*
X227601D01*
X226949Y28291D02*
X227949Y28291D01*
X227949Y25891D01*
X226949D02*
X227949D01*
X226949D02*
Y28291D01*
X227249Y27091D02*
X227649D01*
X227449Y26891D02*
Y27291D01*
X223318Y27296D02*
Y28296D01*
X220918Y27296D02*
X223318D01*
X220918D02*
Y28296D01*
X223318D01*
X222118Y27596D02*
Y27996D01*
X221918Y27796D02*
X222318D01*
X224432Y25891D02*
X225432D01*
X224432D02*
Y28291D01*
X225432D01*
Y25891D02*
Y28291D01*
X224732Y27091D02*
X225132D01*
X224932Y26891D02*
Y27291D01*
X225693Y28291D02*
X226693D01*
Y25891D02*
Y28291D01*
X225693Y25891D02*
X226693D01*
X225693D02*
Y28291D01*
X225993Y27091D02*
X226393D01*
X226193Y26891D02*
Y27291D01*
X211350Y10525D02*
X211750D01*
X211550Y10325D02*
Y10725D01*
X210350Y10025D02*
X212975D01*
X210350D02*
Y11025D01*
X212975D01*
Y10025D02*
Y11025D01*
X214550Y10026D02*
Y11026D01*
Y10026D02*
X216950D01*
Y11026D01*
X214550D02*
X216950D01*
X215750Y10326D02*
Y10726D01*
X215550Y10526D02*
X215950D01*
M02*
