G04 Layer_Physical_Order=1*
G04 Layer_Color=255*
%FSLAX43Y43*%
%MOMM*%
G71*
G01*
G75*
%ADD10R,1.000X1.000*%
%ADD11C,0.203*%
%ADD12C,0.203*%
%ADD13R,2.880X1.120*%
%ADD14R,1.500X0.800*%
%ADD15R,1.900X1.400*%
%ADD16R,1.400X1.800*%
%ADD17R,0.762X0.965*%
%ADD18R,0.762X0.762*%
%ADD19C,0.635*%
%ADD20C,0.254*%
%ADD21C,1.500*%
%ADD22R,1.500X1.500*%
%ADD23C,2.800*%
%ADD24C,0.635*%
G36*
X230103Y30550D02*
X897Y30550D01*
Y37129D01*
X230103D01*
Y30550D01*
D02*
G37*
G36*
X209582Y27567D02*
X210586D01*
X211590D01*
Y28180D01*
X212598D01*
X212636Y28053D01*
X212548Y27993D01*
X212433Y27821D01*
X212392Y27618D01*
X212433Y27415D01*
X212548Y27243D01*
X212720Y27128D01*
X212923Y27087D01*
X213126Y27128D01*
X213298Y27243D01*
X213413Y27415D01*
X213454Y27618D01*
X213413Y27821D01*
X213298Y27993D01*
X213210Y28053D01*
X213248Y28180D01*
X227906D01*
X227974Y28053D01*
X227933Y27992D01*
X227893Y27789D01*
X227933Y27586D01*
X228048Y27414D01*
X228221Y27299D01*
X228424Y27258D01*
X228627Y27299D01*
X228799Y27414D01*
X228914Y27586D01*
X228955Y27789D01*
X228914Y27992D01*
X228874Y28053D01*
X228942Y28180D01*
X230000D01*
X230000Y28180D01*
X230013Y28181D01*
X230114Y28139D01*
X230156Y28038D01*
X230155Y28025D01*
Y10025D01*
X230156Y10013D01*
X230114Y9911D01*
X230012Y9869D01*
X230000Y9871D01*
X215733D01*
X215636Y9942D01*
Y11110D01*
X214914D01*
X214866Y11151D01*
X214672Y11345D01*
X214571Y11412D01*
X214453Y11436D01*
X212849D01*
X212730Y11412D01*
X212629Y11345D01*
X212539Y11255D01*
X212502Y11221D01*
X212490Y11211D01*
X211664D01*
Y9871D01*
X211436D01*
Y11211D01*
X210267D01*
Y11131D01*
X210150Y11082D01*
X209746Y11486D01*
X209637Y11559D01*
X209508Y11584D01*
X206319D01*
X206307Y11586D01*
X206295Y11589D01*
X206284Y11593D01*
X206276Y11596D01*
X206268Y11600D01*
X206263Y11604D01*
X206250Y11623D01*
X206078Y11738D01*
X205874Y11779D01*
X205671Y11738D01*
X205499Y11623D01*
X205384Y11451D01*
X205344Y11248D01*
X205378Y11076D01*
X205377Y11036D01*
X205300Y10941D01*
X205172Y10916D01*
X205000Y10801D01*
X204885Y10628D01*
X204844Y10425D01*
X204885Y10222D01*
X205000Y10050D01*
X205078Y9998D01*
X205039Y9871D01*
X195000D01*
X194988Y9869D01*
X194886Y9911D01*
X194844Y10013D01*
X194845Y10025D01*
Y12525D01*
X194847D01*
X194812Y12886D01*
X194706Y13232D01*
X194536Y13551D01*
X194306Y13831D01*
X194026Y14061D01*
X193707Y14232D01*
X193360Y14337D01*
X193000Y14372D01*
Y14371D01*
X192781Y14342D01*
X192577Y14257D01*
X192402Y14123D01*
X192401Y14121D01*
X178800D01*
X178793Y14119D01*
X178721Y14134D01*
X178654Y14179D01*
X178609Y14246D01*
X178594Y14318D01*
X178596Y14325D01*
Y22425D01*
X178594Y22432D01*
X178609Y22504D01*
X178654Y22572D01*
X178721Y22617D01*
X178793Y22631D01*
X178800Y22630D01*
X182769D01*
X182794Y22610D01*
X182879Y22575D01*
X182998Y22526D01*
X183217Y22497D01*
X183436Y22526D01*
X183520Y22561D01*
X183640Y22610D01*
X183815Y22744D01*
X183815Y22744D01*
X184750Y23680D01*
X185119D01*
X185193Y23502D01*
X185360Y23285D01*
X185576Y23118D01*
X185829Y23014D01*
X186100Y22978D01*
Y22980D01*
X186933D01*
X186934Y22980D01*
Y22976D01*
X187257Y23019D01*
X187558Y23143D01*
X187817Y23342D01*
X187815Y23344D01*
X188150Y23680D01*
X193000D01*
X193000Y23680D01*
Y23678D01*
X193360Y23714D01*
X193707Y23819D01*
X194026Y23989D01*
X194306Y24219D01*
X194536Y24499D01*
X194706Y24818D01*
X194812Y25165D01*
X194847Y25525D01*
X194845D01*
Y26747D01*
X194957Y26807D01*
X194991Y26785D01*
X195194Y26744D01*
X195397Y26785D01*
X195569Y26900D01*
X195684Y27072D01*
X195725Y27275D01*
X195684Y27478D01*
X195569Y27651D01*
X195397Y27766D01*
X195194Y27806D01*
X194991Y27766D01*
X194957Y27744D01*
X194845Y27803D01*
Y28025D01*
X194844Y28038D01*
X194886Y28139D01*
X194988Y28181D01*
X195000Y28180D01*
X202092D01*
X202181Y28191D01*
X202250Y28072D01*
X202134Y27921D01*
X202038Y27689D01*
X202005Y27440D01*
X202038Y27191D01*
X202134Y26959D01*
X202286Y26760D01*
X202485Y26608D01*
X202717Y26512D01*
X202966Y26479D01*
X203215Y26512D01*
X203447Y26608D01*
X203646Y26760D01*
X203799Y26959D01*
X203895Y27191D01*
X203928Y27440D01*
X203895Y27689D01*
X203799Y27921D01*
X203646Y28120D01*
X203567Y28181D01*
X203610Y28308D01*
X204863D01*
X204906Y28181D01*
X204826Y28120D01*
X204674Y27921D01*
X204578Y27689D01*
X204545Y27440D01*
X204578Y27191D01*
X204674Y26959D01*
X204826Y26760D01*
X205025Y26608D01*
X205257Y26512D01*
X205506Y26479D01*
X205755Y26512D01*
X205987Y26608D01*
X206186Y26760D01*
X206339Y26959D01*
X206435Y27191D01*
X206468Y27440D01*
X206435Y27689D01*
X206339Y27921D01*
X206186Y28120D01*
X206107Y28181D01*
X206150Y28308D01*
X207403D01*
X207446Y28181D01*
X207366Y28120D01*
X207214Y27921D01*
X207118Y27689D01*
X207085Y27440D01*
X207118Y27191D01*
X207214Y26959D01*
X207366Y26760D01*
X207565Y26608D01*
X207797Y26512D01*
X208046Y26479D01*
X208295Y26512D01*
X208527Y26608D01*
X208726Y26760D01*
X208879Y26959D01*
X208975Y27191D01*
X209008Y27440D01*
X208975Y27689D01*
X208879Y27921D01*
X208726Y28120D01*
X208647Y28181D01*
X208690Y28308D01*
X209582D01*
Y27567D01*
D02*
G37*
G36*
X153582D02*
X154586D01*
X155590D01*
Y28180D01*
X156598D01*
X156636Y28053D01*
X156548Y27993D01*
X156433Y27821D01*
X156392Y27618D01*
X156433Y27415D01*
X156548Y27243D01*
X156720Y27128D01*
X156923Y27087D01*
X157126Y27128D01*
X157298Y27243D01*
X157413Y27415D01*
X157454Y27618D01*
X157413Y27821D01*
X157298Y27993D01*
X157210Y28053D01*
X157248Y28180D01*
X171906D01*
X171974Y28053D01*
X171933Y27992D01*
X171893Y27789D01*
X171933Y27586D01*
X172048Y27414D01*
X172221Y27299D01*
X172424Y27258D01*
X172627Y27299D01*
X172799Y27414D01*
X172914Y27586D01*
X172955Y27789D01*
X172914Y27992D01*
X172874Y28053D01*
X172942Y28180D01*
X174000D01*
X174000Y28180D01*
X174013Y28181D01*
X174114Y28139D01*
X174156Y28038D01*
X174155Y28025D01*
Y10025D01*
X174156Y10013D01*
X174114Y9911D01*
X174012Y9869D01*
X174000Y9871D01*
X159733D01*
X159636Y9942D01*
Y11110D01*
X158914D01*
X158866Y11151D01*
X158672Y11345D01*
X158571Y11412D01*
X158453Y11436D01*
X156849D01*
X156730Y11412D01*
X156629Y11345D01*
X156539Y11255D01*
X156502Y11221D01*
X156490Y11211D01*
X155664D01*
Y9871D01*
X155436D01*
Y11211D01*
X154267D01*
Y11131D01*
X154150Y11082D01*
X153746Y11486D01*
X153637Y11559D01*
X153508Y11584D01*
X150319D01*
X150307Y11586D01*
X150295Y11589D01*
X150284Y11593D01*
X150276Y11596D01*
X150268Y11600D01*
X150263Y11604D01*
X150250Y11623D01*
X150078Y11738D01*
X149874Y11779D01*
X149671Y11738D01*
X149499Y11623D01*
X149384Y11451D01*
X149344Y11248D01*
X149378Y11076D01*
X149377Y11036D01*
X149300Y10941D01*
X149172Y10916D01*
X149000Y10801D01*
X148885Y10628D01*
X148844Y10425D01*
X148885Y10222D01*
X149000Y10050D01*
X149078Y9998D01*
X149039Y9871D01*
X139000D01*
X138988Y9869D01*
X138886Y9911D01*
X138844Y10013D01*
X138845Y10025D01*
Y12525D01*
X138847D01*
X138812Y12886D01*
X138706Y13232D01*
X138536Y13551D01*
X138306Y13831D01*
X138026Y14061D01*
X137707Y14232D01*
X137360Y14337D01*
X137000Y14372D01*
Y14371D01*
X136781Y14342D01*
X136577Y14257D01*
X136402Y14123D01*
X136401Y14121D01*
X122800D01*
X122793Y14119D01*
X122721Y14134D01*
X122654Y14179D01*
X122609Y14246D01*
X122594Y14318D01*
X122596Y14325D01*
Y22425D01*
X122594Y22432D01*
X122609Y22504D01*
X122654Y22572D01*
X122721Y22617D01*
X122793Y22631D01*
X122800Y22630D01*
X126769D01*
X126794Y22610D01*
X126879Y22575D01*
X126998Y22526D01*
X127217Y22497D01*
X127436Y22526D01*
X127520Y22561D01*
X127640Y22610D01*
X127815Y22744D01*
X127815Y22744D01*
X128750Y23680D01*
X129119D01*
X129193Y23502D01*
X129360Y23285D01*
X129576Y23118D01*
X129829Y23014D01*
X130100Y22978D01*
Y22980D01*
X130933D01*
X130934Y22980D01*
Y22976D01*
X131257Y23019D01*
X131558Y23143D01*
X131817Y23342D01*
X131815Y23344D01*
X132150Y23680D01*
X137000D01*
X137000Y23680D01*
Y23678D01*
X137360Y23714D01*
X137707Y23819D01*
X138026Y23989D01*
X138306Y24219D01*
X138536Y24499D01*
X138706Y24818D01*
X138812Y25165D01*
X138847Y25525D01*
X138845D01*
Y26747D01*
X138957Y26807D01*
X138991Y26785D01*
X139194Y26744D01*
X139397Y26785D01*
X139569Y26900D01*
X139684Y27072D01*
X139725Y27275D01*
X139684Y27478D01*
X139569Y27651D01*
X139397Y27766D01*
X139194Y27806D01*
X138991Y27766D01*
X138957Y27744D01*
X138845Y27803D01*
Y28025D01*
X138844Y28038D01*
X138886Y28139D01*
X138988Y28181D01*
X139000Y28180D01*
X146092D01*
X146181Y28191D01*
X146250Y28072D01*
X146134Y27921D01*
X146038Y27689D01*
X146005Y27440D01*
X146038Y27191D01*
X146134Y26959D01*
X146286Y26760D01*
X146485Y26608D01*
X146717Y26512D01*
X146966Y26479D01*
X147215Y26512D01*
X147447Y26608D01*
X147646Y26760D01*
X147799Y26959D01*
X147895Y27191D01*
X147928Y27440D01*
X147895Y27689D01*
X147799Y27921D01*
X147646Y28120D01*
X147567Y28181D01*
X147610Y28308D01*
X148863D01*
X148906Y28181D01*
X148826Y28120D01*
X148674Y27921D01*
X148578Y27689D01*
X148545Y27440D01*
X148578Y27191D01*
X148674Y26959D01*
X148826Y26760D01*
X149025Y26608D01*
X149257Y26512D01*
X149506Y26479D01*
X149755Y26512D01*
X149987Y26608D01*
X150186Y26760D01*
X150339Y26959D01*
X150435Y27191D01*
X150468Y27440D01*
X150435Y27689D01*
X150339Y27921D01*
X150186Y28120D01*
X150107Y28181D01*
X150150Y28308D01*
X151403D01*
X151446Y28181D01*
X151366Y28120D01*
X151214Y27921D01*
X151118Y27689D01*
X151085Y27440D01*
X151118Y27191D01*
X151214Y26959D01*
X151366Y26760D01*
X151565Y26608D01*
X151797Y26512D01*
X152046Y26479D01*
X152295Y26512D01*
X152527Y26608D01*
X152726Y26760D01*
X152879Y26959D01*
X152975Y27191D01*
X153008Y27440D01*
X152975Y27689D01*
X152879Y27921D01*
X152726Y28120D01*
X152647Y28181D01*
X152690Y28308D01*
X153582D01*
Y27567D01*
D02*
G37*
G36*
X97582D02*
X98586D01*
X99590D01*
Y28180D01*
X100598D01*
X100636Y28053D01*
X100548Y27993D01*
X100433Y27821D01*
X100392Y27618D01*
X100433Y27415D01*
X100548Y27243D01*
X100720Y27128D01*
X100923Y27087D01*
X101126Y27128D01*
X101298Y27243D01*
X101413Y27415D01*
X101454Y27618D01*
X101413Y27821D01*
X101298Y27993D01*
X101210Y28053D01*
X101248Y28180D01*
X115906D01*
X115974Y28053D01*
X115933Y27992D01*
X115893Y27789D01*
X115933Y27586D01*
X116048Y27414D01*
X116221Y27299D01*
X116424Y27258D01*
X116627Y27299D01*
X116799Y27414D01*
X116914Y27586D01*
X116955Y27789D01*
X116914Y27992D01*
X116874Y28053D01*
X116942Y28180D01*
X118000D01*
X118000Y28180D01*
X118013Y28181D01*
X118114Y28139D01*
X118156Y28038D01*
X118155Y28025D01*
Y10025D01*
X118156Y10013D01*
X118114Y9911D01*
X118012Y9869D01*
X118000Y9871D01*
X103733D01*
X103636Y9942D01*
Y11110D01*
X102914D01*
X102866Y11151D01*
X102672Y11345D01*
X102571Y11412D01*
X102453Y11436D01*
X100849D01*
X100730Y11412D01*
X100629Y11345D01*
X100539Y11255D01*
X100502Y11221D01*
X100490Y11211D01*
X99664D01*
Y9871D01*
X99436D01*
Y11211D01*
X98267D01*
Y11131D01*
X98150Y11082D01*
X97746Y11486D01*
X97637Y11559D01*
X97508Y11584D01*
X94319D01*
X94307Y11586D01*
X94295Y11589D01*
X94284Y11593D01*
X94276Y11596D01*
X94268Y11600D01*
X94263Y11604D01*
X94250Y11623D01*
X94078Y11738D01*
X93874Y11779D01*
X93671Y11738D01*
X93499Y11623D01*
X93384Y11451D01*
X93344Y11248D01*
X93378Y11076D01*
X93377Y11036D01*
X93300Y10941D01*
X93172Y10916D01*
X93000Y10801D01*
X92885Y10628D01*
X92844Y10425D01*
X92885Y10222D01*
X93000Y10050D01*
X93078Y9998D01*
X93039Y9871D01*
X83000D01*
X82988Y9869D01*
X82886Y9911D01*
X82844Y10013D01*
X82845Y10025D01*
Y12525D01*
X82847D01*
X82812Y12886D01*
X82706Y13232D01*
X82536Y13551D01*
X82306Y13831D01*
X82026Y14061D01*
X81707Y14232D01*
X81360Y14337D01*
X81000Y14372D01*
Y14371D01*
X80781Y14342D01*
X80577Y14257D01*
X80402Y14123D01*
X80401Y14121D01*
X66800D01*
X66793Y14119D01*
X66721Y14134D01*
X66654Y14179D01*
X66609Y14246D01*
X66594Y14318D01*
X66596Y14325D01*
Y22425D01*
X66594Y22432D01*
X66609Y22504D01*
X66654Y22572D01*
X66721Y22617D01*
X66793Y22631D01*
X66800Y22630D01*
X70769D01*
X70794Y22610D01*
X70879Y22575D01*
X70998Y22526D01*
X71217Y22497D01*
X71436Y22526D01*
X71520Y22561D01*
X71640Y22610D01*
X71815Y22744D01*
X71815Y22744D01*
X72750Y23680D01*
X73119D01*
X73193Y23502D01*
X73360Y23285D01*
X73576Y23118D01*
X73829Y23014D01*
X74100Y22978D01*
Y22980D01*
X74933D01*
X74934Y22980D01*
Y22976D01*
X75257Y23019D01*
X75558Y23143D01*
X75817Y23342D01*
X75815Y23344D01*
X76150Y23680D01*
X81000D01*
X81000Y23680D01*
Y23678D01*
X81360Y23714D01*
X81707Y23819D01*
X82026Y23989D01*
X82306Y24219D01*
X82536Y24499D01*
X82706Y24818D01*
X82812Y25165D01*
X82847Y25525D01*
X82845D01*
Y26747D01*
X82957Y26807D01*
X82991Y26785D01*
X83194Y26744D01*
X83397Y26785D01*
X83569Y26900D01*
X83684Y27072D01*
X83725Y27275D01*
X83684Y27478D01*
X83569Y27651D01*
X83397Y27766D01*
X83194Y27806D01*
X82991Y27766D01*
X82957Y27744D01*
X82845Y27803D01*
Y28025D01*
X82844Y28038D01*
X82886Y28139D01*
X82988Y28181D01*
X83000Y28180D01*
X90092D01*
X90181Y28191D01*
X90250Y28072D01*
X90134Y27921D01*
X90038Y27689D01*
X90005Y27440D01*
X90038Y27191D01*
X90134Y26959D01*
X90286Y26760D01*
X90485Y26608D01*
X90717Y26512D01*
X90966Y26479D01*
X91215Y26512D01*
X91447Y26608D01*
X91646Y26760D01*
X91799Y26959D01*
X91895Y27191D01*
X91928Y27440D01*
X91895Y27689D01*
X91799Y27921D01*
X91646Y28120D01*
X91567Y28181D01*
X91610Y28308D01*
X92863D01*
X92906Y28181D01*
X92826Y28120D01*
X92674Y27921D01*
X92578Y27689D01*
X92545Y27440D01*
X92578Y27191D01*
X92674Y26959D01*
X92826Y26760D01*
X93025Y26608D01*
X93257Y26512D01*
X93506Y26479D01*
X93755Y26512D01*
X93987Y26608D01*
X94186Y26760D01*
X94339Y26959D01*
X94435Y27191D01*
X94468Y27440D01*
X94435Y27689D01*
X94339Y27921D01*
X94186Y28120D01*
X94107Y28181D01*
X94150Y28308D01*
X95403D01*
X95446Y28181D01*
X95366Y28120D01*
X95214Y27921D01*
X95118Y27689D01*
X95085Y27440D01*
X95118Y27191D01*
X95214Y26959D01*
X95366Y26760D01*
X95565Y26608D01*
X95797Y26512D01*
X96046Y26479D01*
X96295Y26512D01*
X96527Y26608D01*
X96726Y26760D01*
X96879Y26959D01*
X96975Y27191D01*
X97008Y27440D01*
X96975Y27689D01*
X96879Y27921D01*
X96726Y28120D01*
X96647Y28181D01*
X96690Y28308D01*
X97582D01*
Y27567D01*
D02*
G37*
G36*
X41582D02*
X42586D01*
X43590D01*
Y28180D01*
X44598D01*
X44636Y28053D01*
X44548Y27993D01*
X44433Y27821D01*
X44392Y27618D01*
X44433Y27415D01*
X44548Y27243D01*
X44720Y27128D01*
X44923Y27087D01*
X45126Y27128D01*
X45298Y27243D01*
X45414Y27415D01*
X45454Y27618D01*
X45414Y27821D01*
X45298Y27993D01*
X45210Y28053D01*
X45248Y28180D01*
X59906D01*
X59974Y28053D01*
X59933Y27992D01*
X59893Y27789D01*
X59933Y27586D01*
X60048Y27414D01*
X60221Y27299D01*
X60424Y27258D01*
X60627Y27299D01*
X60799Y27414D01*
X60914Y27586D01*
X60955Y27789D01*
X60914Y27992D01*
X60874Y28053D01*
X60942Y28180D01*
X62000D01*
X62000Y28180D01*
X62013Y28181D01*
X62114Y28139D01*
X62156Y28038D01*
X62155Y28025D01*
Y10025D01*
X62156Y10013D01*
X62114Y9911D01*
X62013Y9869D01*
X62000Y9871D01*
X47733D01*
X47636Y9942D01*
Y11110D01*
X46914D01*
X46866Y11151D01*
X46672Y11345D01*
X46571Y11412D01*
X46453Y11436D01*
X44849D01*
X44730Y11412D01*
X44629Y11345D01*
X44539Y11255D01*
X44502Y11221D01*
X44490Y11211D01*
X43664D01*
Y9871D01*
X43436D01*
Y11211D01*
X42267D01*
Y11131D01*
X42150Y11082D01*
X41746Y11486D01*
X41637Y11559D01*
X41508Y11584D01*
X38319D01*
X38307Y11586D01*
X38295Y11589D01*
X38284Y11593D01*
X38276Y11596D01*
X38268Y11600D01*
X38263Y11604D01*
X38250Y11623D01*
X38078Y11738D01*
X37875Y11779D01*
X37671Y11738D01*
X37499Y11623D01*
X37384Y11451D01*
X37344Y11248D01*
X37378Y11076D01*
X37377Y11036D01*
X37300Y10941D01*
X37172Y10916D01*
X37000Y10801D01*
X36885Y10628D01*
X36844Y10425D01*
X36885Y10222D01*
X37000Y10050D01*
X37078Y9998D01*
X37039Y9871D01*
X27000D01*
X26988Y9869D01*
X26886Y9911D01*
X26844Y10013D01*
X26845Y10025D01*
Y12525D01*
X26847D01*
X26812Y12886D01*
X26706Y13232D01*
X26536Y13551D01*
X26306Y13831D01*
X26026Y14061D01*
X25707Y14232D01*
X25360Y14337D01*
X25000Y14372D01*
Y14371D01*
X24781Y14342D01*
X24577Y14257D01*
X24402Y14123D01*
X24401Y14121D01*
X10800D01*
X10793Y14119D01*
X10721Y14134D01*
X10654Y14179D01*
X10609Y14246D01*
X10594Y14318D01*
X10596Y14325D01*
Y22425D01*
X10594Y22432D01*
X10609Y22504D01*
X10654Y22572D01*
X10721Y22617D01*
X10793Y22631D01*
X10800Y22630D01*
X14769D01*
X14794Y22610D01*
X14879Y22575D01*
X14998Y22526D01*
X15217Y22497D01*
X15436Y22526D01*
X15520Y22561D01*
X15640Y22610D01*
X15815Y22744D01*
X15815Y22744D01*
X16750Y23680D01*
X17119D01*
X17193Y23502D01*
X17360Y23285D01*
X17576Y23118D01*
X17829Y23014D01*
X18100Y22978D01*
Y22980D01*
X18933D01*
X18934Y22980D01*
Y22976D01*
X19257Y23019D01*
X19558Y23143D01*
X19817Y23342D01*
X19815Y23344D01*
X20150Y23680D01*
X25000D01*
X25000Y23680D01*
Y23678D01*
X25360Y23714D01*
X25707Y23819D01*
X26026Y23989D01*
X26306Y24219D01*
X26536Y24499D01*
X26706Y24818D01*
X26812Y25165D01*
X26847Y25525D01*
X26845D01*
Y26747D01*
X26957Y26807D01*
X26991Y26785D01*
X27194Y26744D01*
X27397Y26785D01*
X27569Y26900D01*
X27684Y27072D01*
X27725Y27275D01*
X27684Y27478D01*
X27569Y27651D01*
X27397Y27766D01*
X27194Y27806D01*
X26991Y27766D01*
X26957Y27744D01*
X26845Y27803D01*
Y28025D01*
X26844Y28038D01*
X26886Y28139D01*
X26988Y28181D01*
X27000Y28180D01*
X34092D01*
X34181Y28191D01*
X34250Y28072D01*
X34134Y27921D01*
X34038Y27689D01*
X34005Y27440D01*
X34038Y27191D01*
X34134Y26959D01*
X34286Y26760D01*
X34485Y26608D01*
X34717Y26512D01*
X34966Y26479D01*
X35215Y26512D01*
X35447Y26608D01*
X35646Y26760D01*
X35799Y26959D01*
X35895Y27191D01*
X35928Y27440D01*
X35895Y27689D01*
X35799Y27921D01*
X35646Y28120D01*
X35567Y28181D01*
X35610Y28308D01*
X36863D01*
X36906Y28181D01*
X36826Y28120D01*
X36674Y27921D01*
X36578Y27689D01*
X36545Y27440D01*
X36578Y27191D01*
X36674Y26959D01*
X36826Y26760D01*
X37025Y26608D01*
X37257Y26512D01*
X37506Y26479D01*
X37755Y26512D01*
X37987Y26608D01*
X38186Y26760D01*
X38339Y26959D01*
X38435Y27191D01*
X38468Y27440D01*
X38435Y27689D01*
X38339Y27921D01*
X38186Y28120D01*
X38107Y28181D01*
X38150Y28308D01*
X39403D01*
X39446Y28181D01*
X39366Y28120D01*
X39214Y27921D01*
X39118Y27689D01*
X39085Y27440D01*
X39118Y27191D01*
X39214Y26959D01*
X39366Y26760D01*
X39565Y26608D01*
X39797Y26512D01*
X40046Y26479D01*
X40295Y26512D01*
X40527Y26608D01*
X40726Y26760D01*
X40879Y26959D01*
X40975Y27191D01*
X41008Y27440D01*
X40975Y27689D01*
X40879Y27921D01*
X40726Y28120D01*
X40647Y28181D01*
X40690Y28308D01*
X41582D01*
Y27567D01*
D02*
G37*
G36*
X2061Y15799D02*
X2079Y15794D01*
X2099Y15788D01*
X2121Y15779D01*
X2141Y15766D01*
X2161Y15748D01*
X2163Y15746D01*
X2168Y15737D01*
X2176Y15723D01*
X2185Y15703D01*
X2194Y15679D01*
X2203Y15646D01*
X2207Y15606D01*
X2210Y15559D01*
Y15202D01*
X3682D01*
X3599Y15519D01*
Y15521D01*
X3597Y15532D01*
X3593Y15546D01*
X3591Y15561D01*
X3582Y15599D01*
X3579Y15617D01*
Y15632D01*
Y15635D01*
Y15643D01*
X3582Y15657D01*
X3586Y15672D01*
X3593Y15690D01*
X3602Y15710D01*
X3615Y15728D01*
X3633Y15748D01*
X3635Y15750D01*
X3642Y15754D01*
X3653Y15763D01*
X3668Y15772D01*
X3688Y15781D01*
X3710Y15790D01*
X3735Y15794D01*
X3764Y15797D01*
X3775D01*
X3788Y15794D01*
X3804Y15792D01*
X3821Y15788D01*
X3839Y15781D01*
X3857Y15772D01*
X3872Y15761D01*
X3875Y15759D01*
X3879Y15754D01*
X3888Y15743D01*
X3897Y15728D01*
X3908Y15708D01*
X3921Y15683D01*
X3935Y15650D01*
X3946Y15610D01*
X4143Y14849D01*
X2210D01*
Y14491D01*
Y14489D01*
Y14485D01*
Y14478D01*
Y14469D01*
X2207Y14447D01*
X2203Y14418D01*
X2196Y14387D01*
X2187Y14356D01*
X2176Y14327D01*
X2159Y14305D01*
X2156Y14303D01*
X2150Y14296D01*
X2139Y14287D01*
X2125Y14276D01*
X2105Y14267D01*
X2085Y14258D01*
X2061Y14252D01*
X2032Y14249D01*
X2019D01*
X2003Y14252D01*
X1985Y14256D01*
X1965Y14263D01*
X1943Y14274D01*
X1923Y14287D01*
X1903Y14305D01*
X1901Y14307D01*
X1897Y14316D01*
X1888Y14329D01*
X1881Y14347D01*
X1872Y14374D01*
X1863Y14407D01*
X1859Y14445D01*
X1857Y14491D01*
Y15559D01*
Y15561D01*
Y15566D01*
Y15572D01*
Y15581D01*
X1859Y15606D01*
X1863Y15632D01*
X1868Y15666D01*
X1877Y15697D01*
X1890Y15723D01*
X1906Y15748D01*
X1908Y15750D01*
X1914Y15757D01*
X1926Y15766D01*
X1941Y15774D01*
X1959Y15783D01*
X1981Y15792D01*
X2005Y15799D01*
X2034Y15801D01*
X2048D01*
X2061Y15799D01*
D02*
G37*
G36*
X206121Y11452D02*
X206141Y11436D01*
X206163Y11421D01*
X206187Y11409D01*
X206212Y11399D01*
X206238Y11390D01*
X206265Y11383D01*
X206294Y11379D01*
X206324Y11376D01*
X206356Y11375D01*
Y11121D01*
X206324Y11120D01*
X206294Y11117D01*
X206265Y11112D01*
X206238Y11105D01*
X206212Y11097D01*
X206187Y11086D01*
X206163Y11074D01*
X206141Y11060D01*
X206121Y11044D01*
X206101Y11025D01*
Y11470D01*
X206121Y11452D01*
D02*
G37*
G36*
X150121D02*
X150141Y11436D01*
X150163Y11421D01*
X150187Y11409D01*
X150212Y11399D01*
X150238Y11390D01*
X150265Y11383D01*
X150294Y11379D01*
X150324Y11376D01*
X150356Y11375D01*
Y11121D01*
X150324Y11120D01*
X150294Y11117D01*
X150265Y11112D01*
X150238Y11105D01*
X150212Y11097D01*
X150187Y11086D01*
X150163Y11074D01*
X150141Y11060D01*
X150121Y11044D01*
X150101Y11025D01*
Y11470D01*
X150121Y11452D01*
D02*
G37*
G36*
X94121D02*
X94141Y11436D01*
X94163Y11421D01*
X94187Y11409D01*
X94212Y11399D01*
X94238Y11390D01*
X94265Y11383D01*
X94294Y11379D01*
X94324Y11376D01*
X94356Y11375D01*
Y11121D01*
X94324Y11120D01*
X94294Y11117D01*
X94265Y11112D01*
X94238Y11105D01*
X94212Y11097D01*
X94187Y11086D01*
X94163Y11074D01*
X94141Y11060D01*
X94121Y11044D01*
X94101Y11025D01*
Y11470D01*
X94121Y11452D01*
D02*
G37*
G36*
X38121D02*
X38141Y11436D01*
X38163Y11421D01*
X38187Y11409D01*
X38212Y11399D01*
X38238Y11390D01*
X38265Y11383D01*
X38294Y11379D01*
X38324Y11376D01*
X38356Y11375D01*
Y11121D01*
X38324Y11120D01*
X38294Y11117D01*
X38265Y11112D01*
X38238Y11105D01*
X38212Y11097D01*
X38187Y11086D01*
X38163Y11074D01*
X38141Y11060D01*
X38121Y11044D01*
X38101Y11025D01*
Y11470D01*
X38121Y11452D01*
D02*
G37*
G36*
X212770Y10903D02*
X212734Y10865D01*
X212676Y10796D01*
X212654Y10765D01*
X212637Y10735D01*
X212625Y10707D01*
X212617Y10681D01*
X212615Y10658D01*
X212616Y10636D01*
X212623Y10616D01*
X212440Y11001D01*
X212451Y10986D01*
X212466Y10977D01*
X212485Y10975D01*
X212508Y10979D01*
X212535Y10990D01*
X212566Y11008D01*
X212600Y11033D01*
X212639Y11065D01*
X212728Y11148D01*
X212770Y10903D01*
D02*
G37*
G36*
X156770D02*
X156734Y10865D01*
X156676Y10796D01*
X156654Y10765D01*
X156637Y10735D01*
X156625Y10707D01*
X156617Y10681D01*
X156615Y10658D01*
X156616Y10636D01*
X156623Y10616D01*
X156440Y11001D01*
X156451Y10986D01*
X156466Y10977D01*
X156485Y10975D01*
X156508Y10979D01*
X156535Y10990D01*
X156566Y11008D01*
X156600Y11033D01*
X156639Y11065D01*
X156728Y11148D01*
X156770Y10903D01*
D02*
G37*
G36*
X100770D02*
X100734Y10865D01*
X100676Y10796D01*
X100654Y10765D01*
X100637Y10735D01*
X100625Y10707D01*
X100617Y10681D01*
X100615Y10658D01*
X100616Y10636D01*
X100623Y10616D01*
X100440Y11001D01*
X100451Y10986D01*
X100466Y10977D01*
X100485Y10975D01*
X100508Y10979D01*
X100535Y10990D01*
X100566Y11008D01*
X100600Y11033D01*
X100639Y11065D01*
X100728Y11148D01*
X100770Y10903D01*
D02*
G37*
G36*
X44770D02*
X44734Y10865D01*
X44676Y10796D01*
X44654Y10765D01*
X44637Y10735D01*
X44625Y10707D01*
X44617Y10681D01*
X44615Y10658D01*
X44616Y10636D01*
X44623Y10616D01*
X44440Y11001D01*
X44451Y10986D01*
X44466Y10977D01*
X44485Y10975D01*
X44508Y10979D01*
X44535Y10990D01*
X44566Y11008D01*
X44600Y11033D01*
X44639Y11065D01*
X44728Y11148D01*
X44770Y10903D01*
D02*
G37*
G36*
X214716Y11007D02*
X214791Y10943D01*
X214824Y10920D01*
X214854Y10902D01*
X214881Y10891D01*
X214906Y10885D01*
X214927Y10884D01*
X214946Y10890D01*
X214961Y10901D01*
X214677Y10617D01*
X214688Y10632D01*
X214693Y10651D01*
X214693Y10672D01*
X214687Y10696D01*
X214675Y10724D01*
X214658Y10754D01*
X214634Y10787D01*
X214605Y10823D01*
X214530Y10904D01*
X214674Y11048D01*
X214716Y11007D01*
D02*
G37*
G36*
X158716D02*
X158791Y10943D01*
X158824Y10920D01*
X158854Y10902D01*
X158881Y10891D01*
X158906Y10885D01*
X158927Y10884D01*
X158946Y10890D01*
X158961Y10901D01*
X158677Y10617D01*
X158688Y10632D01*
X158693Y10651D01*
X158693Y10672D01*
X158687Y10696D01*
X158675Y10724D01*
X158658Y10754D01*
X158634Y10787D01*
X158605Y10823D01*
X158530Y10904D01*
X158674Y11048D01*
X158716Y11007D01*
D02*
G37*
G36*
X102716D02*
X102791Y10943D01*
X102824Y10920D01*
X102854Y10902D01*
X102881Y10891D01*
X102906Y10885D01*
X102927Y10884D01*
X102946Y10890D01*
X102961Y10901D01*
X102677Y10617D01*
X102688Y10632D01*
X102693Y10651D01*
X102693Y10672D01*
X102687Y10696D01*
X102675Y10724D01*
X102658Y10754D01*
X102634Y10787D01*
X102605Y10823D01*
X102530Y10904D01*
X102674Y11048D01*
X102716Y11007D01*
D02*
G37*
G36*
X46716D02*
X46791Y10943D01*
X46824Y10920D01*
X46854Y10902D01*
X46881Y10891D01*
X46906Y10885D01*
X46927Y10884D01*
X46946Y10890D01*
X46961Y10901D01*
X46677Y10617D01*
X46688Y10632D01*
X46693Y10651D01*
X46693Y10672D01*
X46687Y10696D01*
X46675Y10724D01*
X46658Y10754D01*
X46634Y10787D01*
X46605Y10823D01*
X46530Y10904D01*
X46674Y11048D01*
X46716Y11007D01*
D02*
G37*
G36*
X210477Y10282D02*
X210474Y10304D01*
X210467Y10324D01*
X210455Y10341D01*
X210437Y10356D01*
X210415Y10369D01*
X210388Y10380D01*
X210356Y10388D01*
X210319Y10394D01*
X210278Y10397D01*
X210231Y10398D01*
Y10652D01*
X210278Y10653D01*
X210319Y10657D01*
X210356Y10663D01*
X210388Y10671D01*
X210415Y10681D01*
X210437Y10694D01*
X210455Y10709D01*
X210467Y10726D01*
X210474Y10746D01*
X210477Y10768D01*
Y10282D01*
D02*
G37*
G36*
X154477D02*
X154474Y10304D01*
X154467Y10324D01*
X154455Y10341D01*
X154437Y10356D01*
X154415Y10369D01*
X154388Y10380D01*
X154356Y10388D01*
X154319Y10394D01*
X154278Y10397D01*
X154231Y10398D01*
Y10652D01*
X154278Y10653D01*
X154319Y10657D01*
X154356Y10663D01*
X154388Y10671D01*
X154415Y10681D01*
X154437Y10694D01*
X154455Y10709D01*
X154467Y10726D01*
X154474Y10746D01*
X154477Y10768D01*
Y10282D01*
D02*
G37*
G36*
X98477D02*
X98474Y10304D01*
X98467Y10324D01*
X98455Y10341D01*
X98437Y10356D01*
X98415Y10369D01*
X98388Y10380D01*
X98356Y10388D01*
X98319Y10394D01*
X98278Y10397D01*
X98231Y10398D01*
Y10652D01*
X98278Y10653D01*
X98319Y10657D01*
X98356Y10663D01*
X98388Y10671D01*
X98415Y10681D01*
X98437Y10694D01*
X98455Y10709D01*
X98467Y10726D01*
X98474Y10746D01*
X98477Y10768D01*
Y10282D01*
D02*
G37*
G36*
X42477D02*
X42474Y10304D01*
X42467Y10324D01*
X42455Y10341D01*
X42437Y10356D01*
X42415Y10369D01*
X42388Y10380D01*
X42356Y10388D01*
X42319Y10394D01*
X42278Y10397D01*
X42231Y10398D01*
Y10652D01*
X42278Y10653D01*
X42319Y10657D01*
X42356Y10663D01*
X42388Y10671D01*
X42415Y10681D01*
X42437Y10694D01*
X42455Y10709D01*
X42467Y10726D01*
X42474Y10746D01*
X42477Y10768D01*
Y10282D01*
D02*
G37*
G36*
X209993Y10287D02*
X210102Y10214D01*
X210231Y10189D01*
X210267D01*
Y9871D01*
X205711D01*
X205672Y9998D01*
X205750Y10050D01*
X205865Y10222D01*
X205906Y10425D01*
X205872Y10597D01*
X205873Y10637D01*
X205949Y10732D01*
X206078Y10757D01*
X206250Y10872D01*
X206263Y10892D01*
X206268Y10895D01*
X206276Y10899D01*
X206284Y10903D01*
X206295Y10906D01*
X206307Y10909D01*
X206319Y10911D01*
X209369D01*
X209993Y10287D01*
D02*
G37*
G36*
X153993D02*
X154102Y10214D01*
X154231Y10189D01*
X154267D01*
Y9871D01*
X149711D01*
X149672Y9998D01*
X149750Y10050D01*
X149865Y10222D01*
X149906Y10425D01*
X149872Y10597D01*
X149873Y10637D01*
X149949Y10732D01*
X150078Y10757D01*
X150250Y10872D01*
X150263Y10892D01*
X150268Y10895D01*
X150276Y10899D01*
X150284Y10903D01*
X150295Y10906D01*
X150307Y10909D01*
X150319Y10911D01*
X153369D01*
X153993Y10287D01*
D02*
G37*
G36*
X97993D02*
X98102Y10214D01*
X98231Y10189D01*
X98267D01*
Y9871D01*
X93711D01*
X93672Y9998D01*
X93750Y10050D01*
X93865Y10222D01*
X93906Y10425D01*
X93872Y10597D01*
X93873Y10637D01*
X93949Y10732D01*
X94078Y10757D01*
X94250Y10872D01*
X94263Y10892D01*
X94268Y10895D01*
X94276Y10899D01*
X94284Y10903D01*
X94295Y10906D01*
X94307Y10909D01*
X94319Y10911D01*
X97369D01*
X97993Y10287D01*
D02*
G37*
G36*
X41993D02*
X42102Y10214D01*
X42231Y10189D01*
X42267D01*
Y9871D01*
X37711D01*
X37672Y9998D01*
X37750Y10050D01*
X37865Y10222D01*
X37906Y10425D01*
X37872Y10597D01*
X37873Y10637D01*
X37949Y10732D01*
X38078Y10757D01*
X38250Y10872D01*
X38263Y10892D01*
X38268Y10895D01*
X38276Y10899D01*
X38284Y10903D01*
X38295Y10906D01*
X38307Y10909D01*
X38319Y10911D01*
X41369D01*
X41993Y10287D01*
D02*
G37*
G36*
X230103Y922D02*
X897D01*
Y7500D01*
X230103D01*
Y922D01*
D02*
G37*
%LPC*%
G36*
X3000Y35291D02*
X2987Y35289D01*
X2975Y35290D01*
X2681Y35261D01*
X2656Y35254D01*
X2631Y35251D01*
X2348Y35166D01*
X2326Y35154D01*
X2301Y35146D01*
X2041Y35007D01*
X2021Y34991D01*
X1998Y34979D01*
X1770Y34791D01*
X1754Y34771D01*
X1734Y34755D01*
X1547Y34527D01*
X1535Y34504D01*
X1518Y34485D01*
X1379Y34224D01*
X1372Y34200D01*
X1360Y34177D01*
X1274Y33894D01*
X1271Y33869D01*
X1264Y33845D01*
X1235Y33551D01*
X1238Y33525D01*
X1235Y33500D01*
X1264Y33206D01*
X1271Y33181D01*
X1274Y33156D01*
X1360Y32873D01*
X1372Y32851D01*
X1379Y32826D01*
X1518Y32566D01*
X1535Y32546D01*
X1547Y32524D01*
X1734Y32295D01*
X1754Y32279D01*
X1770Y32259D01*
X1998Y32072D01*
X2021Y32060D01*
X2041Y32044D01*
X2301Y31904D01*
X2326Y31897D01*
X2348Y31885D01*
X2631Y31799D01*
X2656Y31797D01*
X2681Y31789D01*
X2975Y31760D01*
X2987Y31761D01*
X3000Y31759D01*
X3013Y31761D01*
X3025Y31760D01*
X3319Y31789D01*
X3344Y31797D01*
X3369Y31799D01*
X3652Y31885D01*
X3674Y31897D01*
X3699Y31904D01*
X3959Y32044D01*
X3979Y32060D01*
X4002Y32072D01*
X4230Y32259D01*
X4246Y32279D01*
X4266Y32295D01*
X4453Y32524D01*
X4465Y32546D01*
X4482Y32566D01*
X4621Y32826D01*
X4628Y32851D01*
X4640Y32873D01*
X4726Y33156D01*
X4729Y33181D01*
X4736Y33206D01*
X4765Y33500D01*
X4762Y33525D01*
X4765Y33551D01*
X4736Y33845D01*
X4729Y33869D01*
X4726Y33894D01*
X4640Y34177D01*
X4628Y34200D01*
X4621Y34224D01*
X4482Y34485D01*
X4465Y34504D01*
X4453Y34527D01*
X4266Y34755D01*
X4246Y34771D01*
X4230Y34791D01*
X4002Y34979D01*
X3979Y34991D01*
X3959Y35007D01*
X3699Y35146D01*
X3674Y35154D01*
X3652Y35166D01*
X3369Y35251D01*
X3344Y35254D01*
X3319Y35261D01*
X3025Y35290D01*
X3013Y35289D01*
X3000Y35291D01*
D02*
G37*
G36*
X228000Y35291D02*
X227987Y35289D01*
X227975Y35290D01*
X227681Y35261D01*
X227656Y35254D01*
X227631Y35251D01*
X227348Y35166D01*
X227326Y35153D01*
X227301Y35146D01*
X227041Y35007D01*
X227021Y34991D01*
X226998Y34979D01*
X226770Y34791D01*
X226754Y34771D01*
X226734Y34755D01*
X226547Y34527D01*
X226535Y34504D01*
X226518Y34485D01*
X226379Y34224D01*
X226372Y34200D01*
X226360Y34177D01*
X226274Y33894D01*
X226271Y33869D01*
X226264Y33845D01*
X226235Y33551D01*
X226238Y33525D01*
X226235Y33500D01*
X226264Y33206D01*
X226271Y33181D01*
X226274Y33156D01*
X226360Y32873D01*
X226372Y32851D01*
X226379Y32826D01*
X226518Y32566D01*
X226535Y32546D01*
X226547Y32523D01*
X226734Y32295D01*
X226754Y32279D01*
X226770Y32259D01*
X226998Y32072D01*
X227021Y32060D01*
X227041Y32044D01*
X227301Y31904D01*
X227326Y31897D01*
X227348Y31885D01*
X227631Y31799D01*
X227656Y31797D01*
X227681Y31789D01*
X227975Y31760D01*
X227987Y31761D01*
X228000Y31759D01*
X228013Y31761D01*
X228025Y31760D01*
X228319Y31789D01*
X228344Y31797D01*
X228369Y31799D01*
X228652Y31885D01*
X228674Y31897D01*
X228699Y31904D01*
X228959Y32044D01*
X228979Y32060D01*
X229002Y32072D01*
X229230Y32259D01*
X229246Y32279D01*
X229266Y32295D01*
X229453Y32523D01*
X229465Y32546D01*
X229482Y32566D01*
X229621Y32826D01*
X229628Y32851D01*
X229640Y32873D01*
X229726Y33156D01*
X229729Y33181D01*
X229736Y33206D01*
X229765Y33500D01*
X229762Y33525D01*
X229765Y33551D01*
X229736Y33845D01*
X229729Y33869D01*
X229726Y33894D01*
X229640Y34177D01*
X229628Y34200D01*
X229621Y34224D01*
X229482Y34485D01*
X229465Y34504D01*
X229453Y34527D01*
X229266Y34755D01*
X229246Y34771D01*
X229230Y34791D01*
X229002Y34979D01*
X228979Y34991D01*
X228959Y35007D01*
X228699Y35146D01*
X228674Y35153D01*
X228652Y35166D01*
X228369Y35251D01*
X228344Y35254D01*
X228319Y35261D01*
X228025Y35290D01*
X228013Y35289D01*
X228000Y35291D01*
D02*
G37*
G36*
X218500Y34284D02*
X217500D01*
X217401Y34264D01*
X217317Y34208D01*
X217261Y34124D01*
X217241Y34025D01*
Y33025D01*
X217261Y32926D01*
X217317Y32842D01*
X217401Y32786D01*
X217500Y32766D01*
X218500D01*
X218599Y32786D01*
X218683Y32842D01*
X218739Y32926D01*
X218759Y33025D01*
Y34025D01*
X218739Y34124D01*
X218683Y34208D01*
X218599Y34264D01*
X218500Y34284D01*
D02*
G37*
G36*
X13500D02*
X12500D01*
X12401Y34264D01*
X12317Y34208D01*
X12261Y34124D01*
X12241Y34025D01*
Y33025D01*
X12261Y32926D01*
X12317Y32842D01*
X12401Y32786D01*
X12500Y32766D01*
X13500D01*
X13599Y32786D01*
X13683Y32842D01*
X13739Y32926D01*
X13759Y33025D01*
Y34025D01*
X13739Y34124D01*
X13683Y34208D01*
X13599Y34264D01*
X13500Y34284D01*
D02*
G37*
G36*
X8425Y36211D02*
X8005Y36178D01*
X7595Y36080D01*
X7206Y35919D01*
X6846Y35698D01*
X6526Y35425D01*
X6252Y35104D01*
X6032Y34745D01*
X5870Y34355D01*
X5772Y33945D01*
X5739Y33525D01*
X5772Y33105D01*
X5870Y32695D01*
X6032Y32306D01*
X6252Y31946D01*
X6526Y31626D01*
X6846Y31352D01*
X7206Y31132D01*
X7595Y30971D01*
X8005Y30872D01*
X8425Y30839D01*
X8845Y30872D01*
X9255Y30971D01*
X9644Y31132D01*
X10004Y31352D01*
X10324Y31626D01*
X10598Y31946D01*
X10818Y32306D01*
X10980Y32695D01*
X11078Y33105D01*
X11111Y33525D01*
X11078Y33945D01*
X10980Y34355D01*
X10818Y34745D01*
X10598Y35104D01*
X10324Y35425D01*
X10004Y35698D01*
X9644Y35919D01*
X9255Y36080D01*
X8845Y36178D01*
X8425Y36211D01*
D02*
G37*
G36*
X222575Y36211D02*
X222155Y36178D01*
X221745Y36080D01*
X221356Y35918D01*
X220996Y35698D01*
X220676Y35425D01*
X220402Y35104D01*
X220182Y34745D01*
X220020Y34355D01*
X219922Y33945D01*
X219889Y33525D01*
X219922Y33105D01*
X220020Y32695D01*
X220182Y32306D01*
X220402Y31946D01*
X220676Y31626D01*
X220996Y31352D01*
X221356Y31132D01*
X221745Y30971D01*
X222155Y30872D01*
X222575Y30839D01*
X222995Y30872D01*
X223405Y30971D01*
X223794Y31132D01*
X224154Y31352D01*
X224474Y31626D01*
X224748Y31946D01*
X224968Y32306D01*
X225130Y32695D01*
X225228Y33105D01*
X225261Y33525D01*
X225228Y33945D01*
X225130Y34355D01*
X224968Y34745D01*
X224748Y35104D01*
X224474Y35425D01*
X224154Y35698D01*
X223794Y35918D01*
X223405Y36080D01*
X222995Y36178D01*
X222575Y36211D01*
D02*
G37*
G36*
X211590Y27313D02*
X210713D01*
Y26436D01*
X211590D01*
Y27313D01*
D02*
G37*
G36*
X210459D02*
X209582D01*
Y26436D01*
X210459D01*
Y27313D01*
D02*
G37*
G36*
X212923Y25990D02*
X212720Y25949D01*
X212548Y25834D01*
X212433Y25662D01*
X212392Y25459D01*
X212433Y25256D01*
X212483Y25180D01*
X212415Y25053D01*
X212272D01*
Y24884D01*
X212160Y24824D01*
X212110Y24857D01*
X211907Y24898D01*
X211704Y24857D01*
X211532Y24742D01*
X211417Y24570D01*
X211376Y24367D01*
X211417Y24164D01*
X211532Y23991D01*
X211704Y23876D01*
X211907Y23836D01*
X212110Y23876D01*
X212160Y23909D01*
X212272Y23850D01*
Y22847D01*
X213247D01*
Y20330D01*
X212955Y20038D01*
X212888Y19937D01*
X212864Y19818D01*
Y19363D01*
X212272D01*
Y18668D01*
X207452D01*
X207333Y18644D01*
X207232Y18577D01*
X207169Y18514D01*
X207023D01*
X207018Y18524D01*
X206969Y18641D01*
X207006Y18825D01*
X206965Y19028D01*
X206850Y19201D01*
X206678Y19316D01*
X206475Y19356D01*
X206272Y19316D01*
X206100Y19201D01*
X205985Y19028D01*
X205951Y18861D01*
X205944Y18825D01*
X205826Y18766D01*
X205750Y18781D01*
X205547Y18741D01*
X205375Y18626D01*
X205260Y18453D01*
X205219Y18250D01*
X205260Y18047D01*
X205375Y17875D01*
X205547Y17760D01*
X205750Y17719D01*
X205953Y17760D01*
X206125Y17875D01*
X206137Y17892D01*
X207298D01*
X207417Y17916D01*
X207518Y17983D01*
X207581Y18046D01*
X212272D01*
Y17157D01*
X213647D01*
X213728Y17059D01*
X213719Y17012D01*
X213628Y16877D01*
X213611Y16865D01*
X212816Y16070D01*
X212804Y16052D01*
X212663Y15958D01*
X212497Y15925D01*
X212475Y15929D01*
X212358D01*
X212328Y15923D01*
X211938Y15892D01*
X211529Y15794D01*
X211140Y15633D01*
X210781Y15413D01*
X210484Y15159D01*
X210458Y15142D01*
X210234Y14917D01*
X210223Y14922D01*
X210008Y14950D01*
X209967Y14945D01*
X209934Y15110D01*
X209819Y15282D01*
X209646Y15397D01*
X209443Y15438D01*
X209240Y15397D01*
X209068Y15282D01*
X208953Y15110D01*
X208912Y14907D01*
X208953Y14704D01*
X209068Y14532D01*
X209238Y14418D01*
X209203Y14333D01*
X209175Y14118D01*
X209203Y13902D01*
X209286Y13701D01*
X209419Y13529D01*
X209591Y13397D01*
X209792Y13313D01*
X209827Y13309D01*
X209832Y13274D01*
X209915Y13073D01*
X210047Y12900D01*
X210220Y12768D01*
X210421Y12685D01*
X210636Y12656D01*
X210852Y12685D01*
X211053Y12768D01*
X211225Y12900D01*
X211357Y13073D01*
X211440Y13274D01*
X211469Y13489D01*
X211440Y13705D01*
X211436Y13715D01*
X211661Y13940D01*
X211674Y13960D01*
X211861Y14103D01*
X212101Y14203D01*
X212335Y14233D01*
X212358Y14229D01*
X212475D01*
X212489Y14231D01*
X212901Y14272D01*
X213310Y14396D01*
X213687Y14598D01*
X213920Y14789D01*
X214018Y14868D01*
X214018Y14868D01*
Y14868D01*
X214105Y14955D01*
X214813Y15662D01*
X214821Y15675D01*
X215081Y15991D01*
X215280Y16365D01*
X215403Y16771D01*
X215422Y16957D01*
X219193D01*
Y18957D01*
X219193D01*
Y19976D01*
X219222Y20000D01*
X219425Y20041D01*
X219598Y20156D01*
X219713Y20328D01*
X219753Y20531D01*
X219713Y20735D01*
X219598Y20907D01*
X219425Y21022D01*
X219222Y21062D01*
X219193Y21086D01*
Y21093D01*
X218400D01*
X218382Y21116D01*
X218341Y21319D01*
X218226Y21491D01*
X218054Y21606D01*
X217851Y21646D01*
X217647Y21606D01*
X217475Y21491D01*
X217360Y21319D01*
X217320Y21116D01*
X217301Y21093D01*
X215297D01*
Y19867D01*
X215055Y19835D01*
X214710Y19692D01*
X214414Y19465D01*
X214414Y19465D01*
X214205Y19256D01*
X214133Y19270D01*
X214078Y19303D01*
Y19363D01*
X213486D01*
Y19689D01*
X213778Y19981D01*
X213845Y20082D01*
X213869Y20201D01*
Y22847D01*
X214078D01*
Y25053D01*
X213431D01*
X213363Y25180D01*
X213413Y25256D01*
X213454Y25459D01*
X213413Y25662D01*
X213298Y25834D01*
X213126Y25949D01*
X212923Y25990D01*
D02*
G37*
G36*
X197683Y26930D02*
X197658D01*
X197454Y26889D01*
X197282Y26774D01*
X196637Y26129D01*
X196522Y25957D01*
X196481Y25753D01*
X196481Y25753D01*
Y23088D01*
X196481Y23088D01*
X196522Y22885D01*
X196637Y22712D01*
X197233Y22116D01*
X197196Y21995D01*
X197176Y21991D01*
X197004Y21875D01*
X196889Y21703D01*
X196848Y21500D01*
X196852Y21480D01*
X196775Y21403D01*
X196740Y21394D01*
X196540Y21354D01*
X196368Y21239D01*
X196253Y21067D01*
X196214Y20872D01*
X196172Y20761D01*
X196164Y20753D01*
X195961Y20712D01*
X195788Y20597D01*
X195673Y20425D01*
X195633Y20222D01*
X195673Y20019D01*
X195788Y19846D01*
X195961Y19731D01*
X196164Y19691D01*
X196191Y19696D01*
X196206Y19695D01*
X196222Y19693D01*
X196235Y19689D01*
X196247Y19685D01*
X196257Y19681D01*
X196267Y19676D01*
X196276Y19670D01*
X196276Y19670D01*
X199105Y16841D01*
X199206Y16773D01*
X199325Y16750D01*
X201922D01*
Y16457D01*
X203828D01*
Y17557D01*
X204228D01*
Y18763D01*
X203828D01*
Y19863D01*
X203628D01*
Y20857D01*
X203828D01*
Y22064D01*
X201922D01*
Y21892D01*
X201748D01*
X201747Y21892D01*
X201735Y21894D01*
X201723Y21898D01*
X201710Y21902D01*
X201697Y21908D01*
X201682Y21916D01*
X201670Y21924D01*
X201665Y21931D01*
X201633Y21952D01*
X201630Y21955D01*
X201625Y21957D01*
X201493Y22046D01*
X201290Y22086D01*
X201087Y22046D01*
X200914Y21931D01*
X200799Y21759D01*
X200769Y21605D01*
X200639Y21555D01*
X200174Y22021D01*
X200222Y22138D01*
X200429D01*
X200548Y22162D01*
X200648Y22229D01*
X201017Y22598D01*
X201085Y22699D01*
X201108Y22818D01*
Y22984D01*
X201474Y23349D01*
X201922D01*
Y23057D01*
X203828D01*
Y24351D01*
X203955Y24419D01*
X204008Y24384D01*
X204211Y24344D01*
X204414Y24384D01*
X204586Y24499D01*
X204701Y24672D01*
X204742Y24875D01*
X204701Y25078D01*
X204586Y25250D01*
X204414Y25365D01*
X204211Y25406D01*
X204008Y25365D01*
X203955Y25330D01*
X203828Y25364D01*
Y25364D01*
X203828Y25364D01*
X202173D01*
X202093Y25462D01*
X202110Y25550D01*
X202070Y25753D01*
X201955Y25926D01*
X201783Y26041D01*
X201580Y26081D01*
X201455Y26056D01*
X201328Y26150D01*
Y26453D01*
X199022D01*
Y24647D01*
X201134D01*
X201183Y24530D01*
X200246Y23593D01*
X200175Y23607D01*
X199972Y23566D01*
X199800Y23451D01*
X199678Y23451D01*
X199512Y23562D01*
X199309Y23602D01*
X199105Y23562D01*
X198933Y23447D01*
X198818Y23275D01*
X198778Y23071D01*
X198818Y22868D01*
X198854Y22815D01*
X198794Y22703D01*
X198148D01*
X198031Y22820D01*
X198073Y22957D01*
X198226Y23060D01*
X198341Y23232D01*
X198381Y23435D01*
X198341Y23638D01*
X198226Y23810D01*
X198054Y23925D01*
X197850Y23966D01*
X197670Y23930D01*
X197543Y23997D01*
Y25534D01*
X197982Y25972D01*
X198058Y26023D01*
X198173Y26196D01*
X198214Y26399D01*
X198173Y26602D01*
X198058Y26774D01*
X197886Y26889D01*
X197683Y26930D01*
D02*
G37*
G36*
X220695Y27211D02*
X220380Y27180D01*
X220078Y27089D01*
X219800Y26940D01*
X219556Y26739D01*
X219355Y26495D01*
X219206Y26217D01*
X219115Y25915D01*
X219084Y25600D01*
X219115Y25286D01*
X219206Y24984D01*
X219355Y24705D01*
X219556Y24461D01*
X219800Y24261D01*
X220078Y24112D01*
X220380Y24020D01*
X220695Y23989D01*
X221009Y24020D01*
X221311Y24112D01*
X221590Y24261D01*
X221834Y24461D01*
X222034Y24705D01*
X222183Y24984D01*
X222275Y25286D01*
X222306Y25600D01*
X222275Y25915D01*
X222183Y26217D01*
X222034Y26495D01*
X221834Y26739D01*
X221590Y26940D01*
X221311Y27089D01*
X221009Y27180D01*
X220695Y27211D01*
D02*
G37*
G36*
X227565Y24462D02*
X227362Y24422D01*
X227190Y24307D01*
X227075Y24135D01*
X227034Y23931D01*
X227075Y23728D01*
X227190Y23556D01*
X227362Y23441D01*
X227565Y23400D01*
X227768Y23441D01*
X227940Y23556D01*
X228055Y23728D01*
X228096Y23931D01*
X228055Y24135D01*
X227940Y24307D01*
X227768Y24422D01*
X227565Y24462D01*
D02*
G37*
G36*
X216885Y24288D02*
X216682Y24248D01*
X216510Y24133D01*
X216395Y23960D01*
X216355Y23757D01*
X216395Y23554D01*
X216510Y23382D01*
X216682Y23267D01*
X216885Y23226D01*
X217089Y23267D01*
X217261Y23382D01*
X217376Y23554D01*
X217416Y23757D01*
X217376Y23960D01*
X217261Y24133D01*
X217089Y24248D01*
X216885Y24288D01*
D02*
G37*
G36*
X214821Y24059D02*
X214618Y24019D01*
X214446Y23904D01*
X214331Y23732D01*
X214290Y23529D01*
X214331Y23325D01*
X214446Y23153D01*
X214618Y23038D01*
X214821Y22998D01*
X215024Y23038D01*
X215197Y23153D01*
X215312Y23325D01*
X215352Y23529D01*
X215312Y23732D01*
X215197Y23904D01*
X215024Y24019D01*
X214821Y24059D01*
D02*
G37*
G36*
X227565Y22270D02*
X227362Y22230D01*
X227190Y22114D01*
X227075Y21942D01*
X227034Y21739D01*
X227075Y21536D01*
X227190Y21364D01*
X227362Y21249D01*
X227565Y21208D01*
X227768Y21249D01*
X227940Y21364D01*
X228055Y21536D01*
X228096Y21739D01*
X228055Y21942D01*
X227940Y22114D01*
X227768Y22230D01*
X227565Y22270D01*
D02*
G37*
G36*
X204875Y21956D02*
X204672Y21916D01*
X204500Y21801D01*
X204385Y21628D01*
X204344Y21425D01*
X204385Y21222D01*
X204500Y21050D01*
X204672Y20935D01*
X204875Y20894D01*
X205078Y20935D01*
X205250Y21050D01*
X205365Y21222D01*
X205406Y21425D01*
X205365Y21628D01*
X205250Y21801D01*
X205078Y21916D01*
X204875Y21956D01*
D02*
G37*
G36*
X182793Y19456D02*
X182589Y19416D01*
X182417Y19301D01*
X182302Y19128D01*
X182262Y18925D01*
X182302Y18722D01*
X182417Y18550D01*
X182589Y18435D01*
X182793Y18394D01*
X182996Y18435D01*
X183168Y18550D01*
X183283Y18722D01*
X183324Y18925D01*
X183283Y19128D01*
X183168Y19301D01*
X182996Y19416D01*
X182793Y19456D01*
D02*
G37*
G36*
X196900Y17206D02*
X196697Y17166D01*
X196525Y17051D01*
X196410Y16878D01*
X196369Y16675D01*
X196410Y16472D01*
X196525Y16300D01*
X196697Y16185D01*
X196900Y16144D01*
X197103Y16185D01*
X197275Y16300D01*
X197390Y16472D01*
X197431Y16675D01*
X197390Y16878D01*
X197275Y17051D01*
X197103Y17166D01*
X196900Y17206D01*
D02*
G37*
G36*
X229175Y25656D02*
X228972Y25616D01*
X228800Y25501D01*
X228685Y25328D01*
X228644Y25125D01*
X228685Y24922D01*
X228800Y24750D01*
X228864Y24707D01*
Y21929D01*
X222771Y15836D01*
X220535D01*
X220497Y15963D01*
X220537Y15990D01*
X220652Y16163D01*
X220693Y16366D01*
X220652Y16569D01*
X220537Y16741D01*
X220365Y16856D01*
X220162Y16897D01*
X219959Y16856D01*
X219787Y16741D01*
X219672Y16569D01*
X219631Y16366D01*
X219672Y16163D01*
X219787Y15990D01*
X219827Y15963D01*
X219789Y15836D01*
X218888D01*
Y16289D01*
X215602D01*
Y14762D01*
X218888D01*
Y15215D01*
X222900D01*
X223019Y15238D01*
X223120Y15306D01*
X229395Y21580D01*
X229462Y21681D01*
X229486Y21800D01*
Y24707D01*
X229550Y24750D01*
X229665Y24922D01*
X229706Y25125D01*
X229665Y25328D01*
X229550Y25501D01*
X229378Y25616D01*
X229175Y25656D01*
D02*
G37*
G36*
X202622Y15156D02*
X202419Y15115D01*
X202246Y15000D01*
X202131Y14828D01*
X202091Y14625D01*
X202131Y14422D01*
X202246Y14249D01*
X202419Y14134D01*
X202622Y14094D01*
X202825Y14134D01*
X202997Y14249D01*
X203112Y14422D01*
X203153Y14625D01*
X203112Y14828D01*
X202997Y15000D01*
X202825Y15115D01*
X202622Y15156D01*
D02*
G37*
G36*
X201075Y14431D02*
X200872Y14391D01*
X200700Y14276D01*
X200585Y14104D01*
X200544Y13900D01*
X200585Y13697D01*
X200700Y13525D01*
X200872Y13410D01*
X201075Y13370D01*
X201279Y13410D01*
X201451Y13525D01*
X201566Y13697D01*
X201606Y13900D01*
X201566Y14104D01*
X201451Y14276D01*
X201279Y14391D01*
X201075Y14431D01*
D02*
G37*
G36*
X205874Y13176D02*
X205671Y13135D01*
X205499Y13020D01*
X205384Y12848D01*
X205344Y12645D01*
X205384Y12442D01*
X205499Y12269D01*
X205671Y12154D01*
X205874Y12114D01*
X206078Y12154D01*
X206250Y12269D01*
X206365Y12442D01*
X206405Y12645D01*
X206365Y12848D01*
X206250Y13020D01*
X206078Y13135D01*
X205874Y13176D01*
D02*
G37*
G36*
X200178Y13303D02*
X197872D01*
Y11497D01*
X200178D01*
Y11871D01*
X200290Y11930D01*
X200321Y11910D01*
X200525Y11869D01*
X200728Y11910D01*
X200900Y12025D01*
X201015Y12197D01*
X201055Y12400D01*
X201015Y12603D01*
X200900Y12776D01*
X200728Y12891D01*
X200525Y12931D01*
X200321Y12891D01*
X200290Y12870D01*
X200178Y12930D01*
Y13303D01*
D02*
G37*
G36*
X203622Y11930D02*
X203418Y11889D01*
X203246Y11774D01*
X203131Y11602D01*
X203091Y11399D01*
X203131Y11196D01*
X203246Y11024D01*
X203418Y10908D01*
X203622Y10868D01*
X203825Y10908D01*
X203997Y11024D01*
X204112Y11196D01*
X204152Y11399D01*
X204112Y11602D01*
X203997Y11774D01*
X203825Y11889D01*
X203622Y11930D01*
D02*
G37*
G36*
X220695Y14061D02*
X220380Y14030D01*
X220078Y13939D01*
X219800Y13790D01*
X219556Y13589D01*
X219355Y13345D01*
X219206Y13067D01*
X219115Y12764D01*
X219084Y12450D01*
X219115Y12136D01*
X219206Y11834D01*
X219355Y11555D01*
X219556Y11311D01*
X219800Y11111D01*
X220078Y10962D01*
X220380Y10870D01*
X220695Y10839D01*
X221009Y10870D01*
X221311Y10962D01*
X221590Y11111D01*
X221834Y11311D01*
X222034Y11555D01*
X222183Y11834D01*
X222275Y12136D01*
X222306Y12450D01*
X222275Y12764D01*
X222183Y13067D01*
X222034Y13345D01*
X221834Y13589D01*
X221590Y13790D01*
X221311Y13939D01*
X221009Y14030D01*
X220695Y14061D01*
D02*
G37*
%LPD*%
G36*
X213742Y23052D02*
X213725Y23045D01*
X213709Y23035D01*
X213696Y23021D01*
X213685Y23003D01*
X213676Y22980D01*
X213669Y22954D01*
X213664Y22924D01*
X213661Y22889D01*
X213660Y22850D01*
X213456D01*
X213455Y22889D01*
X213452Y22924D01*
X213447Y22954D01*
X213440Y22980D01*
X213431Y23003D01*
X213420Y23021D01*
X213407Y23035D01*
X213391Y23045D01*
X213374Y23052D01*
X213355Y23054D01*
X213761D01*
X213742Y23052D01*
D02*
G37*
G36*
X215967Y19469D02*
X215965Y19468D01*
X215960Y19464D01*
X215942Y19447D01*
X215818Y19325D01*
X215672Y19466D01*
X215808Y19607D01*
X215967Y19469D01*
D02*
G37*
G36*
X213278Y19321D02*
X213281Y19286D01*
X213286Y19255D01*
X213293Y19228D01*
X213302Y19205D01*
X213313Y19187D01*
X213326Y19172D01*
X213342Y19162D01*
X213359Y19156D01*
X213378Y19154D01*
X212972D01*
X212991Y19156D01*
X213008Y19162D01*
X213024Y19172D01*
X213037Y19187D01*
X213048Y19205D01*
X213057Y19228D01*
X213064Y19255D01*
X213069Y19286D01*
X213072Y19321D01*
X213073Y19360D01*
X213277D01*
X213278Y19321D01*
D02*
G37*
G36*
X215844Y18691D02*
X215932Y18615D01*
X215955Y18598D01*
X215975Y18585D01*
X215993Y18577D01*
X216007Y18573D01*
X216019Y18574D01*
X216027Y18579D01*
X215811Y18365D01*
X215816Y18374D01*
X215817Y18385D01*
X215813Y18400D01*
X215805Y18417D01*
X215792Y18437D01*
X215776Y18461D01*
X215754Y18487D01*
X215699Y18548D01*
X215665Y18583D01*
X215809Y18726D01*
X215844Y18691D01*
D02*
G37*
G36*
X212481Y18154D02*
X212479Y18173D01*
X212473Y18190D01*
X212463Y18206D01*
X212448Y18219D01*
X212430Y18230D01*
X212407Y18239D01*
X212380Y18246D01*
X212349Y18251D01*
X212314Y18254D01*
X212275Y18255D01*
Y18459D01*
X212314Y18460D01*
X212349Y18463D01*
X212380Y18468D01*
X212407Y18475D01*
X212430Y18484D01*
X212448Y18495D01*
X212463Y18508D01*
X212473Y18524D01*
X212479Y18541D01*
X212481Y18560D01*
Y18154D01*
D02*
G37*
G36*
X210489Y14168D02*
X210463Y14149D01*
X210414Y14109D01*
X210391Y14088D01*
X210348Y14044D01*
X210329Y14021D01*
X210293Y13974D01*
X210277Y13949D01*
X210181Y14384D01*
X210210Y14366D01*
X210239Y14353D01*
X210266Y14343D01*
X210293Y14338D01*
X210319Y14336D01*
X210344Y14338D01*
X210369Y14345D01*
X210392Y14355D01*
X210415Y14369D01*
X210437Y14387D01*
X210489Y14168D01*
D02*
G37*
G36*
X210905Y13919D02*
X210887Y13897D01*
X210873Y13874D01*
X210863Y13850D01*
X210857Y13826D01*
X210855Y13801D01*
X210856Y13775D01*
X210862Y13748D01*
X210871Y13720D01*
X210885Y13692D01*
X210902Y13663D01*
X210468Y13758D01*
X210492Y13774D01*
X210540Y13810D01*
X210563Y13829D01*
X210606Y13872D01*
X210627Y13895D01*
X210668Y13944D01*
X210687Y13971D01*
X210905Y13919D01*
D02*
G37*
G36*
X201121Y25780D02*
X201129Y25759D01*
X201142Y25739D01*
X201160Y25723D01*
X201183Y25709D01*
X201211Y25698D01*
X201223Y25695D01*
X201242Y25701D01*
X201267Y25712D01*
X201291Y25724D01*
X201313Y25738D01*
X201333Y25754D01*
X201353Y25772D01*
Y25678D01*
X201376Y25677D01*
Y25423D01*
X201353Y25423D01*
Y25328D01*
X201333Y25346D01*
X201313Y25362D01*
X201291Y25377D01*
X201267Y25389D01*
X201242Y25399D01*
X201223Y25406D01*
X201211Y25403D01*
X201183Y25391D01*
X201160Y25378D01*
X201142Y25361D01*
X201129Y25342D01*
X201121Y25320D01*
X201119Y25296D01*
Y25423D01*
X201098Y25423D01*
Y25677D01*
X201119Y25678D01*
Y25804D01*
X201121Y25780D01*
D02*
G37*
G36*
X202131Y23457D02*
X202129Y23476D01*
X202123Y23494D01*
X202113Y23509D01*
X202098Y23522D01*
X202080Y23533D01*
X202057Y23542D01*
X202030Y23549D01*
X201999Y23555D01*
X201964Y23558D01*
X201925Y23559D01*
Y23762D01*
X201964Y23763D01*
X201999Y23766D01*
X202030Y23771D01*
X202057Y23778D01*
X202080Y23787D01*
X202098Y23798D01*
X202113Y23812D01*
X202123Y23827D01*
X202129Y23844D01*
X202131Y23863D01*
Y23457D01*
D02*
G37*
G36*
X199622Y23006D02*
X199622Y22975D01*
X199625Y22945D01*
X199630Y22917D01*
X199638Y22889D01*
X199648Y22863D01*
X199661Y22838D01*
X199676Y22813D01*
X199693Y22791D01*
X199713Y22769D01*
X199555Y22639D01*
X199534Y22659D01*
X199512Y22676D01*
X199488Y22692D01*
X199463Y22707D01*
X199436Y22719D01*
X199408Y22730D01*
X199379Y22739D01*
X199348Y22746D01*
X199316Y22751D01*
X199282Y22755D01*
X199624Y23039D01*
X199622Y23006D01*
D02*
G37*
G36*
X202131Y21378D02*
X202129Y21397D01*
X202123Y21414D01*
X202113Y21429D01*
X202098Y21443D01*
X202080Y21454D01*
X202057Y21463D01*
X202030Y21470D01*
X201999Y21475D01*
X201964Y21478D01*
X201925Y21479D01*
Y21682D01*
X201964Y21683D01*
X201999Y21686D01*
X202030Y21692D01*
X202057Y21699D01*
X202080Y21708D01*
X202098Y21719D01*
X202113Y21732D01*
X202123Y21747D01*
X202129Y21765D01*
X202131Y21784D01*
Y21378D01*
D02*
G37*
G36*
X201524Y21774D02*
X201550Y21755D01*
X201577Y21738D01*
X201604Y21723D01*
X201631Y21711D01*
X201659Y21700D01*
X201686Y21693D01*
X201714Y21687D01*
X201743Y21684D01*
X201771Y21682D01*
X201789Y21479D01*
X201759Y21478D01*
X201731Y21474D01*
X201703Y21468D01*
X201676Y21459D01*
X201650Y21447D01*
X201625Y21433D01*
X201601Y21417D01*
X201578Y21398D01*
X201555Y21376D01*
X201534Y21352D01*
X201498Y21795D01*
X201524Y21774D01*
D02*
G37*
G36*
X196482Y20185D02*
X196485Y20154D01*
X196490Y20123D01*
X196497Y20094D01*
X196506Y20066D01*
X196517Y20039D01*
X196530Y20014D01*
X196546Y19990D01*
X196563Y19968D01*
X196583Y19946D01*
X196439Y19803D01*
X196418Y19822D01*
X196395Y19840D01*
X196371Y19855D01*
X196346Y19868D01*
X196319Y19880D01*
X196292Y19889D01*
X196262Y19896D01*
X196232Y19901D01*
X196200Y19904D01*
X196167Y19904D01*
X196481Y20219D01*
X196482Y20185D01*
D02*
G37*
G36*
X201570Y17940D02*
X201671Y17873D01*
X201790Y17849D01*
X202322D01*
Y17663D01*
X201922D01*
Y17371D01*
X199454D01*
X196715Y20110D01*
X196715Y20110D01*
X196709Y20119D01*
X196704Y20128D01*
X196700Y20139D01*
X196696Y20150D01*
X196693Y20164D01*
X196690Y20179D01*
X196689Y20194D01*
X196693Y20213D01*
X196735Y20325D01*
X196743Y20333D01*
X196946Y20373D01*
X197118Y20488D01*
X197162Y20553D01*
X198958D01*
X201570Y17940D01*
D02*
G37*
G36*
X202131Y16857D02*
X202129Y16876D01*
X202123Y16894D01*
X202113Y16909D01*
X202098Y16922D01*
X202080Y16933D01*
X202057Y16942D01*
X202030Y16950D01*
X201999Y16955D01*
X201964Y16958D01*
X201925Y16959D01*
Y17162D01*
X201964Y17163D01*
X201999Y17166D01*
X202030Y17171D01*
X202057Y17178D01*
X202080Y17187D01*
X202098Y17198D01*
X202113Y17212D01*
X202123Y17227D01*
X202129Y17244D01*
X202131Y17263D01*
Y16857D01*
D02*
G37*
G36*
X199971Y12630D02*
X199979Y12608D01*
X199992Y12589D01*
X200010Y12573D01*
X200033Y12559D01*
X200061Y12547D01*
X200095Y12539D01*
X200123Y12534D01*
X200134Y12536D01*
X200161Y12542D01*
X200187Y12551D01*
X200212Y12561D01*
X200236Y12574D01*
X200258Y12588D01*
X200278Y12604D01*
X200298Y12622D01*
Y12178D01*
X200278Y12196D01*
X200258Y12212D01*
X200236Y12226D01*
X200212Y12239D01*
X200187Y12249D01*
X200161Y12258D01*
X200134Y12265D01*
X200123Y12266D01*
X200095Y12262D01*
X200061Y12253D01*
X200033Y12241D01*
X200010Y12227D01*
X199992Y12211D01*
X199979Y12192D01*
X199971Y12170D01*
X199969Y12146D01*
Y12654D01*
X199971Y12630D01*
D02*
G37*
%LPC*%
G36*
X155590Y27313D02*
X154713D01*
Y26436D01*
X155590D01*
Y27313D01*
D02*
G37*
G36*
X154459D02*
X153582D01*
Y26436D01*
X154459D01*
Y27313D01*
D02*
G37*
G36*
X156923Y25990D02*
X156720Y25949D01*
X156548Y25834D01*
X156433Y25662D01*
X156392Y25459D01*
X156433Y25256D01*
X156483Y25180D01*
X156415Y25053D01*
X156272D01*
Y24884D01*
X156160Y24824D01*
X156110Y24857D01*
X155907Y24898D01*
X155704Y24857D01*
X155532Y24742D01*
X155417Y24570D01*
X155376Y24367D01*
X155417Y24164D01*
X155532Y23991D01*
X155704Y23876D01*
X155907Y23836D01*
X156110Y23876D01*
X156160Y23909D01*
X156272Y23850D01*
Y22847D01*
X157247D01*
Y20330D01*
X156955Y20038D01*
X156888Y19937D01*
X156864Y19818D01*
Y19363D01*
X156272D01*
Y18668D01*
X151452D01*
X151333Y18644D01*
X151232Y18577D01*
X151169Y18514D01*
X151023D01*
X151018Y18524D01*
X150969Y18641D01*
X151006Y18825D01*
X150965Y19028D01*
X150850Y19201D01*
X150678Y19316D01*
X150475Y19356D01*
X150272Y19316D01*
X150100Y19201D01*
X149985Y19028D01*
X149951Y18861D01*
X149944Y18825D01*
X149826Y18766D01*
X149750Y18781D01*
X149547Y18741D01*
X149375Y18626D01*
X149260Y18453D01*
X149219Y18250D01*
X149260Y18047D01*
X149375Y17875D01*
X149547Y17760D01*
X149750Y17719D01*
X149953Y17760D01*
X150125Y17875D01*
X150137Y17892D01*
X151298D01*
X151417Y17916D01*
X151518Y17983D01*
X151581Y18046D01*
X156272D01*
Y17157D01*
X157647D01*
X157728Y17059D01*
X157719Y17012D01*
X157628Y16877D01*
X157611Y16865D01*
X156816Y16070D01*
X156804Y16052D01*
X156663Y15958D01*
X156497Y15925D01*
X156475Y15929D01*
X156358D01*
X156328Y15923D01*
X155938Y15892D01*
X155529Y15794D01*
X155140Y15633D01*
X154781Y15413D01*
X154484Y15159D01*
X154458Y15142D01*
X154234Y14917D01*
X154223Y14922D01*
X154008Y14950D01*
X153967Y14945D01*
X153934Y15110D01*
X153819Y15282D01*
X153646Y15397D01*
X153443Y15438D01*
X153240Y15397D01*
X153068Y15282D01*
X152953Y15110D01*
X152912Y14907D01*
X152953Y14704D01*
X153068Y14532D01*
X153238Y14418D01*
X153203Y14333D01*
X153175Y14118D01*
X153203Y13902D01*
X153286Y13701D01*
X153419Y13529D01*
X153591Y13397D01*
X153792Y13313D01*
X153827Y13309D01*
X153832Y13274D01*
X153915Y13073D01*
X154047Y12900D01*
X154220Y12768D01*
X154421Y12685D01*
X154636Y12656D01*
X154852Y12685D01*
X155053Y12768D01*
X155225Y12900D01*
X155357Y13073D01*
X155440Y13274D01*
X155469Y13489D01*
X155440Y13705D01*
X155436Y13715D01*
X155661Y13940D01*
X155674Y13960D01*
X155861Y14103D01*
X156101Y14203D01*
X156335Y14233D01*
X156358Y14229D01*
X156475D01*
X156489Y14231D01*
X156901Y14272D01*
X157310Y14396D01*
X157687Y14598D01*
X157920Y14789D01*
X158018Y14868D01*
X158018Y14868D01*
Y14868D01*
X158105Y14955D01*
X158813Y15662D01*
X158821Y15675D01*
X159081Y15991D01*
X159280Y16365D01*
X159403Y16771D01*
X159422Y16957D01*
X163193D01*
Y18957D01*
X163193D01*
Y19976D01*
X163222Y20000D01*
X163425Y20041D01*
X163598Y20156D01*
X163713Y20328D01*
X163753Y20531D01*
X163713Y20735D01*
X163598Y20907D01*
X163425Y21022D01*
X163222Y21062D01*
X163193Y21086D01*
Y21093D01*
X162400D01*
X162382Y21116D01*
X162341Y21319D01*
X162226Y21491D01*
X162054Y21606D01*
X161851Y21646D01*
X161647Y21606D01*
X161475Y21491D01*
X161360Y21319D01*
X161320Y21116D01*
X161301Y21093D01*
X159297D01*
Y19867D01*
X159055Y19835D01*
X158710Y19692D01*
X158414Y19465D01*
X158414Y19465D01*
X158205Y19256D01*
X158133Y19270D01*
X158078Y19303D01*
Y19363D01*
X157486D01*
Y19689D01*
X157778Y19981D01*
X157845Y20082D01*
X157869Y20201D01*
Y22847D01*
X158078D01*
Y25053D01*
X157431D01*
X157363Y25180D01*
X157413Y25256D01*
X157454Y25459D01*
X157413Y25662D01*
X157298Y25834D01*
X157126Y25949D01*
X156923Y25990D01*
D02*
G37*
G36*
X141683Y26930D02*
X141658D01*
X141454Y26889D01*
X141282Y26774D01*
X140637Y26129D01*
X140522Y25957D01*
X140481Y25753D01*
X140481Y25753D01*
Y23088D01*
X140481Y23088D01*
X140522Y22885D01*
X140637Y22712D01*
X141233Y22116D01*
X141196Y21995D01*
X141176Y21991D01*
X141004Y21875D01*
X140889Y21703D01*
X140848Y21500D01*
X140852Y21480D01*
X140775Y21403D01*
X140740Y21394D01*
X140540Y21354D01*
X140368Y21239D01*
X140253Y21067D01*
X140214Y20872D01*
X140172Y20761D01*
X140164Y20753D01*
X139961Y20712D01*
X139788Y20597D01*
X139673Y20425D01*
X139633Y20222D01*
X139673Y20019D01*
X139788Y19846D01*
X139961Y19731D01*
X140164Y19691D01*
X140191Y19696D01*
X140206Y19695D01*
X140222Y19693D01*
X140235Y19689D01*
X140247Y19685D01*
X140257Y19681D01*
X140267Y19676D01*
X140276Y19670D01*
X140276Y19670D01*
X143105Y16841D01*
X143206Y16773D01*
X143325Y16750D01*
X145922D01*
Y16457D01*
X147828D01*
Y17557D01*
X148228D01*
Y18763D01*
X147828D01*
Y19863D01*
X147628D01*
Y20857D01*
X147828D01*
Y22064D01*
X145922D01*
Y21892D01*
X145748D01*
X145747Y21892D01*
X145735Y21894D01*
X145723Y21898D01*
X145710Y21902D01*
X145697Y21908D01*
X145682Y21916D01*
X145670Y21924D01*
X145665Y21931D01*
X145633Y21952D01*
X145630Y21955D01*
X145625Y21957D01*
X145493Y22046D01*
X145290Y22086D01*
X145087Y22046D01*
X144914Y21931D01*
X144799Y21759D01*
X144769Y21605D01*
X144639Y21555D01*
X144174Y22021D01*
X144222Y22138D01*
X144429D01*
X144548Y22162D01*
X144648Y22229D01*
X145017Y22598D01*
X145085Y22699D01*
X145108Y22818D01*
Y22984D01*
X145474Y23349D01*
X145922D01*
Y23057D01*
X147828D01*
Y24351D01*
X147955Y24419D01*
X148008Y24384D01*
X148211Y24344D01*
X148414Y24384D01*
X148586Y24499D01*
X148701Y24672D01*
X148742Y24875D01*
X148701Y25078D01*
X148586Y25250D01*
X148414Y25365D01*
X148211Y25406D01*
X148008Y25365D01*
X147955Y25330D01*
X147828Y25364D01*
Y25364D01*
X147828Y25364D01*
X146173D01*
X146093Y25462D01*
X146110Y25550D01*
X146070Y25753D01*
X145955Y25926D01*
X145783Y26041D01*
X145580Y26081D01*
X145455Y26056D01*
X145328Y26150D01*
Y26453D01*
X143022D01*
Y24647D01*
X145134D01*
X145183Y24530D01*
X144246Y23593D01*
X144175Y23607D01*
X143972Y23566D01*
X143800Y23451D01*
X143678Y23451D01*
X143512Y23562D01*
X143309Y23602D01*
X143105Y23562D01*
X142933Y23447D01*
X142818Y23275D01*
X142778Y23071D01*
X142818Y22868D01*
X142854Y22815D01*
X142794Y22703D01*
X142148D01*
X142031Y22820D01*
X142073Y22957D01*
X142226Y23060D01*
X142341Y23232D01*
X142381Y23435D01*
X142341Y23638D01*
X142226Y23810D01*
X142054Y23925D01*
X141850Y23966D01*
X141670Y23930D01*
X141543Y23997D01*
Y25534D01*
X141982Y25972D01*
X142058Y26023D01*
X142173Y26196D01*
X142214Y26399D01*
X142173Y26602D01*
X142058Y26774D01*
X141886Y26889D01*
X141683Y26930D01*
D02*
G37*
G36*
X164695Y27211D02*
X164380Y27180D01*
X164078Y27089D01*
X163800Y26940D01*
X163556Y26739D01*
X163355Y26495D01*
X163206Y26217D01*
X163115Y25915D01*
X163084Y25600D01*
X163115Y25286D01*
X163206Y24984D01*
X163355Y24705D01*
X163556Y24461D01*
X163800Y24261D01*
X164078Y24112D01*
X164380Y24020D01*
X164695Y23989D01*
X165009Y24020D01*
X165311Y24112D01*
X165590Y24261D01*
X165834Y24461D01*
X166034Y24705D01*
X166183Y24984D01*
X166275Y25286D01*
X166306Y25600D01*
X166275Y25915D01*
X166183Y26217D01*
X166034Y26495D01*
X165834Y26739D01*
X165590Y26940D01*
X165311Y27089D01*
X165009Y27180D01*
X164695Y27211D01*
D02*
G37*
G36*
X171565Y24462D02*
X171362Y24422D01*
X171190Y24307D01*
X171075Y24135D01*
X171034Y23931D01*
X171075Y23728D01*
X171190Y23556D01*
X171362Y23441D01*
X171565Y23400D01*
X171768Y23441D01*
X171940Y23556D01*
X172055Y23728D01*
X172096Y23931D01*
X172055Y24135D01*
X171940Y24307D01*
X171768Y24422D01*
X171565Y24462D01*
D02*
G37*
G36*
X160885Y24288D02*
X160682Y24248D01*
X160510Y24133D01*
X160395Y23960D01*
X160355Y23757D01*
X160395Y23554D01*
X160510Y23382D01*
X160682Y23267D01*
X160885Y23226D01*
X161089Y23267D01*
X161261Y23382D01*
X161376Y23554D01*
X161416Y23757D01*
X161376Y23960D01*
X161261Y24133D01*
X161089Y24248D01*
X160885Y24288D01*
D02*
G37*
G36*
X158821Y24059D02*
X158618Y24019D01*
X158446Y23904D01*
X158331Y23732D01*
X158290Y23529D01*
X158331Y23325D01*
X158446Y23153D01*
X158618Y23038D01*
X158821Y22998D01*
X159024Y23038D01*
X159197Y23153D01*
X159312Y23325D01*
X159352Y23529D01*
X159312Y23732D01*
X159197Y23904D01*
X159024Y24019D01*
X158821Y24059D01*
D02*
G37*
G36*
X171565Y22270D02*
X171362Y22230D01*
X171190Y22114D01*
X171075Y21942D01*
X171034Y21739D01*
X171075Y21536D01*
X171190Y21364D01*
X171362Y21249D01*
X171565Y21208D01*
X171768Y21249D01*
X171940Y21364D01*
X172055Y21536D01*
X172096Y21739D01*
X172055Y21942D01*
X171940Y22114D01*
X171768Y22230D01*
X171565Y22270D01*
D02*
G37*
G36*
X148875Y21956D02*
X148672Y21916D01*
X148500Y21801D01*
X148385Y21628D01*
X148344Y21425D01*
X148385Y21222D01*
X148500Y21050D01*
X148672Y20935D01*
X148875Y20894D01*
X149078Y20935D01*
X149250Y21050D01*
X149365Y21222D01*
X149406Y21425D01*
X149365Y21628D01*
X149250Y21801D01*
X149078Y21916D01*
X148875Y21956D01*
D02*
G37*
G36*
X126793Y19456D02*
X126589Y19416D01*
X126417Y19301D01*
X126302Y19128D01*
X126262Y18925D01*
X126302Y18722D01*
X126417Y18550D01*
X126589Y18435D01*
X126793Y18394D01*
X126996Y18435D01*
X127168Y18550D01*
X127283Y18722D01*
X127324Y18925D01*
X127283Y19128D01*
X127168Y19301D01*
X126996Y19416D01*
X126793Y19456D01*
D02*
G37*
G36*
X140900Y17206D02*
X140697Y17166D01*
X140525Y17051D01*
X140410Y16878D01*
X140369Y16675D01*
X140410Y16472D01*
X140525Y16300D01*
X140697Y16185D01*
X140900Y16144D01*
X141103Y16185D01*
X141275Y16300D01*
X141390Y16472D01*
X141431Y16675D01*
X141390Y16878D01*
X141275Y17051D01*
X141103Y17166D01*
X140900Y17206D01*
D02*
G37*
G36*
X173175Y25656D02*
X172972Y25616D01*
X172800Y25501D01*
X172685Y25328D01*
X172644Y25125D01*
X172685Y24922D01*
X172800Y24750D01*
X172864Y24707D01*
Y21929D01*
X166771Y15836D01*
X164535D01*
X164497Y15963D01*
X164537Y15990D01*
X164652Y16163D01*
X164693Y16366D01*
X164652Y16569D01*
X164537Y16741D01*
X164365Y16856D01*
X164162Y16897D01*
X163959Y16856D01*
X163787Y16741D01*
X163672Y16569D01*
X163631Y16366D01*
X163672Y16163D01*
X163787Y15990D01*
X163827Y15963D01*
X163789Y15836D01*
X162888D01*
Y16289D01*
X159602D01*
Y14762D01*
X162888D01*
Y15215D01*
X166900D01*
X167019Y15238D01*
X167120Y15306D01*
X173395Y21580D01*
X173462Y21681D01*
X173486Y21800D01*
Y24707D01*
X173550Y24750D01*
X173665Y24922D01*
X173706Y25125D01*
X173665Y25328D01*
X173550Y25501D01*
X173378Y25616D01*
X173175Y25656D01*
D02*
G37*
G36*
X146622Y15156D02*
X146419Y15115D01*
X146246Y15000D01*
X146131Y14828D01*
X146091Y14625D01*
X146131Y14422D01*
X146246Y14249D01*
X146419Y14134D01*
X146622Y14094D01*
X146825Y14134D01*
X146997Y14249D01*
X147112Y14422D01*
X147153Y14625D01*
X147112Y14828D01*
X146997Y15000D01*
X146825Y15115D01*
X146622Y15156D01*
D02*
G37*
G36*
X145075Y14431D02*
X144872Y14391D01*
X144700Y14276D01*
X144585Y14104D01*
X144544Y13900D01*
X144585Y13697D01*
X144700Y13525D01*
X144872Y13410D01*
X145075Y13370D01*
X145279Y13410D01*
X145451Y13525D01*
X145566Y13697D01*
X145606Y13900D01*
X145566Y14104D01*
X145451Y14276D01*
X145279Y14391D01*
X145075Y14431D01*
D02*
G37*
G36*
X149874Y13176D02*
X149671Y13135D01*
X149499Y13020D01*
X149384Y12848D01*
X149344Y12645D01*
X149384Y12442D01*
X149499Y12269D01*
X149671Y12154D01*
X149874Y12114D01*
X150078Y12154D01*
X150250Y12269D01*
X150365Y12442D01*
X150405Y12645D01*
X150365Y12848D01*
X150250Y13020D01*
X150078Y13135D01*
X149874Y13176D01*
D02*
G37*
G36*
X144178Y13303D02*
X141872D01*
Y11497D01*
X144178D01*
Y11871D01*
X144290Y11930D01*
X144321Y11910D01*
X144525Y11869D01*
X144728Y11910D01*
X144900Y12025D01*
X145015Y12197D01*
X145055Y12400D01*
X145015Y12603D01*
X144900Y12776D01*
X144728Y12891D01*
X144525Y12931D01*
X144321Y12891D01*
X144290Y12870D01*
X144178Y12930D01*
Y13303D01*
D02*
G37*
G36*
X147622Y11930D02*
X147418Y11889D01*
X147246Y11774D01*
X147131Y11602D01*
X147091Y11399D01*
X147131Y11196D01*
X147246Y11024D01*
X147418Y10908D01*
X147622Y10868D01*
X147825Y10908D01*
X147997Y11024D01*
X148112Y11196D01*
X148152Y11399D01*
X148112Y11602D01*
X147997Y11774D01*
X147825Y11889D01*
X147622Y11930D01*
D02*
G37*
G36*
X164695Y14061D02*
X164380Y14030D01*
X164078Y13939D01*
X163800Y13790D01*
X163556Y13589D01*
X163355Y13345D01*
X163206Y13067D01*
X163115Y12764D01*
X163084Y12450D01*
X163115Y12136D01*
X163206Y11834D01*
X163355Y11555D01*
X163556Y11311D01*
X163800Y11111D01*
X164078Y10962D01*
X164380Y10870D01*
X164695Y10839D01*
X165009Y10870D01*
X165311Y10962D01*
X165590Y11111D01*
X165834Y11311D01*
X166034Y11555D01*
X166183Y11834D01*
X166275Y12136D01*
X166306Y12450D01*
X166275Y12764D01*
X166183Y13067D01*
X166034Y13345D01*
X165834Y13589D01*
X165590Y13790D01*
X165311Y13939D01*
X165009Y14030D01*
X164695Y14061D01*
D02*
G37*
%LPD*%
G36*
X157742Y23052D02*
X157725Y23045D01*
X157709Y23035D01*
X157696Y23021D01*
X157685Y23003D01*
X157676Y22980D01*
X157669Y22954D01*
X157664Y22924D01*
X157661Y22889D01*
X157660Y22850D01*
X157456D01*
X157455Y22889D01*
X157452Y22924D01*
X157447Y22954D01*
X157440Y22980D01*
X157431Y23003D01*
X157420Y23021D01*
X157407Y23035D01*
X157391Y23045D01*
X157374Y23052D01*
X157355Y23054D01*
X157761D01*
X157742Y23052D01*
D02*
G37*
G36*
X159967Y19469D02*
X159965Y19468D01*
X159960Y19464D01*
X159942Y19447D01*
X159818Y19325D01*
X159672Y19466D01*
X159808Y19607D01*
X159967Y19469D01*
D02*
G37*
G36*
X157278Y19321D02*
X157281Y19286D01*
X157286Y19255D01*
X157293Y19228D01*
X157302Y19205D01*
X157313Y19187D01*
X157326Y19172D01*
X157342Y19162D01*
X157359Y19156D01*
X157378Y19154D01*
X156972D01*
X156991Y19156D01*
X157008Y19162D01*
X157024Y19172D01*
X157037Y19187D01*
X157048Y19205D01*
X157057Y19228D01*
X157064Y19255D01*
X157069Y19286D01*
X157072Y19321D01*
X157073Y19360D01*
X157277D01*
X157278Y19321D01*
D02*
G37*
G36*
X159844Y18691D02*
X159932Y18615D01*
X159955Y18598D01*
X159975Y18585D01*
X159993Y18577D01*
X160007Y18573D01*
X160019Y18574D01*
X160027Y18579D01*
X159811Y18365D01*
X159816Y18374D01*
X159817Y18385D01*
X159813Y18400D01*
X159805Y18417D01*
X159792Y18437D01*
X159776Y18461D01*
X159754Y18487D01*
X159699Y18548D01*
X159665Y18583D01*
X159809Y18726D01*
X159844Y18691D01*
D02*
G37*
G36*
X156481Y18154D02*
X156479Y18173D01*
X156473Y18190D01*
X156463Y18206D01*
X156448Y18219D01*
X156430Y18230D01*
X156407Y18239D01*
X156380Y18246D01*
X156349Y18251D01*
X156314Y18254D01*
X156275Y18255D01*
Y18459D01*
X156314Y18460D01*
X156349Y18463D01*
X156380Y18468D01*
X156407Y18475D01*
X156430Y18484D01*
X156448Y18495D01*
X156463Y18508D01*
X156473Y18524D01*
X156479Y18541D01*
X156481Y18560D01*
Y18154D01*
D02*
G37*
G36*
X154489Y14168D02*
X154463Y14149D01*
X154414Y14109D01*
X154391Y14088D01*
X154348Y14044D01*
X154329Y14021D01*
X154293Y13974D01*
X154277Y13949D01*
X154181Y14384D01*
X154210Y14366D01*
X154239Y14353D01*
X154266Y14343D01*
X154293Y14338D01*
X154319Y14336D01*
X154344Y14338D01*
X154369Y14345D01*
X154392Y14355D01*
X154415Y14369D01*
X154437Y14387D01*
X154489Y14168D01*
D02*
G37*
G36*
X154905Y13919D02*
X154887Y13897D01*
X154873Y13874D01*
X154863Y13850D01*
X154857Y13826D01*
X154855Y13801D01*
X154856Y13775D01*
X154862Y13748D01*
X154871Y13720D01*
X154885Y13692D01*
X154902Y13663D01*
X154468Y13758D01*
X154492Y13774D01*
X154540Y13810D01*
X154563Y13829D01*
X154606Y13872D01*
X154627Y13895D01*
X154668Y13944D01*
X154687Y13971D01*
X154905Y13919D01*
D02*
G37*
G36*
X145121Y25780D02*
X145129Y25759D01*
X145142Y25739D01*
X145160Y25723D01*
X145183Y25709D01*
X145211Y25698D01*
X145223Y25695D01*
X145242Y25701D01*
X145267Y25712D01*
X145291Y25724D01*
X145313Y25738D01*
X145333Y25754D01*
X145353Y25772D01*
Y25678D01*
X145376Y25677D01*
Y25423D01*
X145353Y25423D01*
Y25328D01*
X145333Y25346D01*
X145313Y25362D01*
X145291Y25377D01*
X145267Y25389D01*
X145242Y25399D01*
X145223Y25406D01*
X145211Y25403D01*
X145183Y25391D01*
X145160Y25378D01*
X145142Y25361D01*
X145129Y25342D01*
X145121Y25320D01*
X145119Y25296D01*
Y25423D01*
X145098Y25423D01*
Y25677D01*
X145119Y25678D01*
Y25804D01*
X145121Y25780D01*
D02*
G37*
G36*
X146131Y23457D02*
X146129Y23476D01*
X146123Y23494D01*
X146113Y23509D01*
X146098Y23522D01*
X146080Y23533D01*
X146057Y23542D01*
X146030Y23549D01*
X145999Y23555D01*
X145964Y23558D01*
X145925Y23559D01*
Y23762D01*
X145964Y23763D01*
X145999Y23766D01*
X146030Y23771D01*
X146057Y23778D01*
X146080Y23787D01*
X146098Y23798D01*
X146113Y23812D01*
X146123Y23827D01*
X146129Y23844D01*
X146131Y23863D01*
Y23457D01*
D02*
G37*
G36*
X143622Y23006D02*
X143622Y22975D01*
X143625Y22945D01*
X143630Y22917D01*
X143638Y22889D01*
X143648Y22863D01*
X143661Y22838D01*
X143676Y22813D01*
X143693Y22791D01*
X143713Y22769D01*
X143555Y22639D01*
X143534Y22659D01*
X143512Y22676D01*
X143488Y22692D01*
X143463Y22707D01*
X143436Y22719D01*
X143408Y22730D01*
X143379Y22739D01*
X143348Y22746D01*
X143316Y22751D01*
X143282Y22755D01*
X143624Y23039D01*
X143622Y23006D01*
D02*
G37*
G36*
X146131Y21378D02*
X146129Y21397D01*
X146123Y21414D01*
X146113Y21429D01*
X146098Y21443D01*
X146080Y21454D01*
X146057Y21463D01*
X146030Y21470D01*
X145999Y21475D01*
X145964Y21478D01*
X145925Y21479D01*
Y21682D01*
X145964Y21683D01*
X145999Y21686D01*
X146030Y21692D01*
X146057Y21699D01*
X146080Y21708D01*
X146098Y21719D01*
X146113Y21732D01*
X146123Y21747D01*
X146129Y21765D01*
X146131Y21784D01*
Y21378D01*
D02*
G37*
G36*
X145524Y21774D02*
X145550Y21755D01*
X145577Y21738D01*
X145604Y21723D01*
X145631Y21711D01*
X145659Y21700D01*
X145686Y21693D01*
X145714Y21687D01*
X145743Y21684D01*
X145771Y21682D01*
X145789Y21479D01*
X145759Y21478D01*
X145731Y21474D01*
X145703Y21468D01*
X145676Y21459D01*
X145650Y21447D01*
X145625Y21433D01*
X145601Y21417D01*
X145578Y21398D01*
X145555Y21376D01*
X145534Y21352D01*
X145498Y21795D01*
X145524Y21774D01*
D02*
G37*
G36*
X140482Y20185D02*
X140485Y20154D01*
X140490Y20123D01*
X140497Y20094D01*
X140506Y20066D01*
X140517Y20039D01*
X140530Y20014D01*
X140546Y19990D01*
X140563Y19968D01*
X140583Y19946D01*
X140439Y19803D01*
X140418Y19822D01*
X140395Y19840D01*
X140371Y19855D01*
X140346Y19868D01*
X140319Y19880D01*
X140292Y19889D01*
X140262Y19896D01*
X140232Y19901D01*
X140200Y19904D01*
X140167Y19904D01*
X140481Y20219D01*
X140482Y20185D01*
D02*
G37*
G36*
X145570Y17940D02*
X145671Y17873D01*
X145790Y17849D01*
X146322D01*
Y17663D01*
X145922D01*
Y17371D01*
X143454D01*
X140715Y20110D01*
X140715Y20110D01*
X140709Y20119D01*
X140704Y20128D01*
X140700Y20139D01*
X140696Y20150D01*
X140693Y20164D01*
X140690Y20179D01*
X140689Y20194D01*
X140693Y20213D01*
X140735Y20325D01*
X140743Y20333D01*
X140946Y20373D01*
X141118Y20488D01*
X141162Y20553D01*
X142958D01*
X145570Y17940D01*
D02*
G37*
G36*
X146131Y16857D02*
X146129Y16876D01*
X146123Y16894D01*
X146113Y16909D01*
X146098Y16922D01*
X146080Y16933D01*
X146057Y16942D01*
X146030Y16950D01*
X145999Y16955D01*
X145964Y16958D01*
X145925Y16959D01*
Y17162D01*
X145964Y17163D01*
X145999Y17166D01*
X146030Y17171D01*
X146057Y17178D01*
X146080Y17187D01*
X146098Y17198D01*
X146113Y17212D01*
X146123Y17227D01*
X146129Y17244D01*
X146131Y17263D01*
Y16857D01*
D02*
G37*
G36*
X143971Y12630D02*
X143979Y12608D01*
X143992Y12589D01*
X144010Y12573D01*
X144033Y12559D01*
X144061Y12547D01*
X144095Y12539D01*
X144123Y12534D01*
X144134Y12536D01*
X144161Y12542D01*
X144187Y12551D01*
X144212Y12561D01*
X144236Y12574D01*
X144258Y12588D01*
X144278Y12604D01*
X144298Y12622D01*
Y12178D01*
X144278Y12196D01*
X144258Y12212D01*
X144236Y12226D01*
X144212Y12239D01*
X144187Y12249D01*
X144161Y12258D01*
X144134Y12265D01*
X144123Y12266D01*
X144095Y12262D01*
X144061Y12253D01*
X144033Y12241D01*
X144010Y12227D01*
X143992Y12211D01*
X143979Y12192D01*
X143971Y12170D01*
X143969Y12146D01*
Y12654D01*
X143971Y12630D01*
D02*
G37*
%LPC*%
G36*
X99590Y27313D02*
X98713D01*
Y26436D01*
X99590D01*
Y27313D01*
D02*
G37*
G36*
X98459D02*
X97582D01*
Y26436D01*
X98459D01*
Y27313D01*
D02*
G37*
G36*
X100923Y25990D02*
X100720Y25949D01*
X100548Y25834D01*
X100433Y25662D01*
X100392Y25459D01*
X100433Y25256D01*
X100483Y25180D01*
X100415Y25053D01*
X100272D01*
Y24884D01*
X100160Y24824D01*
X100110Y24857D01*
X99907Y24898D01*
X99704Y24857D01*
X99532Y24742D01*
X99417Y24570D01*
X99376Y24367D01*
X99417Y24164D01*
X99532Y23991D01*
X99704Y23876D01*
X99907Y23836D01*
X100110Y23876D01*
X100160Y23909D01*
X100272Y23850D01*
Y22847D01*
X101247D01*
Y20330D01*
X100955Y20038D01*
X100888Y19937D01*
X100864Y19818D01*
Y19363D01*
X100272D01*
Y18668D01*
X95452D01*
X95333Y18644D01*
X95232Y18577D01*
X95169Y18514D01*
X95023D01*
X95018Y18524D01*
X94969Y18641D01*
X95006Y18825D01*
X94965Y19028D01*
X94850Y19201D01*
X94678Y19316D01*
X94475Y19356D01*
X94272Y19316D01*
X94100Y19201D01*
X93985Y19028D01*
X93951Y18861D01*
X93944Y18825D01*
X93826Y18766D01*
X93750Y18781D01*
X93547Y18741D01*
X93375Y18626D01*
X93260Y18453D01*
X93219Y18250D01*
X93260Y18047D01*
X93375Y17875D01*
X93547Y17760D01*
X93750Y17719D01*
X93953Y17760D01*
X94125Y17875D01*
X94137Y17892D01*
X95298D01*
X95417Y17916D01*
X95518Y17983D01*
X95581Y18046D01*
X100272D01*
Y17157D01*
X101647D01*
X101728Y17059D01*
X101719Y17012D01*
X101628Y16877D01*
X101611Y16865D01*
X100816Y16070D01*
X100804Y16052D01*
X100663Y15958D01*
X100497Y15925D01*
X100475Y15929D01*
X100358D01*
X100328Y15923D01*
X99938Y15892D01*
X99529Y15794D01*
X99140Y15633D01*
X98781Y15413D01*
X98484Y15159D01*
X98458Y15142D01*
X98234Y14917D01*
X98223Y14922D01*
X98008Y14950D01*
X97967Y14945D01*
X97934Y15110D01*
X97819Y15282D01*
X97646Y15397D01*
X97443Y15438D01*
X97240Y15397D01*
X97068Y15282D01*
X96953Y15110D01*
X96912Y14907D01*
X96953Y14704D01*
X97068Y14532D01*
X97238Y14418D01*
X97203Y14333D01*
X97175Y14118D01*
X97203Y13902D01*
X97286Y13701D01*
X97419Y13529D01*
X97591Y13397D01*
X97792Y13313D01*
X97827Y13309D01*
X97832Y13274D01*
X97915Y13073D01*
X98047Y12900D01*
X98220Y12768D01*
X98421Y12685D01*
X98636Y12656D01*
X98852Y12685D01*
X99052Y12768D01*
X99225Y12900D01*
X99357Y13073D01*
X99440Y13274D01*
X99469Y13489D01*
X99440Y13705D01*
X99436Y13715D01*
X99661Y13940D01*
X99674Y13960D01*
X99861Y14103D01*
X100101Y14203D01*
X100335Y14233D01*
X100358Y14229D01*
X100475D01*
X100489Y14231D01*
X100901Y14272D01*
X101310Y14396D01*
X101687Y14598D01*
X101920Y14789D01*
X102018Y14868D01*
X102018Y14868D01*
Y14868D01*
X102105Y14955D01*
X102813Y15662D01*
X102821Y15675D01*
X103081Y15991D01*
X103280Y16365D01*
X103403Y16771D01*
X103422Y16957D01*
X107193D01*
Y18957D01*
X107193D01*
Y19976D01*
X107222Y20000D01*
X107425Y20041D01*
X107598Y20156D01*
X107713Y20328D01*
X107753Y20531D01*
X107713Y20735D01*
X107598Y20907D01*
X107425Y21022D01*
X107222Y21062D01*
X107193Y21086D01*
Y21093D01*
X106400D01*
X106382Y21116D01*
X106341Y21319D01*
X106226Y21491D01*
X106054Y21606D01*
X105851Y21646D01*
X105647Y21606D01*
X105475Y21491D01*
X105360Y21319D01*
X105320Y21116D01*
X105301Y21093D01*
X103297D01*
Y19867D01*
X103055Y19835D01*
X102710Y19692D01*
X102414Y19465D01*
X102414Y19465D01*
X102205Y19256D01*
X102133Y19270D01*
X102078Y19303D01*
Y19363D01*
X101486D01*
Y19689D01*
X101778Y19981D01*
X101845Y20082D01*
X101869Y20201D01*
Y22847D01*
X102078D01*
Y25053D01*
X101431D01*
X101363Y25180D01*
X101413Y25256D01*
X101454Y25459D01*
X101413Y25662D01*
X101298Y25834D01*
X101126Y25949D01*
X100923Y25990D01*
D02*
G37*
G36*
X85683Y26930D02*
X85658D01*
X85454Y26889D01*
X85282Y26774D01*
X84637Y26129D01*
X84522Y25957D01*
X84481Y25753D01*
X84481Y25753D01*
Y23088D01*
X84481Y23088D01*
X84522Y22885D01*
X84637Y22712D01*
X85233Y22116D01*
X85196Y21995D01*
X85176Y21991D01*
X85004Y21875D01*
X84889Y21703D01*
X84849Y21500D01*
X84852Y21480D01*
X84775Y21403D01*
X84740Y21394D01*
X84540Y21354D01*
X84368Y21239D01*
X84253Y21067D01*
X84214Y20872D01*
X84172Y20761D01*
X84164Y20753D01*
X83961Y20712D01*
X83788Y20597D01*
X83673Y20425D01*
X83633Y20222D01*
X83673Y20019D01*
X83788Y19846D01*
X83961Y19731D01*
X84164Y19691D01*
X84191Y19696D01*
X84206Y19695D01*
X84222Y19693D01*
X84235Y19689D01*
X84247Y19685D01*
X84257Y19681D01*
X84267Y19676D01*
X84276Y19670D01*
X84276Y19670D01*
X87105Y16841D01*
X87206Y16773D01*
X87325Y16750D01*
X89922D01*
Y16457D01*
X91828D01*
Y17557D01*
X92228D01*
Y18763D01*
X91828D01*
Y19863D01*
X91628D01*
Y20857D01*
X91828D01*
Y22064D01*
X89922D01*
Y21892D01*
X89748D01*
X89747Y21892D01*
X89735Y21894D01*
X89723Y21898D01*
X89710Y21902D01*
X89697Y21908D01*
X89682Y21916D01*
X89670Y21924D01*
X89665Y21931D01*
X89633Y21952D01*
X89630Y21955D01*
X89625Y21957D01*
X89493Y22046D01*
X89290Y22086D01*
X89087Y22046D01*
X88914Y21931D01*
X88799Y21759D01*
X88769Y21605D01*
X88639Y21555D01*
X88174Y22021D01*
X88222Y22138D01*
X88429D01*
X88548Y22162D01*
X88648Y22229D01*
X89017Y22598D01*
X89085Y22699D01*
X89108Y22818D01*
Y22984D01*
X89474Y23349D01*
X89922D01*
Y23057D01*
X91828D01*
Y24351D01*
X91955Y24419D01*
X92008Y24384D01*
X92211Y24344D01*
X92414Y24384D01*
X92586Y24499D01*
X92701Y24672D01*
X92742Y24875D01*
X92701Y25078D01*
X92586Y25250D01*
X92414Y25365D01*
X92211Y25406D01*
X92008Y25365D01*
X91955Y25330D01*
X91828Y25364D01*
Y25364D01*
X91828Y25364D01*
X90173D01*
X90093Y25462D01*
X90110Y25550D01*
X90070Y25753D01*
X89955Y25926D01*
X89783Y26041D01*
X89580Y26081D01*
X89455Y26056D01*
X89328Y26150D01*
Y26453D01*
X87022D01*
Y24647D01*
X89134D01*
X89183Y24530D01*
X88246Y23593D01*
X88175Y23607D01*
X87972Y23566D01*
X87800Y23451D01*
X87678Y23451D01*
X87512Y23562D01*
X87309Y23602D01*
X87105Y23562D01*
X86933Y23447D01*
X86818Y23275D01*
X86778Y23071D01*
X86818Y22868D01*
X86854Y22815D01*
X86794Y22703D01*
X86148D01*
X86031Y22820D01*
X86073Y22957D01*
X86226Y23060D01*
X86341Y23232D01*
X86381Y23435D01*
X86341Y23638D01*
X86226Y23810D01*
X86054Y23925D01*
X85850Y23966D01*
X85670Y23930D01*
X85543Y23997D01*
Y25534D01*
X85982Y25972D01*
X86058Y26023D01*
X86174Y26196D01*
X86214Y26399D01*
X86174Y26602D01*
X86058Y26774D01*
X85886Y26889D01*
X85683Y26930D01*
D02*
G37*
G36*
X108695Y27211D02*
X108381Y27180D01*
X108078Y27089D01*
X107800Y26940D01*
X107556Y26739D01*
X107355Y26495D01*
X107206Y26217D01*
X107115Y25915D01*
X107084Y25600D01*
X107115Y25286D01*
X107206Y24984D01*
X107355Y24705D01*
X107556Y24461D01*
X107800Y24261D01*
X108078Y24112D01*
X108381Y24020D01*
X108695Y23989D01*
X109009Y24020D01*
X109311Y24112D01*
X109590Y24261D01*
X109834Y24461D01*
X110034Y24705D01*
X110183Y24984D01*
X110275Y25286D01*
X110306Y25600D01*
X110275Y25915D01*
X110183Y26217D01*
X110034Y26495D01*
X109834Y26739D01*
X109590Y26940D01*
X109311Y27089D01*
X109009Y27180D01*
X108695Y27211D01*
D02*
G37*
G36*
X115565Y24462D02*
X115362Y24422D01*
X115190Y24307D01*
X115075Y24135D01*
X115034Y23931D01*
X115075Y23728D01*
X115190Y23556D01*
X115362Y23441D01*
X115565Y23400D01*
X115768Y23441D01*
X115940Y23556D01*
X116055Y23728D01*
X116096Y23931D01*
X116055Y24135D01*
X115940Y24307D01*
X115768Y24422D01*
X115565Y24462D01*
D02*
G37*
G36*
X104885Y24288D02*
X104682Y24248D01*
X104510Y24133D01*
X104395Y23960D01*
X104355Y23757D01*
X104395Y23554D01*
X104510Y23382D01*
X104682Y23267D01*
X104885Y23226D01*
X105089Y23267D01*
X105261Y23382D01*
X105376Y23554D01*
X105416Y23757D01*
X105376Y23960D01*
X105261Y24133D01*
X105089Y24248D01*
X104885Y24288D01*
D02*
G37*
G36*
X102821Y24059D02*
X102618Y24019D01*
X102446Y23904D01*
X102331Y23732D01*
X102290Y23529D01*
X102331Y23325D01*
X102446Y23153D01*
X102618Y23038D01*
X102821Y22998D01*
X103024Y23038D01*
X103197Y23153D01*
X103312Y23325D01*
X103352Y23529D01*
X103312Y23732D01*
X103197Y23904D01*
X103024Y24019D01*
X102821Y24059D01*
D02*
G37*
G36*
X115565Y22270D02*
X115362Y22230D01*
X115190Y22114D01*
X115075Y21942D01*
X115034Y21739D01*
X115075Y21536D01*
X115190Y21364D01*
X115362Y21249D01*
X115565Y21208D01*
X115768Y21249D01*
X115940Y21364D01*
X116055Y21536D01*
X116096Y21739D01*
X116055Y21942D01*
X115940Y22114D01*
X115768Y22230D01*
X115565Y22270D01*
D02*
G37*
G36*
X92875Y21956D02*
X92672Y21916D01*
X92500Y21801D01*
X92385Y21628D01*
X92344Y21425D01*
X92385Y21222D01*
X92500Y21050D01*
X92672Y20935D01*
X92875Y20894D01*
X93078Y20935D01*
X93250Y21050D01*
X93366Y21222D01*
X93406Y21425D01*
X93366Y21628D01*
X93250Y21801D01*
X93078Y21916D01*
X92875Y21956D01*
D02*
G37*
G36*
X70793Y19456D02*
X70589Y19416D01*
X70417Y19301D01*
X70302Y19128D01*
X70262Y18925D01*
X70302Y18722D01*
X70417Y18550D01*
X70589Y18435D01*
X70793Y18394D01*
X70996Y18435D01*
X71168Y18550D01*
X71283Y18722D01*
X71324Y18925D01*
X71283Y19128D01*
X71168Y19301D01*
X70996Y19416D01*
X70793Y19456D01*
D02*
G37*
G36*
X84900Y17206D02*
X84697Y17166D01*
X84525Y17051D01*
X84410Y16878D01*
X84369Y16675D01*
X84410Y16472D01*
X84525Y16300D01*
X84697Y16185D01*
X84900Y16144D01*
X85103Y16185D01*
X85275Y16300D01*
X85390Y16472D01*
X85431Y16675D01*
X85390Y16878D01*
X85275Y17051D01*
X85103Y17166D01*
X84900Y17206D01*
D02*
G37*
G36*
X117175Y25656D02*
X116972Y25616D01*
X116800Y25501D01*
X116685Y25328D01*
X116644Y25125D01*
X116685Y24922D01*
X116800Y24750D01*
X116864Y24707D01*
Y21929D01*
X110771Y15836D01*
X108535D01*
X108497Y15963D01*
X108537Y15990D01*
X108652Y16163D01*
X108693Y16366D01*
X108652Y16569D01*
X108537Y16741D01*
X108365Y16856D01*
X108162Y16897D01*
X107959Y16856D01*
X107787Y16741D01*
X107672Y16569D01*
X107631Y16366D01*
X107672Y16163D01*
X107787Y15990D01*
X107827Y15963D01*
X107789Y15836D01*
X106888D01*
Y16289D01*
X103602D01*
Y14762D01*
X106888D01*
Y15215D01*
X110900D01*
X111019Y15238D01*
X111120Y15306D01*
X117395Y21580D01*
X117462Y21681D01*
X117486Y21800D01*
Y24707D01*
X117550Y24750D01*
X117665Y24922D01*
X117706Y25125D01*
X117665Y25328D01*
X117550Y25501D01*
X117378Y25616D01*
X117175Y25656D01*
D02*
G37*
G36*
X90622Y15156D02*
X90419Y15115D01*
X90246Y15000D01*
X90131Y14828D01*
X90091Y14625D01*
X90131Y14422D01*
X90246Y14249D01*
X90419Y14134D01*
X90622Y14094D01*
X90825Y14134D01*
X90997Y14249D01*
X91112Y14422D01*
X91153Y14625D01*
X91112Y14828D01*
X90997Y15000D01*
X90825Y15115D01*
X90622Y15156D01*
D02*
G37*
G36*
X89075Y14431D02*
X88872Y14391D01*
X88700Y14276D01*
X88585Y14104D01*
X88544Y13900D01*
X88585Y13697D01*
X88700Y13525D01*
X88872Y13410D01*
X89075Y13370D01*
X89279Y13410D01*
X89451Y13525D01*
X89566Y13697D01*
X89606Y13900D01*
X89566Y14104D01*
X89451Y14276D01*
X89279Y14391D01*
X89075Y14431D01*
D02*
G37*
G36*
X93874Y13176D02*
X93671Y13135D01*
X93499Y13020D01*
X93384Y12848D01*
X93344Y12645D01*
X93384Y12442D01*
X93499Y12269D01*
X93671Y12154D01*
X93874Y12114D01*
X94078Y12154D01*
X94250Y12269D01*
X94365Y12442D01*
X94405Y12645D01*
X94365Y12848D01*
X94250Y13020D01*
X94078Y13135D01*
X93874Y13176D01*
D02*
G37*
G36*
X88178Y13303D02*
X85872D01*
Y11497D01*
X88178D01*
Y11871D01*
X88290Y11930D01*
X88321Y11910D01*
X88525Y11869D01*
X88728Y11910D01*
X88900Y12025D01*
X89015Y12197D01*
X89055Y12400D01*
X89015Y12603D01*
X88900Y12776D01*
X88728Y12891D01*
X88525Y12931D01*
X88321Y12891D01*
X88290Y12870D01*
X88178Y12930D01*
Y13303D01*
D02*
G37*
G36*
X91622Y11930D02*
X91418Y11889D01*
X91246Y11774D01*
X91131Y11602D01*
X91091Y11399D01*
X91131Y11196D01*
X91246Y11024D01*
X91418Y10908D01*
X91622Y10868D01*
X91825Y10908D01*
X91997Y11024D01*
X92112Y11196D01*
X92152Y11399D01*
X92112Y11602D01*
X91997Y11774D01*
X91825Y11889D01*
X91622Y11930D01*
D02*
G37*
G36*
X108695Y14061D02*
X108380Y14030D01*
X108078Y13939D01*
X107800Y13790D01*
X107556Y13589D01*
X107355Y13345D01*
X107206Y13067D01*
X107115Y12764D01*
X107084Y12450D01*
X107115Y12136D01*
X107206Y11834D01*
X107355Y11555D01*
X107556Y11311D01*
X107800Y11111D01*
X108078Y10962D01*
X108380Y10870D01*
X108695Y10839D01*
X109009Y10870D01*
X109311Y10962D01*
X109590Y11111D01*
X109834Y11311D01*
X110034Y11555D01*
X110183Y11834D01*
X110275Y12136D01*
X110306Y12450D01*
X110275Y12764D01*
X110183Y13067D01*
X110034Y13345D01*
X109834Y13589D01*
X109590Y13790D01*
X109311Y13939D01*
X109009Y14030D01*
X108695Y14061D01*
D02*
G37*
%LPD*%
G36*
X101742Y23052D02*
X101725Y23045D01*
X101709Y23035D01*
X101696Y23021D01*
X101685Y23003D01*
X101676Y22980D01*
X101669Y22954D01*
X101664Y22924D01*
X101661Y22889D01*
X101660Y22850D01*
X101456D01*
X101455Y22889D01*
X101452Y22924D01*
X101447Y22954D01*
X101440Y22980D01*
X101431Y23003D01*
X101420Y23021D01*
X101407Y23035D01*
X101391Y23045D01*
X101374Y23052D01*
X101355Y23054D01*
X101761D01*
X101742Y23052D01*
D02*
G37*
G36*
X103967Y19469D02*
X103965Y19468D01*
X103960Y19464D01*
X103942Y19447D01*
X103818Y19325D01*
X103672Y19466D01*
X103808Y19607D01*
X103967Y19469D01*
D02*
G37*
G36*
X101278Y19321D02*
X101281Y19286D01*
X101286Y19255D01*
X101293Y19228D01*
X101302Y19205D01*
X101313Y19187D01*
X101326Y19172D01*
X101342Y19162D01*
X101359Y19156D01*
X101378Y19154D01*
X100972D01*
X100991Y19156D01*
X101008Y19162D01*
X101024Y19172D01*
X101037Y19187D01*
X101048Y19205D01*
X101057Y19228D01*
X101064Y19255D01*
X101069Y19286D01*
X101072Y19321D01*
X101073Y19360D01*
X101277D01*
X101278Y19321D01*
D02*
G37*
G36*
X103844Y18691D02*
X103932Y18615D01*
X103955Y18598D01*
X103975Y18585D01*
X103993Y18577D01*
X104007Y18573D01*
X104019Y18574D01*
X104027Y18579D01*
X103811Y18365D01*
X103816Y18374D01*
X103817Y18385D01*
X103813Y18400D01*
X103805Y18417D01*
X103792Y18437D01*
X103776Y18461D01*
X103754Y18487D01*
X103699Y18548D01*
X103665Y18583D01*
X103809Y18726D01*
X103844Y18691D01*
D02*
G37*
G36*
X100481Y18154D02*
X100479Y18173D01*
X100473Y18190D01*
X100463Y18206D01*
X100448Y18219D01*
X100430Y18230D01*
X100407Y18239D01*
X100380Y18246D01*
X100349Y18251D01*
X100314Y18254D01*
X100275Y18255D01*
Y18459D01*
X100314Y18460D01*
X100349Y18463D01*
X100380Y18468D01*
X100407Y18475D01*
X100430Y18484D01*
X100448Y18495D01*
X100463Y18508D01*
X100473Y18524D01*
X100479Y18541D01*
X100481Y18560D01*
Y18154D01*
D02*
G37*
G36*
X98489Y14168D02*
X98463Y14149D01*
X98414Y14109D01*
X98391Y14088D01*
X98348Y14044D01*
X98329Y14021D01*
X98293Y13974D01*
X98277Y13949D01*
X98181Y14384D01*
X98210Y14366D01*
X98239Y14353D01*
X98266Y14343D01*
X98293Y14338D01*
X98319Y14336D01*
X98344Y14338D01*
X98369Y14345D01*
X98392Y14355D01*
X98415Y14369D01*
X98437Y14387D01*
X98489Y14168D01*
D02*
G37*
G36*
X98905Y13919D02*
X98887Y13897D01*
X98873Y13874D01*
X98863Y13850D01*
X98857Y13826D01*
X98855Y13801D01*
X98856Y13775D01*
X98862Y13748D01*
X98871Y13720D01*
X98885Y13692D01*
X98902Y13663D01*
X98468Y13758D01*
X98492Y13774D01*
X98540Y13810D01*
X98563Y13829D01*
X98606Y13872D01*
X98627Y13895D01*
X98668Y13944D01*
X98687Y13971D01*
X98905Y13919D01*
D02*
G37*
G36*
X89121Y25780D02*
X89129Y25759D01*
X89142Y25739D01*
X89160Y25723D01*
X89183Y25709D01*
X89211Y25698D01*
X89223Y25695D01*
X89242Y25701D01*
X89267Y25712D01*
X89291Y25724D01*
X89313Y25738D01*
X89333Y25754D01*
X89353Y25772D01*
Y25678D01*
X89376Y25677D01*
Y25423D01*
X89353Y25423D01*
Y25328D01*
X89333Y25346D01*
X89313Y25362D01*
X89291Y25377D01*
X89267Y25389D01*
X89242Y25399D01*
X89223Y25406D01*
X89211Y25403D01*
X89183Y25391D01*
X89160Y25378D01*
X89142Y25361D01*
X89129Y25342D01*
X89121Y25320D01*
X89119Y25296D01*
Y25423D01*
X89098Y25423D01*
Y25677D01*
X89119Y25678D01*
Y25804D01*
X89121Y25780D01*
D02*
G37*
G36*
X90131Y23457D02*
X90129Y23476D01*
X90123Y23494D01*
X90113Y23509D01*
X90098Y23522D01*
X90080Y23533D01*
X90057Y23542D01*
X90030Y23549D01*
X89999Y23555D01*
X89964Y23558D01*
X89925Y23559D01*
Y23762D01*
X89964Y23763D01*
X89999Y23766D01*
X90030Y23771D01*
X90057Y23778D01*
X90080Y23787D01*
X90098Y23798D01*
X90113Y23812D01*
X90123Y23827D01*
X90129Y23844D01*
X90131Y23863D01*
Y23457D01*
D02*
G37*
G36*
X87622Y23006D02*
X87622Y22975D01*
X87625Y22945D01*
X87630Y22917D01*
X87638Y22889D01*
X87648Y22863D01*
X87661Y22838D01*
X87676Y22813D01*
X87693Y22791D01*
X87713Y22769D01*
X87555Y22639D01*
X87534Y22659D01*
X87512Y22676D01*
X87488Y22692D01*
X87463Y22707D01*
X87436Y22719D01*
X87408Y22730D01*
X87379Y22739D01*
X87348Y22746D01*
X87316Y22751D01*
X87282Y22755D01*
X87624Y23039D01*
X87622Y23006D01*
D02*
G37*
G36*
X90131Y21378D02*
X90129Y21397D01*
X90123Y21414D01*
X90113Y21429D01*
X90098Y21443D01*
X90080Y21454D01*
X90057Y21463D01*
X90030Y21470D01*
X89999Y21475D01*
X89964Y21478D01*
X89925Y21479D01*
Y21682D01*
X89964Y21683D01*
X89999Y21686D01*
X90030Y21692D01*
X90057Y21699D01*
X90080Y21708D01*
X90098Y21719D01*
X90113Y21732D01*
X90123Y21747D01*
X90129Y21765D01*
X90131Y21784D01*
Y21378D01*
D02*
G37*
G36*
X89524Y21774D02*
X89550Y21755D01*
X89577Y21738D01*
X89604Y21723D01*
X89631Y21711D01*
X89659Y21700D01*
X89686Y21693D01*
X89714Y21687D01*
X89743Y21684D01*
X89771Y21682D01*
X89789Y21479D01*
X89759Y21478D01*
X89731Y21474D01*
X89703Y21468D01*
X89676Y21459D01*
X89650Y21447D01*
X89625Y21433D01*
X89601Y21417D01*
X89578Y21398D01*
X89555Y21376D01*
X89534Y21352D01*
X89498Y21795D01*
X89524Y21774D01*
D02*
G37*
G36*
X84482Y20185D02*
X84485Y20154D01*
X84490Y20123D01*
X84497Y20094D01*
X84506Y20066D01*
X84517Y20039D01*
X84530Y20014D01*
X84546Y19990D01*
X84563Y19968D01*
X84583Y19946D01*
X84439Y19803D01*
X84418Y19822D01*
X84395Y19840D01*
X84371Y19855D01*
X84346Y19868D01*
X84319Y19880D01*
X84292Y19889D01*
X84262Y19896D01*
X84232Y19901D01*
X84200Y19904D01*
X84167Y19904D01*
X84481Y20219D01*
X84482Y20185D01*
D02*
G37*
G36*
X89570Y17940D02*
X89671Y17873D01*
X89790Y17849D01*
X90322D01*
Y17663D01*
X89922D01*
Y17371D01*
X87454D01*
X84715Y20110D01*
X84715Y20110D01*
X84709Y20119D01*
X84704Y20128D01*
X84700Y20139D01*
X84696Y20150D01*
X84693Y20164D01*
X84690Y20179D01*
X84689Y20194D01*
X84693Y20213D01*
X84735Y20325D01*
X84743Y20333D01*
X84946Y20373D01*
X85118Y20488D01*
X85162Y20553D01*
X86958D01*
X89570Y17940D01*
D02*
G37*
G36*
X90131Y16857D02*
X90129Y16876D01*
X90123Y16894D01*
X90113Y16909D01*
X90098Y16922D01*
X90080Y16933D01*
X90057Y16942D01*
X90030Y16950D01*
X89999Y16955D01*
X89964Y16958D01*
X89925Y16959D01*
Y17162D01*
X89964Y17163D01*
X89999Y17166D01*
X90030Y17171D01*
X90057Y17178D01*
X90080Y17187D01*
X90098Y17198D01*
X90113Y17212D01*
X90123Y17227D01*
X90129Y17244D01*
X90131Y17263D01*
Y16857D01*
D02*
G37*
G36*
X87971Y12630D02*
X87979Y12608D01*
X87992Y12589D01*
X88010Y12573D01*
X88033Y12559D01*
X88061Y12547D01*
X88095Y12539D01*
X88123Y12534D01*
X88134Y12536D01*
X88161Y12542D01*
X88187Y12551D01*
X88212Y12561D01*
X88236Y12574D01*
X88258Y12588D01*
X88278Y12604D01*
X88298Y12622D01*
Y12178D01*
X88278Y12196D01*
X88258Y12212D01*
X88236Y12226D01*
X88212Y12239D01*
X88187Y12249D01*
X88161Y12258D01*
X88134Y12265D01*
X88123Y12266D01*
X88095Y12262D01*
X88061Y12253D01*
X88033Y12241D01*
X88010Y12227D01*
X87992Y12211D01*
X87979Y12192D01*
X87971Y12170D01*
X87969Y12146D01*
Y12654D01*
X87971Y12630D01*
D02*
G37*
%LPC*%
G36*
X43590Y27313D02*
X42713D01*
Y26436D01*
X43590D01*
Y27313D01*
D02*
G37*
G36*
X42459D02*
X41582D01*
Y26436D01*
X42459D01*
Y27313D01*
D02*
G37*
G36*
X44923Y25990D02*
X44720Y25949D01*
X44548Y25834D01*
X44433Y25662D01*
X44392Y25459D01*
X44433Y25256D01*
X44483Y25180D01*
X44415Y25053D01*
X44272D01*
Y24884D01*
X44160Y24824D01*
X44110Y24857D01*
X43907Y24898D01*
X43704Y24857D01*
X43532Y24742D01*
X43417Y24570D01*
X43376Y24367D01*
X43417Y24164D01*
X43532Y23991D01*
X43704Y23876D01*
X43907Y23836D01*
X44110Y23876D01*
X44160Y23909D01*
X44272Y23850D01*
Y22847D01*
X45247D01*
Y20330D01*
X44955Y20038D01*
X44888Y19937D01*
X44864Y19818D01*
Y19363D01*
X44272D01*
Y18668D01*
X39452D01*
X39333Y18644D01*
X39232Y18577D01*
X39169Y18514D01*
X39023D01*
X39018Y18524D01*
X38969Y18641D01*
X39006Y18825D01*
X38965Y19028D01*
X38850Y19201D01*
X38678Y19316D01*
X38475Y19356D01*
X38272Y19316D01*
X38100Y19201D01*
X37985Y19028D01*
X37951Y18861D01*
X37944Y18825D01*
X37826Y18766D01*
X37750Y18781D01*
X37547Y18741D01*
X37375Y18626D01*
X37260Y18453D01*
X37219Y18250D01*
X37260Y18047D01*
X37375Y17875D01*
X37547Y17760D01*
X37750Y17719D01*
X37953Y17760D01*
X38125Y17875D01*
X38137Y17892D01*
X39298D01*
X39417Y17916D01*
X39518Y17983D01*
X39581Y18046D01*
X44272D01*
Y17157D01*
X45647D01*
X45728Y17059D01*
X45719Y17012D01*
X45628Y16877D01*
X45611Y16865D01*
X44816Y16070D01*
X44804Y16052D01*
X44663Y15958D01*
X44497Y15925D01*
X44475Y15929D01*
X44358D01*
X44328Y15923D01*
X43938Y15892D01*
X43529Y15794D01*
X43140Y15633D01*
X42781Y15413D01*
X42484Y15159D01*
X42458Y15142D01*
X42234Y14917D01*
X42223Y14922D01*
X42008Y14950D01*
X41967Y14945D01*
X41934Y15110D01*
X41819Y15282D01*
X41646Y15397D01*
X41443Y15438D01*
X41240Y15397D01*
X41068Y15282D01*
X40953Y15110D01*
X40912Y14907D01*
X40953Y14704D01*
X41068Y14532D01*
X41238Y14418D01*
X41203Y14333D01*
X41175Y14118D01*
X41203Y13902D01*
X41286Y13701D01*
X41419Y13529D01*
X41591Y13397D01*
X41792Y13313D01*
X41827Y13309D01*
X41832Y13274D01*
X41915Y13073D01*
X42047Y12900D01*
X42220Y12768D01*
X42421Y12685D01*
X42636Y12656D01*
X42852Y12685D01*
X43053Y12768D01*
X43225Y12900D01*
X43357Y13073D01*
X43440Y13274D01*
X43469Y13489D01*
X43440Y13705D01*
X43436Y13715D01*
X43661Y13940D01*
X43674Y13960D01*
X43861Y14103D01*
X44101Y14203D01*
X44335Y14233D01*
X44358Y14229D01*
X44475D01*
X44489Y14231D01*
X44901Y14272D01*
X45310Y14396D01*
X45687Y14598D01*
X45920Y14789D01*
X46018Y14868D01*
X46018Y14868D01*
Y14868D01*
X46105Y14955D01*
X46813Y15662D01*
X46821Y15675D01*
X47081Y15991D01*
X47280Y16365D01*
X47403Y16771D01*
X47422Y16957D01*
X51193D01*
Y18957D01*
X51193D01*
Y19976D01*
X51222Y20000D01*
X51425Y20041D01*
X51598Y20156D01*
X51713Y20328D01*
X51753Y20531D01*
X51713Y20735D01*
X51598Y20907D01*
X51425Y21022D01*
X51222Y21062D01*
X51193Y21086D01*
Y21093D01*
X50400D01*
X50382Y21116D01*
X50341Y21319D01*
X50226Y21491D01*
X50054Y21606D01*
X49851Y21646D01*
X49647Y21606D01*
X49475Y21491D01*
X49360Y21319D01*
X49320Y21116D01*
X49301Y21093D01*
X47297D01*
Y19867D01*
X47055Y19835D01*
X46710Y19692D01*
X46414Y19465D01*
X46414Y19465D01*
X46205Y19256D01*
X46133Y19270D01*
X46078Y19303D01*
Y19363D01*
X45486D01*
Y19689D01*
X45778Y19981D01*
X45845Y20082D01*
X45869Y20201D01*
Y22847D01*
X46078D01*
Y25053D01*
X45431D01*
X45363Y25180D01*
X45414Y25256D01*
X45454Y25459D01*
X45414Y25662D01*
X45298Y25834D01*
X45126Y25949D01*
X44923Y25990D01*
D02*
G37*
G36*
X29683Y26930D02*
X29658D01*
X29454Y26889D01*
X29282Y26774D01*
X28637Y26129D01*
X28522Y25957D01*
X28481Y25753D01*
X28481Y25753D01*
Y23088D01*
X28481Y23088D01*
X28522Y22885D01*
X28637Y22712D01*
X29233Y22116D01*
X29196Y21995D01*
X29176Y21991D01*
X29004Y21875D01*
X28889Y21703D01*
X28848Y21500D01*
X28852Y21480D01*
X28775Y21403D01*
X28740Y21394D01*
X28540Y21354D01*
X28368Y21239D01*
X28253Y21067D01*
X28214Y20872D01*
X28172Y20761D01*
X28164Y20753D01*
X27961Y20712D01*
X27788Y20597D01*
X27673Y20425D01*
X27633Y20222D01*
X27673Y20019D01*
X27788Y19846D01*
X27961Y19731D01*
X28164Y19691D01*
X28191Y19696D01*
X28206Y19695D01*
X28222Y19693D01*
X28235Y19689D01*
X28247Y19685D01*
X28257Y19681D01*
X28267Y19676D01*
X28276Y19670D01*
X28276Y19670D01*
X31105Y16841D01*
X31206Y16773D01*
X31325Y16750D01*
X33922D01*
Y16457D01*
X35828D01*
Y17557D01*
X36228D01*
Y18763D01*
X35828D01*
Y19863D01*
X35628D01*
Y20857D01*
X35828D01*
Y22064D01*
X33922D01*
Y21892D01*
X33748D01*
X33747Y21892D01*
X33735Y21894D01*
X33723Y21898D01*
X33710Y21902D01*
X33697Y21908D01*
X33682Y21916D01*
X33670Y21924D01*
X33665Y21931D01*
X33633Y21952D01*
X33630Y21955D01*
X33625Y21957D01*
X33493Y22046D01*
X33290Y22086D01*
X33087Y22046D01*
X32914Y21931D01*
X32799Y21759D01*
X32769Y21605D01*
X32639Y21555D01*
X32174Y22021D01*
X32222Y22138D01*
X32429D01*
X32548Y22162D01*
X32648Y22229D01*
X33017Y22598D01*
X33085Y22699D01*
X33108Y22818D01*
Y22984D01*
X33474Y23349D01*
X33922D01*
Y23057D01*
X35828D01*
Y24351D01*
X35955Y24419D01*
X36008Y24384D01*
X36211Y24344D01*
X36414Y24384D01*
X36586Y24499D01*
X36701Y24672D01*
X36742Y24875D01*
X36701Y25078D01*
X36586Y25250D01*
X36414Y25365D01*
X36211Y25406D01*
X36008Y25365D01*
X35955Y25330D01*
X35828Y25364D01*
Y25364D01*
X35828Y25364D01*
X34173D01*
X34093Y25462D01*
X34110Y25550D01*
X34070Y25753D01*
X33955Y25926D01*
X33783Y26041D01*
X33580Y26081D01*
X33455Y26056D01*
X33328Y26150D01*
Y26453D01*
X31022D01*
Y24647D01*
X33134D01*
X33183Y24530D01*
X32246Y23593D01*
X32175Y23607D01*
X31972Y23566D01*
X31800Y23451D01*
X31678Y23451D01*
X31512Y23562D01*
X31309Y23602D01*
X31105Y23562D01*
X30933Y23447D01*
X30818Y23275D01*
X30778Y23071D01*
X30818Y22868D01*
X30854Y22815D01*
X30794Y22703D01*
X30148D01*
X30031Y22820D01*
X30073Y22957D01*
X30226Y23060D01*
X30341Y23232D01*
X30381Y23435D01*
X30341Y23638D01*
X30226Y23810D01*
X30054Y23925D01*
X29850Y23966D01*
X29670Y23930D01*
X29543Y23997D01*
Y25534D01*
X29982Y25972D01*
X30058Y26023D01*
X30174Y26196D01*
X30214Y26399D01*
X30174Y26602D01*
X30058Y26774D01*
X29886Y26889D01*
X29683Y26930D01*
D02*
G37*
G36*
X52695Y27211D02*
X52381Y27180D01*
X52078Y27089D01*
X51800Y26940D01*
X51556Y26739D01*
X51355Y26495D01*
X51206Y26217D01*
X51115Y25915D01*
X51084Y25600D01*
X51115Y25286D01*
X51206Y24984D01*
X51355Y24705D01*
X51556Y24461D01*
X51800Y24261D01*
X52078Y24112D01*
X52381Y24020D01*
X52695Y23989D01*
X53009Y24020D01*
X53311Y24112D01*
X53590Y24261D01*
X53834Y24461D01*
X54034Y24705D01*
X54183Y24984D01*
X54275Y25286D01*
X54306Y25600D01*
X54275Y25915D01*
X54183Y26217D01*
X54034Y26495D01*
X53834Y26739D01*
X53590Y26940D01*
X53311Y27089D01*
X53009Y27180D01*
X52695Y27211D01*
D02*
G37*
G36*
X59565Y24462D02*
X59362Y24422D01*
X59190Y24307D01*
X59075Y24135D01*
X59034Y23931D01*
X59075Y23728D01*
X59190Y23556D01*
X59362Y23441D01*
X59565Y23400D01*
X59768Y23441D01*
X59940Y23556D01*
X60056Y23728D01*
X60096Y23931D01*
X60056Y24135D01*
X59940Y24307D01*
X59768Y24422D01*
X59565Y24462D01*
D02*
G37*
G36*
X48885Y24288D02*
X48682Y24248D01*
X48510Y24133D01*
X48395Y23960D01*
X48355Y23757D01*
X48395Y23554D01*
X48510Y23382D01*
X48682Y23267D01*
X48885Y23226D01*
X49089Y23267D01*
X49261Y23382D01*
X49376Y23554D01*
X49416Y23757D01*
X49376Y23960D01*
X49261Y24133D01*
X49089Y24248D01*
X48885Y24288D01*
D02*
G37*
G36*
X46821Y24059D02*
X46618Y24019D01*
X46446Y23904D01*
X46331Y23732D01*
X46290Y23529D01*
X46331Y23325D01*
X46446Y23153D01*
X46618Y23038D01*
X46821Y22998D01*
X47024Y23038D01*
X47197Y23153D01*
X47312Y23325D01*
X47352Y23529D01*
X47312Y23732D01*
X47197Y23904D01*
X47024Y24019D01*
X46821Y24059D01*
D02*
G37*
G36*
X59565Y22270D02*
X59362Y22230D01*
X59190Y22114D01*
X59075Y21942D01*
X59034Y21739D01*
X59075Y21536D01*
X59190Y21364D01*
X59362Y21249D01*
X59565Y21208D01*
X59768Y21249D01*
X59940Y21364D01*
X60056Y21536D01*
X60096Y21739D01*
X60056Y21942D01*
X59940Y22114D01*
X59768Y22230D01*
X59565Y22270D01*
D02*
G37*
G36*
X36875Y21956D02*
X36672Y21916D01*
X36500Y21801D01*
X36385Y21628D01*
X36344Y21425D01*
X36385Y21222D01*
X36500Y21050D01*
X36672Y20935D01*
X36875Y20894D01*
X37078Y20935D01*
X37250Y21050D01*
X37366Y21222D01*
X37406Y21425D01*
X37366Y21628D01*
X37250Y21801D01*
X37078Y21916D01*
X36875Y21956D01*
D02*
G37*
G36*
X14793Y19456D02*
X14589Y19416D01*
X14417Y19301D01*
X14302Y19128D01*
X14262Y18925D01*
X14302Y18722D01*
X14417Y18550D01*
X14589Y18435D01*
X14793Y18394D01*
X14996Y18435D01*
X15168Y18550D01*
X15283Y18722D01*
X15324Y18925D01*
X15283Y19128D01*
X15168Y19301D01*
X14996Y19416D01*
X14793Y19456D01*
D02*
G37*
G36*
X28900Y17206D02*
X28697Y17166D01*
X28525Y17051D01*
X28410Y16878D01*
X28369Y16675D01*
X28410Y16472D01*
X28525Y16300D01*
X28697Y16185D01*
X28900Y16144D01*
X29103Y16185D01*
X29275Y16300D01*
X29390Y16472D01*
X29431Y16675D01*
X29390Y16878D01*
X29275Y17051D01*
X29103Y17166D01*
X28900Y17206D01*
D02*
G37*
G36*
X61175Y25656D02*
X60972Y25616D01*
X60800Y25501D01*
X60685Y25328D01*
X60644Y25125D01*
X60685Y24922D01*
X60800Y24750D01*
X60864Y24707D01*
Y21929D01*
X54771Y15836D01*
X52535D01*
X52497Y15963D01*
X52537Y15990D01*
X52653Y16163D01*
X52693Y16366D01*
X52653Y16569D01*
X52537Y16741D01*
X52365Y16856D01*
X52162Y16897D01*
X51959Y16856D01*
X51787Y16741D01*
X51672Y16569D01*
X51631Y16366D01*
X51672Y16163D01*
X51787Y15990D01*
X51827Y15963D01*
X51789Y15836D01*
X50888D01*
Y16289D01*
X47602D01*
Y14762D01*
X50888D01*
Y15215D01*
X54900D01*
X55019Y15238D01*
X55120Y15306D01*
X61395Y21580D01*
X61462Y21681D01*
X61486Y21800D01*
Y24707D01*
X61550Y24750D01*
X61666Y24922D01*
X61706Y25125D01*
X61666Y25328D01*
X61550Y25501D01*
X61378Y25616D01*
X61175Y25656D01*
D02*
G37*
G36*
X34622Y15156D02*
X34419Y15115D01*
X34246Y15000D01*
X34131Y14828D01*
X34091Y14625D01*
X34131Y14422D01*
X34246Y14249D01*
X34419Y14134D01*
X34622Y14094D01*
X34825Y14134D01*
X34997Y14249D01*
X35112Y14422D01*
X35153Y14625D01*
X35112Y14828D01*
X34997Y15000D01*
X34825Y15115D01*
X34622Y15156D01*
D02*
G37*
G36*
X33075Y14431D02*
X32872Y14391D01*
X32700Y14276D01*
X32585Y14104D01*
X32544Y13900D01*
X32585Y13697D01*
X32700Y13525D01*
X32872Y13410D01*
X33075Y13370D01*
X33279Y13410D01*
X33451Y13525D01*
X33566Y13697D01*
X33606Y13900D01*
X33566Y14104D01*
X33451Y14276D01*
X33279Y14391D01*
X33075Y14431D01*
D02*
G37*
G36*
X37875Y13176D02*
X37671Y13135D01*
X37499Y13020D01*
X37384Y12848D01*
X37344Y12645D01*
X37384Y12442D01*
X37499Y12269D01*
X37671Y12154D01*
X37875Y12114D01*
X38078Y12154D01*
X38250Y12269D01*
X38365Y12442D01*
X38405Y12645D01*
X38365Y12848D01*
X38250Y13020D01*
X38078Y13135D01*
X37875Y13176D01*
D02*
G37*
G36*
X32178Y13303D02*
X29872D01*
Y11497D01*
X32178D01*
Y11871D01*
X32290Y11930D01*
X32321Y11910D01*
X32525Y11869D01*
X32728Y11910D01*
X32900Y12025D01*
X33015Y12197D01*
X33055Y12400D01*
X33015Y12603D01*
X32900Y12776D01*
X32728Y12891D01*
X32525Y12931D01*
X32321Y12891D01*
X32290Y12870D01*
X32178Y12930D01*
Y13303D01*
D02*
G37*
G36*
X35622Y11930D02*
X35418Y11889D01*
X35246Y11774D01*
X35131Y11602D01*
X35091Y11399D01*
X35131Y11196D01*
X35246Y11024D01*
X35418Y10908D01*
X35622Y10868D01*
X35825Y10908D01*
X35997Y11024D01*
X36112Y11196D01*
X36152Y11399D01*
X36112Y11602D01*
X35997Y11774D01*
X35825Y11889D01*
X35622Y11930D01*
D02*
G37*
G36*
X52695Y14061D02*
X52380Y14030D01*
X52078Y13939D01*
X51800Y13790D01*
X51556Y13589D01*
X51355Y13345D01*
X51206Y13067D01*
X51115Y12764D01*
X51084Y12450D01*
X51115Y12136D01*
X51206Y11834D01*
X51355Y11555D01*
X51556Y11311D01*
X51800Y11111D01*
X52078Y10962D01*
X52380Y10870D01*
X52695Y10839D01*
X53009Y10870D01*
X53311Y10962D01*
X53590Y11111D01*
X53834Y11311D01*
X54034Y11555D01*
X54183Y11834D01*
X54275Y12136D01*
X54306Y12450D01*
X54275Y12764D01*
X54183Y13067D01*
X54034Y13345D01*
X53834Y13589D01*
X53590Y13790D01*
X53311Y13939D01*
X53009Y14030D01*
X52695Y14061D01*
D02*
G37*
%LPD*%
G36*
X45742Y23052D02*
X45725Y23045D01*
X45709Y23035D01*
X45696Y23021D01*
X45685Y23003D01*
X45676Y22980D01*
X45669Y22954D01*
X45664Y22924D01*
X45661Y22889D01*
X45660Y22850D01*
X45456D01*
X45455Y22889D01*
X45452Y22924D01*
X45447Y22954D01*
X45440Y22980D01*
X45431Y23003D01*
X45420Y23021D01*
X45407Y23035D01*
X45391Y23045D01*
X45374Y23052D01*
X45355Y23054D01*
X45761D01*
X45742Y23052D01*
D02*
G37*
G36*
X47967Y19469D02*
X47965Y19468D01*
X47960Y19464D01*
X47942Y19447D01*
X47818Y19325D01*
X47672Y19466D01*
X47808Y19607D01*
X47967Y19469D01*
D02*
G37*
G36*
X45278Y19321D02*
X45281Y19286D01*
X45286Y19255D01*
X45293Y19228D01*
X45302Y19205D01*
X45313Y19187D01*
X45326Y19172D01*
X45342Y19162D01*
X45359Y19156D01*
X45378Y19154D01*
X44972D01*
X44991Y19156D01*
X45008Y19162D01*
X45024Y19172D01*
X45037Y19187D01*
X45048Y19205D01*
X45057Y19228D01*
X45064Y19255D01*
X45069Y19286D01*
X45072Y19321D01*
X45073Y19360D01*
X45277D01*
X45278Y19321D01*
D02*
G37*
G36*
X47844Y18691D02*
X47932Y18615D01*
X47955Y18598D01*
X47975Y18585D01*
X47993Y18577D01*
X48007Y18573D01*
X48019Y18574D01*
X48027Y18579D01*
X47811Y18365D01*
X47816Y18374D01*
X47817Y18385D01*
X47813Y18400D01*
X47805Y18417D01*
X47792Y18437D01*
X47776Y18461D01*
X47754Y18487D01*
X47699Y18548D01*
X47665Y18583D01*
X47809Y18726D01*
X47844Y18691D01*
D02*
G37*
G36*
X44481Y18154D02*
X44479Y18173D01*
X44473Y18190D01*
X44463Y18206D01*
X44448Y18219D01*
X44430Y18230D01*
X44407Y18239D01*
X44380Y18246D01*
X44349Y18251D01*
X44314Y18254D01*
X44275Y18255D01*
Y18459D01*
X44314Y18460D01*
X44349Y18463D01*
X44380Y18468D01*
X44407Y18475D01*
X44430Y18484D01*
X44448Y18495D01*
X44463Y18508D01*
X44473Y18524D01*
X44479Y18541D01*
X44481Y18560D01*
Y18154D01*
D02*
G37*
G36*
X42489Y14168D02*
X42463Y14149D01*
X42414Y14109D01*
X42391Y14088D01*
X42348Y14044D01*
X42329Y14021D01*
X42293Y13974D01*
X42277Y13949D01*
X42181Y14384D01*
X42210Y14366D01*
X42239Y14353D01*
X42266Y14343D01*
X42293Y14338D01*
X42319Y14336D01*
X42344Y14338D01*
X42369Y14345D01*
X42392Y14355D01*
X42415Y14369D01*
X42437Y14387D01*
X42489Y14168D01*
D02*
G37*
G36*
X42905Y13919D02*
X42887Y13897D01*
X42873Y13874D01*
X42863Y13850D01*
X42857Y13826D01*
X42855Y13801D01*
X42856Y13775D01*
X42862Y13748D01*
X42871Y13720D01*
X42885Y13692D01*
X42902Y13663D01*
X42468Y13758D01*
X42492Y13774D01*
X42540Y13810D01*
X42563Y13829D01*
X42606Y13872D01*
X42627Y13895D01*
X42668Y13944D01*
X42687Y13971D01*
X42905Y13919D01*
D02*
G37*
G36*
X33121Y25780D02*
X33129Y25759D01*
X33142Y25739D01*
X33160Y25723D01*
X33183Y25709D01*
X33211Y25698D01*
X33223Y25695D01*
X33242Y25701D01*
X33267Y25712D01*
X33291Y25724D01*
X33313Y25738D01*
X33333Y25754D01*
X33353Y25772D01*
Y25678D01*
X33376Y25677D01*
Y25423D01*
X33353Y25423D01*
Y25328D01*
X33333Y25346D01*
X33313Y25362D01*
X33291Y25377D01*
X33267Y25389D01*
X33242Y25399D01*
X33223Y25406D01*
X33211Y25403D01*
X33183Y25391D01*
X33160Y25378D01*
X33142Y25361D01*
X33129Y25342D01*
X33121Y25320D01*
X33119Y25296D01*
Y25423D01*
X33098Y25423D01*
Y25677D01*
X33119Y25678D01*
Y25804D01*
X33121Y25780D01*
D02*
G37*
G36*
X34131Y23457D02*
X34129Y23476D01*
X34123Y23494D01*
X34113Y23509D01*
X34098Y23522D01*
X34080Y23533D01*
X34057Y23542D01*
X34030Y23549D01*
X33999Y23555D01*
X33964Y23558D01*
X33925Y23559D01*
Y23762D01*
X33964Y23763D01*
X33999Y23766D01*
X34030Y23771D01*
X34057Y23778D01*
X34080Y23787D01*
X34098Y23798D01*
X34113Y23812D01*
X34123Y23827D01*
X34129Y23844D01*
X34131Y23863D01*
Y23457D01*
D02*
G37*
G36*
X31622Y23006D02*
X31622Y22975D01*
X31625Y22945D01*
X31630Y22917D01*
X31638Y22889D01*
X31648Y22863D01*
X31661Y22838D01*
X31676Y22813D01*
X31693Y22791D01*
X31713Y22769D01*
X31555Y22639D01*
X31534Y22659D01*
X31512Y22676D01*
X31488Y22692D01*
X31463Y22707D01*
X31436Y22719D01*
X31408Y22730D01*
X31379Y22739D01*
X31348Y22746D01*
X31316Y22751D01*
X31282Y22755D01*
X31624Y23039D01*
X31622Y23006D01*
D02*
G37*
G36*
X34131Y21378D02*
X34129Y21397D01*
X34123Y21414D01*
X34113Y21429D01*
X34098Y21443D01*
X34080Y21454D01*
X34057Y21463D01*
X34030Y21470D01*
X33999Y21475D01*
X33964Y21478D01*
X33925Y21479D01*
Y21682D01*
X33964Y21683D01*
X33999Y21686D01*
X34030Y21692D01*
X34057Y21699D01*
X34080Y21708D01*
X34098Y21719D01*
X34113Y21732D01*
X34123Y21747D01*
X34129Y21765D01*
X34131Y21784D01*
Y21378D01*
D02*
G37*
G36*
X33524Y21774D02*
X33550Y21755D01*
X33577Y21738D01*
X33604Y21723D01*
X33631Y21711D01*
X33659Y21700D01*
X33686Y21693D01*
X33714Y21687D01*
X33743Y21684D01*
X33771Y21682D01*
X33789Y21479D01*
X33759Y21478D01*
X33731Y21474D01*
X33703Y21468D01*
X33676Y21459D01*
X33650Y21447D01*
X33625Y21433D01*
X33601Y21417D01*
X33578Y21398D01*
X33555Y21376D01*
X33534Y21352D01*
X33498Y21795D01*
X33524Y21774D01*
D02*
G37*
G36*
X28482Y20185D02*
X28485Y20154D01*
X28490Y20123D01*
X28497Y20094D01*
X28506Y20066D01*
X28517Y20039D01*
X28530Y20014D01*
X28546Y19990D01*
X28563Y19968D01*
X28583Y19946D01*
X28439Y19803D01*
X28418Y19822D01*
X28395Y19840D01*
X28371Y19855D01*
X28346Y19868D01*
X28319Y19880D01*
X28292Y19889D01*
X28262Y19896D01*
X28232Y19901D01*
X28200Y19904D01*
X28167Y19904D01*
X28481Y20219D01*
X28482Y20185D01*
D02*
G37*
G36*
X33570Y17940D02*
X33671Y17873D01*
X33790Y17849D01*
X34322D01*
Y17663D01*
X33922D01*
Y17371D01*
X31454D01*
X28715Y20110D01*
X28715Y20110D01*
X28709Y20119D01*
X28704Y20128D01*
X28700Y20139D01*
X28696Y20150D01*
X28693Y20164D01*
X28690Y20179D01*
X28689Y20194D01*
X28693Y20213D01*
X28735Y20325D01*
X28743Y20333D01*
X28946Y20373D01*
X29118Y20488D01*
X29162Y20553D01*
X30958D01*
X33570Y17940D01*
D02*
G37*
G36*
X34131Y16857D02*
X34129Y16876D01*
X34123Y16894D01*
X34113Y16909D01*
X34098Y16922D01*
X34080Y16933D01*
X34057Y16942D01*
X34030Y16950D01*
X33999Y16955D01*
X33964Y16958D01*
X33925Y16959D01*
Y17162D01*
X33964Y17163D01*
X33999Y17166D01*
X34030Y17171D01*
X34057Y17178D01*
X34080Y17187D01*
X34098Y17198D01*
X34113Y17212D01*
X34123Y17227D01*
X34129Y17244D01*
X34131Y17263D01*
Y16857D01*
D02*
G37*
G36*
X31971Y12630D02*
X31979Y12608D01*
X31992Y12589D01*
X32010Y12573D01*
X32033Y12559D01*
X32061Y12547D01*
X32095Y12539D01*
X32123Y12534D01*
X32134Y12536D01*
X32161Y12542D01*
X32187Y12551D01*
X32212Y12561D01*
X32236Y12574D01*
X32258Y12588D01*
X32278Y12604D01*
X32298Y12622D01*
Y12178D01*
X32278Y12196D01*
X32258Y12212D01*
X32236Y12226D01*
X32212Y12239D01*
X32187Y12249D01*
X32161Y12258D01*
X32134Y12265D01*
X32123Y12266D01*
X32095Y12262D01*
X32061Y12253D01*
X32033Y12241D01*
X32010Y12227D01*
X31992Y12211D01*
X31979Y12192D01*
X31971Y12170D01*
X31969Y12146D01*
Y12654D01*
X31971Y12630D01*
D02*
G37*
%LPC*%
G36*
X228000Y6291D02*
X227987Y6289D01*
X227975Y6290D01*
X227681Y6261D01*
X227656Y6254D01*
X227631Y6251D01*
X227348Y6166D01*
X227326Y6154D01*
X227301Y6146D01*
X227041Y6007D01*
X227021Y5991D01*
X226998Y5979D01*
X226770Y5791D01*
X226754Y5771D01*
X226734Y5755D01*
X226547Y5527D01*
X226535Y5504D01*
X226518Y5485D01*
X226379Y5224D01*
X226372Y5200D01*
X226360Y5177D01*
X226274Y4894D01*
X226271Y4869D01*
X226264Y4845D01*
X226235Y4551D01*
X226238Y4525D01*
X226235Y4500D01*
X226264Y4206D01*
X226271Y4181D01*
X226274Y4156D01*
X226360Y3873D01*
X226372Y3851D01*
X226379Y3826D01*
X226518Y3566D01*
X226535Y3546D01*
X226547Y3524D01*
X226734Y3295D01*
X226754Y3279D01*
X226770Y3259D01*
X226998Y3072D01*
X227021Y3060D01*
X227041Y3044D01*
X227301Y2904D01*
X227326Y2897D01*
X227348Y2885D01*
X227631Y2799D01*
X227656Y2797D01*
X227681Y2789D01*
X227975Y2760D01*
X227987Y2761D01*
X228000Y2759D01*
X228013Y2761D01*
X228025Y2760D01*
X228319Y2789D01*
X228344Y2797D01*
X228369Y2799D01*
X228652Y2885D01*
X228674Y2897D01*
X228699Y2904D01*
X228959Y3044D01*
X228979Y3060D01*
X229002Y3072D01*
X229230Y3259D01*
X229246Y3279D01*
X229266Y3295D01*
X229453Y3524D01*
X229465Y3546D01*
X229482Y3566D01*
X229621Y3826D01*
X229628Y3851D01*
X229640Y3873D01*
X229726Y4156D01*
X229729Y4181D01*
X229736Y4206D01*
X229765Y4500D01*
X229762Y4525D01*
X229765Y4551D01*
X229736Y4845D01*
X229729Y4869D01*
X229726Y4894D01*
X229640Y5177D01*
X229628Y5200D01*
X229621Y5224D01*
X229482Y5485D01*
X229465Y5504D01*
X229453Y5527D01*
X229266Y5755D01*
X229246Y5771D01*
X229230Y5791D01*
X229002Y5979D01*
X228979Y5991D01*
X228959Y6007D01*
X228699Y6146D01*
X228674Y6154D01*
X228652Y6166D01*
X228369Y6251D01*
X228344Y6254D01*
X228319Y6261D01*
X228025Y6290D01*
X228013Y6289D01*
X228000Y6291D01*
D02*
G37*
G36*
X3000D02*
X2987Y6289D01*
X2975Y6290D01*
X2681Y6261D01*
X2656Y6254D01*
X2631Y6251D01*
X2348Y6166D01*
X2326Y6154D01*
X2301Y6146D01*
X2041Y6007D01*
X2021Y5991D01*
X1998Y5979D01*
X1770Y5791D01*
X1754Y5771D01*
X1734Y5755D01*
X1547Y5527D01*
X1535Y5504D01*
X1518Y5485D01*
X1379Y5224D01*
X1372Y5200D01*
X1360Y5177D01*
X1274Y4894D01*
X1271Y4869D01*
X1264Y4845D01*
X1235Y4551D01*
X1238Y4525D01*
X1235Y4500D01*
X1264Y4206D01*
X1271Y4181D01*
X1274Y4156D01*
X1360Y3873D01*
X1372Y3851D01*
X1379Y3826D01*
X1518Y3566D01*
X1535Y3546D01*
X1547Y3524D01*
X1734Y3295D01*
X1754Y3279D01*
X1770Y3259D01*
X1998Y3072D01*
X2021Y3060D01*
X2041Y3044D01*
X2301Y2904D01*
X2326Y2897D01*
X2348Y2885D01*
X2631Y2799D01*
X2656Y2797D01*
X2681Y2789D01*
X2975Y2760D01*
X2987Y2761D01*
X3000Y2759D01*
X3013Y2761D01*
X3025Y2760D01*
X3319Y2789D01*
X3344Y2797D01*
X3369Y2799D01*
X3652Y2885D01*
X3674Y2897D01*
X3699Y2904D01*
X3959Y3044D01*
X3979Y3060D01*
X4002Y3072D01*
X4230Y3259D01*
X4246Y3279D01*
X4266Y3295D01*
X4453Y3524D01*
X4465Y3546D01*
X4482Y3566D01*
X4621Y3826D01*
X4628Y3851D01*
X4640Y3873D01*
X4726Y4156D01*
X4729Y4181D01*
X4736Y4206D01*
X4765Y4500D01*
X4762Y4525D01*
X4765Y4551D01*
X4736Y4845D01*
X4729Y4869D01*
X4726Y4894D01*
X4640Y5177D01*
X4628Y5200D01*
X4621Y5224D01*
X4482Y5485D01*
X4465Y5504D01*
X4453Y5527D01*
X4266Y5755D01*
X4246Y5771D01*
X4230Y5791D01*
X4002Y5979D01*
X3979Y5991D01*
X3959Y6007D01*
X3699Y6146D01*
X3674Y6154D01*
X3652Y6166D01*
X3369Y6251D01*
X3344Y6254D01*
X3319Y6261D01*
X3025Y6290D01*
X3013Y6289D01*
X3000Y6291D01*
D02*
G37*
G36*
X218500Y5284D02*
X217500D01*
X217401Y5264D01*
X217317Y5208D01*
X217261Y5124D01*
X217241Y5025D01*
Y4025D01*
X217261Y3926D01*
X217317Y3842D01*
X217401Y3786D01*
X217500Y3766D01*
X218500D01*
X218599Y3786D01*
X218683Y3842D01*
X218739Y3926D01*
X218759Y4025D01*
Y5025D01*
X218739Y5124D01*
X218683Y5208D01*
X218599Y5264D01*
X218500Y5284D01*
D02*
G37*
G36*
X13500D02*
X12500D01*
X12401Y5264D01*
X12317Y5208D01*
X12261Y5124D01*
X12241Y5025D01*
Y4025D01*
X12261Y3926D01*
X12317Y3842D01*
X12401Y3786D01*
X12500Y3766D01*
X13500D01*
X13599Y3786D01*
X13683Y3842D01*
X13739Y3926D01*
X13759Y4025D01*
Y5025D01*
X13739Y5124D01*
X13683Y5208D01*
X13599Y5264D01*
X13500Y5284D01*
D02*
G37*
G36*
X222575Y7211D02*
X222155Y7178D01*
X221745Y7080D01*
X221356Y6919D01*
X220996Y6698D01*
X220676Y6425D01*
X220402Y6104D01*
X220182Y5745D01*
X220020Y5355D01*
X219922Y4945D01*
X219889Y4525D01*
X219922Y4105D01*
X220020Y3695D01*
X220182Y3306D01*
X220402Y2946D01*
X220676Y2626D01*
X220996Y2352D01*
X221356Y2132D01*
X221745Y1971D01*
X222155Y1872D01*
X222575Y1839D01*
X222995Y1872D01*
X223405Y1971D01*
X223794Y2132D01*
X224154Y2352D01*
X224474Y2626D01*
X224748Y2946D01*
X224968Y3306D01*
X225130Y3695D01*
X225228Y4105D01*
X225261Y4525D01*
X225228Y4945D01*
X225130Y5355D01*
X224968Y5745D01*
X224748Y6104D01*
X224474Y6425D01*
X224154Y6698D01*
X223794Y6919D01*
X223405Y7080D01*
X222995Y7178D01*
X222575Y7211D01*
D02*
G37*
G36*
X8425D02*
X8005Y7178D01*
X7595Y7080D01*
X7206Y6919D01*
X6846Y6698D01*
X6526Y6425D01*
X6252Y6104D01*
X6032Y5745D01*
X5870Y5355D01*
X5772Y4945D01*
X5739Y4525D01*
X5772Y4105D01*
X5870Y3695D01*
X6032Y3306D01*
X6252Y2946D01*
X6526Y2626D01*
X6846Y2352D01*
X7206Y2132D01*
X7595Y1971D01*
X8005Y1872D01*
X8425Y1839D01*
X8845Y1872D01*
X9255Y1971D01*
X9644Y2132D01*
X10004Y2352D01*
X10324Y2626D01*
X10598Y2946D01*
X10818Y3306D01*
X10980Y3695D01*
X11078Y4105D01*
X11111Y4525D01*
X11078Y4945D01*
X10980Y5355D01*
X10818Y5745D01*
X10598Y6104D01*
X10324Y6425D01*
X10004Y6698D01*
X9644Y6919D01*
X9255Y7080D01*
X8845Y7178D01*
X8425Y7211D01*
D02*
G37*
%LPD*%
D10*
X13000Y33525D02*
D03*
Y4525D02*
D03*
X218000Y33525D02*
D03*
Y4525D02*
D03*
D11*
X46373Y16102D02*
G03*
X46825Y17192I-1091J1091D01*
G01*
X47701Y18691D02*
G03*
X47425Y18805I-276J-276D01*
G01*
D02*
G03*
X47177Y18702I0J-351D01*
G01*
X46950Y18475D02*
G03*
X46825Y18173I302J-302D01*
G01*
X44475Y14850D02*
G03*
X45579Y15307I0J1561D01*
G01*
X44358Y14850D02*
G03*
X43221Y14379I0J-1608D01*
G01*
X42852Y14010D02*
G03*
X42636Y13489I521J-521D01*
G01*
X47425Y19262D02*
G03*
X47744Y19394I0J451D01*
G01*
X47425Y19262D02*
G03*
X46854Y19026I0J-808D01*
G01*
X46627Y18798D02*
G03*
X46368Y18173I625J-625D01*
G01*
X46050Y16425D02*
G03*
X46368Y17192I-767J767D01*
G01*
X44475Y15307D02*
G03*
X45255Y15631I0J1104D01*
G01*
X44358Y15307D02*
G03*
X42898Y14702I0J-2065D01*
G01*
X42008Y14118D02*
G03*
X42529Y14334I0J737D01*
G01*
X45175Y18357D02*
Y19818D01*
Y18260D02*
Y18357D01*
X44872Y27567D02*
X44923Y27618D01*
X45175Y23950D02*
X45558Y23567D01*
Y20201D02*
Y23567D01*
X45175Y19818D02*
X45558Y20201D01*
X31309Y23030D02*
X31889Y22449D01*
X31309Y23030D02*
Y23071D01*
X33345Y23660D02*
X34875D01*
X33853Y24760D02*
X34875D01*
X34755Y21581D02*
X34875Y21460D01*
X33315Y21581D02*
X34755D01*
X33290Y21555D02*
X33315Y21581D01*
X31325Y17060D02*
X34875D01*
X28164Y20222D02*
X31325Y17060D01*
X48366Y18025D02*
X49245D01*
X45579Y15307D02*
X46373Y16102D01*
X48375Y20025D02*
X49245D01*
X47744Y19394D02*
X48375Y20025D01*
X28164Y20222D02*
Y20271D01*
X46453Y11125D02*
X47052Y10526D01*
X44849Y11125D02*
X46453D01*
X44249Y10525D02*
X44849Y11125D01*
X47177Y18702D02*
X47177Y18702D01*
X46950Y18475D02*
X47177Y18702D01*
X47701Y18691D02*
X48366Y18025D01*
X46825Y17192D02*
Y18173D01*
X44358Y14850D02*
X44475D01*
X42852Y14010D02*
X43221Y14379D01*
X46627Y18798D02*
X46854Y19026D01*
X46627Y18798D02*
X46627Y18798D01*
X46368Y17192D02*
Y18173D01*
X45255Y15631D02*
X46050Y16425D01*
X44358Y15307D02*
X44475D01*
X42529Y14334D02*
X42898Y14702D01*
X37750Y18250D02*
X37797Y18203D01*
X39298D01*
X39452Y18357D01*
X45175D01*
X32169Y23076D02*
X32175D01*
X32798Y22818D02*
Y23113D01*
X33345Y23660D01*
X32429Y22449D02*
X32798Y22818D01*
X31889Y22449D02*
X32429D01*
X32169Y23076D02*
X33853Y24760D01*
X29379Y21500D02*
X31050D01*
X33290Y19260D01*
X34875D01*
X28743Y20864D02*
X31087D01*
X33790Y18160D01*
X35275D01*
X54900Y15525D02*
X61175Y21800D01*
Y25125D01*
X49245Y15525D02*
X54900D01*
X102373Y16102D02*
G03*
X102825Y17192I-1091J1091D01*
G01*
X103701Y18691D02*
G03*
X103425Y18805I-276J-276D01*
G01*
D02*
G03*
X103177Y18702I0J-351D01*
G01*
X102950Y18475D02*
G03*
X102825Y18173I302J-302D01*
G01*
X100475Y14850D02*
G03*
X101579Y15307I0J1561D01*
G01*
X100358Y14850D02*
G03*
X99221Y14379I0J-1608D01*
G01*
X98852Y14010D02*
G03*
X98636Y13489I521J-521D01*
G01*
X103425Y19262D02*
G03*
X103744Y19394I0J451D01*
G01*
X103425Y19262D02*
G03*
X102854Y19026I0J-808D01*
G01*
X102627Y18798D02*
G03*
X102368Y18173I625J-625D01*
G01*
X102050Y16425D02*
G03*
X102368Y17192I-767J767D01*
G01*
X100475Y15307D02*
G03*
X101255Y15631I0J1104D01*
G01*
X100358Y15307D02*
G03*
X98898Y14702I0J-2065D01*
G01*
X98008Y14118D02*
G03*
X98529Y14334I0J737D01*
G01*
X101175Y18357D02*
Y19818D01*
Y18260D02*
Y18357D01*
X100872Y27567D02*
X100923Y27618D01*
X101175Y23950D02*
X101558Y23567D01*
Y20201D02*
Y23567D01*
X101175Y19818D02*
X101558Y20201D01*
X87309Y23030D02*
X87889Y22449D01*
X87309Y23030D02*
Y23071D01*
X89345Y23660D02*
X90875D01*
X89853Y24760D02*
X90875D01*
X90755Y21581D02*
X90875Y21460D01*
X89315Y21581D02*
X90755D01*
X89290Y21555D02*
X89315Y21581D01*
X87325Y17060D02*
X90875D01*
X84164Y20222D02*
X87325Y17060D01*
X104366Y18025D02*
X105245D01*
X101579Y15307D02*
X102373Y16102D01*
X104375Y20025D02*
X105245D01*
X103744Y19394D02*
X104375Y20025D01*
X84164Y20222D02*
Y20271D01*
X102453Y11125D02*
X103052Y10526D01*
X100849Y11125D02*
X102453D01*
X100249Y10525D02*
X100849Y11125D01*
X103177Y18702D02*
X103177Y18702D01*
X102950Y18475D02*
X103177Y18702D01*
X103701Y18691D02*
X104366Y18025D01*
X102825Y17192D02*
Y18173D01*
X100358Y14850D02*
X100475D01*
X98852Y14010D02*
X99221Y14379D01*
X102627Y18798D02*
X102854Y19026D01*
X102627Y18798D02*
X102627Y18798D01*
X102368Y17192D02*
Y18173D01*
X101255Y15631D02*
X102050Y16425D01*
X100358Y15307D02*
X100475D01*
X98529Y14334D02*
X98898Y14702D01*
X93750Y18250D02*
X93797Y18203D01*
X95298D01*
X95452Y18357D01*
X101175D01*
X88169Y23076D02*
X88175D01*
X88798Y22818D02*
Y23113D01*
X89345Y23660D01*
X88429Y22449D02*
X88798Y22818D01*
X87889Y22449D02*
X88429D01*
X88169Y23076D02*
X89853Y24760D01*
X85379Y21500D02*
X87050D01*
X89290Y19260D01*
X90875D01*
X84743Y20864D02*
X87087D01*
X89790Y18160D01*
X91275D01*
X110900Y15525D02*
X117175Y21800D01*
Y25125D01*
X105245Y15525D02*
X110900D01*
X158373Y16102D02*
G03*
X158825Y17192I-1091J1091D01*
G01*
X159701Y18691D02*
G03*
X159425Y18805I-276J-276D01*
G01*
D02*
G03*
X159177Y18702I0J-351D01*
G01*
X158950Y18475D02*
G03*
X158825Y18173I302J-302D01*
G01*
X156475Y14850D02*
G03*
X157579Y15307I0J1561D01*
G01*
X156358Y14850D02*
G03*
X155221Y14379I0J-1608D01*
G01*
X154852Y14010D02*
G03*
X154636Y13489I521J-521D01*
G01*
X159425Y19262D02*
G03*
X159744Y19394I0J451D01*
G01*
X159425Y19262D02*
G03*
X158854Y19026I0J-808D01*
G01*
X158627Y18798D02*
G03*
X158368Y18173I625J-625D01*
G01*
X158050Y16425D02*
G03*
X158368Y17192I-767J767D01*
G01*
X156475Y15307D02*
G03*
X157255Y15631I0J1104D01*
G01*
X156358Y15307D02*
G03*
X154898Y14702I0J-2065D01*
G01*
X154008Y14118D02*
G03*
X154529Y14334I0J737D01*
G01*
X157175Y18357D02*
Y19818D01*
Y18260D02*
Y18357D01*
X156872Y27567D02*
X156923Y27618D01*
X157175Y23950D02*
X157558Y23567D01*
Y20201D02*
Y23567D01*
X157175Y19818D02*
X157558Y20201D01*
X143309Y23030D02*
X143889Y22449D01*
X143309Y23030D02*
Y23071D01*
X145345Y23660D02*
X146875D01*
X145853Y24760D02*
X146875D01*
X146755Y21581D02*
X146875Y21460D01*
X145315Y21581D02*
X146755D01*
X145290Y21555D02*
X145315Y21581D01*
X143325Y17060D02*
X146875D01*
X140164Y20222D02*
X143325Y17060D01*
X160366Y18025D02*
X161245D01*
X157579Y15307D02*
X158373Y16102D01*
X160375Y20025D02*
X161245D01*
X159744Y19394D02*
X160375Y20025D01*
X140164Y20222D02*
Y20271D01*
X158453Y11125D02*
X159052Y10526D01*
X156849Y11125D02*
X158453D01*
X156249Y10525D02*
X156849Y11125D01*
X159177Y18702D02*
X159177Y18702D01*
X158950Y18475D02*
X159177Y18702D01*
X159701Y18691D02*
X160366Y18025D01*
X158825Y17192D02*
Y18173D01*
X156358Y14850D02*
X156475D01*
X154852Y14010D02*
X155221Y14379D01*
X158627Y18798D02*
X158854Y19026D01*
X158627Y18798D02*
X158627Y18798D01*
X158368Y17192D02*
Y18173D01*
X157255Y15631D02*
X158050Y16425D01*
X156358Y15307D02*
X156475D01*
X154529Y14334D02*
X154898Y14702D01*
X149750Y18250D02*
X149797Y18203D01*
X151298D01*
X151452Y18357D01*
X157175D01*
X144169Y23076D02*
X144175D01*
X144798Y22818D02*
Y23113D01*
X145345Y23660D01*
X144429Y22449D02*
X144798Y22818D01*
X143889Y22449D02*
X144429D01*
X144169Y23076D02*
X145853Y24760D01*
X141379Y21500D02*
X143050D01*
X145290Y19260D01*
X146875D01*
X140743Y20864D02*
X143087D01*
X145790Y18160D01*
X147275D01*
X166900Y15525D02*
X173175Y21800D01*
Y25125D01*
X161245Y15525D02*
X166900D01*
X214373Y16102D02*
G03*
X214825Y17192I-1091J1091D01*
G01*
X215701Y18691D02*
G03*
X215425Y18805I-276J-276D01*
G01*
D02*
G03*
X215177Y18702I0J-351D01*
G01*
X214950Y18475D02*
G03*
X214825Y18173I302J-302D01*
G01*
X212475Y14850D02*
G03*
X213579Y15307I0J1561D01*
G01*
X212358Y14850D02*
G03*
X211221Y14379I0J-1608D01*
G01*
X210852Y14010D02*
G03*
X210636Y13489I521J-521D01*
G01*
X215425Y19262D02*
G03*
X215744Y19394I0J451D01*
G01*
X215425Y19262D02*
G03*
X214854Y19026I0J-808D01*
G01*
X214627Y18798D02*
G03*
X214368Y18173I625J-625D01*
G01*
X214050Y16425D02*
G03*
X214368Y17192I-767J767D01*
G01*
X212475Y15307D02*
G03*
X213255Y15631I0J1104D01*
G01*
X212358Y15307D02*
G03*
X210898Y14702I0J-2065D01*
G01*
X210008Y14118D02*
G03*
X210529Y14334I0J737D01*
G01*
X213175Y18357D02*
Y19818D01*
Y18260D02*
Y18357D01*
X212872Y27567D02*
X212923Y27618D01*
X213175Y23950D02*
X213558Y23567D01*
Y20201D02*
Y23567D01*
X213175Y19818D02*
X213558Y20201D01*
X199309Y23030D02*
X199889Y22449D01*
X199309Y23030D02*
Y23071D01*
X201345Y23660D02*
X202875D01*
X201853Y24760D02*
X202875D01*
X202755Y21581D02*
X202875Y21460D01*
X201315Y21581D02*
X202755D01*
X201290Y21555D02*
X201315Y21581D01*
X199325Y17060D02*
X202875D01*
X196164Y20222D02*
X199325Y17060D01*
X216366Y18025D02*
X217245D01*
X213579Y15307D02*
X214373Y16102D01*
X216375Y20025D02*
X217245D01*
X215744Y19394D02*
X216375Y20025D01*
X196164Y20222D02*
Y20271D01*
X214453Y11125D02*
X215052Y10526D01*
X212849Y11125D02*
X214453D01*
X212249Y10525D02*
X212849Y11125D01*
X215177Y18702D02*
X215177Y18702D01*
X214950Y18475D02*
X215177Y18702D01*
X215701Y18691D02*
X216366Y18025D01*
X214825Y17192D02*
Y18173D01*
X212358Y14850D02*
X212475D01*
X210852Y14010D02*
X211221Y14379D01*
X214627Y18798D02*
X214854Y19026D01*
X214627Y18798D02*
X214627Y18798D01*
X214368Y17192D02*
Y18173D01*
X213255Y15631D02*
X214050Y16425D01*
X212358Y15307D02*
X212475D01*
X210529Y14334D02*
X210898Y14702D01*
X205750Y18250D02*
X205797Y18203D01*
X207298D01*
X207452Y18357D01*
X213175D01*
X200169Y23076D02*
X200175D01*
X200798Y22818D02*
Y23113D01*
X201345Y23660D01*
X200429Y22449D02*
X200798Y22818D01*
X199889Y22449D02*
X200429D01*
X200169Y23076D02*
X201853Y24760D01*
X197379Y21500D02*
X199050D01*
X201290Y19260D01*
X202875D01*
X196743Y20864D02*
X199087D01*
X201790Y18160D01*
X203275D01*
X222900Y15525D02*
X229175Y21800D01*
Y25125D01*
X217245Y15525D02*
X222900D01*
D12*
X47177Y18702D02*
D03*
X46627Y18798D02*
D03*
X103177Y18702D02*
D03*
X102627Y18798D02*
D03*
X159177Y18702D02*
D03*
X158627Y18798D02*
D03*
X215177Y18702D02*
D03*
X214627Y18798D02*
D03*
D13*
X49245Y15525D02*
D03*
Y22525D02*
D03*
X49245Y20025D02*
D03*
X49245Y18025D02*
D03*
X105245Y15525D02*
D03*
Y22525D02*
D03*
X105245Y20025D02*
D03*
X105245Y18025D02*
D03*
X161245Y15525D02*
D03*
Y22525D02*
D03*
X161245Y20025D02*
D03*
X161245Y18025D02*
D03*
X217245Y15525D02*
D03*
Y22525D02*
D03*
X217245Y20025D02*
D03*
X217245Y18025D02*
D03*
D14*
X34875Y17060D02*
D03*
X35275Y18160D02*
D03*
X34875Y19260D02*
D03*
X34675Y20360D02*
D03*
X34875Y21460D02*
D03*
X34675Y22560D02*
D03*
X34875Y23660D02*
D03*
Y24760D02*
D03*
X90875Y17060D02*
D03*
X91275Y18160D02*
D03*
X90875Y19260D02*
D03*
X90675Y20360D02*
D03*
X90875Y21460D02*
D03*
X90675Y22560D02*
D03*
X90875Y23660D02*
D03*
Y24760D02*
D03*
X146875Y17060D02*
D03*
X147275Y18160D02*
D03*
X146875Y19260D02*
D03*
X146675Y20360D02*
D03*
X146875Y21460D02*
D03*
X146675Y22560D02*
D03*
X146875Y23660D02*
D03*
Y24760D02*
D03*
X202875Y17060D02*
D03*
X203275Y18160D02*
D03*
X202875Y19260D02*
D03*
X202675Y20360D02*
D03*
X202875Y21460D02*
D03*
X202675Y22560D02*
D03*
X202875Y23660D02*
D03*
Y24760D02*
D03*
D15*
X31025Y12400D02*
D03*
X32175Y25550D02*
D03*
X87025Y12400D02*
D03*
X88175Y25550D02*
D03*
X143025Y12400D02*
D03*
X144175Y25550D02*
D03*
X199025Y12400D02*
D03*
X200175Y25550D02*
D03*
D16*
X45175Y18260D02*
D03*
Y23950D02*
D03*
X101175Y18260D02*
D03*
Y23950D02*
D03*
X157175Y18260D02*
D03*
Y23950D02*
D03*
X213175Y18260D02*
D03*
Y23950D02*
D03*
D17*
X42852Y10525D02*
D03*
X44249D02*
D03*
X98852D02*
D03*
X100249D02*
D03*
X154852D02*
D03*
X156249D02*
D03*
X210852D02*
D03*
X212249D02*
D03*
D18*
X48449Y10526D02*
D03*
X47052D02*
D03*
X104449D02*
D03*
X103052D02*
D03*
X160449D02*
D03*
X159052D02*
D03*
X216449D02*
D03*
X215052D02*
D03*
D19*
X29658Y26399D02*
X29683D01*
X29012Y25753D02*
X29658Y26399D01*
X29012Y23088D02*
Y25753D01*
X49245Y22525D02*
X51184D01*
X34666Y22551D02*
X34675Y22560D01*
X33425Y22551D02*
X34666D01*
X29012Y23088D02*
X29928Y22172D01*
X31272D01*
X33084Y20360D01*
X34675D01*
X85658Y26399D02*
X85683D01*
X85012Y25753D02*
X85658Y26399D01*
X85012Y23088D02*
Y25753D01*
X105245Y22525D02*
X107184D01*
X90666Y22551D02*
X90675Y22560D01*
X89425Y22551D02*
X90666D01*
X85012Y23088D02*
X85928Y22172D01*
X87272D01*
X89084Y20360D01*
X90675D01*
X141658Y26399D02*
X141683D01*
X141012Y25753D02*
X141658Y26399D01*
X141012Y23088D02*
Y25753D01*
X161245Y22525D02*
X163184D01*
X146666Y22551D02*
X146675Y22560D01*
X145425Y22551D02*
X146666D01*
X141012Y23088D02*
X141928Y22172D01*
X143272D01*
X145084Y20360D01*
X146675D01*
X197658Y26399D02*
X197683D01*
X197012Y25753D02*
X197658Y26399D01*
X197012Y23088D02*
Y25753D01*
X217245Y22525D02*
X219184D01*
X202666Y22551D02*
X202675Y22560D01*
X201425Y22551D02*
X202666D01*
X197012Y23088D02*
X197928Y22172D01*
X199272D01*
X201084Y20360D01*
X202675D01*
D20*
X32175Y25550D02*
X33580D01*
X31025Y12400D02*
X32525D01*
X41494Y10346D02*
X41545Y10295D01*
X42231Y10525D02*
X42852D01*
X41508Y11248D02*
X42231Y10525D01*
X37875Y11248D02*
X41508D01*
X88175Y25550D02*
X89580D01*
X87025Y12400D02*
X88525D01*
X97494Y10346D02*
X97545Y10295D01*
X98231Y10525D02*
X98852D01*
X97508Y11248D02*
X98231Y10525D01*
X93874Y11248D02*
X97508D01*
X144175Y25550D02*
X145580D01*
X143025Y12400D02*
X144525D01*
X153494Y10346D02*
X153545Y10295D01*
X154231Y10525D02*
X154852D01*
X153508Y11248D02*
X154231Y10525D01*
X149874Y11248D02*
X153508D01*
X200175Y25550D02*
X201580D01*
X199025Y12400D02*
X200525D01*
X209494Y10346D02*
X209545Y10295D01*
X210231Y10525D02*
X210852D01*
X209508Y11248D02*
X210231Y10525D01*
X205874Y11248D02*
X209508D01*
D21*
X8425Y33525D02*
D03*
X222575Y33525D02*
D03*
Y4525D02*
D03*
X8425D02*
D03*
X40046Y27440D02*
D03*
X37506D02*
D03*
X34966D02*
D03*
X96046D02*
D03*
X93506D02*
D03*
X90966D02*
D03*
X152046D02*
D03*
X149506D02*
D03*
X146966D02*
D03*
X208046D02*
D03*
X205506D02*
D03*
X202966D02*
D03*
D22*
X42586D02*
D03*
X98586D02*
D03*
X154586D02*
D03*
X210586D02*
D03*
D23*
X52695Y12450D02*
D03*
X52695Y25600D02*
D03*
X108695Y12450D02*
D03*
X108695Y25600D02*
D03*
X164695Y12450D02*
D03*
X164695Y25600D02*
D03*
X220695Y12450D02*
D03*
X220695Y25600D02*
D03*
D24*
X29683Y26399D02*
D03*
X48530Y26348D02*
D03*
X44923Y27618D02*
D03*
Y25459D02*
D03*
X36211Y24875D02*
D03*
X28900Y16675D02*
D03*
X48885Y23757D02*
D03*
X37875Y11248D02*
D03*
X37875Y12645D02*
D03*
X51184Y22525D02*
D03*
X46980Y25561D02*
D03*
X43907Y24367D02*
D03*
X33580Y25550D02*
D03*
X32525Y12400D02*
D03*
X52162Y16366D02*
D03*
X49851Y21116D02*
D03*
X51222Y20531D02*
D03*
X51730Y19820D02*
D03*
X58588Y12429D02*
D03*
X55845Y27796D02*
D03*
X60424Y27789D02*
D03*
X27194Y27275D02*
D03*
X31309Y23071D02*
D03*
X34622Y14625D02*
D03*
X46821Y23529D02*
D03*
X14799Y16721D02*
D03*
X36566Y20176D02*
D03*
X27778Y23492D02*
D03*
X41545Y10295D02*
D03*
X14793Y18925D02*
D03*
X41443Y14907D02*
D03*
X39741Y15423D02*
D03*
X45970Y10405D02*
D03*
X29850Y23435D02*
D03*
X33290Y21555D02*
D03*
X59565Y16311D02*
D03*
Y14119D02*
D03*
X54485Y23931D02*
D03*
Y21739D02*
D03*
X59565Y23931D02*
D03*
Y21739D02*
D03*
X27524Y14494D02*
D03*
X42850Y11825D02*
D03*
X42008Y14118D02*
D03*
X28743Y20864D02*
D03*
X29379Y21500D02*
D03*
X28164Y20222D02*
D03*
X20717Y18169D02*
D03*
X28870Y11235D02*
D03*
X44875Y20550D02*
D03*
X46000Y19675D02*
D03*
X43725Y19025D02*
D03*
X43965Y21571D02*
D03*
X41454Y18990D02*
D03*
X44035Y16480D02*
D03*
X42745Y17735D02*
D03*
X42727Y20298D02*
D03*
X37278Y22317D02*
D03*
X42636Y13489D02*
D03*
X37750Y18250D02*
D03*
X36875Y21425D02*
D03*
X38475Y18825D02*
D03*
X37375Y10425D02*
D03*
X35622Y11399D02*
D03*
X33075Y13900D02*
D03*
X30511Y19025D02*
D03*
X31218Y18318D02*
D03*
X31925Y19025D02*
D03*
X31218Y19732D02*
D03*
X32175Y23076D02*
D03*
X33425Y22551D02*
D03*
X61175Y25125D02*
D03*
X51975Y14875D02*
D03*
X85683Y26399D02*
D03*
X104530Y26348D02*
D03*
X100923Y27618D02*
D03*
Y25459D02*
D03*
X92211Y24875D02*
D03*
X84900Y16675D02*
D03*
X104885Y23757D02*
D03*
X93874Y11248D02*
D03*
X93874Y12645D02*
D03*
X107184Y22525D02*
D03*
X102980Y25561D02*
D03*
X99907Y24367D02*
D03*
X89580Y25550D02*
D03*
X88525Y12400D02*
D03*
X108162Y16366D02*
D03*
X105851Y21116D02*
D03*
X107222Y20531D02*
D03*
X107730Y19820D02*
D03*
X114588Y12429D02*
D03*
X111845Y27796D02*
D03*
X116424Y27789D02*
D03*
X83194Y27275D02*
D03*
X87309Y23071D02*
D03*
X90622Y14625D02*
D03*
X102821Y23529D02*
D03*
X70799Y16721D02*
D03*
X92566Y20176D02*
D03*
X83778Y23492D02*
D03*
X97545Y10295D02*
D03*
X70793Y18925D02*
D03*
X97443Y14907D02*
D03*
X95741Y15423D02*
D03*
X101970Y10405D02*
D03*
X85850Y23435D02*
D03*
X89290Y21555D02*
D03*
X115565Y16311D02*
D03*
Y14119D02*
D03*
X110485Y23931D02*
D03*
Y21739D02*
D03*
X115565Y23931D02*
D03*
Y21739D02*
D03*
X83524Y14494D02*
D03*
X98850Y11825D02*
D03*
X98008Y14118D02*
D03*
X84743Y20864D02*
D03*
X85379Y21500D02*
D03*
X84164Y20222D02*
D03*
X76717Y18169D02*
D03*
X84870Y11235D02*
D03*
X100875Y20550D02*
D03*
X102000Y19675D02*
D03*
X99725Y19025D02*
D03*
X99965Y21571D02*
D03*
X97454Y18990D02*
D03*
X100035Y16480D02*
D03*
X98745Y17735D02*
D03*
X98727Y20298D02*
D03*
X93278Y22317D02*
D03*
X98636Y13489D02*
D03*
X93750Y18250D02*
D03*
X92875Y21425D02*
D03*
X94475Y18825D02*
D03*
X93375Y10425D02*
D03*
X91622Y11399D02*
D03*
X89075Y13900D02*
D03*
X86511Y19025D02*
D03*
X87218Y18318D02*
D03*
X87925Y19025D02*
D03*
X87218Y19732D02*
D03*
X88175Y23076D02*
D03*
X89425Y22551D02*
D03*
X117175Y25125D02*
D03*
X107975Y14875D02*
D03*
X141683Y26399D02*
D03*
X160530Y26348D02*
D03*
X156923Y27618D02*
D03*
Y25459D02*
D03*
X148211Y24875D02*
D03*
X140900Y16675D02*
D03*
X160885Y23757D02*
D03*
X149874Y11248D02*
D03*
X149874Y12645D02*
D03*
X163184Y22525D02*
D03*
X158980Y25561D02*
D03*
X155907Y24367D02*
D03*
X145580Y25550D02*
D03*
X144525Y12400D02*
D03*
X164162Y16366D02*
D03*
X161851Y21116D02*
D03*
X163222Y20531D02*
D03*
X163730Y19820D02*
D03*
X170588Y12429D02*
D03*
X167845Y27796D02*
D03*
X172424Y27789D02*
D03*
X139194Y27275D02*
D03*
X143309Y23071D02*
D03*
X146622Y14625D02*
D03*
X158821Y23529D02*
D03*
X126799Y16721D02*
D03*
X148566Y20176D02*
D03*
X139778Y23492D02*
D03*
X153545Y10295D02*
D03*
X126793Y18925D02*
D03*
X153443Y14907D02*
D03*
X151741Y15423D02*
D03*
X157970Y10405D02*
D03*
X141850Y23435D02*
D03*
X145290Y21555D02*
D03*
X171565Y16311D02*
D03*
Y14119D02*
D03*
X166485Y23931D02*
D03*
Y21739D02*
D03*
X171565Y23931D02*
D03*
Y21739D02*
D03*
X139524Y14494D02*
D03*
X154850Y11825D02*
D03*
X154008Y14118D02*
D03*
X140743Y20864D02*
D03*
X141379Y21500D02*
D03*
X140164Y20222D02*
D03*
X132717Y18169D02*
D03*
X140870Y11235D02*
D03*
X156875Y20550D02*
D03*
X158000Y19675D02*
D03*
X155725Y19025D02*
D03*
X155965Y21571D02*
D03*
X153454Y18990D02*
D03*
X156035Y16480D02*
D03*
X154745Y17735D02*
D03*
X154727Y20298D02*
D03*
X149278Y22317D02*
D03*
X154636Y13489D02*
D03*
X149750Y18250D02*
D03*
X148875Y21425D02*
D03*
X150475Y18825D02*
D03*
X149375Y10425D02*
D03*
X147622Y11399D02*
D03*
X145075Y13900D02*
D03*
X142511Y19025D02*
D03*
X143218Y18318D02*
D03*
X143925Y19025D02*
D03*
X143218Y19732D02*
D03*
X144175Y23076D02*
D03*
X145425Y22551D02*
D03*
X173175Y25125D02*
D03*
X163975Y14875D02*
D03*
X197683Y26399D02*
D03*
X216530Y26348D02*
D03*
X212923Y27618D02*
D03*
Y25459D02*
D03*
X204211Y24875D02*
D03*
X196900Y16675D02*
D03*
X216885Y23757D02*
D03*
X205874Y11248D02*
D03*
X205874Y12645D02*
D03*
X219184Y22525D02*
D03*
X214980Y25561D02*
D03*
X211907Y24367D02*
D03*
X201580Y25550D02*
D03*
X200525Y12400D02*
D03*
X220162Y16366D02*
D03*
X217851Y21116D02*
D03*
X219222Y20531D02*
D03*
X219730Y19820D02*
D03*
X226588Y12429D02*
D03*
X223845Y27796D02*
D03*
X228424Y27789D02*
D03*
X195194Y27275D02*
D03*
X199309Y23071D02*
D03*
X202622Y14625D02*
D03*
X214821Y23529D02*
D03*
X182799Y16721D02*
D03*
X204566Y20176D02*
D03*
X195778Y23492D02*
D03*
X209545Y10295D02*
D03*
X182793Y18925D02*
D03*
X209443Y14907D02*
D03*
X207741Y15423D02*
D03*
X213970Y10405D02*
D03*
X197850Y23435D02*
D03*
X201290Y21555D02*
D03*
X227565Y16311D02*
D03*
Y14119D02*
D03*
X222485Y23931D02*
D03*
Y21739D02*
D03*
X227565Y23931D02*
D03*
Y21739D02*
D03*
X195524Y14494D02*
D03*
X210850Y11825D02*
D03*
X210008Y14118D02*
D03*
X196743Y20864D02*
D03*
X197379Y21500D02*
D03*
X196164Y20222D02*
D03*
X188717Y18169D02*
D03*
X196870Y11235D02*
D03*
X212875Y20550D02*
D03*
X214000Y19675D02*
D03*
X211725Y19025D02*
D03*
X211965Y21571D02*
D03*
X209454Y18990D02*
D03*
X212035Y16480D02*
D03*
X210745Y17735D02*
D03*
X210727Y20298D02*
D03*
X205278Y22317D02*
D03*
X210636Y13489D02*
D03*
X205750Y18250D02*
D03*
X204875Y21425D02*
D03*
X206475Y18825D02*
D03*
X205375Y10425D02*
D03*
X203622Y11399D02*
D03*
X201075Y13900D02*
D03*
X198511Y19025D02*
D03*
X199218Y18318D02*
D03*
X199925Y19025D02*
D03*
X199218Y19732D02*
D03*
X200175Y23076D02*
D03*
X201425Y22551D02*
D03*
X229175Y25125D02*
D03*
X219975Y14875D02*
D03*
M02*
