G04 Layer_Color=16711935*
%FSLAX43Y43*%
%MOMM*%
G71*
G01*
G75*
%ADD12C,0.203*%
%ADD46R,0.282X0.282*%
G04:AMPARAMS|DCode=48|XSize=2.45mm|YSize=2.25mm|CornerRadius=0mm|HoleSize=0mm|Usage=FLASHONLY|Rotation=225.000|XOffset=0mm|YOffset=0mm|HoleType=Round|Shape=Rectangle|*
%AMROTATEDRECTD48*
4,1,4,0.071,1.662,1.662,0.071,-0.071,-1.662,-1.662,-0.071,0.071,1.662,0.0*
%
%ADD48ROTATEDRECTD48*%

G04:AMPARAMS|DCode=49|XSize=2.45mm|YSize=2.25mm|CornerRadius=0mm|HoleSize=0mm|Usage=FLASHONLY|Rotation=315.000|XOffset=0mm|YOffset=0mm|HoleType=Round|Shape=Rectangle|*
%AMROTATEDRECTD49*
4,1,4,-1.662,0.071,-0.071,1.662,1.662,-0.071,0.071,-1.662,-1.662,0.071,0.0*
%
%ADD49ROTATEDRECTD49*%

%ADD67R,1.203X1.203*%
%ADD73R,0.965X0.965*%
%ADD74C,3.500*%
%ADD75R,1.703X1.703*%
%ADD76C,1.703*%
%ADD77C,3.003*%
%ADD78C,0.838*%
%ADD79R,5.000X12.000*%
%ADD80R,1.003X1.103*%
G04:AMPARAMS|DCode=81|XSize=1.103mm|YSize=1.053mm|CornerRadius=0mm|HoleSize=0mm|Usage=FLASHONLY|Rotation=45.000|XOffset=0mm|YOffset=0mm|HoleType=Round|Shape=Rectangle|*
%AMROTATEDRECTD81*
4,1,4,-0.018,-0.762,-0.762,-0.018,0.018,0.762,0.762,0.018,-0.018,-0.762,0.0*
%
%ADD81ROTATEDRECTD81*%

%ADD82P,1.365X4X180.0*%
%ADD83P,1.023X4X180.0*%
%ADD84P,7.783X4X90.0*%
G04:AMPARAMS|DCode=85|XSize=0.449mm|YSize=1.249mm|CornerRadius=0mm|HoleSize=0mm|Usage=FLASHONLY|Rotation=45.000|XOffset=0mm|YOffset=0mm|HoleType=Round|Shape=Round|*
%AMOVALD85*
21,1,0.800,0.449,0.000,0.000,135.0*
1,1,0.449,0.283,-0.283*
1,1,0.449,-0.283,0.283*
%
%ADD85OVALD85*%

G04:AMPARAMS|DCode=86|XSize=0.449mm|YSize=1.249mm|CornerRadius=0mm|HoleSize=0mm|Usage=FLASHONLY|Rotation=315.000|XOffset=0mm|YOffset=0mm|HoleType=Round|Shape=Round|*
%AMOVALD86*
21,1,0.800,0.449,0.000,0.000,45.0*
1,1,0.449,-0.283,-0.283*
1,1,0.449,0.283,0.283*
%
%ADD86OVALD86*%

%ADD87R,0.723X0.723*%
%ADD88P,1.365X4X90.0*%
%ADD89P,1.023X4X90.0*%
%ADD90R,0.965X0.965*%
G04:AMPARAMS|DCode=91|XSize=1.253mm|YSize=0.803mm|CornerRadius=0mm|HoleSize=0mm|Usage=FLASHONLY|Rotation=45.000|XOffset=0mm|YOffset=0mm|HoleType=Round|Shape=Rectangle|*
%AMROTATEDRECTD91*
4,1,4,-0.159,-0.727,-0.727,-0.159,0.159,0.727,0.727,0.159,-0.159,-0.727,0.0*
%
%ADD91ROTATEDRECTD91*%

%ADD92R,3.103X1.003*%
%ADD93R,3.403X1.003*%
%ADD94R,3.886X1.473*%
%ADD95C,0.440*%
G04:AMPARAMS|DCode=96|XSize=0.44mm|YSize=0.86mm|CornerRadius=0mm|HoleSize=0mm|Usage=FLASHONLY|Rotation=315.000|XOffset=0mm|YOffset=0mm|HoleType=Round|Shape=Rectangle|*
%AMROTATEDRECTD96*
4,1,4,-0.460,-0.148,0.148,0.460,0.460,0.148,-0.148,-0.460,-0.460,-0.148,0.0*
%
%ADD96ROTATEDRECTD96*%

G04:AMPARAMS|DCode=97|XSize=0.44mm|YSize=0.86mm|CornerRadius=0mm|HoleSize=0mm|Usage=FLASHONLY|Rotation=225.000|XOffset=0mm|YOffset=0mm|HoleType=Round|Shape=Rectangle|*
%AMROTATEDRECTD97*
4,1,4,-0.148,0.460,0.460,-0.148,0.148,-0.460,-0.460,0.148,-0.148,0.460,0.0*
%
%ADD97ROTATEDRECTD97*%

G36*
X201056Y19025D02*
X199218Y17187D01*
X197556Y18848D01*
Y19202D01*
X199218Y20864D01*
X201056Y19025D01*
D02*
G37*
G36*
X145056D02*
X143218Y17187D01*
X141556Y18848D01*
Y19202D01*
X143218Y20864D01*
X145056Y19025D01*
D02*
G37*
G36*
X89056D02*
X87218Y17187D01*
X85556Y18848D01*
Y19202D01*
X87218Y20864D01*
X89056Y19025D01*
D02*
G37*
G36*
X33056D02*
X31218Y17187D01*
X29556Y18848D01*
Y19202D01*
X31218Y20864D01*
X33056Y19025D01*
D02*
G37*
D12*
X3000Y33525D02*
D03*
X228000Y33525D02*
D03*
Y4525D02*
D03*
X3000D02*
D03*
D46*
X29767Y19025D02*
D03*
X85767D02*
D03*
X141767D02*
D03*
X197767D02*
D03*
D48*
X31289Y18954D02*
D03*
X87289D02*
D03*
X143289D02*
D03*
X199289D02*
D03*
D49*
X31289Y19096D02*
D03*
X87289D02*
D03*
X143289D02*
D03*
X199289D02*
D03*
D67*
X13000Y33525D02*
D03*
Y4525D02*
D03*
X218000Y33525D02*
D03*
Y4525D02*
D03*
D73*
X56264Y12429D02*
D03*
X57661D02*
D03*
X50270Y24951D02*
D03*
X48873D02*
D03*
X42828Y10405D02*
D03*
X44225Y10405D02*
D03*
X41648Y11275D02*
D03*
X40252Y11275D02*
D03*
Y12600D02*
D03*
X41648Y12600D02*
D03*
X39094Y13986D02*
D03*
X40491D02*
D03*
X28400Y14494D02*
D03*
X29797D02*
D03*
X32160Y24291D02*
D03*
X33556D02*
D03*
X58703Y25129D02*
D03*
X60100D02*
D03*
X53419Y27796D02*
D03*
X54816D02*
D03*
X112264Y12429D02*
D03*
X113661D02*
D03*
X106270Y24951D02*
D03*
X104873D02*
D03*
X98828Y10405D02*
D03*
X100225Y10405D02*
D03*
X97648Y11275D02*
D03*
X96252Y11275D02*
D03*
Y12600D02*
D03*
X97648Y12600D02*
D03*
X95094Y13986D02*
D03*
X96491D02*
D03*
X84400Y14494D02*
D03*
X85797D02*
D03*
X88160Y24291D02*
D03*
X89557D02*
D03*
X114703Y25129D02*
D03*
X116100D02*
D03*
X109419Y27796D02*
D03*
X110816D02*
D03*
X168264Y12429D02*
D03*
X169661D02*
D03*
X162270Y24951D02*
D03*
X160873D02*
D03*
X154828Y10405D02*
D03*
X156225Y10405D02*
D03*
X153648Y11275D02*
D03*
X152252Y11275D02*
D03*
Y12600D02*
D03*
X153648Y12600D02*
D03*
X151094Y13986D02*
D03*
X152491D02*
D03*
X140400Y14494D02*
D03*
X141797D02*
D03*
X144160Y24291D02*
D03*
X145557D02*
D03*
X170703Y25129D02*
D03*
X172100D02*
D03*
X165419Y27796D02*
D03*
X166816D02*
D03*
X224264Y12429D02*
D03*
X225661D02*
D03*
X218270Y24951D02*
D03*
X216873D02*
D03*
X210828Y10405D02*
D03*
X212225Y10405D02*
D03*
X209648Y11275D02*
D03*
X208252Y11275D02*
D03*
Y12600D02*
D03*
X209648Y12600D02*
D03*
X207094Y13986D02*
D03*
X208491D02*
D03*
X196400Y14494D02*
D03*
X197797D02*
D03*
X200160Y24291D02*
D03*
X201557D02*
D03*
X226703Y25129D02*
D03*
X228100D02*
D03*
X221419Y27796D02*
D03*
X222816D02*
D03*
D74*
X8425Y33525D02*
D03*
X222575Y33525D02*
D03*
Y4525D02*
D03*
X8425D02*
D03*
D75*
X42586Y27440D02*
D03*
X98586D02*
D03*
X154586D02*
D03*
X210586D02*
D03*
D76*
X40046D02*
D03*
X37506D02*
D03*
X34966D02*
D03*
X96046D02*
D03*
X93506D02*
D03*
X90966D02*
D03*
X152046D02*
D03*
X149506D02*
D03*
X146966D02*
D03*
X208046D02*
D03*
X205506D02*
D03*
X202966D02*
D03*
D77*
X52695Y12450D02*
D03*
X52695Y25600D02*
D03*
X108695Y12450D02*
D03*
X108695Y25600D02*
D03*
X164695Y12450D02*
D03*
X164695Y25600D02*
D03*
X220695Y12450D02*
D03*
X220695Y25600D02*
D03*
D78*
X61175Y25125D02*
D03*
X117175D02*
D03*
X173175D02*
D03*
X229175D02*
D03*
D79*
X3000Y19525D02*
D03*
D80*
X30841Y25525D02*
D03*
X28541Y25525D02*
D03*
X30841Y27275D02*
D03*
X28541Y27275D02*
D03*
X34875Y10400D02*
D03*
X36275D02*
D03*
X86841Y25525D02*
D03*
X84541Y25525D02*
D03*
X86841Y27275D02*
D03*
X84541Y27275D02*
D03*
X90875Y10400D02*
D03*
X92275D02*
D03*
X142841Y25525D02*
D03*
X140541Y25525D02*
D03*
X142841Y27275D02*
D03*
X140541Y27275D02*
D03*
X146875Y10400D02*
D03*
X148275D02*
D03*
X198841Y25525D02*
D03*
X196541Y25525D02*
D03*
X198841Y27275D02*
D03*
X196541Y27275D02*
D03*
X202875Y10400D02*
D03*
X204275D02*
D03*
D81*
X47556Y12801D02*
D03*
X48599Y13844D02*
D03*
X49394Y13049D02*
D03*
X48351Y12006D02*
D03*
X103556Y12801D02*
D03*
X104599Y13844D02*
D03*
X105394Y13049D02*
D03*
X104351Y12006D02*
D03*
X159556Y12801D02*
D03*
X160599Y13844D02*
D03*
X161394Y13049D02*
D03*
X160351Y12006D02*
D03*
X215556Y12801D02*
D03*
X216599Y13844D02*
D03*
X217394Y13049D02*
D03*
X216351Y12006D02*
D03*
D82*
X50819Y14106D02*
D03*
X49831Y15094D02*
D03*
X46281Y11794D02*
D03*
X47269Y10806D02*
D03*
X27223Y22938D02*
D03*
X28211Y21950D02*
D03*
X38435Y22811D02*
D03*
X39423Y21823D02*
D03*
X106819Y14106D02*
D03*
X105831Y15094D02*
D03*
X102281Y11794D02*
D03*
X103269Y10806D02*
D03*
X83223Y22938D02*
D03*
X84211Y21950D02*
D03*
X94435Y22811D02*
D03*
X95423Y21823D02*
D03*
X162819Y14106D02*
D03*
X161831Y15094D02*
D03*
X158281Y11794D02*
D03*
X159269Y10806D02*
D03*
X139223Y22938D02*
D03*
X140211Y21950D02*
D03*
X150435Y22811D02*
D03*
X151423Y21823D02*
D03*
X218819Y14106D02*
D03*
X217831Y15094D02*
D03*
X214281Y11794D02*
D03*
X215269Y10806D02*
D03*
X195223Y22938D02*
D03*
X196211Y21950D02*
D03*
X206435Y22811D02*
D03*
X207423Y21823D02*
D03*
D83*
X50587Y18682D02*
D03*
X51152Y19248D02*
D03*
X48907Y21442D02*
D03*
X49473Y22008D02*
D03*
X46240Y24109D02*
D03*
X46806Y24675D02*
D03*
X45529Y24821D02*
D03*
X46095Y25386D02*
D03*
X43883Y12858D02*
D03*
X43317Y12292D02*
D03*
X38627Y17571D02*
D03*
X38062Y17005D02*
D03*
X34778Y16109D02*
D03*
X34212Y15544D02*
D03*
X106587Y18682D02*
D03*
X107152Y19248D02*
D03*
X104907Y21442D02*
D03*
X105473Y22008D02*
D03*
X102240Y24109D02*
D03*
X102806Y24675D02*
D03*
X101529Y24821D02*
D03*
X102095Y25386D02*
D03*
X99883Y12858D02*
D03*
X99317Y12292D02*
D03*
X94627Y17571D02*
D03*
X94062Y17005D02*
D03*
X90778Y16109D02*
D03*
X90212Y15544D02*
D03*
X162587Y18682D02*
D03*
X163152Y19248D02*
D03*
X160907Y21442D02*
D03*
X161473Y22008D02*
D03*
X158240Y24109D02*
D03*
X158806Y24675D02*
D03*
X157529Y24821D02*
D03*
X158095Y25386D02*
D03*
X155883Y12858D02*
D03*
X155317Y12292D02*
D03*
X150627Y17571D02*
D03*
X150062Y17005D02*
D03*
X146778Y16109D02*
D03*
X146212Y15544D02*
D03*
X218587Y18682D02*
D03*
X219152Y19248D02*
D03*
X216907Y21442D02*
D03*
X217473Y22008D02*
D03*
X214240Y24109D02*
D03*
X214806Y24675D02*
D03*
X213529Y24821D02*
D03*
X214095Y25386D02*
D03*
X211883Y12858D02*
D03*
X211317Y12292D02*
D03*
X206627Y17571D02*
D03*
X206062Y17005D02*
D03*
X202778Y16109D02*
D03*
X202212Y15544D02*
D03*
D84*
X44000Y19025D02*
D03*
X100000D02*
D03*
X156000D02*
D03*
X212000D02*
D03*
D85*
X44566Y14570D02*
D03*
X44919Y14924D02*
D03*
X45273Y15278D02*
D03*
X45626Y15631D02*
D03*
X45980Y15985D02*
D03*
X46333Y16338D02*
D03*
X46687Y16692D02*
D03*
X47041Y17045D02*
D03*
X47394Y17399D02*
D03*
X47748Y17752D02*
D03*
X48101Y18106D02*
D03*
X48455Y18460D02*
D03*
X43434Y23480D02*
D03*
X43081Y23126D02*
D03*
X42727Y22773D02*
D03*
X42374Y22419D02*
D03*
X42020Y22066D02*
D03*
X41667Y21712D02*
D03*
X41313Y21359D02*
D03*
X40959Y21005D02*
D03*
X40606Y20652D02*
D03*
X40252Y20298D02*
D03*
X39899Y19944D02*
D03*
X39545Y19591D02*
D03*
X100566Y14570D02*
D03*
X100919Y14924D02*
D03*
X101273Y15278D02*
D03*
X101626Y15631D02*
D03*
X101980Y15985D02*
D03*
X102333Y16338D02*
D03*
X102687Y16692D02*
D03*
X103041Y17045D02*
D03*
X103394Y17399D02*
D03*
X103748Y17752D02*
D03*
X104101Y18106D02*
D03*
X104455Y18460D02*
D03*
X99434Y23480D02*
D03*
X99081Y23126D02*
D03*
X98727Y22773D02*
D03*
X98374Y22419D02*
D03*
X98020Y22066D02*
D03*
X97667Y21712D02*
D03*
X97313Y21359D02*
D03*
X96959Y21005D02*
D03*
X96606Y20652D02*
D03*
X96252Y20298D02*
D03*
X95899Y19944D02*
D03*
X95545Y19591D02*
D03*
X156566Y14570D02*
D03*
X156919Y14924D02*
D03*
X157273Y15278D02*
D03*
X157626Y15631D02*
D03*
X157980Y15985D02*
D03*
X158333Y16338D02*
D03*
X158687Y16692D02*
D03*
X159041Y17045D02*
D03*
X159394Y17399D02*
D03*
X159748Y17752D02*
D03*
X160101Y18106D02*
D03*
X160455Y18460D02*
D03*
X155434Y23480D02*
D03*
X155081Y23126D02*
D03*
X154727Y22773D02*
D03*
X154374Y22419D02*
D03*
X154020Y22066D02*
D03*
X153667Y21712D02*
D03*
X153313Y21359D02*
D03*
X152959Y21005D02*
D03*
X152606Y20652D02*
D03*
X152252Y20298D02*
D03*
X151899Y19944D02*
D03*
X151545Y19591D02*
D03*
X212566Y14570D02*
D03*
X212919Y14924D02*
D03*
X213273Y15278D02*
D03*
X213626Y15631D02*
D03*
X213980Y15985D02*
D03*
X214333Y16338D02*
D03*
X214687Y16692D02*
D03*
X215041Y17045D02*
D03*
X215394Y17399D02*
D03*
X215748Y17752D02*
D03*
X216101Y18106D02*
D03*
X216455Y18460D02*
D03*
X211434Y23480D02*
D03*
X211081Y23126D02*
D03*
X210727Y22773D02*
D03*
X210374Y22419D02*
D03*
X210020Y22066D02*
D03*
X209667Y21712D02*
D03*
X209313Y21359D02*
D03*
X208959Y21005D02*
D03*
X208606Y20652D02*
D03*
X208252Y20298D02*
D03*
X207899Y19944D02*
D03*
X207545Y19591D02*
D03*
D86*
X48455D02*
D03*
X48101Y19944D02*
D03*
X47748Y20298D02*
D03*
X47394Y20652D02*
D03*
X47041Y21005D02*
D03*
X46687Y21359D02*
D03*
X46333Y21712D02*
D03*
X45980Y22066D02*
D03*
X45626Y22419D02*
D03*
X45273Y22773D02*
D03*
X44919Y23126D02*
D03*
X44566Y23480D02*
D03*
X39545Y18460D02*
D03*
X39899Y18106D02*
D03*
X40252Y17752D02*
D03*
X40606Y17399D02*
D03*
X40959Y17045D02*
D03*
X41313Y16692D02*
D03*
X41667Y16338D02*
D03*
X42020Y15985D02*
D03*
X42374Y15631D02*
D03*
X42727Y15278D02*
D03*
X43081Y14924D02*
D03*
X43434Y14570D02*
D03*
X104455Y19591D02*
D03*
X104101Y19944D02*
D03*
X103748Y20298D02*
D03*
X103394Y20652D02*
D03*
X103041Y21005D02*
D03*
X102687Y21359D02*
D03*
X102333Y21712D02*
D03*
X101980Y22066D02*
D03*
X101626Y22419D02*
D03*
X101273Y22773D02*
D03*
X100919Y23126D02*
D03*
X100566Y23480D02*
D03*
X95545Y18460D02*
D03*
X95899Y18106D02*
D03*
X96252Y17752D02*
D03*
X96606Y17399D02*
D03*
X96959Y17045D02*
D03*
X97313Y16692D02*
D03*
X97667Y16338D02*
D03*
X98020Y15985D02*
D03*
X98374Y15631D02*
D03*
X98727Y15278D02*
D03*
X99081Y14924D02*
D03*
X99434Y14570D02*
D03*
X160455Y19591D02*
D03*
X160101Y19944D02*
D03*
X159748Y20298D02*
D03*
X159394Y20652D02*
D03*
X159041Y21005D02*
D03*
X158687Y21359D02*
D03*
X158333Y21712D02*
D03*
X157980Y22066D02*
D03*
X157626Y22419D02*
D03*
X157273Y22773D02*
D03*
X156919Y23126D02*
D03*
X156566Y23480D02*
D03*
X151545Y18460D02*
D03*
X151899Y18106D02*
D03*
X152252Y17752D02*
D03*
X152606Y17399D02*
D03*
X152959Y17045D02*
D03*
X153313Y16692D02*
D03*
X153667Y16338D02*
D03*
X154020Y15985D02*
D03*
X154374Y15631D02*
D03*
X154727Y15278D02*
D03*
X155081Y14924D02*
D03*
X155434Y14570D02*
D03*
X216455Y19591D02*
D03*
X216101Y19944D02*
D03*
X215748Y20298D02*
D03*
X215394Y20652D02*
D03*
X215041Y21005D02*
D03*
X214687Y21359D02*
D03*
X214333Y21712D02*
D03*
X213980Y22066D02*
D03*
X213626Y22419D02*
D03*
X213273Y22773D02*
D03*
X212919Y23126D02*
D03*
X212566Y23480D02*
D03*
X207545Y18460D02*
D03*
X207899Y18106D02*
D03*
X208252Y17752D02*
D03*
X208606Y17399D02*
D03*
X208959Y17045D02*
D03*
X209313Y16692D02*
D03*
X209667Y16338D02*
D03*
X210020Y15985D02*
D03*
X210374Y15631D02*
D03*
X210727Y15278D02*
D03*
X211081Y14924D02*
D03*
X211434Y14570D02*
D03*
D87*
X49971Y26323D02*
D03*
X49171D02*
D03*
X55140Y25230D02*
D03*
X55940D02*
D03*
X105971Y26323D02*
D03*
X105171D02*
D03*
X111140Y25230D02*
D03*
X111940D02*
D03*
X161971Y26323D02*
D03*
X161171D02*
D03*
X167140Y25230D02*
D03*
X167940D02*
D03*
X217971Y26323D02*
D03*
X217171D02*
D03*
X223140Y25230D02*
D03*
X223940D02*
D03*
D88*
X50319Y11644D02*
D03*
X49331Y10656D02*
D03*
X37199Y17590D02*
D03*
X36211Y16602D02*
D03*
X35373Y17390D02*
D03*
X36361Y18378D02*
D03*
X106319Y11644D02*
D03*
X105331Y10656D02*
D03*
X93199Y17590D02*
D03*
X92211Y16602D02*
D03*
X91373Y17390D02*
D03*
X92361Y18378D02*
D03*
X162319Y11644D02*
D03*
X161331Y10656D02*
D03*
X149199Y17590D02*
D03*
X148211Y16602D02*
D03*
X147373Y17390D02*
D03*
X148361Y18378D02*
D03*
X218319Y11644D02*
D03*
X217331Y10656D02*
D03*
X205199Y17590D02*
D03*
X204211Y16602D02*
D03*
X203373Y17390D02*
D03*
X204361Y18378D02*
D03*
D89*
X44767Y11608D02*
D03*
X45333Y11042D02*
D03*
X29283Y22867D02*
D03*
X28717Y23433D02*
D03*
X37908Y19942D02*
D03*
X37342Y20508D02*
D03*
X38373Y21222D02*
D03*
X37808Y21787D02*
D03*
X40900Y15450D02*
D03*
X40334Y16016D02*
D03*
X100767Y11608D02*
D03*
X101333Y11042D02*
D03*
X85283Y22867D02*
D03*
X84717Y23433D02*
D03*
X93908Y19942D02*
D03*
X93342Y20508D02*
D03*
X94373Y21222D02*
D03*
X93808Y21787D02*
D03*
X96900Y15450D02*
D03*
X96334Y16016D02*
D03*
X156767Y11608D02*
D03*
X157333Y11042D02*
D03*
X141283Y22867D02*
D03*
X140717Y23433D02*
D03*
X149908Y19942D02*
D03*
X149342Y20508D02*
D03*
X150373Y21222D02*
D03*
X149808Y21787D02*
D03*
X152900Y15450D02*
D03*
X152334Y16016D02*
D03*
X212767Y11608D02*
D03*
X213333Y11042D02*
D03*
X197283Y22867D02*
D03*
X196717Y23433D02*
D03*
X205908Y19942D02*
D03*
X205342Y20508D02*
D03*
X206373Y21222D02*
D03*
X205808Y21787D02*
D03*
X208900Y15450D02*
D03*
X208334Y16016D02*
D03*
D90*
X38725Y12645D02*
D03*
X38725Y11248D02*
D03*
X32629Y26031D02*
D03*
Y27427D02*
D03*
X59449Y26392D02*
D03*
Y27789D02*
D03*
X56932Y27789D02*
D03*
Y26392D02*
D03*
X58193Y26392D02*
D03*
Y27789D02*
D03*
X94725Y12645D02*
D03*
X94725Y11248D02*
D03*
X88629Y26031D02*
D03*
Y27427D02*
D03*
X115449Y26392D02*
D03*
Y27789D02*
D03*
X112932Y27789D02*
D03*
Y26392D02*
D03*
X114193Y26392D02*
D03*
Y27789D02*
D03*
X150725Y12645D02*
D03*
X150725Y11248D02*
D03*
X144629Y26031D02*
D03*
Y27427D02*
D03*
X171449Y26392D02*
D03*
Y27789D02*
D03*
X168932Y27789D02*
D03*
Y26392D02*
D03*
X170193Y26392D02*
D03*
Y27789D02*
D03*
X206725Y12645D02*
D03*
X206725Y11248D02*
D03*
X200629Y26031D02*
D03*
Y27427D02*
D03*
X227449Y26392D02*
D03*
Y27789D02*
D03*
X224932Y27789D02*
D03*
Y26392D02*
D03*
X226193Y26392D02*
D03*
Y27789D02*
D03*
D91*
X35642Y15197D02*
D03*
X36985Y13854D02*
D03*
X33733Y13288D02*
D03*
X34404Y12616D02*
D03*
X35076Y11944D02*
D03*
X91642Y15197D02*
D03*
X92985Y13854D02*
D03*
X89733Y13288D02*
D03*
X90404Y12616D02*
D03*
X91076Y11944D02*
D03*
X147642Y15197D02*
D03*
X148985Y13854D02*
D03*
X145733Y13288D02*
D03*
X146404Y12616D02*
D03*
X147076Y11944D02*
D03*
X203642Y15197D02*
D03*
X204985Y13854D02*
D03*
X201733Y13288D02*
D03*
X202404Y12616D02*
D03*
X203076Y11944D02*
D03*
D92*
X12550Y14525D02*
D03*
Y15625D02*
D03*
Y17825D02*
D03*
Y20025D02*
D03*
Y21125D02*
D03*
Y22225D02*
D03*
X68550Y14525D02*
D03*
Y15625D02*
D03*
Y17825D02*
D03*
Y20025D02*
D03*
Y21125D02*
D03*
Y22225D02*
D03*
X124550Y14525D02*
D03*
Y15625D02*
D03*
Y17825D02*
D03*
Y20025D02*
D03*
Y21125D02*
D03*
Y22225D02*
D03*
X180550Y14525D02*
D03*
Y15625D02*
D03*
Y17825D02*
D03*
Y20025D02*
D03*
Y21125D02*
D03*
Y22225D02*
D03*
D93*
X12400Y16725D02*
D03*
Y18925D02*
D03*
X68400Y16725D02*
D03*
Y18925D02*
D03*
X124400Y16725D02*
D03*
Y18925D02*
D03*
X180400Y16725D02*
D03*
Y18925D02*
D03*
D94*
X54485Y15215D02*
D03*
X59565D02*
D03*
X54485Y17755D02*
D03*
X59565D02*
D03*
X54485Y20295D02*
D03*
X59565D02*
D03*
X54485Y22835D02*
D03*
X59565D02*
D03*
X110485Y15215D02*
D03*
X115565D02*
D03*
X110485Y17755D02*
D03*
X115565D02*
D03*
X110485Y20295D02*
D03*
X115565D02*
D03*
X110485Y22835D02*
D03*
X115565D02*
D03*
X166485Y15215D02*
D03*
X171565D02*
D03*
X166485Y17755D02*
D03*
X171565D02*
D03*
X166485Y20295D02*
D03*
X171565D02*
D03*
X166485Y22835D02*
D03*
X171565D02*
D03*
X222485Y15215D02*
D03*
X227565D02*
D03*
X222485Y17755D02*
D03*
X227565D02*
D03*
X222485Y20295D02*
D03*
X227565D02*
D03*
X222485Y22835D02*
D03*
X227565D02*
D03*
D95*
X29150Y18725D02*
D03*
X29503Y18371D02*
D03*
X29857Y18018D02*
D03*
X30210Y17664D02*
D03*
X30564Y17310D02*
D03*
X30917Y16957D02*
D03*
X31519D02*
D03*
X31872Y17310D02*
D03*
X32226Y17664D02*
D03*
X32579Y18018D02*
D03*
X32933Y18371D02*
D03*
X33286Y18725D02*
D03*
X29150Y19326D02*
D03*
X29503Y19679D02*
D03*
X29857Y20033D02*
D03*
X30210Y20386D02*
D03*
X30564Y20740D02*
D03*
X30917Y21093D02*
D03*
X33286Y19326D02*
D03*
X32933Y19679D02*
D03*
X32579Y20033D02*
D03*
X32226Y20386D02*
D03*
X31872Y20740D02*
D03*
X31519Y21093D02*
D03*
X85150Y18725D02*
D03*
X85503Y18371D02*
D03*
X85857Y18018D02*
D03*
X86210Y17664D02*
D03*
X86564Y17310D02*
D03*
X86917Y16957D02*
D03*
X87519D02*
D03*
X87872Y17310D02*
D03*
X88226Y17664D02*
D03*
X88579Y18018D02*
D03*
X88933Y18371D02*
D03*
X89286Y18725D02*
D03*
X85150Y19326D02*
D03*
X85503Y19679D02*
D03*
X85857Y20033D02*
D03*
X86210Y20386D02*
D03*
X86564Y20740D02*
D03*
X86917Y21093D02*
D03*
X89286Y19326D02*
D03*
X88933Y19679D02*
D03*
X88579Y20033D02*
D03*
X88226Y20386D02*
D03*
X87872Y20740D02*
D03*
X87519Y21093D02*
D03*
X141150Y18725D02*
D03*
X141503Y18371D02*
D03*
X141857Y18018D02*
D03*
X142210Y17664D02*
D03*
X142564Y17310D02*
D03*
X142917Y16957D02*
D03*
X143519D02*
D03*
X143872Y17310D02*
D03*
X144226Y17664D02*
D03*
X144579Y18018D02*
D03*
X144933Y18371D02*
D03*
X145286Y18725D02*
D03*
X141150Y19326D02*
D03*
X141503Y19679D02*
D03*
X141857Y20033D02*
D03*
X142210Y20386D02*
D03*
X142564Y20740D02*
D03*
X142917Y21093D02*
D03*
X145286Y19326D02*
D03*
X144933Y19679D02*
D03*
X144579Y20033D02*
D03*
X144226Y20386D02*
D03*
X143872Y20740D02*
D03*
X143519Y21093D02*
D03*
X197150Y18725D02*
D03*
X197503Y18371D02*
D03*
X197857Y18018D02*
D03*
X198210Y17664D02*
D03*
X198564Y17310D02*
D03*
X198917Y16957D02*
D03*
X199519D02*
D03*
X199872Y17310D02*
D03*
X200226Y17664D02*
D03*
X200579Y18018D02*
D03*
X200933Y18371D02*
D03*
X201286Y18725D02*
D03*
X197150Y19326D02*
D03*
X197503Y19679D02*
D03*
X197857Y20033D02*
D03*
X198210Y20386D02*
D03*
X198564Y20740D02*
D03*
X198917Y21093D02*
D03*
X201286Y19326D02*
D03*
X200933Y19679D02*
D03*
X200579Y20033D02*
D03*
X200226Y20386D02*
D03*
X199872Y20740D02*
D03*
X199519Y21093D02*
D03*
D96*
X28902Y18477D02*
D03*
X29256Y18124D02*
D03*
X29609Y17770D02*
D03*
X29963Y17417D02*
D03*
X30316Y17063D02*
D03*
X30670Y16709D02*
D03*
X33534Y19573D02*
D03*
X33180Y19927D02*
D03*
X32827Y20280D02*
D03*
X32473Y20634D02*
D03*
X32120Y20987D02*
D03*
X31766Y21341D02*
D03*
X84902Y18477D02*
D03*
X85256Y18124D02*
D03*
X85609Y17770D02*
D03*
X85963Y17417D02*
D03*
X86316Y17063D02*
D03*
X86670Y16709D02*
D03*
X89534Y19573D02*
D03*
X89180Y19927D02*
D03*
X88827Y20280D02*
D03*
X88473Y20634D02*
D03*
X88120Y20987D02*
D03*
X87766Y21341D02*
D03*
X140902Y18477D02*
D03*
X141256Y18124D02*
D03*
X141609Y17770D02*
D03*
X141963Y17417D02*
D03*
X142316Y17063D02*
D03*
X142670Y16709D02*
D03*
X145534Y19573D02*
D03*
X145180Y19927D02*
D03*
X144827Y20280D02*
D03*
X144473Y20634D02*
D03*
X144120Y20987D02*
D03*
X143766Y21341D02*
D03*
X196902Y18477D02*
D03*
X197256Y18124D02*
D03*
X197609Y17770D02*
D03*
X197963Y17417D02*
D03*
X198316Y17063D02*
D03*
X198670Y16709D02*
D03*
X201534Y19573D02*
D03*
X201180Y19927D02*
D03*
X200827Y20280D02*
D03*
X200473Y20634D02*
D03*
X200120Y20987D02*
D03*
X199766Y21341D02*
D03*
D97*
X31766Y16709D02*
D03*
X32120Y17063D02*
D03*
X32473Y17417D02*
D03*
X32827Y17770D02*
D03*
X33180Y18124D02*
D03*
X33534Y18477D02*
D03*
X30670Y21341D02*
D03*
X30316Y20987D02*
D03*
X29963Y20634D02*
D03*
X29609Y20280D02*
D03*
X29256Y19927D02*
D03*
X28902Y19573D02*
D03*
X87766Y16709D02*
D03*
X88120Y17063D02*
D03*
X88473Y17417D02*
D03*
X88827Y17770D02*
D03*
X89180Y18124D02*
D03*
X89534Y18477D02*
D03*
X86670Y21341D02*
D03*
X86316Y20987D02*
D03*
X85963Y20634D02*
D03*
X85609Y20280D02*
D03*
X85256Y19927D02*
D03*
X84902Y19573D02*
D03*
X143766Y16709D02*
D03*
X144120Y17063D02*
D03*
X144473Y17417D02*
D03*
X144827Y17770D02*
D03*
X145180Y18124D02*
D03*
X145534Y18477D02*
D03*
X142670Y21341D02*
D03*
X142316Y20987D02*
D03*
X141963Y20634D02*
D03*
X141609Y20280D02*
D03*
X141256Y19927D02*
D03*
X140902Y19573D02*
D03*
X199766Y16709D02*
D03*
X200120Y17063D02*
D03*
X200473Y17417D02*
D03*
X200827Y17770D02*
D03*
X201180Y18124D02*
D03*
X201534Y18477D02*
D03*
X198670Y21341D02*
D03*
X198316Y20987D02*
D03*
X197963Y20634D02*
D03*
X197609Y20280D02*
D03*
X197256Y19927D02*
D03*
X196902Y19573D02*
D03*
M02*
