G04 Layer_Color=1052688*
%FSLAX43Y43*%
%MOMM*%
G71*
G01*
G75*
%ADD20C,0.254*%
%ADD53C,0.127*%
%ADD56C,0.152*%
D20*
X231318Y25D02*
X233970D01*
X233318Y9025D02*
X233970D01*
X233716Y25D02*
Y4525D01*
Y9025D01*
Y25D02*
X234224Y1549D01*
X233208D02*
X233716Y25D01*
X233208Y7501D02*
X233716Y9025D01*
X234224Y7501D01*
X-3393Y38025D02*
X-317D01*
X-3393Y29025D02*
X-3092D01*
X-3139Y33525D02*
Y38025D01*
Y29025D02*
Y33525D01*
X-3647Y36501D02*
X-3139Y38025D01*
X-2631Y36501D01*
X-3139Y29025D02*
X-2631Y30549D01*
X-3647D02*
X-3139Y29025D01*
X-3393Y25D02*
X-317D01*
X-3393Y9025D02*
X-2818D01*
X-3139Y25D02*
Y4525D01*
Y9025D01*
Y25D02*
X-2631Y1549D01*
X-3647D02*
X-3139Y25D01*
X-3647Y7501D02*
X-3139Y9025D01*
X-2631Y7501D01*
X233000Y29025D02*
Y33525D01*
Y38025D01*
Y29025D02*
X233508Y30549D01*
X232492D02*
X233000Y29025D01*
X232492Y36501D02*
X233000Y38025D01*
X233508Y36501D01*
X-3139Y9025D02*
Y19025D01*
Y29025D01*
Y9025D02*
X-2631Y10549D01*
X-3647D02*
X-3139Y9025D01*
X-3647Y27501D02*
X-3139Y29025D01*
X-2631Y27501D01*
X231000Y38343D02*
Y41254D01*
X0Y38343D02*
Y41254D01*
X119563Y41000D02*
X231000D01*
X0D02*
X110625D01*
X229476Y41508D02*
X231000Y41000D01*
X229476Y40492D02*
X231000Y41000D01*
X0D02*
X1524Y40492D01*
X0Y41000D02*
X1524Y41508D01*
D53*
X232936Y29025D02*
X233254D01*
X231318Y38025D02*
X233254D01*
X-3393Y9025D02*
X-2818D01*
X-3393Y29025D02*
X-3092D01*
D56*
X236084Y668D02*
X236338Y922D01*
Y1430D01*
X236084Y1684D01*
X235068D01*
X234814Y1430D01*
Y922D01*
X235068Y668D01*
X235322D01*
X235576Y922D01*
Y1684D01*
X236338Y2192D02*
X236084D01*
Y2446D01*
X236338D01*
Y2192D01*
X235068Y3462D02*
X234814Y3716D01*
Y4223D01*
X235068Y4477D01*
X236084D01*
X236338Y4223D01*
Y3716D01*
X236084Y3462D01*
X235068D01*
Y4985D02*
X234814Y5239D01*
Y5747D01*
X235068Y6001D01*
X236084D01*
X236338Y5747D01*
Y5239D01*
X236084Y4985D01*
X235068D01*
X-4754Y30169D02*
X-4500Y30423D01*
Y30931D01*
X-4754Y31185D01*
X-5770D01*
X-6023Y30931D01*
Y30423D01*
X-5770Y30169D01*
X-5516D01*
X-5262Y30423D01*
Y31185D01*
X-4500Y31693D02*
X-4754D01*
Y31947D01*
X-4500D01*
Y31693D01*
X-5770Y32962D02*
X-6023Y33216D01*
Y33724D01*
X-5770Y33978D01*
X-4754D01*
X-4500Y33724D01*
Y33216D01*
X-4754Y32962D01*
X-5770D01*
Y34486D02*
X-6023Y34740D01*
Y35248D01*
X-5770Y35502D01*
X-4754D01*
X-4500Y35248D01*
Y34740D01*
X-4754Y34486D01*
X-5770D01*
X-4254Y2025D02*
X-4000Y2279D01*
Y2787D01*
X-4254Y3041D01*
X-5270D01*
X-5523Y2787D01*
Y2279D01*
X-5270Y2025D01*
X-5016D01*
X-4762Y2279D01*
Y3041D01*
X-4000Y3549D02*
X-4254D01*
Y3803D01*
X-4000D01*
Y3549D01*
X-5270Y4818D02*
X-5523Y5072D01*
Y5580D01*
X-5270Y5834D01*
X-4254D01*
X-4000Y5580D01*
Y5072D01*
X-4254Y4818D01*
X-5270D01*
Y6342D02*
X-5523Y6596D01*
Y7104D01*
X-5270Y7357D01*
X-4254D01*
X-4000Y7104D01*
Y6596D01*
X-4254Y6342D01*
X-5270D01*
X236403Y30453D02*
X236657Y30707D01*
Y31214D01*
X236403Y31468D01*
X235387D01*
X235133Y31214D01*
Y30707D01*
X235387Y30453D01*
X235641D01*
X235895Y30707D01*
Y31468D01*
X236657Y31976D02*
X236403D01*
Y32230D01*
X236657D01*
Y31976D01*
X235387Y33246D02*
X235133Y33500D01*
Y34007D01*
X235387Y34261D01*
X236403D01*
X236657Y34007D01*
Y33500D01*
X236403Y33246D01*
X235387D01*
Y34769D02*
X235133Y35023D01*
Y35531D01*
X235387Y35785D01*
X236403D01*
X236657Y35531D01*
Y35023D01*
X236403Y34769D01*
X235387D01*
X-4967Y16207D02*
Y15191D01*
X-5983Y16207D01*
X-6237D01*
X-6491Y15953D01*
Y15445D01*
X-6237Y15191D01*
Y16714D02*
X-6491Y16968D01*
Y17476D01*
X-6237Y17730D01*
X-5221D01*
X-4967Y17476D01*
Y16968D01*
X-5221Y16714D01*
X-6237D01*
X-4967Y18238D02*
X-5221D01*
Y18492D01*
X-4967D01*
Y18238D01*
X-6237Y19507D02*
X-6491Y19761D01*
Y20269D01*
X-6237Y20523D01*
X-5221D01*
X-4967Y20269D01*
Y19761D01*
X-5221Y19507D01*
X-6237D01*
Y21031D02*
X-6491Y21285D01*
Y21793D01*
X-6237Y22047D01*
X-5221D01*
X-4967Y21793D01*
Y21285D01*
X-5221Y21031D01*
X-6237D01*
X112047Y40086D02*
X111031D01*
X112047Y41102D01*
Y41355D01*
X111793Y41609D01*
X111285D01*
X111031Y41355D01*
X112554D02*
X112808Y41609D01*
X113316D01*
X113570Y41355D01*
Y41102D01*
X113316Y40848D01*
X113062D01*
X113316D01*
X113570Y40594D01*
Y40340D01*
X113316Y40086D01*
X112808D01*
X112554Y40340D01*
X114078Y40086D02*
X114586D01*
X114332D01*
Y41609D01*
X114078Y41355D01*
X115348Y40086D02*
Y40340D01*
X115601D01*
Y40086D01*
X115348D01*
X116617Y41355D02*
X116871Y41609D01*
X117379D01*
X117633Y41355D01*
Y40340D01*
X117379Y40086D01*
X116871D01*
X116617Y40340D01*
Y41355D01*
X118141D02*
X118395Y41609D01*
X118902D01*
X119156Y41355D01*
Y40340D01*
X118902Y40086D01*
X118395D01*
X118141Y40340D01*
Y41355D01*
M02*
