G04 Layer_Color=3158064*
%FSLAX43Y43*%
%MOMM*%
G71*
G01*
G75*
%ADD11C,0.203*%
%ADD57C,0.200*%
%ADD123C,0.203*%
D11*
X231000Y7025D02*
G03*
X231000Y7025I0J0D01*
G01*
X231000Y7025D02*
G03*
X230000Y8025I-1000J0D01*
G01*
X230000Y9025D02*
G03*
X229500Y8525I0J-500D01*
G01*
D02*
G03*
X230000Y8025I500J0D01*
G01*
X231500Y10525D02*
G03*
X231000Y10025I0J-500D01*
G01*
X232000Y10025D02*
G03*
X231500Y10525I-500J0D01*
G01*
X231500Y6525D02*
G03*
X232000Y7025I0J500D01*
G01*
X231000Y7025D02*
G03*
X231500Y6525I500J0D01*
G01*
X231500Y31525D02*
G03*
X231000Y31025I0J-500D01*
G01*
X232000Y31025D02*
G03*
X231500Y31525I-500J0D01*
G01*
Y27525D02*
G03*
X232000Y28025I0J500D01*
G01*
X231000Y28025D02*
G03*
X231500Y27525I500J0D01*
G01*
X230000Y30025D02*
G03*
X229500Y29525I0J-500D01*
G01*
D02*
G03*
X230000Y29025I500J0D01*
G01*
X230000Y30025D02*
G03*
X231000Y31025I0J1000D01*
G01*
X231000Y31025D02*
G03*
X231000Y31025I0J0D01*
G01*
X231500Y10525D02*
X231500D01*
X232000Y7025D02*
Y10025D01*
X232000Y28025D02*
Y31025D01*
X231500Y27525D02*
X231500Y27525D01*
X5500Y8525D02*
G03*
X6000Y8025I500J0D01*
G01*
X6000Y9025D02*
G03*
X5500Y8525I0J-500D01*
G01*
Y29525D02*
G03*
X6000Y29025I500J0D01*
G01*
X6000Y30025D02*
G03*
X5500Y29525I0J-500D01*
G01*
X28000Y8525D02*
G03*
X27500Y9025I-500J0D01*
G01*
Y8025D02*
G03*
X28000Y8525I0J500D01*
G01*
Y29525D02*
G03*
X27500Y30025I-500J0D01*
G01*
Y29025D02*
G03*
X28000Y29525I0J500D01*
G01*
X6000Y8025D02*
X6730D01*
X6000Y9025D02*
X6000D01*
X6000Y29025D02*
X6000D01*
Y30025D02*
X6730D01*
X28000Y29525D02*
Y29525D01*
X7000Y10025D02*
Y28025D01*
X6730Y30025D02*
X27000D01*
X18100Y23825D02*
X18934D01*
X19217Y23942D02*
X19800Y24525D01*
X17900Y24025D02*
Y24425D01*
X16566Y24525D02*
X17800D01*
X15217Y23342D02*
X16283Y24408D01*
X10800Y23225D02*
X14934D01*
X19800Y24525D02*
X25000D01*
X26000Y25525D02*
Y28025D01*
X10800Y13525D02*
X25000D01*
X26000Y10025D02*
Y12525D01*
X27000Y9025D02*
X27500D01*
X6730Y8025D02*
X27500D01*
X27000Y29025D02*
X27500D01*
X27000Y30025D02*
X27500D01*
X10000Y14325D02*
Y22425D01*
X61500Y8525D02*
G03*
X62000Y8025I500J0D01*
G01*
X62000Y9025D02*
G03*
X61500Y8525I0J-500D01*
G01*
Y29525D02*
G03*
X62000Y29025I500J0D01*
G01*
X62000Y30025D02*
G03*
X61500Y29525I0J-500D01*
G01*
X84000Y8525D02*
G03*
X83500Y9025I-500J0D01*
G01*
Y8025D02*
G03*
X84000Y8525I0J500D01*
G01*
Y29525D02*
G03*
X83500Y30025I-500J0D01*
G01*
Y29025D02*
G03*
X84000Y29525I0J500D01*
G01*
X62000Y8025D02*
X62730D01*
X62000Y9025D02*
X62000D01*
X62000Y29025D02*
X62000D01*
Y30025D02*
X62730D01*
X84000Y29525D02*
Y29525D01*
X63000Y10025D02*
Y28025D01*
X62730Y30025D02*
X83000D01*
X74100Y23825D02*
X74934D01*
X75217Y23942D02*
X75800Y24525D01*
X73900Y24025D02*
Y24425D01*
X72566Y24525D02*
X73800D01*
X71217Y23342D02*
X72283Y24408D01*
X66800Y23225D02*
X70934D01*
X75800Y24525D02*
X81000D01*
X82000Y25525D02*
Y28025D01*
X66800Y13525D02*
X81000D01*
X82000Y10025D02*
Y12525D01*
X83000Y9025D02*
X83500D01*
X62730Y8025D02*
X83500D01*
X83000Y29025D02*
X83500D01*
X83000Y30025D02*
X83500D01*
X66000Y14325D02*
Y22425D01*
X117500Y8525D02*
G03*
X118000Y8025I500J0D01*
G01*
X118000Y9025D02*
G03*
X117500Y8525I0J-500D01*
G01*
Y29525D02*
G03*
X118000Y29025I500J0D01*
G01*
X118000Y30025D02*
G03*
X117500Y29525I0J-500D01*
G01*
X140000Y8525D02*
G03*
X139500Y9025I-500J0D01*
G01*
Y8025D02*
G03*
X140000Y8525I0J500D01*
G01*
Y29525D02*
G03*
X139500Y30025I-500J0D01*
G01*
Y29025D02*
G03*
X140000Y29525I0J500D01*
G01*
X118000Y8025D02*
X118730D01*
X118000Y9025D02*
X118000D01*
X118000Y29025D02*
X118000D01*
Y30025D02*
X118730D01*
X140000Y29525D02*
Y29525D01*
X119000Y10025D02*
Y28025D01*
X118730Y30025D02*
X139000D01*
X130100Y23825D02*
X130934D01*
X131217Y23942D02*
X131800Y24525D01*
X129900Y24025D02*
Y24425D01*
X128566Y24525D02*
X129800D01*
X127217Y23342D02*
X128283Y24408D01*
X122800Y23225D02*
X126934D01*
X131800Y24525D02*
X137000D01*
X138000Y25525D02*
Y28025D01*
X122800Y13525D02*
X137000D01*
X138000Y10025D02*
Y12525D01*
X139000Y9025D02*
X139500D01*
X118730Y8025D02*
X139500D01*
X139000Y29025D02*
X139500D01*
X139000Y30025D02*
X139500D01*
X122000Y14325D02*
Y22425D01*
X173500Y8525D02*
G03*
X174000Y8025I500J0D01*
G01*
X174000Y9025D02*
G03*
X173500Y8525I0J-500D01*
G01*
Y29525D02*
G03*
X174000Y29025I500J0D01*
G01*
X174000Y30025D02*
G03*
X173500Y29525I0J-500D01*
G01*
X196000Y8525D02*
G03*
X195500Y9025I-500J0D01*
G01*
Y8025D02*
G03*
X196000Y8525I0J500D01*
G01*
Y29525D02*
G03*
X195500Y30025I-500J0D01*
G01*
Y29025D02*
G03*
X196000Y29525I0J500D01*
G01*
X174000Y8025D02*
X174730D01*
X174000Y9025D02*
X174000D01*
X174000Y29025D02*
X174000D01*
Y30025D02*
X174730D01*
X196000Y29525D02*
Y29525D01*
X175000Y10025D02*
Y28025D01*
X174730Y30025D02*
X195000D01*
X186100Y23825D02*
X186934D01*
X187217Y23942D02*
X187800Y24525D01*
X185900Y24025D02*
Y24425D01*
X184566Y24525D02*
X185800D01*
X183217Y23342D02*
X184283Y24408D01*
X178800Y23225D02*
X182934D01*
X187800Y24525D02*
X193000D01*
X194000Y25525D02*
Y28025D01*
X178800Y13525D02*
X193000D01*
X194000Y10025D02*
Y12525D01*
X195000Y9025D02*
X195500D01*
X174730Y8025D02*
X195500D01*
X195000Y29025D02*
X195500D01*
X195000Y30025D02*
X195500D01*
X178000Y14325D02*
Y22425D01*
D57*
X17900Y24025D02*
G03*
X18100Y23825I200J0D01*
G01*
X73900Y24025D02*
G03*
X74100Y23825I200J0D01*
G01*
X129900Y24025D02*
G03*
X130100Y23825I200J0D01*
G01*
X185900Y24025D02*
G03*
X186100Y23825I200J0D01*
G01*
D123*
X230000Y9025D02*
G03*
X231000Y10025I0J1000D01*
G01*
X231000Y28025D02*
G03*
X230000Y29025I-1000J0D01*
G01*
X6000Y9025D02*
G03*
X7000Y10025I0J1000D01*
G01*
Y28025D02*
G03*
X6000Y29025I-1000J0D01*
G01*
X27000D02*
G03*
X26000Y28025I0J-1000D01*
G01*
X18934Y23825D02*
G03*
X19217Y23942I0J400D01*
G01*
X17900Y24425D02*
G03*
X17800Y24525I-100J0D01*
G01*
X16566Y24525D02*
G03*
X16283Y24408I0J-400D01*
G01*
X14934Y23225D02*
G03*
X15217Y23342I0J400D01*
G01*
X10800Y23225D02*
G03*
X10000Y22425I0J-800D01*
G01*
X25000Y24525D02*
G03*
X26000Y25525I0J1000D01*
G01*
X10000Y14325D02*
G03*
X10800Y13525I800J0D01*
G01*
X26000Y12525D02*
G03*
X25000Y13525I-1000J0D01*
G01*
X26000Y10025D02*
G03*
X27000Y9025I1000J0D01*
G01*
X62000D02*
G03*
X63000Y10025I0J1000D01*
G01*
Y28025D02*
G03*
X62000Y29025I-1000J0D01*
G01*
X83000D02*
G03*
X82000Y28025I0J-1000D01*
G01*
X74934Y23825D02*
G03*
X75217Y23942I0J400D01*
G01*
X73900Y24425D02*
G03*
X73800Y24525I-100J0D01*
G01*
X72566Y24525D02*
G03*
X72283Y24408I0J-400D01*
G01*
X70934Y23225D02*
G03*
X71217Y23342I0J400D01*
G01*
X66800Y23225D02*
G03*
X66000Y22425I0J-800D01*
G01*
X81000Y24525D02*
G03*
X82000Y25525I0J1000D01*
G01*
X66000Y14325D02*
G03*
X66800Y13525I800J0D01*
G01*
X82000Y12525D02*
G03*
X81000Y13525I-1000J0D01*
G01*
X82000Y10025D02*
G03*
X83000Y9025I1000J0D01*
G01*
X118000D02*
G03*
X119000Y10025I0J1000D01*
G01*
Y28025D02*
G03*
X118000Y29025I-1000J0D01*
G01*
X139000D02*
G03*
X138000Y28025I0J-1000D01*
G01*
X130934Y23825D02*
G03*
X131217Y23942I0J400D01*
G01*
X129900Y24425D02*
G03*
X129800Y24525I-100J0D01*
G01*
X128566Y24525D02*
G03*
X128283Y24408I0J-400D01*
G01*
X126934Y23225D02*
G03*
X127217Y23342I0J400D01*
G01*
X122800Y23225D02*
G03*
X122000Y22425I0J-800D01*
G01*
X137000Y24525D02*
G03*
X138000Y25525I0J1000D01*
G01*
X122000Y14325D02*
G03*
X122800Y13525I800J0D01*
G01*
X138000Y12525D02*
G03*
X137000Y13525I-1000J0D01*
G01*
X138000Y10025D02*
G03*
X139000Y9025I1000J0D01*
G01*
X174000D02*
G03*
X175000Y10025I0J1000D01*
G01*
Y28025D02*
G03*
X174000Y29025I-1000J0D01*
G01*
X195000D02*
G03*
X194000Y28025I0J-1000D01*
G01*
X186934Y23825D02*
G03*
X187217Y23942I0J400D01*
G01*
X185900Y24425D02*
G03*
X185800Y24525I-100J0D01*
G01*
X184566Y24525D02*
G03*
X184283Y24408I0J-400D01*
G01*
X182934Y23225D02*
G03*
X183217Y23342I0J400D01*
G01*
X178800Y23225D02*
G03*
X178000Y22425I0J-800D01*
G01*
X193000Y24525D02*
G03*
X194000Y25525I0J1000D01*
G01*
X178000Y14325D02*
G03*
X178800Y13525I800J0D01*
G01*
X194000Y12525D02*
G03*
X193000Y13525I-1000J0D01*
G01*
X194000Y10025D02*
G03*
X195000Y9025I1000J0D01*
G01*
M02*
