G04 Layer_Color=8388736*
%FSLAX43Y43*%
%MOMM*%
G71*
G01*
G75*
%ADD12C,0.203*%
%ADD66R,5.000X12.000*%
%ADD67R,1.203X1.203*%
%ADD68R,3.083X1.323*%
%ADD69R,1.703X1.003*%
%ADD70R,2.103X1.603*%
%ADD71R,1.603X2.003*%
%ADD72R,0.965X1.168*%
%ADD73R,0.965X0.965*%
%ADD74C,3.500*%
%ADD75R,1.703X1.703*%
%ADD76C,1.703*%
%ADD77C,3.003*%
%ADD78C,0.838*%
D12*
X3000Y33525D02*
D03*
X228000Y33525D02*
D03*
Y4525D02*
D03*
X3000D02*
D03*
D66*
X3000Y19525D02*
D03*
D67*
X13000Y33525D02*
D03*
Y4525D02*
D03*
X218000Y33525D02*
D03*
Y4525D02*
D03*
D68*
X49245Y15525D02*
D03*
Y22525D02*
D03*
X49245Y20025D02*
D03*
X49245Y18025D02*
D03*
X105245Y15525D02*
D03*
Y22525D02*
D03*
X105245Y20025D02*
D03*
X105245Y18025D02*
D03*
X161245Y15525D02*
D03*
Y22525D02*
D03*
X161245Y20025D02*
D03*
X161245Y18025D02*
D03*
X217245Y15525D02*
D03*
Y22525D02*
D03*
X217245Y20025D02*
D03*
X217245Y18025D02*
D03*
D69*
X34875Y17060D02*
D03*
X35275Y18160D02*
D03*
X34875Y19260D02*
D03*
X34675Y20360D02*
D03*
X34875Y21460D02*
D03*
X34675Y22560D02*
D03*
X34875Y23660D02*
D03*
Y24760D02*
D03*
X90875Y17060D02*
D03*
X91275Y18160D02*
D03*
X90875Y19260D02*
D03*
X90675Y20360D02*
D03*
X90875Y21460D02*
D03*
X90675Y22560D02*
D03*
X90875Y23660D02*
D03*
Y24760D02*
D03*
X146875Y17060D02*
D03*
X147275Y18160D02*
D03*
X146875Y19260D02*
D03*
X146675Y20360D02*
D03*
X146875Y21460D02*
D03*
X146675Y22560D02*
D03*
X146875Y23660D02*
D03*
Y24760D02*
D03*
X202875Y17060D02*
D03*
X203275Y18160D02*
D03*
X202875Y19260D02*
D03*
X202675Y20360D02*
D03*
X202875Y21460D02*
D03*
X202675Y22560D02*
D03*
X202875Y23660D02*
D03*
Y24760D02*
D03*
D70*
X31025Y12400D02*
D03*
X32175Y25550D02*
D03*
X87025Y12400D02*
D03*
X88175Y25550D02*
D03*
X143025Y12400D02*
D03*
X144175Y25550D02*
D03*
X199025Y12400D02*
D03*
X200175Y25550D02*
D03*
D71*
X45175Y18260D02*
D03*
Y23950D02*
D03*
X101175Y18260D02*
D03*
Y23950D02*
D03*
X157175Y18260D02*
D03*
Y23950D02*
D03*
X213175Y18260D02*
D03*
Y23950D02*
D03*
D72*
X42852Y10525D02*
D03*
X44249D02*
D03*
X98852D02*
D03*
X100249D02*
D03*
X154852D02*
D03*
X156249D02*
D03*
X210852D02*
D03*
X212249D02*
D03*
D73*
X48449Y10526D02*
D03*
X47052D02*
D03*
X104449D02*
D03*
X103052D02*
D03*
X160449D02*
D03*
X159052D02*
D03*
X216449D02*
D03*
X215052D02*
D03*
D74*
X8425Y33525D02*
D03*
X222575Y33525D02*
D03*
Y4525D02*
D03*
X8425D02*
D03*
D75*
X42586Y27440D02*
D03*
X98586D02*
D03*
X154586D02*
D03*
X210586D02*
D03*
D76*
X40046D02*
D03*
X37506D02*
D03*
X34966D02*
D03*
X96046D02*
D03*
X93506D02*
D03*
X90966D02*
D03*
X152046D02*
D03*
X149506D02*
D03*
X146966D02*
D03*
X208046D02*
D03*
X205506D02*
D03*
X202966D02*
D03*
D77*
X52695Y12450D02*
D03*
X52695Y25600D02*
D03*
X108695Y12450D02*
D03*
X108695Y25600D02*
D03*
X164695Y12450D02*
D03*
X164695Y25600D02*
D03*
X220695Y12450D02*
D03*
X220695Y25600D02*
D03*
D78*
X61175Y25125D02*
D03*
X117175D02*
D03*
X173175D02*
D03*
X229175D02*
D03*
M02*
