M48
;Layer_Color=9474304
;FILE_FORMAT=4:3
METRIC,LZ
;TYPE=PLATED
T1F00S00C0.381
T2F00S00C0.900
T3F00S00C2.300
;TYPE=NON_PLATED
T4F00S00C3.000
%
T01
X0014799Y0016721
X00289Y0016675
X0027524Y0014494
X002887Y0011235
X0032525Y00124
X0033075Y00139
X0034622Y0014625
X0035622Y0011399
X0037875Y0011248
X0037375Y0010425
X0037875Y0012645
X0039741Y0015423
X0041443Y0014907
X0042008Y0014118
X0042636Y0013489
X004285Y0011825
X0041545Y0010295
X004597Y0010405
X0044035Y001648
X0042745Y0017735
X0052162Y0016366
X0051975Y0014875
X0059565Y0014119
Y0016311
X0058588Y0012429
X0070799Y0016721
X00849Y0016675
X0083524Y0014494
X008487Y0011235
X0088525Y00124
X0089075Y00139
X0090622Y0014625
X0091622Y0011399
X0093874Y0011248
X0093375Y0010425
X0093874Y0012645
X0095741Y0015423
X0097443Y0014907
X0098008Y0014118
X0098636Y0013489
X009885Y0011825
X0097545Y0010295
X010197Y0010405
X0100035Y001648
X0098745Y0017735
X0108162Y0016366
X0107975Y0014875
X0114588Y0012429
X0115565Y0014119
Y0016311
X0126799Y0016721
X01409Y0016675
X0139524Y0014494
X014087Y0011235
X0144525Y00124
X0145075Y00139
X0146622Y0014625
X0147622Y0011399
X0149874Y0011248
X0149375Y0010425
X0149874Y0012645
X0151741Y0015423
X0153443Y0014907
X0154008Y0014118
X0153545Y0010295
X015485Y0011825
X0154636Y0013489
X0154745Y0017735
X0156035Y001648
X015797Y0010405
X0163975Y0014875
X0164162Y0016366
X0171565Y0016311
Y0014119
X0170588Y0012429
X0182799Y0016721
X01969Y0016675
X0195524Y0014494
X019687Y0011235
X0200525Y00124
X0201075Y00139
X0202622Y0014625
X0203622Y0011399
X0205874Y0011248
X0205375Y0010425
X0205874Y0012645
X0207741Y0015423
X0209443Y0014907
X0210008Y0014118
X0210636Y0013489
X021085Y0011825
X0209545Y0010295
X021397Y0010405
X0212035Y001648
X0210745Y0017735
X0220162Y0016366
X0219975Y0014875
X0227565Y0014119
Y0016311
X0226588Y0012429
X0227565Y0021739
Y0023931
X0229175Y0025125
X0228424Y0027789
X0223845Y0027796
X0222485Y0023931
Y0021739
X0219184Y0022525
X0219222Y0020531
X021973Y001982
X0217851Y0021116
X0216885Y0023757
X0214821Y0023529
X021498Y0025561
X0212923Y0025459
X0211907Y0024367
X0211965Y0021571
X0212875Y002055
X0214Y0019675
X0211725Y0019025
X0210727Y0020298
X0209454Y001899
X0206475Y0018825
X020575Y001825
X0204566Y0020176
X0204875Y0021425
X0205278Y0022317
X0204211Y0024875
X020158Y002555
X0201425Y0022551
X020129Y0021555
X0200175Y0023076
X0199309Y0023071
X019785Y0023435
X0195778Y0023492
X0196743Y0020864
X0196164Y0020222
X0197379Y00215
X0198511Y0019025
X0199218Y0018318
X0199925Y0019025
X0199218Y0019732
X0197683Y0026399
X0195194Y0027275
X0212923Y0027618
X021653Y0026348
X0188717Y0018169
X0182793Y0018925
X0171565Y0021739
Y0023931
X0173175Y0025125
X0172424Y0027789
X0167845Y0027796
X0166485Y0023931
Y0021739
X0163184Y0022525
X0163222Y0020531
X016373Y001982
X0161851Y0021116
X0160885Y0023757
X0158821Y0023529
X015898Y0025561
X0156923Y0025459
X0155907Y0024367
X0155965Y0021571
X0156875Y002055
X0158Y0019675
X0155725Y0019025
X0154727Y0020298
X0156923Y0027618
X016053Y0026348
X0148211Y0024875
X014558Y002555
X0145425Y0022551
X014529Y0021555
X0144175Y0023076
X0143309Y0023071
X014185Y0023435
X0139778Y0023492
X0140743Y0020864
X0140164Y0020222
X0141379Y00215
X0142511Y0019025
X0143218Y0018318
X0143925Y0019025
X0143218Y0019732
X0148566Y0020176
X0148875Y0021425
X0149278Y0022317
X014975Y001825
X0150475Y0018825
X0153454Y001899
X0141683Y0026399
X0139194Y0027275
X0132717Y0018169
X0126793Y0018925
X0115565Y0021739
Y0023931
X0117175Y0025125
X0116424Y0027789
X0111845Y0027796
X0110485Y0023931
Y0021739
X0107184Y0022525
X0107222Y0020531
X010773Y001982
X0105851Y0021116
X0104885Y0023757
X0102821Y0023529
X010298Y0025561
X0100923Y0025459
X0099907Y0024367
X0099965Y0021571
X0100875Y002055
X0102Y0019675
X0099725Y0019025
X0098727Y0020298
X0097454Y001899
X0094475Y0018825
X009375Y001825
X0092566Y0020176
X0092875Y0021425
X0093278Y0022317
X0092211Y0024875
X008958Y002555
X0089425Y0022551
X008929Y0021555
X0088175Y0023076
X0087309Y0023071
X008585Y0023435
X0083778Y0023492
X0084743Y0020864
X0084164Y0020222
X0085379Y00215
X0086511Y0019025
X0087218Y0018318
X0087925Y0019025
X0087218Y0019732
X0085683Y0026399
X0083194Y0027275
X0076717Y0018169
X0100923Y0027618
X010453Y0026348
X0070793Y0018925
X0059565Y0021739
Y0023931
X0061175Y0025125
X0060424Y0027789
X0055845Y0027796
X0054485Y0023931
Y0021739
X0051184Y0022525
X0051222Y0020531
X005173Y001982
X0049851Y0021116
X0048885Y0023757
X0046821Y0023529
X004698Y0025561
X0044923Y0025459
X0043907Y0024367
X0043965Y0021571
X0044875Y002055
X0046Y0019675
X0043725Y0019025
X0042727Y0020298
X0041454Y001899
X0038475Y0018825
X003775Y001825
X0036566Y0020176
X0036875Y0021425
X0037278Y0022317
X0036211Y0024875
X0044923Y0027618
X004853Y0026348
X003358Y002555
X0033425Y0022551
X003329Y0021555
X0032175Y0023076
X0031309Y0023071
X002985Y0023435
X0027778Y0023492
X0028743Y0020864
X0028164Y0020222
X0029379Y00215
X0030511Y0019025
X0031218Y0018318
X0031925Y0019025
X0031218Y0019732
X0029683Y0026399
X0027194Y0027275
X0020717Y0018169
X0014793Y0018925
T02
X0202966Y002744
X0205506
X0208046
X0210586
X0154586
X0152046
X0149506
X0146966
X0098586
X0096046
X0093506
X0090966
X0042586
X0040046
X0037506
X0034966
T03
X0052695Y001245
X0108695
X0164695
X0220695
X0220695Y00256
X0164695
X0108695
X0052695
T04
X0003Y0004525
X0228
Y0033525
X0003Y0033525
M30
