G04 Layer_Color=65535*
%FSLAX43Y43*%
%MOMM*%
G71*
G01*
G75*
%ADD19C,0.254*%
%ADD50C,0.102*%
%ADD51C,0.127*%
%ADD52C,0.320*%
%ADD53C,0.305*%
%ADD54C,0.152*%
%ADD55C,0.200*%
G36*
X18975Y925D02*
X18750D01*
Y2075D01*
X18975D01*
Y925D01*
D02*
G37*
D19*
X23215Y5305D02*
G03*
X23215Y5305I-120J0D01*
G01*
D50*
X34803Y7249D02*
G03*
X35063Y7456I-22J294D01*
G01*
X35063Y7456D02*
G03*
X35063Y8027I-931J286D01*
G01*
X35063Y8027D02*
G03*
X34803Y8235I-282J-86D01*
G01*
X35063Y12544D02*
G03*
X34803Y12751I-282J-86D01*
G01*
X35063Y11973D02*
G03*
X35063Y12544I-931J286D01*
G01*
X34803Y11765D02*
G03*
X35063Y11973I-22J294D01*
G01*
X32052Y7041D02*
X34803Y7249D01*
X32052Y8495D02*
X34803Y8235D01*
X32052Y8495D02*
X32052Y8287D01*
X34440Y8027D01*
Y7508D02*
Y8027D01*
X32052Y7249D02*
X34440Y7508D01*
X32052Y7249D02*
X32052Y7041D01*
Y12959D02*
X34803Y12751D01*
X32052Y11505D02*
X34803Y11765D01*
X32052Y11713D02*
X32052Y11505D01*
X32052Y11713D02*
X34440Y11973D01*
Y12492D01*
X32052Y12751D02*
X34440Y12492D01*
X32052Y12751D02*
Y12959D01*
D51*
X37000Y3277D02*
G03*
X36473Y3803I-526J0D01*
G01*
X36602Y3208D02*
G03*
X36405Y3405I-197J0D01*
G01*
X36410Y16580D02*
G03*
X36607Y16777I0J197D01*
G01*
X36478Y16182D02*
G03*
X37005Y16708I0J526D01*
G01*
X36605Y2750D02*
X37000Y2750D01*
X36605Y3208D02*
X36605Y2750D01*
X36473Y4630D02*
X37000D01*
X36473Y3803D02*
Y4630D01*
X37000Y2750D02*
Y3277D01*
X37005Y16708D02*
Y17235D01*
X36478Y15355D02*
Y16182D01*
Y15355D02*
X37000D01*
X36610Y16777D02*
X36610Y17235D01*
X37005D01*
X37000Y4630D02*
Y15355D01*
X19725Y2975D02*
Y8034D01*
X6502Y2975D02*
X19725D01*
X4515Y4445D02*
Y16975D01*
X7455D02*
X19725Y16975D01*
Y16241D02*
Y16975D01*
Y10566D02*
Y13609D01*
X28448Y3405D02*
X36405D01*
X22600Y16575D02*
X24943D01*
X22600Y3425D02*
X24790D01*
X22600D02*
Y5430D01*
X22600Y14570D02*
Y16575D01*
X28454Y16580D02*
X36410D01*
X23546Y18339D02*
X23292D01*
X23419D01*
Y17704D01*
X23292Y17577D01*
X23165D01*
X23038Y17704D01*
X23800Y17577D02*
X24053D01*
X23927D01*
Y18339D01*
X23800Y18212D01*
X2667Y16256D02*
Y17018D01*
X3048D01*
X3175Y16891D01*
Y16637D01*
X3048Y16510D01*
X2667D01*
X3429Y16891D02*
X3556Y17018D01*
X3810D01*
X3937Y16891D01*
Y16764D01*
X3810Y16637D01*
X3683D01*
X3810D01*
X3937Y16510D01*
Y16383D01*
X3810Y16256D01*
X3556D01*
X3429Y16383D01*
D52*
X7750Y8000D02*
G03*
X7750Y8000I-150J0D01*
G01*
D53*
X21750Y1126D02*
Y1851D01*
D54*
X14000Y1887D02*
Y1125D01*
X14381D01*
X14508Y1252D01*
Y1760D01*
X14381Y1887D01*
X14000D01*
X14762Y1760D02*
X14889Y1887D01*
X15143D01*
X15270Y1760D01*
Y1633D01*
X15143Y1506D01*
X15016D01*
X15143D01*
X15270Y1379D01*
Y1252D01*
X15143Y1125D01*
X14889D01*
X14762Y1252D01*
X23450Y1100D02*
Y1862D01*
X23831D01*
X23958Y1735D01*
Y1481D01*
X23831Y1354D01*
X23450D01*
X23704D02*
X23958Y1100D01*
X24212D02*
X24466D01*
X24339D01*
Y1862D01*
X24212Y1735D01*
X25227Y1100D02*
Y1862D01*
X24847Y1481D01*
X25354D01*
D55*
X24420Y5100D02*
Y5367D01*
Y5233D01*
X23620D01*
X23753Y5100D01*
X24270Y14950D02*
X23470D01*
X23870Y14550D01*
Y15083D01*
M02*
