G04 Layer_Color=16711935*
%FSLAX43Y43*%
%MOMM*%
G71*
G01*
G75*
%ADD44R,0.282X0.282*%
G04:AMPARAMS|DCode=46|XSize=2.45mm|YSize=2.25mm|CornerRadius=0mm|HoleSize=0mm|Usage=FLASHONLY|Rotation=225.000|XOffset=0mm|YOffset=0mm|HoleType=Round|Shape=Rectangle|*
%AMROTATEDRECTD46*
4,1,4,0.071,1.662,1.662,0.071,-0.071,-1.662,-1.662,-0.071,0.071,1.662,0.0*
%
%ADD46ROTATEDRECTD46*%

G04:AMPARAMS|DCode=47|XSize=2.45mm|YSize=2.25mm|CornerRadius=0mm|HoleSize=0mm|Usage=FLASHONLY|Rotation=315.000|XOffset=0mm|YOffset=0mm|HoleType=Round|Shape=Rectangle|*
%AMROTATEDRECTD47*
4,1,4,-1.662,0.071,-0.071,1.662,1.662,-0.071,0.071,-1.662,-1.662,0.071,0.0*
%
%ADD47ROTATEDRECTD47*%

%ADD67R,0.965X0.965*%
%ADD68R,1.703X1.703*%
%ADD69C,1.703*%
%ADD70C,3.003*%
%ADD71C,0.838*%
%ADD72R,1.003X1.103*%
G04:AMPARAMS|DCode=73|XSize=1.103mm|YSize=1.053mm|CornerRadius=0mm|HoleSize=0mm|Usage=FLASHONLY|Rotation=45.000|XOffset=0mm|YOffset=0mm|HoleType=Round|Shape=Rectangle|*
%AMROTATEDRECTD73*
4,1,4,-0.018,-0.762,-0.762,-0.018,0.018,0.762,0.762,0.018,-0.018,-0.762,0.0*
%
%ADD73ROTATEDRECTD73*%

%ADD74P,1.365X4X180.0*%
%ADD75P,1.023X4X180.0*%
%ADD76P,7.783X4X90.0*%
G04:AMPARAMS|DCode=77|XSize=0.449mm|YSize=1.249mm|CornerRadius=0mm|HoleSize=0mm|Usage=FLASHONLY|Rotation=45.000|XOffset=0mm|YOffset=0mm|HoleType=Round|Shape=Round|*
%AMOVALD77*
21,1,0.800,0.449,0.000,0.000,135.0*
1,1,0.449,0.283,-0.283*
1,1,0.449,-0.283,0.283*
%
%ADD77OVALD77*%

G04:AMPARAMS|DCode=78|XSize=0.449mm|YSize=1.249mm|CornerRadius=0mm|HoleSize=0mm|Usage=FLASHONLY|Rotation=315.000|XOffset=0mm|YOffset=0mm|HoleType=Round|Shape=Round|*
%AMOVALD78*
21,1,0.800,0.449,0.000,0.000,45.0*
1,1,0.449,-0.283,-0.283*
1,1,0.449,0.283,0.283*
%
%ADD78OVALD78*%

%ADD79R,0.723X0.723*%
%ADD80P,1.365X4X90.0*%
%ADD81P,1.023X4X90.0*%
%ADD82R,0.965X0.965*%
G04:AMPARAMS|DCode=83|XSize=1.253mm|YSize=0.803mm|CornerRadius=0mm|HoleSize=0mm|Usage=FLASHONLY|Rotation=45.000|XOffset=0mm|YOffset=0mm|HoleType=Round|Shape=Rectangle|*
%AMROTATEDRECTD83*
4,1,4,-0.159,-0.727,-0.727,-0.159,0.159,0.727,0.727,0.159,-0.159,-0.727,0.0*
%
%ADD83ROTATEDRECTD83*%

%ADD84R,3.103X1.003*%
%ADD85R,3.403X1.003*%
%ADD86R,3.886X1.473*%
%ADD87C,0.440*%
G04:AMPARAMS|DCode=88|XSize=0.44mm|YSize=0.86mm|CornerRadius=0mm|HoleSize=0mm|Usage=FLASHONLY|Rotation=315.000|XOffset=0mm|YOffset=0mm|HoleType=Round|Shape=Rectangle|*
%AMROTATEDRECTD88*
4,1,4,-0.460,-0.148,0.148,0.460,0.460,0.148,-0.148,-0.460,-0.460,-0.148,0.0*
%
%ADD88ROTATEDRECTD88*%

G04:AMPARAMS|DCode=89|XSize=0.44mm|YSize=0.86mm|CornerRadius=0mm|HoleSize=0mm|Usage=FLASHONLY|Rotation=225.000|XOffset=0mm|YOffset=0mm|HoleType=Round|Shape=Rectangle|*
%AMROTATEDRECTD89*
4,1,4,-0.148,0.460,0.460,-0.148,0.148,-0.460,-0.460,0.148,-0.148,0.460,0.0*
%
%ADD89ROTATEDRECTD89*%

G36*
X7056Y10000D02*
X5218Y8162D01*
X3556Y9823D01*
Y10177D01*
X5218Y11838D01*
X7056Y10000D01*
D02*
G37*
D44*
X3767Y10000D02*
D03*
D46*
X5289Y9929D02*
D03*
D47*
Y10071D02*
D03*
D67*
X30264Y3404D02*
D03*
X31661D02*
D03*
X24270Y15926D02*
D03*
X22873D02*
D03*
X16827Y1380D02*
D03*
X18225Y1380D02*
D03*
X15649Y2250D02*
D03*
X14252Y2250D02*
D03*
Y3575D02*
D03*
X15648Y3575D02*
D03*
X13094Y4961D02*
D03*
X14491D02*
D03*
X2400Y5469D02*
D03*
X3797D02*
D03*
X6160Y15265D02*
D03*
X7556D02*
D03*
X32702Y16104D02*
D03*
X34099D02*
D03*
X27419Y18771D02*
D03*
X28816D02*
D03*
D68*
X16586Y18415D02*
D03*
D69*
X14046D02*
D03*
X11506D02*
D03*
X8966D02*
D03*
D70*
X26695Y3425D02*
D03*
X26695Y16575D02*
D03*
D71*
X35175Y16100D02*
D03*
D72*
X4841Y16500D02*
D03*
X2541Y16500D02*
D03*
X4841Y18250D02*
D03*
X2541Y18250D02*
D03*
X8875Y1375D02*
D03*
X10275D02*
D03*
D73*
X21556Y3776D02*
D03*
X22599Y4819D02*
D03*
X23394Y4024D02*
D03*
X22351Y2981D02*
D03*
D74*
X24819Y5081D02*
D03*
X23831Y6069D02*
D03*
X20281Y2769D02*
D03*
X21269Y1781D02*
D03*
X1223Y13913D02*
D03*
X2211Y12925D02*
D03*
X12435Y13786D02*
D03*
X13423Y12798D02*
D03*
D75*
X24587Y9657D02*
D03*
X25152Y10223D02*
D03*
X22907Y12417D02*
D03*
X23473Y12983D02*
D03*
X20240Y15084D02*
D03*
X20806Y15650D02*
D03*
X19529Y15795D02*
D03*
X20095Y16361D02*
D03*
X17883Y3833D02*
D03*
X17317Y3267D02*
D03*
X12627Y8546D02*
D03*
X12062Y7980D02*
D03*
X8778Y7084D02*
D03*
X8212Y6519D02*
D03*
D76*
X18000Y10000D02*
D03*
D77*
X18566Y5545D02*
D03*
X18919Y5899D02*
D03*
X19273Y6252D02*
D03*
X19626Y6606D02*
D03*
X19980Y6959D02*
D03*
X20333Y7313D02*
D03*
X20687Y7667D02*
D03*
X21041Y8020D02*
D03*
X21394Y8374D02*
D03*
X21748Y8727D02*
D03*
X22101Y9081D02*
D03*
X22455Y9434D02*
D03*
X17434Y14455D02*
D03*
X17081Y14101D02*
D03*
X16727Y13748D02*
D03*
X16374Y13394D02*
D03*
X16020Y13041D02*
D03*
X15667Y12687D02*
D03*
X15313Y12333D02*
D03*
X14959Y11980D02*
D03*
X14606Y11626D02*
D03*
X14252Y11273D02*
D03*
X13899Y10919D02*
D03*
X13545Y10566D02*
D03*
D78*
X22455D02*
D03*
X22101Y10919D02*
D03*
X21748Y11273D02*
D03*
X21394Y11626D02*
D03*
X21041Y11980D02*
D03*
X20687Y12333D02*
D03*
X20333Y12687D02*
D03*
X19980Y13041D02*
D03*
X19626Y13394D02*
D03*
X19273Y13748D02*
D03*
X18919Y14101D02*
D03*
X18566Y14455D02*
D03*
X13545Y9434D02*
D03*
X13899Y9081D02*
D03*
X14252Y8727D02*
D03*
X14606Y8374D02*
D03*
X14959Y8020D02*
D03*
X15313Y7667D02*
D03*
X15667Y7313D02*
D03*
X16020Y6959D02*
D03*
X16374Y6606D02*
D03*
X16727Y6252D02*
D03*
X17081Y5899D02*
D03*
X17434Y5545D02*
D03*
D79*
X23971Y17297D02*
D03*
X23171D02*
D03*
X29140Y16205D02*
D03*
X29940D02*
D03*
D80*
X24319Y2619D02*
D03*
X23331Y1631D02*
D03*
X11199Y8565D02*
D03*
X10211Y7577D02*
D03*
X9373Y8364D02*
D03*
X10361Y9352D02*
D03*
D81*
X18767Y2583D02*
D03*
X19333Y2017D02*
D03*
X3283Y13842D02*
D03*
X2717Y14408D02*
D03*
X11908Y10917D02*
D03*
X11342Y11483D02*
D03*
X12373Y12197D02*
D03*
X11808Y12762D02*
D03*
X14900Y6425D02*
D03*
X14334Y6991D02*
D03*
D82*
X12725Y3619D02*
D03*
X12725Y2223D02*
D03*
X6629Y17005D02*
D03*
Y18402D02*
D03*
X33449Y17367D02*
D03*
Y18764D02*
D03*
X30932Y18764D02*
D03*
Y17367D02*
D03*
X32193Y17367D02*
D03*
Y18764D02*
D03*
D83*
X9642Y6172D02*
D03*
X10985Y4828D02*
D03*
X7733Y4263D02*
D03*
X8404Y3591D02*
D03*
X9076Y2919D02*
D03*
D84*
X-13450Y5500D02*
D03*
Y6600D02*
D03*
Y8800D02*
D03*
Y11000D02*
D03*
Y12100D02*
D03*
Y13200D02*
D03*
D85*
X-13600Y7700D02*
D03*
Y9900D02*
D03*
D86*
X28485Y6190D02*
D03*
X33565D02*
D03*
X28485Y8730D02*
D03*
X33565D02*
D03*
X28485Y11270D02*
D03*
X33565D02*
D03*
X28485Y13810D02*
D03*
X33565D02*
D03*
D87*
X3150Y9699D02*
D03*
X3503Y9346D02*
D03*
X3857Y8992D02*
D03*
X4210Y8639D02*
D03*
X4564Y8285D02*
D03*
X4917Y7932D02*
D03*
X5519D02*
D03*
X5872Y8285D02*
D03*
X6226Y8639D02*
D03*
X6579Y8992D02*
D03*
X6933Y9346D02*
D03*
X7286Y9699D02*
D03*
X3150Y10301D02*
D03*
X3503Y10654D02*
D03*
X3857Y11008D02*
D03*
X4210Y11361D02*
D03*
X4564Y11715D02*
D03*
X4917Y12068D02*
D03*
X7286Y10300D02*
D03*
X6933Y10654D02*
D03*
X6579Y11008D02*
D03*
X6226Y11361D02*
D03*
X5872Y11715D02*
D03*
X5519Y12068D02*
D03*
D88*
X2902Y9452D02*
D03*
X3256Y9098D02*
D03*
X3609Y8745D02*
D03*
X3963Y8391D02*
D03*
X4316Y8038D02*
D03*
X4670Y7684D02*
D03*
X7534Y10548D02*
D03*
X7180Y10902D02*
D03*
X6827Y11255D02*
D03*
X6473Y11609D02*
D03*
X6120Y11962D02*
D03*
X5766Y12316D02*
D03*
D89*
X5766Y7684D02*
D03*
X6120Y8038D02*
D03*
X6473Y8391D02*
D03*
X6827Y8745D02*
D03*
X7180Y9098D02*
D03*
X7534Y9452D02*
D03*
X4670Y12316D02*
D03*
X4316Y11962D02*
D03*
X3963Y11609D02*
D03*
X3609Y11255D02*
D03*
X3256Y10902D02*
D03*
X2902Y10548D02*
D03*
M02*
