G04 Layer_Color=32896*
%FSLAX43Y43*%
%MOMM*%
G71*
G01*
G75*
%ADD19C,0.254*%
%ADD51C,0.127*%
%ADD53C,0.305*%
%ADD55C,0.200*%
%ADD111C,0.250*%
%ADD112C,0.800*%
%ADD113C,0.300*%
%ADD114C,0.100*%
G36*
X5957Y741D02*
X5763D01*
X5443Y1637D01*
X5635D01*
X5854Y974D01*
X6081Y1637D01*
X6277D01*
X5957Y741D01*
D02*
G37*
G36*
X7925D02*
X7744D01*
Y1114D01*
X7696D01*
X7686Y1114D01*
X7667Y1113D01*
X7651Y1111D01*
X7638Y1110D01*
X7629Y1107D01*
X7622Y1106D01*
X7618Y1105D01*
X7616Y1104D01*
X7606Y1100D01*
X7595Y1094D01*
X7587Y1088D01*
X7578Y1082D01*
X7571Y1076D01*
X7567Y1072D01*
X7563Y1069D01*
X7562Y1067D01*
X7557Y1061D01*
X7550Y1054D01*
X7543Y1044D01*
X7536Y1035D01*
X7521Y1013D01*
X7505Y991D01*
X7497Y980D01*
X7490Y970D01*
X7484Y961D01*
X7478Y953D01*
X7473Y946D01*
X7470Y940D01*
X7467Y937D01*
X7466Y936D01*
X7336Y741D01*
X7119D01*
X7229Y915D01*
X7240Y933D01*
X7252Y951D01*
X7262Y967D01*
X7272Y981D01*
X7281Y995D01*
X7290Y1007D01*
X7298Y1017D01*
X7305Y1027D01*
X7311Y1035D01*
X7316Y1041D01*
X7321Y1048D01*
X7325Y1052D01*
X7328Y1055D01*
X7330Y1058D01*
X7331Y1059D01*
X7332Y1060D01*
X7347Y1075D01*
X7363Y1090D01*
X7379Y1102D01*
X7394Y1113D01*
X7408Y1122D01*
X7414Y1126D01*
X7418Y1129D01*
X7423Y1132D01*
X7426Y1134D01*
X7428Y1135D01*
X7428D01*
X7407Y1139D01*
X7387Y1144D01*
X7369Y1149D01*
X7351Y1156D01*
X7335Y1162D01*
X7321Y1169D01*
X7308Y1176D01*
X7296Y1183D01*
X7286Y1190D01*
X7277Y1196D01*
X7269Y1202D01*
X7263Y1208D01*
X7258Y1212D01*
X7255Y1215D01*
X7253Y1217D01*
X7252Y1218D01*
X7241Y1230D01*
X7232Y1244D01*
X7224Y1257D01*
X7217Y1271D01*
X7211Y1286D01*
X7207Y1299D01*
X7203Y1313D01*
X7200Y1326D01*
X7197Y1338D01*
X7195Y1349D01*
X7194Y1359D01*
X7193Y1368D01*
X7192Y1375D01*
Y1380D01*
Y1384D01*
Y1385D01*
X7193Y1400D01*
X7194Y1414D01*
X7198Y1440D01*
X7201Y1452D01*
X7205Y1464D01*
X7208Y1475D01*
X7211Y1485D01*
X7215Y1494D01*
X7219Y1502D01*
X7222Y1509D01*
X7225Y1515D01*
X7228Y1519D01*
X7230Y1522D01*
X7231Y1525D01*
X7232Y1526D01*
X7239Y1536D01*
X7247Y1547D01*
X7256Y1557D01*
X7264Y1565D01*
X7273Y1573D01*
X7281Y1580D01*
X7299Y1592D01*
X7313Y1601D01*
X7320Y1604D01*
X7325Y1607D01*
X7330Y1610D01*
X7333Y1611D01*
X7335Y1612D01*
X7336D01*
X7349Y1616D01*
X7364Y1620D01*
X7379Y1623D01*
X7396Y1627D01*
X7431Y1630D01*
X7465Y1634D01*
X7481Y1634D01*
X7496Y1635D01*
X7509Y1636D01*
X7522Y1637D01*
X7925D01*
Y741D01*
D02*
G37*
G36*
X2221Y2746D02*
X2238Y2744D01*
X2255Y2742D01*
X2271Y2740D01*
X2285Y2737D01*
X2299Y2734D01*
X2310Y2732D01*
X2322Y2728D01*
X2331Y2725D01*
X2340Y2723D01*
X2347Y2720D01*
X2352Y2718D01*
X2357Y2717D01*
X2359Y2715D01*
X2360D01*
X2373Y2709D01*
X2386Y2703D01*
X2397Y2695D01*
X2408Y2688D01*
X2418Y2680D01*
X2428Y2672D01*
X2436Y2665D01*
X2443Y2658D01*
X2450Y2651D01*
X2456Y2645D01*
X2461Y2639D01*
X2465Y2634D01*
X2468Y2630D01*
X2470Y2627D01*
X2471Y2625D01*
X2472Y2624D01*
X2479Y2613D01*
X2484Y2602D01*
X2490Y2591D01*
X2494Y2579D01*
X2501Y2558D01*
X2505Y2539D01*
X2507Y2529D01*
X2508Y2522D01*
X2508Y2515D01*
X2509Y2508D01*
X2510Y2504D01*
Y2500D01*
Y2498D01*
Y2497D01*
X2509Y2477D01*
X2506Y2459D01*
X2502Y2441D01*
X2497Y2424D01*
X2491Y2408D01*
X2484Y2393D01*
X2477Y2379D01*
X2469Y2367D01*
X2461Y2355D01*
X2454Y2345D01*
X2447Y2337D01*
X2441Y2330D01*
X2435Y2324D01*
X2431Y2320D01*
X2428Y2317D01*
X2428Y2316D01*
X2416Y2307D01*
X2402Y2298D01*
X2387Y2289D01*
X2371Y2281D01*
X2337Y2265D01*
X2304Y2253D01*
X2288Y2247D01*
X2273Y2242D01*
X2260Y2238D01*
X2247Y2234D01*
X2238Y2232D01*
X2230Y2229D01*
X2226Y2229D01*
X2225Y2228D01*
X2224D01*
X2204Y2223D01*
X2185Y2219D01*
X2168Y2214D01*
X2153Y2210D01*
X2140Y2206D01*
X2128Y2203D01*
X2117Y2201D01*
X2109Y2198D01*
X2101Y2196D01*
X2095Y2194D01*
X2089Y2192D01*
X2086Y2191D01*
X2082Y2191D01*
X2080Y2190D01*
X2079Y2189D01*
X2062Y2183D01*
X2049Y2176D01*
X2037Y2170D01*
X2028Y2163D01*
X2022Y2158D01*
X2017Y2154D01*
X2014Y2151D01*
X2013Y2150D01*
X2007Y2142D01*
X2002Y2132D01*
X1999Y2123D01*
X1997Y2114D01*
X1995Y2107D01*
X1995Y2101D01*
Y2097D01*
Y2096D01*
X1995Y2086D01*
X1996Y2078D01*
X1999Y2069D01*
X2002Y2062D01*
X2009Y2047D01*
X2016Y2034D01*
X2025Y2024D01*
X2032Y2016D01*
X2035Y2013D01*
X2037Y2011D01*
X2038Y2010D01*
X2039Y2009D01*
X2048Y2003D01*
X2058Y1998D01*
X2079Y1988D01*
X2100Y1982D01*
X2121Y1978D01*
X2131Y1976D01*
X2141Y1975D01*
X2149Y1974D01*
X2156D01*
X2163Y1973D01*
X2171D01*
X2186Y1974D01*
X2201Y1974D01*
X2214Y1977D01*
X2226Y1979D01*
X2238Y1982D01*
X2249Y1986D01*
X2259Y1990D01*
X2267Y1994D01*
X2275Y1997D01*
X2282Y2001D01*
X2288Y2005D01*
X2293Y2008D01*
X2297Y2010D01*
X2300Y2013D01*
X2302Y2013D01*
X2302Y2014D01*
X2311Y2023D01*
X2319Y2031D01*
X2333Y2052D01*
X2344Y2073D01*
X2352Y2095D01*
X2356Y2105D01*
X2358Y2114D01*
X2361Y2123D01*
X2363Y2130D01*
X2365Y2136D01*
X2365Y2141D01*
X2366Y2144D01*
Y2145D01*
X2543Y2128D01*
X2539Y2100D01*
X2533Y2075D01*
X2526Y2051D01*
X2519Y2028D01*
X2510Y2008D01*
X2501Y1988D01*
X2491Y1971D01*
X2482Y1957D01*
X2473Y1943D01*
X2464Y1931D01*
X2456Y1921D01*
X2449Y1913D01*
X2443Y1907D01*
X2438Y1902D01*
X2435Y1899D01*
X2435Y1898D01*
X2417Y1884D01*
X2397Y1873D01*
X2376Y1862D01*
X2355Y1853D01*
X2334Y1845D01*
X2311Y1839D01*
X2290Y1834D01*
X2269Y1830D01*
X2250Y1826D01*
X2231Y1824D01*
X2215Y1822D01*
X2201Y1821D01*
X2189Y1821D01*
X2184Y1820D01*
X2173D01*
X2151Y1821D01*
X2131Y1821D01*
X2111Y1823D01*
X2093Y1825D01*
X2076Y1828D01*
X2060Y1830D01*
X2045Y1833D01*
X2032Y1836D01*
X2020Y1839D01*
X2009Y1842D01*
X2000Y1845D01*
X1992Y1847D01*
X1986Y1849D01*
X1982Y1851D01*
X1979Y1852D01*
X1978D01*
X1964Y1859D01*
X1950Y1866D01*
X1938Y1873D01*
X1926Y1882D01*
X1915Y1890D01*
X1905Y1898D01*
X1897Y1907D01*
X1888Y1915D01*
X1881Y1922D01*
X1875Y1929D01*
X1870Y1936D01*
X1865Y1941D01*
X1862Y1946D01*
X1859Y1949D01*
X1858Y1951D01*
X1857Y1952D01*
X1849Y1964D01*
X1842Y1978D01*
X1837Y1991D01*
X1832Y2003D01*
X1824Y2027D01*
X1821Y2039D01*
X1819Y2050D01*
X1817Y2059D01*
X1816Y2069D01*
X1815Y2076D01*
X1814Y2083D01*
X1814Y2089D01*
Y2093D01*
Y2096D01*
Y2097D01*
Y2112D01*
X1815Y2127D01*
X1817Y2141D01*
X1819Y2155D01*
X1822Y2167D01*
X1825Y2179D01*
X1828Y2190D01*
X1831Y2199D01*
X1835Y2208D01*
X1838Y2216D01*
X1841Y2223D01*
X1844Y2229D01*
X1846Y2233D01*
X1848Y2236D01*
X1849Y2238D01*
X1849Y2239D01*
X1864Y2259D01*
X1880Y2278D01*
X1897Y2293D01*
X1912Y2306D01*
X1927Y2316D01*
X1933Y2320D01*
X1938Y2323D01*
X1943Y2327D01*
X1946Y2328D01*
X1948Y2330D01*
X1949D01*
X1961Y2336D01*
X1975Y2342D01*
X1990Y2348D01*
X2006Y2354D01*
X2038Y2365D01*
X2070Y2375D01*
X2085Y2379D01*
X2099Y2383D01*
X2111Y2386D01*
X2122Y2389D01*
X2131Y2391D01*
X2138Y2393D01*
X2142Y2394D01*
X2144D01*
X2167Y2400D01*
X2189Y2406D01*
X2208Y2411D01*
X2226Y2417D01*
X2241Y2422D01*
X2254Y2427D01*
X2267Y2432D01*
X2277Y2436D01*
X2285Y2440D01*
X2292Y2443D01*
X2299Y2446D01*
X2302Y2449D01*
X2306Y2451D01*
X2309Y2452D01*
X2309Y2454D01*
X2310D01*
X2319Y2463D01*
X2326Y2472D01*
X2330Y2481D01*
X2334Y2490D01*
X2335Y2498D01*
X2336Y2503D01*
X2337Y2507D01*
Y2508D01*
X2335Y2521D01*
X2332Y2532D01*
X2328Y2542D01*
X2323Y2550D01*
X2317Y2556D01*
X2313Y2561D01*
X2310Y2564D01*
X2309Y2564D01*
X2300Y2570D01*
X2290Y2575D01*
X2271Y2583D01*
X2250Y2589D01*
X2230Y2593D01*
X2221Y2595D01*
X2212Y2596D01*
X2205Y2596D01*
X2198D01*
X2193Y2597D01*
X2171D01*
X2159Y2596D01*
X2146Y2594D01*
X2135Y2592D01*
X2124Y2590D01*
X2115Y2588D01*
X2107Y2585D01*
X2100Y2582D01*
X2093Y2579D01*
X2087Y2576D01*
X2082Y2574D01*
X2078Y2571D01*
X2075Y2570D01*
X2072Y2568D01*
X2072Y2567D01*
X2071D01*
X2064Y2561D01*
X2058Y2554D01*
X2047Y2539D01*
X2037Y2522D01*
X2031Y2505D01*
X2026Y2491D01*
X2024Y2484D01*
X2023Y2479D01*
X2022Y2474D01*
X2021Y2470D01*
X2020Y2468D01*
Y2467D01*
X1839Y2475D01*
X1841Y2498D01*
X1845Y2519D01*
X1849Y2540D01*
X1856Y2558D01*
X1863Y2575D01*
X1870Y2592D01*
X1878Y2606D01*
X1886Y2620D01*
X1894Y2632D01*
X1902Y2643D01*
X1909Y2651D01*
X1916Y2659D01*
X1922Y2665D01*
X1925Y2669D01*
X1929Y2672D01*
X1929Y2672D01*
X1946Y2686D01*
X1964Y2697D01*
X1985Y2707D01*
X2005Y2716D01*
X2026Y2723D01*
X2047Y2729D01*
X2068Y2734D01*
X2088Y2738D01*
X2107Y2741D01*
X2125Y2743D01*
X2142Y2745D01*
X2156Y2746D01*
X2167D01*
X2172Y2747D01*
X2202D01*
X2221Y2746D01*
D02*
G37*
G36*
X4706Y2735D02*
X4727Y2732D01*
X4748Y2727D01*
X4769Y2721D01*
X4787Y2714D01*
X4803Y2706D01*
X4818Y2698D01*
X4832Y2690D01*
X4844Y2680D01*
X4855Y2672D01*
X4863Y2665D01*
X4871Y2658D01*
X4877Y2651D01*
X4881Y2647D01*
X4884Y2644D01*
X4884Y2643D01*
X4892Y2632D01*
X4900Y2620D01*
X4913Y2596D01*
X4925Y2568D01*
X4935Y2539D01*
X4944Y2509D01*
X4951Y2479D01*
X4957Y2449D01*
X4961Y2419D01*
X4965Y2391D01*
X4968Y2365D01*
X4970Y2341D01*
Y2330D01*
X4971Y2320D01*
X4971Y2311D01*
Y2302D01*
X4972Y2295D01*
Y2289D01*
Y2285D01*
Y2282D01*
Y2279D01*
Y2278D01*
Y2254D01*
X4971Y2232D01*
X4970Y2210D01*
X4969Y2189D01*
X4967Y2169D01*
X4964Y2149D01*
X4962Y2131D01*
X4960Y2114D01*
X4957Y2097D01*
X4954Y2081D01*
X4951Y2066D01*
X4947Y2051D01*
X4944Y2038D01*
X4940Y2026D01*
X4936Y2013D01*
X4932Y2002D01*
X4925Y1982D01*
X4918Y1965D01*
X4911Y1951D01*
X4905Y1940D01*
X4899Y1931D01*
X4895Y1925D01*
X4893Y1922D01*
X4892Y1920D01*
X4877Y1902D01*
X4860Y1887D01*
X4843Y1873D01*
X4825Y1862D01*
X4807Y1852D01*
X4790Y1845D01*
X4773Y1838D01*
X4757Y1832D01*
X4741Y1828D01*
X4727Y1825D01*
X4714Y1823D01*
X4703Y1821D01*
X4694Y1821D01*
X4687Y1820D01*
X4682D01*
X4657Y1821D01*
X4636Y1824D01*
X4614Y1828D01*
X4595Y1834D01*
X4577Y1841D01*
X4560Y1849D01*
X4545Y1857D01*
X4531Y1866D01*
X4519Y1874D01*
X4508Y1883D01*
X4500Y1891D01*
X4492Y1898D01*
X4486Y1903D01*
X4482Y1908D01*
X4479Y1911D01*
X4479Y1912D01*
X4471Y1922D01*
X4463Y1934D01*
X4449Y1959D01*
X4438Y1987D01*
X4427Y2016D01*
X4419Y2045D01*
X4412Y2076D01*
X4406Y2107D01*
X4401Y2136D01*
X4398Y2164D01*
X4395Y2191D01*
X4392Y2215D01*
Y2226D01*
X4392Y2236D01*
X4391Y2244D01*
Y2253D01*
X4390Y2260D01*
Y2266D01*
Y2271D01*
Y2274D01*
Y2276D01*
Y2277D01*
Y2300D01*
X4391Y2323D01*
X4392Y2344D01*
X4394Y2365D01*
X4396Y2386D01*
X4398Y2405D01*
X4401Y2424D01*
X4404Y2442D01*
X4407Y2459D01*
X4410Y2474D01*
X4414Y2490D01*
X4418Y2505D01*
X4426Y2531D01*
X4434Y2555D01*
X4442Y2576D01*
X4450Y2594D01*
X4458Y2609D01*
X4464Y2621D01*
X4470Y2630D01*
X4474Y2637D01*
X4477Y2641D01*
X4478Y2642D01*
X4492Y2658D01*
X4507Y2673D01*
X4524Y2686D01*
X4541Y2696D01*
X4557Y2705D01*
X4574Y2713D01*
X4591Y2719D01*
X4607Y2724D01*
X4623Y2728D01*
X4636Y2731D01*
X4649Y2732D01*
X4660Y2734D01*
X4669Y2735D01*
X4676Y2735D01*
X4682D01*
X4706Y2735D01*
D02*
G37*
G36*
X4009D02*
X4031Y2732D01*
X4052Y2727D01*
X4072Y2721D01*
X4090Y2714D01*
X4106Y2706D01*
X4122Y2698D01*
X4135Y2690D01*
X4148Y2680D01*
X4159Y2672D01*
X4167Y2665D01*
X4175Y2658D01*
X4180Y2651D01*
X4185Y2647D01*
X4187Y2644D01*
X4188Y2643D01*
X4196Y2632D01*
X4204Y2620D01*
X4217Y2596D01*
X4228Y2568D01*
X4239Y2539D01*
X4247Y2509D01*
X4254Y2479D01*
X4260Y2449D01*
X4265Y2419D01*
X4269Y2391D01*
X4271Y2365D01*
X4274Y2341D01*
Y2330D01*
X4274Y2320D01*
X4275Y2311D01*
Y2302D01*
X4276Y2295D01*
Y2289D01*
Y2285D01*
Y2282D01*
Y2279D01*
Y2278D01*
Y2254D01*
X4275Y2232D01*
X4274Y2210D01*
X4273Y2189D01*
X4270Y2169D01*
X4268Y2149D01*
X4266Y2131D01*
X4263Y2114D01*
X4260Y2097D01*
X4257Y2081D01*
X4254Y2066D01*
X4250Y2051D01*
X4247Y2038D01*
X4243Y2026D01*
X4239Y2013D01*
X4235Y2002D01*
X4228Y1982D01*
X4221Y1965D01*
X4214Y1951D01*
X4208Y1940D01*
X4203Y1931D01*
X4199Y1925D01*
X4197Y1922D01*
X4196Y1920D01*
X4180Y1902D01*
X4164Y1887D01*
X4147Y1873D01*
X4129Y1862D01*
X4111Y1852D01*
X4094Y1845D01*
X4077Y1838D01*
X4061Y1832D01*
X4045Y1828D01*
X4031Y1825D01*
X4018Y1823D01*
X4007Y1821D01*
X3998Y1821D01*
X3991Y1820D01*
X3985D01*
X3961Y1821D01*
X3939Y1824D01*
X3918Y1828D01*
X3898Y1834D01*
X3880Y1841D01*
X3864Y1849D01*
X3848Y1857D01*
X3834Y1866D01*
X3823Y1874D01*
X3812Y1883D01*
X3803Y1891D01*
X3796Y1898D01*
X3790Y1903D01*
X3785Y1908D01*
X3783Y1911D01*
X3782Y1912D01*
X3775Y1922D01*
X3767Y1934D01*
X3753Y1959D01*
X3741Y1987D01*
X3731Y2016D01*
X3722Y2045D01*
X3715Y2076D01*
X3709Y2107D01*
X3705Y2136D01*
X3701Y2164D01*
X3698Y2191D01*
X3696Y2215D01*
Y2226D01*
X3695Y2236D01*
X3694Y2244D01*
Y2253D01*
X3694Y2260D01*
Y2266D01*
Y2271D01*
Y2274D01*
Y2276D01*
Y2277D01*
Y2300D01*
X3694Y2323D01*
X3696Y2344D01*
X3698Y2365D01*
X3699Y2386D01*
X3701Y2405D01*
X3705Y2424D01*
X3708Y2442D01*
X3711Y2459D01*
X3714Y2474D01*
X3718Y2490D01*
X3722Y2505D01*
X3729Y2531D01*
X3737Y2555D01*
X3746Y2576D01*
X3754Y2594D01*
X3761Y2609D01*
X3768Y2621D01*
X3774Y2630D01*
X3778Y2637D01*
X3781Y2641D01*
X3782Y2642D01*
X3796Y2658D01*
X3811Y2673D01*
X3827Y2686D01*
X3844Y2696D01*
X3861Y2705D01*
X3878Y2713D01*
X3895Y2719D01*
X3911Y2724D01*
X3926Y2728D01*
X3940Y2731D01*
X3953Y2732D01*
X3963Y2734D01*
X3973Y2735D01*
X3980Y2735D01*
X3985D01*
X4009Y2735D01*
D02*
G37*
G36*
X3122Y1071D02*
Y921D01*
X2755D01*
Y741D01*
X2588D01*
Y921D01*
X2477D01*
Y1072D01*
X2588D01*
Y1641D01*
X2733D01*
X3122Y1071D01*
D02*
G37*
G36*
X3522Y1640D02*
X3544Y1637D01*
X3565Y1632D01*
X3585Y1626D01*
X3603Y1619D01*
X3619Y1611D01*
X3635Y1603D01*
X3648Y1595D01*
X3660Y1585D01*
X3671Y1578D01*
X3680Y1570D01*
X3687Y1563D01*
X3693Y1557D01*
X3698Y1552D01*
X3700Y1549D01*
X3701Y1548D01*
X3708Y1537D01*
X3716Y1526D01*
X3729Y1501D01*
X3741Y1473D01*
X3751Y1444D01*
X3760Y1414D01*
X3767Y1384D01*
X3773Y1354D01*
X3778Y1324D01*
X3782Y1296D01*
X3784Y1270D01*
X3786Y1246D01*
Y1235D01*
X3787Y1225D01*
X3788Y1216D01*
Y1208D01*
X3789Y1201D01*
Y1194D01*
Y1190D01*
Y1187D01*
Y1184D01*
Y1184D01*
Y1159D01*
X3788Y1137D01*
X3786Y1115D01*
X3785Y1094D01*
X3783Y1074D01*
X3781Y1055D01*
X3778Y1037D01*
X3776Y1019D01*
X3773Y1002D01*
X3770Y986D01*
X3767Y971D01*
X3763Y957D01*
X3760Y943D01*
X3756Y931D01*
X3752Y919D01*
X3748Y908D01*
X3741Y887D01*
X3734Y870D01*
X3727Y856D01*
X3721Y845D01*
X3715Y836D01*
X3712Y830D01*
X3709Y827D01*
X3708Y825D01*
X3693Y807D01*
X3677Y792D01*
X3660Y779D01*
X3642Y767D01*
X3624Y758D01*
X3607Y750D01*
X3590Y743D01*
X3573Y737D01*
X3558Y734D01*
X3544Y730D01*
X3530Y728D01*
X3520Y727D01*
X3510Y726D01*
X3503Y725D01*
X3498D01*
X3474Y726D01*
X3452Y729D01*
X3430Y734D01*
X3411Y739D01*
X3393Y746D01*
X3377Y754D01*
X3361Y762D01*
X3347Y771D01*
X3335Y779D01*
X3325Y788D01*
X3316Y796D01*
X3308Y803D01*
X3303Y808D01*
X3298Y813D01*
X3296Y816D01*
X3295Y817D01*
X3287Y828D01*
X3279Y839D01*
X3265Y864D01*
X3254Y892D01*
X3244Y921D01*
X3235Y950D01*
X3228Y981D01*
X3222Y1012D01*
X3217Y1041D01*
X3214Y1069D01*
X3211Y1096D01*
X3209Y1120D01*
Y1131D01*
X3208Y1141D01*
X3207Y1149D01*
Y1158D01*
X3206Y1165D01*
Y1171D01*
Y1176D01*
Y1179D01*
Y1181D01*
Y1182D01*
Y1205D01*
X3207Y1228D01*
X3209Y1250D01*
X3210Y1271D01*
X3212Y1291D01*
X3214Y1310D01*
X3217Y1329D01*
X3220Y1347D01*
X3223Y1364D01*
X3227Y1379D01*
X3230Y1395D01*
X3234Y1410D01*
X3242Y1436D01*
X3250Y1460D01*
X3258Y1481D01*
X3266Y1499D01*
X3274Y1514D01*
X3280Y1526D01*
X3286Y1536D01*
X3290Y1542D01*
X3293Y1546D01*
X3294Y1547D01*
X3308Y1564D01*
X3324Y1578D01*
X3340Y1591D01*
X3357Y1601D01*
X3373Y1610D01*
X3391Y1618D01*
X3408Y1624D01*
X3423Y1629D01*
X3439Y1633D01*
X3453Y1636D01*
X3465Y1637D01*
X3476Y1639D01*
X3485Y1640D01*
X3492Y1641D01*
X3498D01*
X3522Y1640D01*
D02*
G37*
G36*
X4100Y741D02*
X3928D01*
Y912D01*
X4100D01*
Y741D01*
D02*
G37*
G36*
X7021D02*
X6339D01*
Y892D01*
X6840D01*
Y1135D01*
X6390D01*
Y1287D01*
X6840D01*
Y1485D01*
X6357D01*
Y1637D01*
X7021D01*
Y741D01*
D02*
G37*
G36*
X5002D02*
X4666D01*
X4638Y741D01*
X4612D01*
X4590Y742D01*
X4570D01*
X4552Y743D01*
X4536D01*
X4523Y744D01*
X4511Y744D01*
X4502D01*
X4494Y745D01*
X4484D01*
X4481Y746D01*
X4479D01*
X4453Y751D01*
X4429Y756D01*
X4409Y763D01*
X4399Y767D01*
X4391Y771D01*
X4383Y774D01*
X4377Y778D01*
X4371Y780D01*
X4366Y783D01*
X4362Y786D01*
X4360Y787D01*
X4358Y789D01*
X4357D01*
X4340Y803D01*
X4325Y818D01*
X4312Y833D01*
X4300Y848D01*
X4291Y861D01*
X4288Y866D01*
X4285Y872D01*
X4283Y876D01*
X4281Y879D01*
X4280Y880D01*
Y881D01*
X4270Y903D01*
X4263Y924D01*
X4258Y944D01*
X4255Y962D01*
X4253Y971D01*
X4253Y978D01*
X4252Y984D01*
Y990D01*
X4251Y994D01*
Y997D01*
Y999D01*
Y1000D01*
X4252Y1014D01*
X4253Y1028D01*
X4255Y1041D01*
X4258Y1054D01*
X4261Y1066D01*
X4265Y1077D01*
X4269Y1087D01*
X4273Y1097D01*
X4277Y1106D01*
X4281Y1113D01*
X4285Y1120D01*
X4288Y1125D01*
X4291Y1130D01*
X4294Y1133D01*
X4295Y1135D01*
X4295Y1135D01*
X4304Y1145D01*
X4313Y1156D01*
X4333Y1173D01*
X4354Y1187D01*
X4375Y1198D01*
X4384Y1202D01*
X4392Y1206D01*
X4401Y1210D01*
X4408Y1212D01*
X4413Y1215D01*
X4417Y1216D01*
X4420Y1217D01*
X4421D01*
X4400Y1228D01*
X4382Y1240D01*
X4367Y1253D01*
X4354Y1266D01*
X4343Y1278D01*
X4336Y1287D01*
X4333Y1291D01*
X4331Y1293D01*
X4329Y1295D01*
Y1295D01*
X4323Y1306D01*
X4318Y1316D01*
X4310Y1336D01*
X4304Y1355D01*
X4299Y1373D01*
X4298Y1381D01*
X4297Y1389D01*
X4296Y1395D01*
Y1400D01*
X4295Y1405D01*
Y1408D01*
Y1411D01*
Y1411D01*
X4297Y1432D01*
X4300Y1452D01*
X4304Y1470D01*
X4309Y1485D01*
X4312Y1491D01*
X4315Y1498D01*
X4317Y1503D01*
X4319Y1508D01*
X4321Y1511D01*
X4322Y1513D01*
X4323Y1515D01*
Y1515D01*
X4334Y1532D01*
X4345Y1547D01*
X4357Y1560D01*
X4368Y1571D01*
X4377Y1578D01*
X4385Y1585D01*
X4388Y1587D01*
X4390Y1589D01*
X4391Y1590D01*
X4392D01*
X4407Y1600D01*
X4424Y1608D01*
X4440Y1614D01*
X4454Y1620D01*
X4467Y1623D01*
X4472Y1624D01*
X4477Y1626D01*
X4480Y1627D01*
X4483D01*
X4485Y1627D01*
X4486D01*
X4496Y1629D01*
X4507Y1630D01*
X4520Y1632D01*
X4532Y1633D01*
X4559Y1634D01*
X4584Y1636D01*
X4608D01*
X4618Y1637D01*
X5002D01*
Y741D01*
D02*
G37*
G36*
X3286Y2720D02*
X3293Y2706D01*
X3300Y2692D01*
X3309Y2678D01*
X3318Y2665D01*
X3327Y2654D01*
X3336Y2643D01*
X3345Y2633D01*
X3353Y2623D01*
X3362Y2616D01*
X3369Y2609D01*
X3375Y2602D01*
X3380Y2598D01*
X3385Y2595D01*
X3387Y2592D01*
X3388Y2592D01*
X3403Y2581D01*
X3417Y2571D01*
X3431Y2561D01*
X3444Y2553D01*
X3457Y2545D01*
X3469Y2538D01*
X3480Y2533D01*
X3490Y2527D01*
X3500Y2522D01*
X3508Y2519D01*
X3516Y2515D01*
X3522Y2513D01*
X3527Y2511D01*
X3530Y2509D01*
X3533Y2508D01*
X3534D01*
Y2352D01*
X3510Y2361D01*
X3488Y2370D01*
X3466Y2379D01*
X3445Y2390D01*
X3426Y2401D01*
X3407Y2412D01*
X3391Y2422D01*
X3374Y2433D01*
X3360Y2443D01*
X3348Y2452D01*
X3337Y2460D01*
X3328Y2468D01*
X3321Y2473D01*
X3316Y2478D01*
X3312Y2481D01*
X3311Y2482D01*
Y1835D01*
X3140D01*
Y2735D01*
X3279D01*
X3286Y2720D01*
D02*
G37*
G36*
X5372Y2075D02*
X5034D01*
Y2247D01*
X5372D01*
Y2075D01*
D02*
G37*
G36*
X7925Y1835D02*
X7744D01*
Y2209D01*
X7696D01*
X7686Y2208D01*
X7667Y2208D01*
X7651Y2206D01*
X7638Y2205D01*
X7629Y2202D01*
X7622Y2201D01*
X7618Y2200D01*
X7616Y2199D01*
X7606Y2194D01*
X7595Y2189D01*
X7587Y2183D01*
X7578Y2177D01*
X7571Y2171D01*
X7567Y2166D01*
X7563Y2163D01*
X7562Y2162D01*
X7557Y2156D01*
X7550Y2149D01*
X7543Y2139D01*
X7536Y2130D01*
X7521Y2108D01*
X7505Y2086D01*
X7497Y2075D01*
X7490Y2065D01*
X7484Y2055D01*
X7478Y2048D01*
X7473Y2041D01*
X7470Y2035D01*
X7467Y2032D01*
X7466Y2030D01*
X7336Y1835D01*
X7119D01*
X7229Y2009D01*
X7240Y2028D01*
X7252Y2046D01*
X7262Y2062D01*
X7272Y2076D01*
X7281Y2090D01*
X7290Y2102D01*
X7298Y2112D01*
X7305Y2121D01*
X7311Y2130D01*
X7316Y2136D01*
X7321Y2142D01*
X7325Y2147D01*
X7328Y2150D01*
X7330Y2153D01*
X7331Y2154D01*
X7332Y2155D01*
X7347Y2170D01*
X7363Y2184D01*
X7379Y2197D01*
X7394Y2208D01*
X7408Y2217D01*
X7414Y2221D01*
X7418Y2224D01*
X7423Y2227D01*
X7426Y2229D01*
X7428Y2230D01*
X7428D01*
X7407Y2234D01*
X7387Y2239D01*
X7369Y2244D01*
X7351Y2250D01*
X7335Y2257D01*
X7321Y2264D01*
X7308Y2271D01*
X7296Y2278D01*
X7286Y2285D01*
X7277Y2291D01*
X7269Y2297D01*
X7263Y2302D01*
X7258Y2306D01*
X7255Y2309D01*
X7253Y2312D01*
X7252Y2313D01*
X7241Y2325D01*
X7232Y2339D01*
X7224Y2352D01*
X7217Y2366D01*
X7211Y2381D01*
X7207Y2394D01*
X7203Y2408D01*
X7200Y2421D01*
X7197Y2433D01*
X7195Y2444D01*
X7194Y2454D01*
X7193Y2463D01*
X7192Y2470D01*
Y2475D01*
Y2479D01*
Y2480D01*
X7193Y2494D01*
X7194Y2508D01*
X7198Y2535D01*
X7201Y2547D01*
X7205Y2559D01*
X7208Y2570D01*
X7211Y2580D01*
X7215Y2589D01*
X7219Y2597D01*
X7222Y2604D01*
X7225Y2609D01*
X7228Y2614D01*
X7230Y2617D01*
X7231Y2620D01*
X7232Y2620D01*
X7239Y2631D01*
X7247Y2642D01*
X7256Y2651D01*
X7264Y2660D01*
X7273Y2668D01*
X7281Y2675D01*
X7299Y2687D01*
X7313Y2696D01*
X7320Y2699D01*
X7325Y2702D01*
X7330Y2704D01*
X7333Y2706D01*
X7335Y2707D01*
X7336D01*
X7349Y2711D01*
X7364Y2715D01*
X7379Y2718D01*
X7396Y2721D01*
X7431Y2725D01*
X7465Y2728D01*
X7481Y2729D01*
X7496Y2730D01*
X7509Y2731D01*
X7522Y2732D01*
X7925D01*
Y1835D01*
D02*
G37*
G36*
X1662D02*
X1303D01*
X1286Y1836D01*
X1269Y1837D01*
X1254Y1838D01*
X1240Y1840D01*
X1227Y1842D01*
X1215Y1843D01*
X1204Y1845D01*
X1194Y1846D01*
X1186Y1848D01*
X1179Y1849D01*
X1172Y1851D01*
X1168Y1852D01*
X1165Y1853D01*
X1162Y1854D01*
X1161D01*
X1147Y1859D01*
X1133Y1864D01*
X1120Y1870D01*
X1108Y1876D01*
X1096Y1882D01*
X1086Y1888D01*
X1076Y1894D01*
X1067Y1899D01*
X1060Y1905D01*
X1053Y1910D01*
X1047Y1914D01*
X1043Y1918D01*
X1039Y1921D01*
X1036Y1923D01*
X1035Y1925D01*
X1034Y1926D01*
X1022Y1937D01*
X1012Y1950D01*
X993Y1976D01*
X976Y2002D01*
X962Y2027D01*
X957Y2039D01*
X952Y2050D01*
X948Y2059D01*
X945Y2068D01*
X942Y2075D01*
X940Y2079D01*
X938Y2083D01*
Y2084D01*
X929Y2115D01*
X922Y2148D01*
X917Y2180D01*
X915Y2194D01*
X914Y2209D01*
X913Y2223D01*
X912Y2236D01*
X911Y2247D01*
Y2256D01*
X910Y2264D01*
Y2270D01*
Y2273D01*
Y2275D01*
Y2298D01*
X912Y2320D01*
X913Y2341D01*
X915Y2361D01*
X917Y2379D01*
X920Y2397D01*
X922Y2413D01*
X925Y2428D01*
X928Y2441D01*
X931Y2452D01*
X933Y2463D01*
X935Y2470D01*
X937Y2477D01*
X938Y2482D01*
X940Y2485D01*
Y2486D01*
X952Y2517D01*
X959Y2532D01*
X966Y2545D01*
X973Y2558D01*
X980Y2570D01*
X987Y2581D01*
X994Y2591D01*
X1001Y2600D01*
X1007Y2608D01*
X1012Y2615D01*
X1017Y2620D01*
X1021Y2625D01*
X1024Y2629D01*
X1025Y2630D01*
X1026Y2631D01*
X1037Y2642D01*
X1048Y2652D01*
X1060Y2661D01*
X1071Y2669D01*
X1082Y2677D01*
X1093Y2683D01*
X1114Y2695D01*
X1124Y2700D01*
X1133Y2704D01*
X1140Y2707D01*
X1147Y2709D01*
X1153Y2711D01*
X1157Y2713D01*
X1160Y2714D01*
X1161D01*
X1172Y2717D01*
X1185Y2720D01*
X1212Y2724D01*
X1241Y2727D01*
X1268Y2729D01*
X1281Y2730D01*
X1293Y2731D01*
X1304D01*
X1313Y2732D01*
X1662D01*
Y1835D01*
D02*
G37*
G36*
X5910Y2746D02*
X5927Y2744D01*
X5945Y2742D01*
X5960Y2740D01*
X5974Y2737D01*
X5988Y2734D01*
X6000Y2732D01*
X6011Y2728D01*
X6021Y2725D01*
X6029Y2723D01*
X6036Y2720D01*
X6042Y2718D01*
X6046Y2717D01*
X6049Y2715D01*
X6050D01*
X6063Y2709D01*
X6075Y2703D01*
X6087Y2695D01*
X6098Y2688D01*
X6108Y2680D01*
X6117Y2672D01*
X6126Y2665D01*
X6133Y2658D01*
X6140Y2651D01*
X6145Y2645D01*
X6151Y2639D01*
X6154Y2634D01*
X6158Y2630D01*
X6160Y2627D01*
X6161Y2625D01*
X6161Y2624D01*
X6168Y2613D01*
X6174Y2602D01*
X6179Y2591D01*
X6183Y2579D01*
X6190Y2558D01*
X6195Y2539D01*
X6196Y2529D01*
X6197Y2522D01*
X6198Y2515D01*
X6199Y2508D01*
X6200Y2504D01*
Y2500D01*
Y2498D01*
Y2497D01*
X6199Y2477D01*
X6196Y2459D01*
X6192Y2441D01*
X6186Y2424D01*
X6180Y2408D01*
X6173Y2393D01*
X6166Y2379D01*
X6158Y2367D01*
X6151Y2355D01*
X6144Y2345D01*
X6137Y2337D01*
X6130Y2330D01*
X6125Y2324D01*
X6121Y2320D01*
X6118Y2317D01*
X6117Y2316D01*
X6105Y2307D01*
X6091Y2298D01*
X6077Y2289D01*
X6060Y2281D01*
X6027Y2265D01*
X5994Y2253D01*
X5977Y2247D01*
X5962Y2242D01*
X5949Y2238D01*
X5937Y2234D01*
X5927Y2232D01*
X5920Y2229D01*
X5915Y2229D01*
X5914Y2228D01*
X5913D01*
X5893Y2223D01*
X5875Y2219D01*
X5858Y2214D01*
X5843Y2210D01*
X5830Y2206D01*
X5818Y2203D01*
X5807Y2201D01*
X5798Y2198D01*
X5791Y2196D01*
X5784Y2194D01*
X5779Y2192D01*
X5775Y2191D01*
X5772Y2191D01*
X5770Y2190D01*
X5768Y2189D01*
X5752Y2183D01*
X5739Y2176D01*
X5727Y2170D01*
X5718Y2163D01*
X5711Y2158D01*
X5707Y2154D01*
X5704Y2151D01*
X5703Y2150D01*
X5697Y2142D01*
X5692Y2132D01*
X5689Y2123D01*
X5687Y2114D01*
X5685Y2107D01*
X5684Y2101D01*
Y2097D01*
Y2096D01*
X5685Y2086D01*
X5686Y2078D01*
X5688Y2069D01*
X5691Y2062D01*
X5698Y2047D01*
X5706Y2034D01*
X5715Y2024D01*
X5722Y2016D01*
X5725Y2013D01*
X5727Y2011D01*
X5728Y2010D01*
X5729Y2009D01*
X5737Y2003D01*
X5747Y1998D01*
X5768Y1988D01*
X5790Y1982D01*
X5811Y1978D01*
X5821Y1976D01*
X5830Y1975D01*
X5839Y1974D01*
X5846D01*
X5852Y1973D01*
X5861D01*
X5875Y1974D01*
X5890Y1974D01*
X5903Y1977D01*
X5916Y1979D01*
X5927Y1982D01*
X5938Y1986D01*
X5948Y1990D01*
X5957Y1994D01*
X5965Y1997D01*
X5972Y2001D01*
X5978Y2005D01*
X5983Y2008D01*
X5987Y2010D01*
X5990Y2013D01*
X5991Y2013D01*
X5992Y2014D01*
X6001Y2023D01*
X6008Y2031D01*
X6022Y2052D01*
X6033Y2073D01*
X6042Y2095D01*
X6046Y2105D01*
X6048Y2114D01*
X6050Y2123D01*
X6053Y2130D01*
X6054Y2136D01*
X6055Y2141D01*
X6056Y2144D01*
Y2145D01*
X6232Y2128D01*
X6228Y2100D01*
X6223Y2075D01*
X6216Y2051D01*
X6208Y2028D01*
X6200Y2008D01*
X6190Y1988D01*
X6181Y1971D01*
X6172Y1957D01*
X6162Y1943D01*
X6154Y1931D01*
X6146Y1921D01*
X6139Y1913D01*
X6133Y1907D01*
X6128Y1902D01*
X6125Y1899D01*
X6124Y1898D01*
X6106Y1884D01*
X6087Y1873D01*
X6066Y1862D01*
X6045Y1853D01*
X6023Y1845D01*
X6001Y1839D01*
X5980Y1834D01*
X5959Y1830D01*
X5939Y1826D01*
X5920Y1824D01*
X5904Y1822D01*
X5890Y1821D01*
X5879Y1821D01*
X5874Y1820D01*
X5862D01*
X5840Y1821D01*
X5820Y1821D01*
X5801Y1823D01*
X5783Y1825D01*
X5766Y1828D01*
X5750Y1830D01*
X5735Y1833D01*
X5722Y1836D01*
X5709Y1839D01*
X5699Y1842D01*
X5690Y1845D01*
X5682Y1847D01*
X5676Y1849D01*
X5672Y1851D01*
X5669Y1852D01*
X5668D01*
X5654Y1859D01*
X5640Y1866D01*
X5627Y1873D01*
X5616Y1882D01*
X5605Y1890D01*
X5595Y1898D01*
X5586Y1907D01*
X5578Y1915D01*
X5571Y1922D01*
X5565Y1929D01*
X5559Y1936D01*
X5554Y1941D01*
X5551Y1946D01*
X5549Y1949D01*
X5547Y1951D01*
X5547Y1952D01*
X5539Y1964D01*
X5532Y1978D01*
X5526Y1991D01*
X5522Y2003D01*
X5514Y2027D01*
X5511Y2039D01*
X5509Y2050D01*
X5507Y2059D01*
X5505Y2069D01*
X5505Y2076D01*
X5504Y2083D01*
X5503Y2089D01*
Y2093D01*
Y2096D01*
Y2097D01*
Y2112D01*
X5505Y2127D01*
X5506Y2141D01*
X5509Y2155D01*
X5512Y2167D01*
X5515Y2179D01*
X5518Y2190D01*
X5521Y2199D01*
X5524Y2208D01*
X5527Y2216D01*
X5530Y2223D01*
X5533Y2229D01*
X5536Y2233D01*
X5537Y2236D01*
X5538Y2238D01*
X5539Y2239D01*
X5554Y2259D01*
X5569Y2278D01*
X5586Y2293D01*
X5602Y2306D01*
X5617Y2316D01*
X5623Y2320D01*
X5627Y2323D01*
X5632Y2327D01*
X5635Y2328D01*
X5638Y2330D01*
X5638D01*
X5651Y2336D01*
X5665Y2342D01*
X5680Y2348D01*
X5695Y2354D01*
X5728Y2365D01*
X5760Y2375D01*
X5774Y2379D01*
X5788Y2383D01*
X5801Y2386D01*
X5812Y2389D01*
X5821Y2391D01*
X5828Y2393D01*
X5832Y2394D01*
X5833D01*
X5857Y2400D01*
X5879Y2406D01*
X5898Y2411D01*
X5915Y2417D01*
X5931Y2422D01*
X5944Y2427D01*
X5956Y2432D01*
X5966Y2436D01*
X5975Y2440D01*
X5982Y2443D01*
X5988Y2446D01*
X5992Y2449D01*
X5996Y2451D01*
X5998Y2452D01*
X5999Y2454D01*
X6000D01*
X6008Y2463D01*
X6015Y2472D01*
X6020Y2481D01*
X6023Y2490D01*
X6025Y2498D01*
X6025Y2503D01*
X6026Y2507D01*
Y2508D01*
X6025Y2521D01*
X6022Y2532D01*
X6018Y2542D01*
X6012Y2550D01*
X6007Y2556D01*
X6003Y2561D01*
X6000Y2564D01*
X5998Y2564D01*
X5990Y2570D01*
X5980Y2575D01*
X5960Y2583D01*
X5939Y2589D01*
X5920Y2593D01*
X5910Y2595D01*
X5902Y2596D01*
X5894Y2596D01*
X5888D01*
X5882Y2597D01*
X5861D01*
X5848Y2596D01*
X5836Y2594D01*
X5825Y2592D01*
X5814Y2590D01*
X5805Y2588D01*
X5796Y2585D01*
X5789Y2582D01*
X5782Y2579D01*
X5777Y2576D01*
X5771Y2574D01*
X5767Y2571D01*
X5764Y2570D01*
X5762Y2568D01*
X5761Y2567D01*
X5760D01*
X5753Y2561D01*
X5747Y2554D01*
X5736Y2539D01*
X5727Y2522D01*
X5721Y2505D01*
X5715Y2491D01*
X5714Y2484D01*
X5712Y2479D01*
X5711Y2474D01*
X5711Y2470D01*
X5710Y2468D01*
Y2467D01*
X5529Y2475D01*
X5530Y2498D01*
X5534Y2519D01*
X5539Y2540D01*
X5545Y2558D01*
X5552Y2575D01*
X5559Y2592D01*
X5568Y2606D01*
X5575Y2620D01*
X5584Y2632D01*
X5592Y2643D01*
X5599Y2651D01*
X5606Y2659D01*
X5611Y2665D01*
X5615Y2669D01*
X5618Y2672D01*
X5619Y2672D01*
X5636Y2686D01*
X5654Y2697D01*
X5674Y2707D01*
X5694Y2716D01*
X5715Y2723D01*
X5736Y2729D01*
X5757Y2734D01*
X5777Y2738D01*
X5797Y2741D01*
X5815Y2743D01*
X5831Y2745D01*
X5845Y2746D01*
X5857D01*
X5861Y2747D01*
X5892D01*
X5910Y2746D01*
D02*
G37*
G36*
X7021Y1835D02*
X6339D01*
Y1987D01*
X6840D01*
Y2230D01*
X6390D01*
Y2382D01*
X6840D01*
Y2580D01*
X6357D01*
Y2732D01*
X7021D01*
Y1835D01*
D02*
G37*
%LPC*%
G36*
X7744Y1485D02*
X7550D01*
X7536Y1484D01*
X7513D01*
X7504Y1484D01*
X7489D01*
X7484Y1483D01*
X7477D01*
X7473Y1482D01*
X7471D01*
X7456Y1478D01*
X7442Y1473D01*
X7431Y1467D01*
X7421Y1461D01*
X7414Y1456D01*
X7408Y1451D01*
X7404Y1448D01*
X7403Y1446D01*
X7395Y1435D01*
X7389Y1423D01*
X7385Y1411D01*
X7382Y1400D01*
X7380Y1389D01*
X7379Y1381D01*
Y1378D01*
Y1376D01*
Y1374D01*
Y1373D01*
X7379Y1358D01*
X7382Y1346D01*
X7385Y1334D01*
X7388Y1324D01*
X7391Y1316D01*
X7394Y1310D01*
X7396Y1307D01*
X7397Y1306D01*
X7405Y1296D01*
X7413Y1288D01*
X7421Y1282D01*
X7430Y1277D01*
X7437Y1273D01*
X7443Y1271D01*
X7447Y1269D01*
X7449Y1268D01*
X7456Y1267D01*
X7465Y1264D01*
X7475Y1264D01*
X7487Y1262D01*
X7500Y1261D01*
X7514Y1260D01*
X7541Y1259D01*
X7555Y1258D01*
X7567D01*
X7579Y1257D01*
X7744D01*
Y1485D01*
D02*
G37*
G36*
X4687Y2593D02*
X4682D01*
X4670Y2592D01*
X4660Y2590D01*
X4650Y2587D01*
X4642Y2583D01*
X4636Y2579D01*
X4630Y2576D01*
X4627Y2574D01*
X4626Y2573D01*
X4622Y2569D01*
X4618Y2564D01*
X4609Y2552D01*
X4602Y2539D01*
X4597Y2526D01*
X4592Y2513D01*
X4591Y2508D01*
X4589Y2503D01*
X4588Y2499D01*
X4587Y2496D01*
X4586Y2494D01*
Y2494D01*
X4583Y2481D01*
X4581Y2467D01*
X4578Y2452D01*
X4577Y2435D01*
X4575Y2418D01*
X4574Y2399D01*
X4572Y2363D01*
X4571Y2346D01*
X4570Y2330D01*
Y2315D01*
X4570Y2302D01*
Y2292D01*
Y2284D01*
Y2281D01*
Y2278D01*
Y2278D01*
Y2277D01*
Y2248D01*
X4570Y2222D01*
X4571Y2198D01*
X4573Y2175D01*
X4574Y2155D01*
X4575Y2137D01*
X4577Y2121D01*
X4578Y2106D01*
X4581Y2093D01*
X4582Y2083D01*
X4584Y2073D01*
X4584Y2065D01*
X4586Y2060D01*
X4587Y2056D01*
X4588Y2054D01*
Y2053D01*
X4593Y2035D01*
X4599Y2020D01*
X4606Y2008D01*
X4612Y1998D01*
X4618Y1991D01*
X4623Y1985D01*
X4626Y1982D01*
X4626Y1981D01*
X4636Y1975D01*
X4645Y1971D01*
X4654Y1967D01*
X4663Y1964D01*
X4671Y1963D01*
X4676Y1962D01*
X4682D01*
X4693Y1963D01*
X4703Y1965D01*
X4713Y1968D01*
X4720Y1972D01*
X4727Y1975D01*
X4732Y1978D01*
X4736Y1981D01*
X4737Y1981D01*
X4741Y1985D01*
X4745Y1991D01*
X4753Y2002D01*
X4760Y2015D01*
X4766Y2028D01*
X4771Y2041D01*
X4773Y2046D01*
X4774Y2051D01*
X4776Y2055D01*
X4776Y2058D01*
X4777Y2059D01*
Y2060D01*
X4780Y2072D01*
X4783Y2086D01*
X4784Y2102D01*
X4787Y2119D01*
X4787Y2136D01*
X4789Y2155D01*
X4790Y2191D01*
X4791Y2208D01*
X4792Y2224D01*
Y2239D01*
X4793Y2251D01*
Y2262D01*
Y2270D01*
Y2273D01*
Y2275D01*
Y2276D01*
Y2277D01*
Y2306D01*
X4792Y2332D01*
X4791Y2356D01*
X4790Y2379D01*
X4789Y2399D01*
X4787Y2418D01*
X4786Y2434D01*
X4784Y2449D01*
X4783Y2461D01*
X4781Y2472D01*
X4780Y2481D01*
X4778Y2488D01*
X4777Y2494D01*
X4776Y2498D01*
X4776Y2501D01*
Y2501D01*
X4770Y2519D01*
X4764Y2534D01*
X4758Y2547D01*
X4752Y2557D01*
X4746Y2564D01*
X4741Y2569D01*
X4738Y2572D01*
X4738Y2573D01*
X4728Y2580D01*
X4718Y2585D01*
X4709Y2589D01*
X4700Y2591D01*
X4692Y2592D01*
X4687Y2593D01*
D02*
G37*
G36*
X3991D02*
X3985D01*
X3974Y2592D01*
X3963Y2590D01*
X3954Y2587D01*
X3946Y2583D01*
X3939Y2579D01*
X3934Y2576D01*
X3931Y2574D01*
X3930Y2573D01*
X3925Y2569D01*
X3921Y2564D01*
X3913Y2552D01*
X3906Y2539D01*
X3900Y2526D01*
X3896Y2513D01*
X3894Y2508D01*
X3893Y2503D01*
X3891Y2499D01*
X3890Y2496D01*
X3890Y2494D01*
Y2494D01*
X3886Y2481D01*
X3884Y2467D01*
X3882Y2452D01*
X3880Y2435D01*
X3879Y2418D01*
X3877Y2399D01*
X3876Y2363D01*
X3875Y2346D01*
X3874Y2330D01*
Y2315D01*
X3873Y2302D01*
Y2292D01*
Y2284D01*
Y2281D01*
Y2278D01*
Y2278D01*
Y2277D01*
Y2248D01*
X3874Y2222D01*
X3875Y2198D01*
X3876Y2175D01*
X3877Y2155D01*
X3879Y2137D01*
X3880Y2121D01*
X3882Y2106D01*
X3884Y2093D01*
X3886Y2083D01*
X3887Y2073D01*
X3888Y2065D01*
X3890Y2060D01*
X3890Y2056D01*
X3891Y2054D01*
Y2053D01*
X3897Y2035D01*
X3903Y2020D01*
X3910Y2008D01*
X3916Y1998D01*
X3921Y1991D01*
X3926Y1985D01*
X3929Y1982D01*
X3930Y1981D01*
X3939Y1975D01*
X3949Y1971D01*
X3958Y1967D01*
X3967Y1964D01*
X3974Y1963D01*
X3980Y1962D01*
X3985D01*
X3997Y1963D01*
X4007Y1965D01*
X4016Y1968D01*
X4024Y1972D01*
X4031Y1975D01*
X4036Y1978D01*
X4040Y1981D01*
X4040Y1981D01*
X4045Y1985D01*
X4049Y1991D01*
X4057Y2002D01*
X4064Y2015D01*
X4070Y2028D01*
X4075Y2041D01*
X4076Y2046D01*
X4078Y2051D01*
X4079Y2055D01*
X4080Y2058D01*
X4081Y2059D01*
Y2060D01*
X4083Y2072D01*
X4086Y2086D01*
X4088Y2102D01*
X4090Y2119D01*
X4091Y2136D01*
X4092Y2155D01*
X4094Y2191D01*
X4095Y2208D01*
X4096Y2224D01*
Y2239D01*
X4096Y2251D01*
Y2262D01*
Y2270D01*
Y2273D01*
Y2275D01*
Y2276D01*
Y2277D01*
Y2306D01*
X4096Y2332D01*
X4095Y2356D01*
X4094Y2379D01*
X4092Y2399D01*
X4091Y2418D01*
X4089Y2434D01*
X4088Y2449D01*
X4086Y2461D01*
X4085Y2472D01*
X4083Y2481D01*
X4082Y2488D01*
X4081Y2494D01*
X4080Y2498D01*
X4079Y2501D01*
Y2501D01*
X4074Y2519D01*
X4068Y2534D01*
X4061Y2547D01*
X4055Y2557D01*
X4050Y2564D01*
X4045Y2569D01*
X4042Y2572D01*
X4041Y2573D01*
X4032Y2580D01*
X4022Y2585D01*
X4012Y2589D01*
X4004Y2591D01*
X3996Y2592D01*
X3991Y2593D01*
D02*
G37*
G36*
X2755Y1376D02*
Y1072D01*
X2961D01*
X2755Y1376D01*
D02*
G37*
G36*
X3503Y1498D02*
X3498D01*
X3486Y1498D01*
X3476Y1495D01*
X3467Y1492D01*
X3458Y1488D01*
X3452Y1484D01*
X3447Y1481D01*
X3443Y1479D01*
X3443Y1478D01*
X3438Y1474D01*
X3434Y1469D01*
X3426Y1457D01*
X3419Y1444D01*
X3413Y1431D01*
X3408Y1418D01*
X3407Y1413D01*
X3405Y1408D01*
X3404Y1404D01*
X3403Y1401D01*
X3402Y1400D01*
Y1399D01*
X3399Y1386D01*
X3397Y1372D01*
X3394Y1357D01*
X3393Y1340D01*
X3391Y1323D01*
X3390Y1304D01*
X3388Y1268D01*
X3387Y1251D01*
X3387Y1235D01*
Y1220D01*
X3386Y1208D01*
Y1197D01*
Y1189D01*
Y1186D01*
Y1184D01*
Y1183D01*
Y1182D01*
Y1153D01*
X3387Y1127D01*
X3387Y1103D01*
X3389Y1080D01*
X3390Y1060D01*
X3391Y1042D01*
X3393Y1026D01*
X3394Y1011D01*
X3397Y999D01*
X3398Y988D01*
X3400Y978D01*
X3401Y971D01*
X3402Y965D01*
X3403Y961D01*
X3404Y959D01*
Y958D01*
X3409Y940D01*
X3415Y926D01*
X3422Y913D01*
X3429Y903D01*
X3434Y896D01*
X3439Y891D01*
X3442Y887D01*
X3443Y887D01*
X3452Y880D01*
X3461Y876D01*
X3471Y872D01*
X3479Y870D01*
X3487Y868D01*
X3492Y867D01*
X3498D01*
X3510Y868D01*
X3520Y870D01*
X3529Y873D01*
X3537Y877D01*
X3544Y880D01*
X3548Y884D01*
X3552Y886D01*
X3553Y887D01*
X3558Y891D01*
X3562Y896D01*
X3569Y907D01*
X3576Y920D01*
X3583Y933D01*
X3587Y946D01*
X3589Y951D01*
X3590Y956D01*
X3592Y960D01*
X3593Y963D01*
X3593Y964D01*
Y965D01*
X3596Y978D01*
X3599Y992D01*
X3600Y1007D01*
X3603Y1024D01*
X3604Y1041D01*
X3605Y1060D01*
X3607Y1096D01*
X3607Y1113D01*
X3608Y1129D01*
Y1144D01*
X3609Y1156D01*
Y1167D01*
Y1175D01*
Y1178D01*
Y1180D01*
Y1181D01*
Y1182D01*
Y1211D01*
X3608Y1237D01*
X3607Y1261D01*
X3607Y1284D01*
X3605Y1304D01*
X3604Y1323D01*
X3602Y1339D01*
X3600Y1354D01*
X3599Y1366D01*
X3597Y1377D01*
X3596Y1386D01*
X3594Y1393D01*
X3593Y1400D01*
X3593Y1404D01*
X3592Y1406D01*
Y1407D01*
X3586Y1425D01*
X3580Y1439D01*
X3574Y1452D01*
X3568Y1462D01*
X3562Y1469D01*
X3558Y1474D01*
X3555Y1477D01*
X3554Y1478D01*
X3544Y1485D01*
X3534Y1490D01*
X3525Y1494D01*
X3516Y1496D01*
X3509Y1498D01*
X3503Y1498D01*
D02*
G37*
G36*
X4821Y1487D02*
X4656D01*
X4640Y1487D01*
X4612D01*
X4602Y1486D01*
X4584D01*
X4578Y1485D01*
X4569D01*
X4566Y1484D01*
X4563D01*
X4547Y1481D01*
X4533Y1477D01*
X4521Y1472D01*
X4512Y1466D01*
X4504Y1461D01*
X4499Y1456D01*
X4496Y1454D01*
X4495Y1452D01*
X4487Y1442D01*
X4482Y1432D01*
X4477Y1420D01*
X4475Y1409D01*
X4473Y1400D01*
X4472Y1392D01*
Y1389D01*
Y1386D01*
Y1386D01*
Y1385D01*
X4472Y1369D01*
X4476Y1356D01*
X4480Y1344D01*
X4485Y1334D01*
X4490Y1326D01*
X4494Y1320D01*
X4497Y1316D01*
X4499Y1315D01*
X4510Y1306D01*
X4521Y1299D01*
X4533Y1293D01*
X4545Y1289D01*
X4556Y1286D01*
X4563Y1285D01*
X4567Y1284D01*
X4569Y1283D01*
X4577D01*
X4584Y1282D01*
X4593D01*
X4602Y1281D01*
X4624D01*
X4647Y1281D01*
X4821D01*
Y1487D01*
D02*
G37*
G36*
Y1132D02*
X4652D01*
X4632Y1131D01*
X4614Y1130D01*
X4598Y1129D01*
X4583Y1128D01*
X4570Y1128D01*
X4558Y1126D01*
X4548Y1125D01*
X4539Y1124D01*
X4532Y1122D01*
X4527Y1121D01*
X4522Y1121D01*
X4518Y1120D01*
X4516Y1119D01*
X4515Y1118D01*
X4514D01*
X4501Y1113D01*
X4490Y1107D01*
X4480Y1100D01*
X4472Y1093D01*
X4466Y1087D01*
X4462Y1082D01*
X4459Y1079D01*
X4458Y1077D01*
X4451Y1066D01*
X4446Y1055D01*
X4442Y1043D01*
X4440Y1033D01*
X4438Y1023D01*
X4438Y1016D01*
Y1013D01*
Y1010D01*
Y1009D01*
Y1009D01*
X4438Y992D01*
X4441Y977D01*
X4445Y964D01*
X4450Y953D01*
X4455Y944D01*
X4459Y938D01*
X4462Y934D01*
X4463Y933D01*
X4473Y923D01*
X4484Y915D01*
X4495Y909D01*
X4506Y905D01*
X4515Y901D01*
X4522Y899D01*
X4525Y898D01*
X4528Y898D01*
X4529D01*
X4535Y897D01*
X4542Y896D01*
X4550Y895D01*
X4560Y894D01*
X4581Y894D01*
X4602Y893D01*
X4612D01*
X4621Y892D01*
X4821D01*
Y1132D01*
D02*
G37*
G36*
X7744Y2580D02*
X7550D01*
X7536Y2579D01*
X7513D01*
X7504Y2578D01*
X7489D01*
X7484Y2578D01*
X7477D01*
X7473Y2577D01*
X7471D01*
X7456Y2573D01*
X7442Y2568D01*
X7431Y2562D01*
X7421Y2556D01*
X7414Y2550D01*
X7408Y2546D01*
X7404Y2543D01*
X7403Y2541D01*
X7395Y2530D01*
X7389Y2518D01*
X7385Y2505D01*
X7382Y2494D01*
X7380Y2484D01*
X7379Y2476D01*
Y2473D01*
Y2470D01*
Y2469D01*
Y2468D01*
X7379Y2453D01*
X7382Y2441D01*
X7385Y2429D01*
X7388Y2419D01*
X7391Y2411D01*
X7394Y2405D01*
X7396Y2402D01*
X7397Y2400D01*
X7405Y2391D01*
X7413Y2383D01*
X7421Y2377D01*
X7430Y2372D01*
X7437Y2368D01*
X7443Y2365D01*
X7447Y2364D01*
X7449Y2363D01*
X7456Y2362D01*
X7465Y2359D01*
X7475Y2358D01*
X7487Y2357D01*
X7500Y2356D01*
X7514Y2355D01*
X7541Y2354D01*
X7555Y2353D01*
X7567D01*
X7579Y2352D01*
X7744D01*
Y2580D01*
D02*
G37*
G36*
X1481D02*
X1362D01*
X1345Y2579D01*
X1330Y2578D01*
X1316Y2578D01*
X1304D01*
X1293Y2577D01*
X1283Y2576D01*
X1276Y2575D01*
X1269Y2575D01*
X1263Y2574D01*
X1259Y2573D01*
X1255Y2572D01*
X1252D01*
X1252Y2571D01*
X1251D01*
X1233Y2566D01*
X1217Y2560D01*
X1203Y2553D01*
X1190Y2546D01*
X1181Y2539D01*
X1174Y2534D01*
X1169Y2530D01*
X1168Y2529D01*
X1156Y2516D01*
X1145Y2502D01*
X1137Y2487D01*
X1129Y2473D01*
X1123Y2461D01*
X1121Y2456D01*
X1119Y2451D01*
X1117Y2447D01*
X1116Y2444D01*
X1116Y2442D01*
Y2442D01*
X1112Y2431D01*
X1109Y2419D01*
X1105Y2393D01*
X1102Y2367D01*
X1099Y2341D01*
X1099Y2330D01*
X1098Y2319D01*
Y2309D01*
X1097Y2300D01*
Y2293D01*
Y2288D01*
Y2285D01*
Y2283D01*
Y2264D01*
X1098Y2246D01*
X1099Y2229D01*
X1100Y2213D01*
X1102Y2198D01*
X1103Y2185D01*
X1105Y2173D01*
X1106Y2162D01*
X1108Y2152D01*
X1109Y2143D01*
X1111Y2135D01*
X1112Y2129D01*
X1114Y2125D01*
X1115Y2121D01*
X1116Y2119D01*
Y2118D01*
X1119Y2107D01*
X1123Y2097D01*
X1131Y2079D01*
X1139Y2065D01*
X1147Y2053D01*
X1154Y2044D01*
X1159Y2037D01*
X1162Y2034D01*
X1164Y2032D01*
X1175Y2023D01*
X1187Y2016D01*
X1200Y2009D01*
X1210Y2004D01*
X1221Y2000D01*
X1229Y1998D01*
X1232Y1997D01*
X1234Y1996D01*
X1235Y1995D01*
X1236D01*
X1243Y1994D01*
X1251Y1992D01*
X1268Y1991D01*
X1286Y1989D01*
X1304Y1988D01*
X1320D01*
X1327Y1987D01*
X1481D01*
Y2580D01*
D02*
G37*
%LPD*%
D19*
X5591Y16000D02*
X5591Y17000D01*
X5591Y17750D02*
Y18750D01*
X20601Y3741D02*
X22316Y2026D01*
X20601Y3741D02*
X22634Y5774D01*
X24349Y4059D01*
X22316Y2026D02*
X24349Y4059D01*
X28485Y4793D02*
X33565D01*
X28485Y15207D02*
X33565D01*
X1750Y9874D02*
Y8604D01*
X1496Y8350D01*
X988D01*
X734Y8604D01*
Y9874D01*
X226Y8350D02*
X-281D01*
X-27D01*
Y9874D01*
X226Y9620D01*
D51*
X1831Y18649D02*
Y17887D01*
X1450D01*
X1323Y18014D01*
Y18522D01*
X1450Y18649D01*
X1831D01*
X561Y17887D02*
X1069D01*
X561Y18395D01*
Y18522D01*
X688Y18649D01*
X942D01*
X1069Y18522D01*
X1831Y16896D02*
Y16134D01*
X1450D01*
X1323Y16261D01*
Y16769D01*
X1450Y16896D01*
X1831D01*
X1069Y16134D02*
X815D01*
X942D01*
Y16896D01*
X1069Y16769D01*
X22340Y1062D02*
X22520Y1062D01*
X22699Y882D01*
Y703D01*
X22340Y344D01*
X22161D01*
X21981Y523D01*
X21981Y703D01*
X21712Y793D02*
X21532Y972D01*
X21622Y882D01*
X22161Y1421D01*
Y1242D01*
X25388Y6625D02*
X25568Y6625D01*
X25747Y6445D01*
Y6265D01*
X25388Y5906D01*
X25209D01*
X25029Y6086D01*
X25029Y6265D01*
X24401Y6714D02*
X24760Y6355D01*
Y7073D01*
X24850Y7163D01*
X25029Y7163D01*
X25209Y6984D01*
Y6804D01*
X31191Y16434D02*
X31318Y16561D01*
X31572D01*
X31699Y16434D01*
Y15926D01*
X31572Y15799D01*
X31318D01*
X31191Y15926D01*
X30937Y16434D02*
X30810Y16561D01*
X30557D01*
X30430Y16434D01*
Y16307D01*
X30557Y16180D01*
X30684D01*
X30557D01*
X30430Y16053D01*
Y15926D01*
X30557Y15799D01*
X30810D01*
X30937Y15926D01*
X1233Y12644D02*
X1412Y12644D01*
X1592Y12465D01*
Y12285D01*
X1233Y11926D01*
X1053D01*
X874Y12106D01*
X874Y12285D01*
X335Y12644D02*
X874Y13183D01*
X874Y12644D01*
X515Y13003D01*
X4193Y14761D02*
X4373Y14761D01*
X4552Y14581D01*
Y14402D01*
X4193Y14042D01*
X4014D01*
X3834Y14222D01*
X3834Y14402D01*
X3744Y15389D02*
X4104Y15030D01*
X3834Y14761D01*
X3744Y15030D01*
X3655Y15120D01*
X3475D01*
X3296Y14940D01*
X3296Y14761D01*
X3475Y14581D01*
X3655D01*
X10669Y12681D02*
X10848Y12681D01*
X11028Y12502D01*
Y12322D01*
X10669Y11963D01*
X10489D01*
X10310Y12143D01*
X10310Y12322D01*
X10220Y13310D02*
X10310Y13040D01*
X10310Y12681D01*
X10130Y12502D01*
X9950D01*
X9771Y12681D01*
X9771Y12861D01*
X9861Y12951D01*
X10040Y12951D01*
X10310Y12681D01*
X8398Y10845D02*
X8398Y11025D01*
X8578Y11204D01*
X8758D01*
X9117Y10845D01*
Y10666D01*
X8937Y10486D01*
X8758Y10486D01*
X8129Y10755D02*
X7770Y10396D01*
X7860Y10307D01*
X8578D01*
X8668Y10217D01*
X15965Y5736D02*
X16144Y5736D01*
X16324Y5556D01*
Y5376D01*
X15965Y5017D01*
X15785D01*
X15606Y5197D01*
X15606Y5376D01*
X15785Y5915D02*
Y6095D01*
X15606Y6274D01*
X15426Y6274D01*
X15336Y6184D01*
Y6005D01*
X15157Y6005D01*
X15067Y5915D01*
X15067Y5736D01*
X15247Y5556D01*
X15426D01*
X15516Y5646D01*
Y5825D01*
X15695Y5825D01*
X15785Y5915D01*
X15516Y5825D02*
X15336Y6005D01*
X24008Y10961D02*
X24008Y11141D01*
X24187Y11320D01*
X24367D01*
X24726Y10961D01*
Y10781D01*
X24546Y10602D01*
X24367Y10602D01*
X24187Y10422D02*
Y10243D01*
X24008Y10063D01*
X23828Y10063D01*
X23469Y10422D01*
X23469Y10602D01*
X23649Y10781D01*
X23828D01*
X23918Y10692D01*
X23918Y10512D01*
X23649Y10243D01*
X19639Y4941D02*
X19639Y5121D01*
X19819Y5300D01*
X19998D01*
X20357Y4941D01*
Y4762D01*
X20178Y4582D01*
X19998Y4582D01*
X19908Y4313D02*
X19729Y4133D01*
X19819Y4223D01*
X19280Y4762D01*
X19459D01*
X19011Y4313D02*
X18831D01*
X18652Y4133D01*
Y3954D01*
X19011Y3595D01*
X19190Y3595D01*
X19370Y3774D01*
Y3954D01*
X19011Y4313D01*
X16586Y4800D02*
X16713Y4927D01*
X16967D01*
X17094Y4800D01*
Y4293D01*
X16967Y4166D01*
X16713D01*
X16586Y4293D01*
X16332Y4166D02*
X16079D01*
X16205D01*
Y4927D01*
X16332Y4800D01*
X15698Y4166D02*
X15444D01*
X15571D01*
Y4927D01*
X15698Y4800D01*
X23952Y18643D02*
X24079Y18770D01*
X24333D01*
X24460Y18643D01*
Y18136D01*
X24333Y18009D01*
X24079D01*
X23952Y18136D01*
X23698Y18009D02*
X23445D01*
X23571D01*
Y18770D01*
X23698Y18643D01*
X22556Y18009D02*
X23064D01*
X22556Y18516D01*
Y18643D01*
X22683Y18770D01*
X22937D01*
X23064Y18643D01*
X20867Y910D02*
X21047Y910D01*
X21226Y730D01*
Y550D01*
X20867Y191D01*
X20687D01*
X20508Y371D01*
X20508Y550D01*
X20239Y640D02*
X20059Y820D01*
X20149Y730D01*
X20687Y1269D01*
Y1089D01*
X20239Y1538D02*
Y1718D01*
X20059Y1897D01*
X19879D01*
X19790Y1807D01*
Y1628D01*
X19879Y1538D01*
X19790Y1628D01*
X19610Y1628D01*
X19520Y1538D01*
X19520Y1358D01*
X19700Y1179D01*
X19879D01*
X15723Y990D02*
X15850Y1117D01*
X16104D01*
X16231Y990D01*
Y483D01*
X16104Y356D01*
X15850D01*
X15723Y483D01*
X15469Y356D02*
X15215D01*
X15342D01*
Y1117D01*
X15469Y990D01*
X14453Y356D02*
Y1117D01*
X14834Y736D01*
X14326D01*
X12908Y7837D02*
X12908Y8016D01*
X13088Y8196D01*
X13267D01*
X13626Y7837D01*
Y7657D01*
X13447Y7478D01*
X13267Y7478D01*
X13177Y7208D02*
X12998Y7029D01*
X13088Y7119D01*
X12549Y7657D01*
X12728D01*
X11831Y6939D02*
X12190Y7298D01*
X12459Y7029D01*
X12190Y6939D01*
X12100Y6849D01*
Y6670D01*
X12280Y6490D01*
X12459Y6490D01*
X12639Y6670D01*
Y6849D01*
X11190Y13762D02*
X11369Y13762D01*
X11549Y13582D01*
Y13403D01*
X11190Y13044D01*
X11010D01*
X10830Y13223D01*
X10830Y13403D01*
X10561Y13493D02*
X10382Y13672D01*
X10471Y13582D01*
X11010Y14121D01*
Y13942D01*
X10292Y14839D02*
X10382Y14570D01*
Y14211D01*
X10202Y14031D01*
X10023D01*
X9843Y14211D01*
X9843Y14390D01*
X9933Y14480D01*
X10112Y14480D01*
X10382Y14211D01*
X20807Y18251D02*
X20807Y18430D01*
X20987Y18610D01*
X21167D01*
X21526Y18251D01*
Y18071D01*
X21346Y17892D01*
X21167Y17892D01*
X21077Y17622D02*
X20897Y17443D01*
X20987Y17533D01*
X20448Y18071D01*
X20628D01*
X20089Y17712D02*
X19730Y17353D01*
X19820Y17263D01*
X20538D01*
X20628Y17173D01*
X21722Y17413D02*
X21722Y17592D01*
X21901Y17772D01*
X22081D01*
X22440Y17413D01*
Y17233D01*
X22260Y17053D01*
X22081Y17053D01*
X21991Y16784D02*
X21812Y16605D01*
X21901Y16694D01*
X21363Y17233D01*
X21542D01*
X21093Y16784D02*
X20914D01*
X20734Y16605D01*
Y16425D01*
X20824Y16335D01*
X21004D01*
X21004Y16156D01*
X21093Y16066D01*
X21273Y16066D01*
X21453Y16246D01*
Y16425D01*
X21363Y16515D01*
X21183D01*
X21183Y16694D01*
X21093Y16784D01*
X21183Y16515D02*
X21004Y16335D01*
X24160Y12663D02*
X24160Y12842D01*
X24340Y13022D01*
X24519D01*
X24878Y12663D01*
Y12483D01*
X24699Y12304D01*
X24519Y12304D01*
X24430Y12034D02*
X24250Y11855D01*
X24340Y11945D01*
X23801Y12483D01*
X23981D01*
X23891Y11675D02*
Y11496D01*
X23711Y11316D01*
X23532Y11316D01*
X23173Y11675D01*
Y11855D01*
X23352Y12034D01*
X23532D01*
X23622Y11945D01*
X23622Y11765D01*
X23352Y11496D01*
X11799Y14854D02*
X11979Y14854D01*
X12158Y14675D01*
Y14495D01*
X11799Y14136D01*
X11620D01*
X11440Y14316D01*
X11440Y14495D01*
X10812Y14944D02*
X11171Y14585D01*
Y15303D01*
X11261Y15393D01*
X11440Y15393D01*
X11620Y15213D01*
Y15034D01*
X11081Y15572D02*
Y15752D01*
X10901Y15931D01*
X10722D01*
X10363Y15572D01*
X10363Y15393D01*
X10542Y15213D01*
X10722D01*
X11081Y15572D01*
X6892Y7090D02*
X6892Y7269D01*
X7072Y7449D01*
X7251D01*
X7610Y7090D01*
Y6910D01*
X7431Y6731D01*
X7251Y6731D01*
X6802Y6102D02*
X7161Y6461D01*
X6443D01*
X6353Y6551D01*
X6353Y6731D01*
X6533Y6910D01*
X6712D01*
X6623Y5923D02*
X6443Y5743D01*
X6533Y5833D01*
X5994Y6372D01*
X6174D01*
X31268Y2438D02*
X31775D01*
Y2057D01*
X31521D01*
X31775D01*
Y1676D01*
X31014Y2438D02*
Y1676D01*
X30633D01*
X30506Y1803D01*
Y1930D01*
X30633Y2057D01*
X31014D01*
X30633D01*
X30506Y2184D01*
Y2311D01*
X30633Y2438D01*
X31014D01*
X30252Y1676D02*
X29998D01*
X30125D01*
Y2438D01*
X30252Y2311D01*
X12062Y2983D02*
Y2475D01*
X11681D01*
Y2729D01*
Y2475D01*
X11300D01*
X12062Y3237D02*
X11300D01*
Y3618D01*
X11427Y3745D01*
X11554D01*
X11681Y3618D01*
Y3237D01*
Y3618D01*
X11808Y3745D01*
X11935D01*
X12062Y3618D01*
Y3237D01*
X11300Y4506D02*
Y3999D01*
X11808Y4506D01*
X11935D01*
X12062Y4379D01*
Y4125D01*
X11935Y3999D01*
X35275Y14725D02*
Y15487D01*
X34894D01*
X34767Y15360D01*
Y15106D01*
X34894Y14979D01*
X35275D01*
X34513Y14725D02*
X34259D01*
X34386D01*
Y15487D01*
X34513Y15360D01*
X19533Y18720D02*
Y19482D01*
X19152D01*
X19025Y19355D01*
Y19101D01*
X19152Y18974D01*
X19533D01*
X18390Y18720D02*
Y19482D01*
X18771Y19101D01*
X18263D01*
X25349Y1626D02*
X24811Y2164D01*
X24541Y1895D01*
X24541Y1715D01*
X24721Y1536D01*
X24900Y1536D01*
X25170Y1805D01*
X24990Y1626D02*
X24990Y1267D01*
X24811Y1087D02*
X24631Y907D01*
X24721Y997D01*
X24182Y1536D01*
X24362D01*
X35560Y17323D02*
X36322D01*
Y17704D01*
X36195Y17831D01*
X35941D01*
X35814Y17704D01*
Y17323D01*
Y17577D02*
X35560Y17831D01*
Y18592D02*
Y18085D01*
X36068Y18592D01*
X36195D01*
X36322Y18465D01*
Y18212D01*
X36195Y18085D01*
X34417Y17323D02*
X35179D01*
Y17704D01*
X35052Y17831D01*
X34798D01*
X34671Y17704D01*
Y17323D01*
Y17577D02*
X34417Y17831D01*
X35052Y18085D02*
X35179Y18212D01*
Y18465D01*
X35052Y18592D01*
X34925D01*
X34798Y18465D01*
Y18338D01*
Y18465D01*
X34671Y18592D01*
X34544D01*
X34417Y18465D01*
Y18212D01*
X34544Y18085D01*
X29439Y17323D02*
X30200D01*
Y17704D01*
X30073Y17831D01*
X29819D01*
X29693Y17704D01*
Y17323D01*
Y17577D02*
X29439Y17831D01*
Y18465D02*
X30200D01*
X29819Y18085D01*
Y18592D01*
X14046Y762D02*
Y1524D01*
X13665D01*
X13538Y1397D01*
Y1143D01*
X13665Y1016D01*
X14046D01*
X13792D02*
X13538Y762D01*
X12777Y1524D02*
X13284D01*
Y1143D01*
X13031Y1270D01*
X12904D01*
X12777Y1143D01*
Y889D01*
X12904Y762D01*
X13157D01*
X13284Y889D01*
X1549Y5105D02*
Y5867D01*
X1169D01*
X1042Y5740D01*
Y5486D01*
X1169Y5359D01*
X1549D01*
X1295D02*
X1042Y5105D01*
X280Y5867D02*
X534Y5740D01*
X788Y5486D01*
Y5232D01*
X661Y5105D01*
X407D01*
X280Y5232D01*
Y5359D01*
X407Y5486D01*
X788D01*
X26721Y18390D02*
Y19151D01*
X26340D01*
X26213Y19024D01*
Y18770D01*
X26340Y18644D01*
X26721D01*
X26467D02*
X26213Y18390D01*
X25959Y19151D02*
X25451D01*
Y19024D01*
X25959Y18517D01*
Y18390D01*
X8966Y16815D02*
X8204D01*
Y16434D01*
X8331Y16307D01*
X8585D01*
X8712Y16434D01*
Y16815D01*
Y16561D02*
X8966Y16307D01*
X8331Y16053D02*
X8204Y15926D01*
Y15672D01*
X8331Y15545D01*
X8458D01*
X8585Y15672D01*
X8712Y15545D01*
X8839D01*
X8966Y15672D01*
Y15926D01*
X8839Y16053D01*
X8712D01*
X8585Y15926D01*
X8458Y16053D01*
X8331D01*
X8585Y15926D02*
Y15672D01*
X7569Y13691D02*
Y14452D01*
X7188D01*
X7061Y14325D01*
Y14071D01*
X7188Y13945D01*
X7569D01*
X7315D02*
X7061Y13691D01*
X6807Y13818D02*
X6680Y13691D01*
X6427D01*
X6300Y13818D01*
Y14325D01*
X6427Y14452D01*
X6680D01*
X6807Y14325D01*
Y14198D01*
X6680Y14071D01*
X6300D01*
X24511Y14427D02*
Y15189D01*
X24130D01*
X24003Y15062D01*
Y14808D01*
X24130Y14681D01*
X24511D01*
X24257D02*
X24003Y14427D01*
X23749D02*
X23495D01*
X23622D01*
Y15189D01*
X23749Y15062D01*
X23114D02*
X22987Y15189D01*
X22734D01*
X22607Y15062D01*
Y14554D01*
X22734Y14427D01*
X22987D01*
X23114Y14554D01*
Y15062D01*
X14224Y5613D02*
Y6375D01*
X13843D01*
X13716Y6248D01*
Y5994D01*
X13843Y5867D01*
X14224D01*
X13970D02*
X13716Y5613D01*
X13462D02*
X13208D01*
X13335D01*
Y6375D01*
X13462Y6248D01*
X12827Y5613D02*
X12574D01*
X12700D01*
Y6375D01*
X12827Y6248D01*
X9968Y10019D02*
X9430Y10557D01*
X9160Y10288D01*
X9160Y10109D01*
X9340Y9929D01*
X9520Y9929D01*
X9789Y10198D01*
X9609Y10019D02*
X9609Y9660D01*
X9430Y9480D02*
X9250Y9301D01*
X9340Y9390D01*
X8801Y9929D01*
X8981D01*
X8622Y8672D02*
X8981Y9031D01*
X8263D01*
X8173Y9121D01*
Y9301D01*
X8352Y9480D01*
X8532D01*
X36650Y15750D02*
Y16512D01*
X36269D01*
X36142Y16385D01*
Y16131D01*
X36269Y16004D01*
X36650D01*
X36396D02*
X36142Y15750D01*
X35888D02*
X35634D01*
X35761D01*
Y16512D01*
X35888Y16385D01*
X35253D02*
X35126Y16512D01*
X34873D01*
X34746Y16385D01*
Y16258D01*
X34873Y16131D01*
X35000D01*
X34873D01*
X34746Y16004D01*
Y15877D01*
X34873Y15750D01*
X35126D01*
X35253Y15877D01*
X16713Y16078D02*
Y15443D01*
X16586Y15316D01*
X16332D01*
X16205Y15443D01*
Y16078D01*
X15444Y15316D02*
X15951D01*
X15444Y15824D01*
Y15951D01*
X15571Y16078D01*
X15824D01*
X15951Y15951D01*
X6689Y4186D02*
X6240Y4635D01*
Y4815D01*
X6419Y4994D01*
X6599Y4994D01*
X7048Y4545D01*
X7138Y4815D02*
X7317D01*
X7497Y4994D01*
X7497Y5174D01*
X7407Y5264D01*
X7227D01*
X7138Y5174D01*
X7227Y5264D01*
X7227Y5443D01*
X7138Y5533D01*
X6958Y5533D01*
X6778Y5353D01*
Y5174D01*
X23089Y6934D02*
Y6807D01*
X22835Y6553D01*
X22581Y6807D01*
Y6934D01*
X22835Y6553D02*
Y6172D01*
X22327D02*
X22073D01*
X22200D01*
Y6934D01*
X22327Y6807D01*
D53*
X30963Y3029D02*
Y3754D01*
X24060Y5310D02*
X24572Y5822D01*
X23571Y15576D02*
Y16301D01*
X23560Y2390D02*
X24072Y1878D01*
X20528Y2028D02*
X21040Y2540D01*
X17526Y1755D02*
X17526Y1030D01*
X14950Y1900D02*
X14950Y2625D01*
X14950Y3225D02*
X14950Y3950D01*
X13792Y4586D02*
Y5311D01*
X12350Y2921D02*
X13075D01*
X3099Y5094D02*
Y5819D01*
X1470Y13171D02*
X1982Y13684D01*
X6858Y14890D02*
X6858Y15615D01*
X6279Y17704D02*
X7004D01*
X10440Y8336D02*
X10952Y7824D01*
X9602Y9124D02*
X10114Y8611D01*
X12681Y13045D02*
X13194Y13557D01*
X33401Y16454D02*
X33401Y15729D01*
X33099Y18065D02*
X33824Y18065D01*
X28118Y18396D02*
Y19121D01*
X30557Y18065D02*
X31282D01*
X31843Y18065D02*
X32568D01*
D55*
X13015Y9717D02*
Y10283D01*
X17717Y14985D02*
X18283D01*
X22985Y9717D02*
Y10283D01*
X17717Y5015D02*
X18283D01*
X13015Y10283D02*
X13050Y10318D01*
X13015Y9717D02*
X13050Y9682D01*
X17682Y14950D02*
X17717Y14985D01*
X18283D02*
X18318Y14950D01*
X22950Y10318D02*
X22985Y10283D01*
X22950Y9682D02*
X22985Y9717D01*
X18283Y5015D02*
X18318Y5050D01*
X17682Y5050D02*
X17717Y5015D01*
X7874Y5323D02*
X10137Y3061D01*
X7874Y5323D02*
X8581Y6031D01*
X10844Y3768D01*
X10137Y3061D02*
X10844Y3768D01*
X7696Y17145D02*
Y19685D01*
Y17145D02*
X17856Y17145D01*
X7696Y19685D02*
X17856Y19685D01*
Y17145D02*
Y19685D01*
X5218Y7030D02*
X5519Y7331D01*
X4917D02*
X5218Y7030D01*
X7887Y10301D02*
X8188Y10000D01*
X7887Y9699D02*
X8188Y10000D01*
X4917Y12669D02*
X5218Y12970D01*
X5519Y12669D01*
X2248Y10000D02*
X2549Y10301D01*
X2248Y10000D02*
X2549Y9699D01*
D111*
X17559Y4378D02*
G03*
X17559Y4378I-125J0D01*
G01*
D112*
X36510Y13825D02*
G03*
X36510Y13825I-260J0D01*
G01*
D113*
X2030Y10601D02*
G03*
X2030Y10601I-100J0D01*
G01*
D114*
X11000Y325D02*
X11750D01*
Y700D01*
X11625Y825D01*
X11375D01*
X11250Y700D01*
Y325D01*
Y575D02*
X11000Y825D01*
Y1075D02*
Y1325D01*
Y1200D01*
X11750D01*
X11625Y1075D01*
X11750Y2199D02*
Y1700D01*
X11375D01*
X11500Y1949D01*
Y2074D01*
X11375Y2199D01*
X11125D01*
X11000Y2074D01*
Y1825D01*
X11125Y1700D01*
M02*
