G04 Layer_Color=3158064*
%FSLAX43Y43*%
%MOMM*%
G71*
G01*
G75*
%ADD10C,0.203*%
%ADD55C,0.200*%
%ADD115C,0.203*%
D10*
X-20500Y-500D02*
G03*
X-20000Y-1000I500J0D01*
G01*
X-20000Y0D02*
G03*
X-20500Y-500I0J-500D01*
G01*
Y20500D02*
G03*
X-20000Y20000I500J0D01*
G01*
X-20000Y21000D02*
G03*
X-20500Y20500I0J-500D01*
G01*
X2000Y-500D02*
G03*
X1500Y0I-500J0D01*
G01*
Y-1000D02*
G03*
X2000Y-500I0J500D01*
G01*
Y20500D02*
G03*
X1500Y21000I-500J0D01*
G01*
Y20000D02*
G03*
X2000Y20500I0J500D01*
G01*
X-20000Y-1000D02*
X-19270D01*
X-20000Y0D02*
X-20000D01*
X-20000Y20000D02*
X-20000D01*
Y21000D02*
X-19270D01*
X2000Y20500D02*
Y20500D01*
X-19000Y1000D02*
Y19000D01*
X-19270Y21000D02*
X1000D01*
X-7900Y14800D02*
X-7066D01*
X-6783Y14917D02*
X-6200Y15500D01*
X-8100Y15000D02*
Y15400D01*
X-9434Y15500D02*
X-8200D01*
X-10783Y14317D02*
X-9717Y15383D01*
X-15200Y14200D02*
X-11066D01*
X-6200Y15500D02*
X-1000D01*
X0Y16500D02*
Y19000D01*
X-15200Y4500D02*
X-1000D01*
X0Y1000D02*
Y3500D01*
X1000Y0D02*
X1500D01*
X-19270Y-1000D02*
X1500D01*
X1000Y20000D02*
X1500D01*
X1000Y21000D02*
X1500D01*
X-16000Y5300D02*
Y13400D01*
D55*
X-8100Y15000D02*
G03*
X-7900Y14800I200J0D01*
G01*
D115*
X-20000Y0D02*
G03*
X-19000Y1000I0J1000D01*
G01*
Y19000D02*
G03*
X-20000Y20000I-1000J0D01*
G01*
X1000D02*
G03*
X0Y19000I0J-1000D01*
G01*
X-7066Y14800D02*
G03*
X-6783Y14917I0J400D01*
G01*
X-8100Y15400D02*
G03*
X-8200Y15500I-100J0D01*
G01*
X-9434Y15500D02*
G03*
X-9717Y15383I0J-400D01*
G01*
X-11066Y14200D02*
G03*
X-10783Y14317I0J400D01*
G01*
X-15200Y14200D02*
G03*
X-16000Y13400I0J-800D01*
G01*
X-1000Y15500D02*
G03*
X0Y16500I0J1000D01*
G01*
X-16000Y5300D02*
G03*
X-15200Y4500I800J0D01*
G01*
X0Y3500D02*
G03*
X-1000Y4500I-1000J0D01*
G01*
X-0Y1000D02*
G03*
X1000Y0I1000J0D01*
G01*
M02*
