G04 Layer_Physical_Order=1*
G04 Layer_Color=255*
%FSLAX43Y43*%
%MOMM*%
G71*
G01*
G75*
%ADD10C,0.203*%
%ADD11C,0.203*%
%ADD12R,2.880X1.120*%
%ADD13R,1.500X0.800*%
%ADD14R,1.900X1.400*%
%ADD15R,1.400X1.800*%
%ADD16R,0.762X0.965*%
%ADD17R,0.762X0.762*%
%ADD18C,0.635*%
%ADD19C,0.254*%
%ADD20R,1.500X1.500*%
%ADD21C,1.500*%
%ADD22C,2.800*%
%ADD23C,0.635*%
G36*
X20716Y1982D02*
X20791Y1918D01*
X20824Y1895D01*
X20854Y1877D01*
X20881Y1865D01*
X20906Y1859D01*
X20927Y1859D01*
X20946Y1864D01*
X20961Y1876D01*
X20677Y1591D01*
X20688Y1607D01*
X20693Y1625D01*
X20693Y1647D01*
X20687Y1671D01*
X20675Y1698D01*
X20658Y1729D01*
X20634Y1762D01*
X20605Y1798D01*
X20530Y1879D01*
X20674Y2022D01*
X20716Y1982D01*
D02*
G37*
G36*
X18770Y1878D02*
X18734Y1840D01*
X18676Y1771D01*
X18654Y1740D01*
X18637Y1710D01*
X18625Y1682D01*
X18617Y1656D01*
X18615Y1632D01*
X18616Y1610D01*
X18623Y1590D01*
X18440Y1976D01*
X18451Y1961D01*
X18466Y1952D01*
X18485Y1949D01*
X18508Y1954D01*
X18535Y1965D01*
X18566Y1983D01*
X18600Y2008D01*
X18639Y2040D01*
X18728Y2123D01*
X18770Y1878D01*
D02*
G37*
G36*
X12121Y2427D02*
X12141Y2410D01*
X12163Y2396D01*
X12187Y2384D01*
X12212Y2373D01*
X12238Y2365D01*
X12265Y2358D01*
X12294Y2353D01*
X12324Y2350D01*
X12356Y2349D01*
Y2095D01*
X12324Y2095D01*
X12294Y2092D01*
X12265Y2087D01*
X12238Y2080D01*
X12212Y2072D01*
X12187Y2061D01*
X12163Y2049D01*
X12141Y2035D01*
X12121Y2018D01*
X12101Y2000D01*
Y2445D01*
X12121Y2427D01*
D02*
G37*
G36*
X15993Y1262D02*
X16102Y1189D01*
X16231Y1163D01*
X16267D01*
Y845D01*
X11711D01*
X11672Y972D01*
X11750Y1025D01*
X11865Y1197D01*
X11906Y1400D01*
X11872Y1571D01*
X11873Y1612D01*
X11949Y1706D01*
X12078Y1732D01*
X12250Y1847D01*
X12263Y1866D01*
X12268Y1870D01*
X12276Y1874D01*
X12284Y1878D01*
X12295Y1881D01*
X12307Y1884D01*
X12319Y1886D01*
X15369D01*
X15993Y1262D01*
D02*
G37*
G36*
X15582Y18542D02*
X16586D01*
X17590D01*
Y19155D01*
X18598D01*
X18636Y19028D01*
X18548Y18968D01*
X18433Y18796D01*
X18392Y18593D01*
X18433Y18390D01*
X18548Y18217D01*
X18720Y18102D01*
X18923Y18062D01*
X19126Y18102D01*
X19298Y18217D01*
X19413Y18390D01*
X19454Y18593D01*
X19413Y18796D01*
X19298Y18968D01*
X19210Y19028D01*
X19248Y19155D01*
X33906D01*
X33974Y19028D01*
X33933Y18967D01*
X33893Y18764D01*
X33933Y18561D01*
X34048Y18389D01*
X34221Y18273D01*
X34424Y18233D01*
X34627Y18273D01*
X34799Y18389D01*
X34914Y18561D01*
X34955Y18764D01*
X34914Y18967D01*
X34874Y19028D01*
X34942Y19155D01*
X36000D01*
X36000Y19155D01*
X36013Y19156D01*
X36114Y19114D01*
X36156Y19013D01*
X36155Y19000D01*
Y1000D01*
X36156Y988D01*
X36114Y886D01*
X36013Y844D01*
X36000Y845D01*
X21733D01*
X21636Y917D01*
Y2085D01*
X20914D01*
X20866Y2126D01*
X20672Y2320D01*
X20571Y2387D01*
X20452Y2411D01*
X18848D01*
X18730Y2387D01*
X18629Y2320D01*
X18539Y2230D01*
X18502Y2196D01*
X18490Y2186D01*
X17664D01*
Y845D01*
X17436D01*
Y2186D01*
X16267D01*
Y2106D01*
X16150Y2057D01*
X15746Y2461D01*
X15637Y2534D01*
X15508Y2559D01*
X12319D01*
X12307Y2561D01*
X12295Y2564D01*
X12284Y2568D01*
X12276Y2571D01*
X12268Y2575D01*
X12263Y2579D01*
X12250Y2598D01*
X12078Y2713D01*
X11874Y2753D01*
X11671Y2713D01*
X11499Y2598D01*
X11384Y2426D01*
X11344Y2223D01*
X11378Y2051D01*
X11377Y2010D01*
X11300Y1916D01*
X11172Y1890D01*
X11000Y1775D01*
X10885Y1603D01*
X10844Y1400D01*
X10885Y1197D01*
X11000Y1025D01*
X11078Y972D01*
X11039Y845D01*
X1000D01*
X988Y844D01*
X886Y886D01*
X844Y988D01*
X845Y1000D01*
Y3500D01*
X847D01*
X812Y3860D01*
X706Y4207D01*
X536Y4526D01*
X306Y4806D01*
X26Y5036D01*
X-293Y5206D01*
X-640Y5312D01*
X-1000Y5347D01*
Y5345D01*
X-1219Y5317D01*
X-1423Y5232D01*
X-1598Y5098D01*
X-1599Y5096D01*
X-15200D01*
X-15207Y5094D01*
X-15279Y5109D01*
X-15346Y5154D01*
X-15391Y5221D01*
X-15406Y5293D01*
X-15404Y5300D01*
Y13400D01*
X-15406Y13407D01*
X-15391Y13479D01*
X-15346Y13546D01*
X-15279Y13591D01*
X-15207Y13606D01*
X-15200Y13604D01*
X-11231D01*
X-11206Y13585D01*
X-11121Y13550D01*
X-11002Y13500D01*
X-10783Y13472D01*
X-10564Y13500D01*
X-10480Y13535D01*
X-10360Y13585D01*
X-10185Y13719D01*
X-10185Y13719D01*
X-9250Y14655D01*
X-8881D01*
X-8807Y14476D01*
X-8640Y14260D01*
X-8424Y14093D01*
X-8171Y13989D01*
X-7900Y13953D01*
Y13955D01*
X-7067D01*
X-7066Y13954D01*
Y13951D01*
X-6743Y13994D01*
X-6442Y14118D01*
X-6183Y14317D01*
X-6185Y14319D01*
X-5850Y14655D01*
X-1000D01*
X-1000Y14655D01*
Y14653D01*
X-640Y14688D01*
X-293Y14793D01*
X26Y14964D01*
X306Y15194D01*
X536Y15474D01*
X706Y15793D01*
X812Y16140D01*
X847Y16500D01*
X845D01*
Y17722D01*
X957Y17782D01*
X991Y17760D01*
X1194Y17719D01*
X1397Y17760D01*
X1569Y17875D01*
X1684Y18047D01*
X1725Y18250D01*
X1684Y18453D01*
X1569Y18625D01*
X1397Y18740D01*
X1194Y18781D01*
X991Y18740D01*
X957Y18718D01*
X845Y18778D01*
Y19000D01*
X844Y19012D01*
X886Y19114D01*
X988Y19156D01*
X1000Y19155D01*
X8092D01*
X8181Y19166D01*
X8250Y19047D01*
X8134Y18896D01*
X8038Y18664D01*
X8005Y18415D01*
X8038Y18166D01*
X8134Y17934D01*
X8286Y17735D01*
X8485Y17582D01*
X8717Y17486D01*
X8966Y17454D01*
X9215Y17486D01*
X9447Y17582D01*
X9646Y17735D01*
X9799Y17934D01*
X9895Y18166D01*
X9928Y18415D01*
X9895Y18664D01*
X9799Y18896D01*
X9646Y19095D01*
X9567Y19156D01*
X9610Y19283D01*
X10863D01*
X10906Y19156D01*
X10826Y19095D01*
X10674Y18896D01*
X10578Y18664D01*
X10545Y18415D01*
X10578Y18166D01*
X10674Y17934D01*
X10826Y17735D01*
X11025Y17582D01*
X11257Y17486D01*
X11506Y17454D01*
X11755Y17486D01*
X11987Y17582D01*
X12186Y17735D01*
X12339Y17934D01*
X12435Y18166D01*
X12468Y18415D01*
X12435Y18664D01*
X12339Y18896D01*
X12186Y19095D01*
X12107Y19156D01*
X12150Y19283D01*
X13403D01*
X13446Y19156D01*
X13366Y19095D01*
X13214Y18896D01*
X13118Y18664D01*
X13085Y18415D01*
X13118Y18166D01*
X13214Y17934D01*
X13366Y17735D01*
X13565Y17582D01*
X13797Y17486D01*
X14046Y17454D01*
X14295Y17486D01*
X14527Y17582D01*
X14726Y17735D01*
X14879Y17934D01*
X14975Y18166D01*
X15008Y18415D01*
X14975Y18664D01*
X14879Y18896D01*
X14726Y19095D01*
X14647Y19156D01*
X14690Y19283D01*
X15582D01*
Y18542D01*
D02*
G37*
G36*
X16477Y1257D02*
X16474Y1279D01*
X16467Y1299D01*
X16455Y1316D01*
X16437Y1331D01*
X16415Y1344D01*
X16388Y1354D01*
X16356Y1363D01*
X16319Y1368D01*
X16278Y1372D01*
X16231Y1373D01*
Y1627D01*
X16278Y1628D01*
X16319Y1632D01*
X16356Y1637D01*
X16388Y1646D01*
X16415Y1656D01*
X16437Y1669D01*
X16455Y1684D01*
X16467Y1701D01*
X16474Y1721D01*
X16477Y1743D01*
Y1257D01*
D02*
G37*
%LPC*%
G36*
X35175Y16631D02*
X34972Y16590D01*
X34800Y16475D01*
X34685Y16303D01*
X34644Y16100D01*
X34685Y15897D01*
X34800Y15725D01*
X34864Y15681D01*
Y12904D01*
X28771Y6811D01*
X26535D01*
X26497Y6938D01*
X26537Y6965D01*
X26652Y7137D01*
X26693Y7341D01*
X26652Y7544D01*
X26537Y7716D01*
X26365Y7831D01*
X26162Y7872D01*
X25959Y7831D01*
X25787Y7716D01*
X25672Y7544D01*
X25631Y7341D01*
X25672Y7137D01*
X25787Y6965D01*
X25827Y6938D01*
X25789Y6811D01*
X24888D01*
Y7263D01*
X21602D01*
Y5737D01*
X24888D01*
Y6189D01*
X28900D01*
X29019Y6213D01*
X29120Y6280D01*
X35395Y12555D01*
X35462Y12656D01*
X35486Y12775D01*
Y15681D01*
X35550Y15725D01*
X35665Y15897D01*
X35706Y16100D01*
X35665Y16303D01*
X35550Y16475D01*
X35378Y16590D01*
X35175Y16631D01*
D02*
G37*
G36*
X8622Y6130D02*
X8419Y6090D01*
X8246Y5975D01*
X8131Y5803D01*
X8091Y5600D01*
X8131Y5396D01*
X8246Y5224D01*
X8419Y5109D01*
X8622Y5069D01*
X8825Y5109D01*
X8997Y5224D01*
X9112Y5396D01*
X9153Y5600D01*
X9112Y5803D01*
X8997Y5975D01*
X8825Y6090D01*
X8622Y6130D01*
D02*
G37*
G36*
X2900Y8181D02*
X2697Y8140D01*
X2525Y8025D01*
X2410Y7853D01*
X2369Y7650D01*
X2410Y7447D01*
X2525Y7275D01*
X2697Y7160D01*
X2900Y7119D01*
X3103Y7160D01*
X3275Y7275D01*
X3390Y7447D01*
X3431Y7650D01*
X3390Y7853D01*
X3275Y8025D01*
X3103Y8140D01*
X2900Y8181D01*
D02*
G37*
G36*
X10875Y12931D02*
X10672Y12890D01*
X10500Y12775D01*
X10385Y12603D01*
X10344Y12400D01*
X10385Y12197D01*
X10500Y12025D01*
X10672Y11910D01*
X10875Y11869D01*
X11078Y11910D01*
X11250Y12025D01*
X11365Y12197D01*
X11406Y12400D01*
X11365Y12603D01*
X11250Y12775D01*
X11078Y12890D01*
X10875Y12931D01*
D02*
G37*
G36*
X-11207Y10431D02*
X-11411Y10390D01*
X-11583Y10275D01*
X-11698Y10103D01*
X-11738Y9900D01*
X-11698Y9697D01*
X-11583Y9525D01*
X-11411Y9410D01*
X-11207Y9369D01*
X-11004Y9410D01*
X-10832Y9525D01*
X-10717Y9697D01*
X-10677Y9900D01*
X-10717Y10103D01*
X-10832Y10275D01*
X-11004Y10390D01*
X-11207Y10431D01*
D02*
G37*
G36*
X9622Y2905D02*
X9418Y2864D01*
X9246Y2749D01*
X9131Y2577D01*
X9091Y2374D01*
X9131Y2171D01*
X9246Y1998D01*
X9418Y1883D01*
X9622Y1843D01*
X9825Y1883D01*
X9997Y1998D01*
X10112Y2171D01*
X10152Y2374D01*
X10112Y2577D01*
X9997Y2749D01*
X9825Y2864D01*
X9622Y2905D01*
D02*
G37*
G36*
X26695Y5036D02*
X26380Y5005D01*
X26078Y4913D01*
X25800Y4764D01*
X25556Y4564D01*
X25355Y4320D01*
X25206Y4041D01*
X25115Y3739D01*
X25084Y3425D01*
X25115Y3111D01*
X25206Y2809D01*
X25355Y2530D01*
X25556Y2286D01*
X25800Y2086D01*
X26078Y1937D01*
X26380Y1845D01*
X26695Y1814D01*
X27009Y1845D01*
X27311Y1937D01*
X27590Y2086D01*
X27834Y2286D01*
X28034Y2530D01*
X28183Y2809D01*
X28275Y3111D01*
X28306Y3425D01*
X28275Y3739D01*
X28183Y4041D01*
X28034Y4320D01*
X27834Y4564D01*
X27590Y4764D01*
X27311Y4913D01*
X27009Y5005D01*
X26695Y5036D01*
D02*
G37*
G36*
X6178Y4278D02*
X3872D01*
Y2472D01*
X6178D01*
Y2845D01*
X6290Y2905D01*
X6321Y2884D01*
X6525Y2844D01*
X6728Y2884D01*
X6900Y3000D01*
X7015Y3172D01*
X7055Y3375D01*
X7015Y3578D01*
X6900Y3750D01*
X6728Y3865D01*
X6525Y3906D01*
X6321Y3865D01*
X6290Y3845D01*
X6178Y3905D01*
Y4278D01*
D02*
G37*
G36*
X7075Y5406D02*
X6872Y5366D01*
X6700Y5251D01*
X6585Y5078D01*
X6544Y4875D01*
X6585Y4672D01*
X6700Y4500D01*
X6872Y4385D01*
X7075Y4344D01*
X7279Y4385D01*
X7451Y4500D01*
X7566Y4672D01*
X7606Y4875D01*
X7566Y5078D01*
X7451Y5251D01*
X7279Y5366D01*
X7075Y5406D01*
D02*
G37*
G36*
X11874Y4150D02*
X11671Y4110D01*
X11499Y3995D01*
X11384Y3823D01*
X11344Y3619D01*
X11384Y3416D01*
X11499Y3244D01*
X11671Y3129D01*
X11874Y3089D01*
X12078Y3129D01*
X12250Y3244D01*
X12365Y3416D01*
X12405Y3619D01*
X12365Y3823D01*
X12250Y3995D01*
X12078Y4110D01*
X11874Y4150D01*
D02*
G37*
G36*
X26695Y18186D02*
X26380Y18155D01*
X26078Y18063D01*
X25800Y17915D01*
X25556Y17714D01*
X25355Y17470D01*
X25206Y17192D01*
X25115Y16889D01*
X25084Y16575D01*
X25115Y16261D01*
X25206Y15959D01*
X25355Y15680D01*
X25556Y15436D01*
X25800Y15236D01*
X26078Y15087D01*
X26380Y14995D01*
X26695Y14964D01*
X27009Y14995D01*
X27311Y15087D01*
X27590Y15236D01*
X27834Y15436D01*
X28034Y15680D01*
X28183Y15959D01*
X28275Y16261D01*
X28306Y16575D01*
X28275Y16889D01*
X28183Y17192D01*
X28034Y17470D01*
X27834Y17714D01*
X27590Y17915D01*
X27311Y18063D01*
X27009Y18155D01*
X26695Y18186D01*
D02*
G37*
G36*
X3683Y17904D02*
X3658D01*
X3454Y17864D01*
X3282Y17749D01*
X2637Y17104D01*
X2522Y16931D01*
X2481Y16728D01*
X2481Y16728D01*
Y14063D01*
X2481Y14063D01*
X2522Y13859D01*
X2637Y13687D01*
X3233Y13091D01*
X3196Y12969D01*
X3176Y12965D01*
X3004Y12850D01*
X2889Y12678D01*
X2849Y12475D01*
X2852Y12455D01*
X2775Y12378D01*
X2740Y12369D01*
X2540Y12329D01*
X2368Y12214D01*
X2253Y12042D01*
X2214Y11847D01*
X2172Y11736D01*
X2164Y11727D01*
X1961Y11687D01*
X1788Y11572D01*
X1673Y11400D01*
X1633Y11197D01*
X1673Y10993D01*
X1788Y10821D01*
X1961Y10706D01*
X2164Y10666D01*
X2191Y10671D01*
X2206Y10670D01*
X2222Y10667D01*
X2235Y10664D01*
X2247Y10660D01*
X2257Y10656D01*
X2267Y10651D01*
X2276Y10645D01*
X2276Y10645D01*
X5105Y7815D01*
X5206Y7748D01*
X5325Y7724D01*
X7922D01*
Y7432D01*
X9828D01*
Y8532D01*
X10228D01*
Y9738D01*
X9828D01*
Y10838D01*
X9628D01*
Y11832D01*
X9828D01*
Y13038D01*
X7922D01*
Y12866D01*
X7748D01*
X7747Y12866D01*
X7735Y12869D01*
X7723Y12872D01*
X7710Y12877D01*
X7697Y12883D01*
X7682Y12891D01*
X7670Y12899D01*
X7665Y12906D01*
X7633Y12927D01*
X7629Y12930D01*
X7625Y12932D01*
X7493Y13021D01*
X7290Y13061D01*
X7087Y13021D01*
X6914Y12906D01*
X6799Y12733D01*
X6769Y12580D01*
X6639Y12530D01*
X6174Y12996D01*
X6222Y13113D01*
X6429D01*
X6548Y13137D01*
X6648Y13204D01*
X7017Y13573D01*
X7085Y13674D01*
X7108Y13793D01*
Y13959D01*
X7474Y14324D01*
X7922D01*
Y14032D01*
X9828D01*
Y15326D01*
X9955Y15394D01*
X10008Y15359D01*
X10211Y15319D01*
X10414Y15359D01*
X10586Y15474D01*
X10701Y15646D01*
X10742Y15850D01*
X10701Y16053D01*
X10586Y16225D01*
X10414Y16340D01*
X10211Y16381D01*
X10008Y16340D01*
X9955Y16305D01*
X9828Y16338D01*
Y16338D01*
X9828Y16338D01*
X8173D01*
X8093Y16436D01*
X8110Y16525D01*
X8070Y16728D01*
X7955Y16900D01*
X7783Y17016D01*
X7580Y17056D01*
X7455Y17031D01*
X7328Y17124D01*
Y17428D01*
X5022D01*
Y15622D01*
X7134D01*
X7183Y15505D01*
X6246Y14568D01*
X6175Y14582D01*
X5972Y14541D01*
X5800Y14426D01*
X5678Y14426D01*
X5512Y14537D01*
X5309Y14577D01*
X5105Y14537D01*
X4933Y14422D01*
X4818Y14249D01*
X4778Y14046D01*
X4818Y13843D01*
X4854Y13789D01*
X4794Y13677D01*
X4148D01*
X4031Y13795D01*
X4073Y13932D01*
X4226Y14034D01*
X4341Y14207D01*
X4381Y14410D01*
X4341Y14613D01*
X4226Y14785D01*
X4054Y14900D01*
X3850Y14941D01*
X3670Y14905D01*
X3543Y14972D01*
Y16508D01*
X3982Y16947D01*
X4058Y16998D01*
X4173Y17170D01*
X4214Y17374D01*
X4173Y17577D01*
X4058Y17749D01*
X3886Y17864D01*
X3683Y17904D01*
D02*
G37*
G36*
X33565Y15437D02*
X33362Y15397D01*
X33190Y15282D01*
X33075Y15109D01*
X33034Y14906D01*
X33075Y14703D01*
X33190Y14531D01*
X33362Y14416D01*
X33565Y14375D01*
X33768Y14416D01*
X33940Y14531D01*
X34055Y14703D01*
X34096Y14906D01*
X34055Y15109D01*
X33940Y15282D01*
X33768Y15397D01*
X33565Y15437D01*
D02*
G37*
G36*
X20821Y15034D02*
X20618Y14994D01*
X20446Y14879D01*
X20331Y14707D01*
X20290Y14503D01*
X20331Y14300D01*
X20446Y14128D01*
X20618Y14013D01*
X20821Y13972D01*
X21024Y14013D01*
X21197Y14128D01*
X21312Y14300D01*
X21352Y14503D01*
X21312Y14707D01*
X21197Y14879D01*
X21024Y14994D01*
X20821Y15034D01*
D02*
G37*
G36*
X22885Y15263D02*
X22682Y15222D01*
X22510Y15107D01*
X22395Y14935D01*
X22354Y14732D01*
X22395Y14529D01*
X22510Y14357D01*
X22682Y14242D01*
X22885Y14201D01*
X23089Y14242D01*
X23261Y14357D01*
X23376Y14529D01*
X23416Y14732D01*
X23376Y14935D01*
X23261Y15107D01*
X23089Y15222D01*
X22885Y15263D01*
D02*
G37*
G36*
X16459Y18288D02*
X15582D01*
Y17411D01*
X16459D01*
Y18288D01*
D02*
G37*
G36*
X17590D02*
X16713D01*
Y17411D01*
X17590D01*
Y18288D01*
D02*
G37*
G36*
X33565Y13245D02*
X33362Y13204D01*
X33190Y13089D01*
X33075Y12917D01*
X33034Y12714D01*
X33075Y12511D01*
X33190Y12338D01*
X33362Y12223D01*
X33565Y12183D01*
X33768Y12223D01*
X33940Y12338D01*
X34055Y12511D01*
X34096Y12714D01*
X34055Y12917D01*
X33940Y13089D01*
X33768Y13204D01*
X33565Y13245D01*
D02*
G37*
G36*
X18923Y16965D02*
X18720Y16924D01*
X18548Y16809D01*
X18433Y16637D01*
X18392Y16434D01*
X18433Y16231D01*
X18483Y16155D01*
X18415Y16028D01*
X18272D01*
Y15859D01*
X18160Y15799D01*
X18110Y15832D01*
X17907Y15873D01*
X17704Y15832D01*
X17532Y15717D01*
X17417Y15545D01*
X17376Y15342D01*
X17417Y15138D01*
X17532Y14966D01*
X17704Y14851D01*
X17907Y14811D01*
X18110Y14851D01*
X18160Y14884D01*
X18272Y14824D01*
Y13822D01*
X19247D01*
Y11305D01*
X18955Y11013D01*
X18888Y10912D01*
X18864Y10793D01*
Y10338D01*
X18272D01*
Y9643D01*
X13452D01*
X13333Y9619D01*
X13232Y9552D01*
X13169Y9488D01*
X13023D01*
X13018Y9499D01*
X12969Y9615D01*
X13006Y9800D01*
X12965Y10003D01*
X12850Y10175D01*
X12678Y10290D01*
X12475Y10331D01*
X12272Y10290D01*
X12100Y10175D01*
X11985Y10003D01*
X11951Y9836D01*
X11944Y9800D01*
X11826Y9741D01*
X11750Y9756D01*
X11547Y9715D01*
X11375Y9600D01*
X11260Y9428D01*
X11219Y9225D01*
X11260Y9022D01*
X11375Y8850D01*
X11547Y8735D01*
X11750Y8694D01*
X11953Y8735D01*
X12125Y8850D01*
X12137Y8867D01*
X13298D01*
X13417Y8891D01*
X13518Y8958D01*
X13581Y9021D01*
X18272D01*
Y8132D01*
X19647D01*
X19728Y8034D01*
X19719Y7987D01*
X19628Y7851D01*
X19611Y7839D01*
X18816Y7045D01*
X18804Y7027D01*
X18663Y6932D01*
X18497Y6899D01*
X18475Y6904D01*
X18358D01*
X18328Y6898D01*
X17938Y6867D01*
X17529Y6769D01*
X17140Y6608D01*
X16781Y6388D01*
X16484Y6134D01*
X16458Y6117D01*
X16234Y5892D01*
X16223Y5897D01*
X16008Y5925D01*
X15967Y5920D01*
X15934Y6085D01*
X15819Y6257D01*
X15646Y6372D01*
X15443Y6413D01*
X15240Y6372D01*
X15068Y6257D01*
X14953Y6085D01*
X14912Y5882D01*
X14953Y5679D01*
X15068Y5506D01*
X15238Y5392D01*
X15203Y5308D01*
X15175Y5092D01*
X15203Y4877D01*
X15286Y4676D01*
X15419Y4504D01*
X15591Y4371D01*
X15792Y4288D01*
X15827Y4284D01*
X15832Y4248D01*
X15915Y4048D01*
X16047Y3875D01*
X16220Y3743D01*
X16421Y3660D01*
X16636Y3631D01*
X16852Y3660D01*
X17052Y3743D01*
X17225Y3875D01*
X17357Y4048D01*
X17440Y4248D01*
X17469Y4464D01*
X17440Y4679D01*
X17436Y4690D01*
X17661Y4914D01*
X17674Y4934D01*
X17861Y5078D01*
X18101Y5177D01*
X18335Y5208D01*
X18358Y5203D01*
X18475D01*
X18489Y5206D01*
X18901Y5247D01*
X19310Y5371D01*
X19687Y5572D01*
X19920Y5764D01*
X20018Y5843D01*
X20018Y5843D01*
Y5843D01*
X20105Y5929D01*
X20813Y6637D01*
X20821Y6650D01*
X21081Y6966D01*
X21280Y7340D01*
X21403Y7745D01*
X21422Y7932D01*
X25193D01*
Y9932D01*
X25193D01*
Y10951D01*
X25222Y10975D01*
X25425Y11016D01*
X25598Y11131D01*
X25713Y11303D01*
X25753Y11506D01*
X25713Y11709D01*
X25598Y11882D01*
X25425Y11997D01*
X25222Y12037D01*
X25193Y12061D01*
Y12068D01*
X24400D01*
X24382Y12090D01*
X24341Y12294D01*
X24226Y12466D01*
X24054Y12581D01*
X23851Y12621D01*
X23647Y12581D01*
X23475Y12466D01*
X23360Y12294D01*
X23320Y12090D01*
X23301Y12068D01*
X21297D01*
Y10842D01*
X21055Y10810D01*
X20710Y10667D01*
X20414Y10440D01*
X20414Y10440D01*
X20205Y10231D01*
X20133Y10245D01*
X20078Y10278D01*
Y10338D01*
X19486D01*
Y10664D01*
X19778Y10956D01*
X19845Y11057D01*
X19869Y11176D01*
Y13822D01*
X20078D01*
Y16028D01*
X19431D01*
X19363Y16155D01*
X19413Y16231D01*
X19454Y16434D01*
X19413Y16637D01*
X19298Y16809D01*
X19126Y16924D01*
X18923Y16965D01*
D02*
G37*
%LPD*%
G36*
X5971Y3605D02*
X5979Y3583D01*
X5992Y3564D01*
X6010Y3548D01*
X6033Y3534D01*
X6061Y3522D01*
X6095Y3513D01*
X6123Y3509D01*
X6134Y3511D01*
X6161Y3517D01*
X6187Y3526D01*
X6212Y3536D01*
X6236Y3549D01*
X6258Y3563D01*
X6278Y3579D01*
X6298Y3597D01*
Y3153D01*
X6278Y3171D01*
X6258Y3187D01*
X6236Y3201D01*
X6212Y3214D01*
X6187Y3224D01*
X6161Y3233D01*
X6134Y3239D01*
X6123Y3241D01*
X6095Y3237D01*
X6061Y3228D01*
X6033Y3216D01*
X6010Y3202D01*
X5992Y3186D01*
X5979Y3167D01*
X5971Y3145D01*
X5969Y3121D01*
Y3629D01*
X5971Y3605D01*
D02*
G37*
G36*
X8131Y14432D02*
X8129Y14451D01*
X8123Y14468D01*
X8113Y14484D01*
X8098Y14497D01*
X8080Y14508D01*
X8057Y14517D01*
X8030Y14524D01*
X7999Y14529D01*
X7964Y14532D01*
X7925Y14533D01*
Y14737D01*
X7964Y14738D01*
X7999Y14741D01*
X8030Y14746D01*
X8057Y14753D01*
X8080Y14762D01*
X8098Y14773D01*
X8113Y14786D01*
X8123Y14802D01*
X8129Y14819D01*
X8131Y14838D01*
Y14432D01*
D02*
G37*
G36*
X7121Y16755D02*
X7129Y16733D01*
X7142Y16714D01*
X7160Y16698D01*
X7183Y16684D01*
X7211Y16672D01*
X7223Y16669D01*
X7242Y16676D01*
X7267Y16686D01*
X7291Y16699D01*
X7313Y16713D01*
X7333Y16729D01*
X7353Y16747D01*
Y16653D01*
X7376Y16652D01*
Y16398D01*
X7353Y16397D01*
Y16303D01*
X7333Y16321D01*
X7313Y16337D01*
X7291Y16351D01*
X7267Y16364D01*
X7242Y16374D01*
X7223Y16381D01*
X7211Y16378D01*
X7183Y16366D01*
X7160Y16352D01*
X7142Y16336D01*
X7129Y16317D01*
X7121Y16295D01*
X7119Y16271D01*
Y16397D01*
X7098Y16398D01*
Y16652D01*
X7119Y16653D01*
Y16779D01*
X7121Y16755D01*
D02*
G37*
G36*
X7524Y12748D02*
X7550Y12729D01*
X7577Y12712D01*
X7604Y12698D01*
X7631Y12685D01*
X7659Y12675D01*
X7686Y12667D01*
X7714Y12662D01*
X7743Y12658D01*
X7771Y12657D01*
X7789Y12454D01*
X7759Y12453D01*
X7731Y12449D01*
X7703Y12443D01*
X7676Y12434D01*
X7650Y12422D01*
X7625Y12408D01*
X7601Y12392D01*
X7578Y12373D01*
X7555Y12351D01*
X7534Y12327D01*
X7498Y12770D01*
X7524Y12748D01*
D02*
G37*
G36*
X2482Y11160D02*
X2485Y11128D01*
X2490Y11098D01*
X2497Y11069D01*
X2506Y11041D01*
X2517Y11014D01*
X2530Y10989D01*
X2546Y10965D01*
X2563Y10942D01*
X2583Y10921D01*
X2439Y10777D01*
X2418Y10797D01*
X2395Y10815D01*
X2371Y10830D01*
X2346Y10843D01*
X2319Y10855D01*
X2292Y10864D01*
X2262Y10871D01*
X2232Y10876D01*
X2200Y10878D01*
X2167Y10879D01*
X2481Y11193D01*
X2482Y11160D01*
D02*
G37*
G36*
X5622Y13981D02*
X5622Y13950D01*
X5625Y13920D01*
X5630Y13891D01*
X5638Y13864D01*
X5648Y13838D01*
X5661Y13812D01*
X5676Y13788D01*
X5693Y13765D01*
X5713Y13744D01*
X5555Y13614D01*
X5534Y13634D01*
X5512Y13651D01*
X5488Y13667D01*
X5463Y13681D01*
X5436Y13694D01*
X5408Y13704D01*
X5379Y13713D01*
X5348Y13721D01*
X5316Y13726D01*
X5282Y13730D01*
X5624Y14013D01*
X5622Y13981D01*
D02*
G37*
G36*
X7570Y8915D02*
X7671Y8848D01*
X7790Y8824D01*
X8322D01*
Y8638D01*
X7922D01*
Y8346D01*
X5454D01*
X2715Y11084D01*
X2715Y11085D01*
X2709Y11094D01*
X2704Y11103D01*
X2700Y11113D01*
X2696Y11125D01*
X2693Y11139D01*
X2690Y11154D01*
X2689Y11169D01*
X2693Y11188D01*
X2735Y11299D01*
X2743Y11308D01*
X2946Y11348D01*
X3118Y11463D01*
X3162Y11528D01*
X4958D01*
X7570Y8915D01*
D02*
G37*
G36*
X8131Y7832D02*
X8129Y7851D01*
X8123Y7868D01*
X8113Y7884D01*
X8098Y7897D01*
X8080Y7908D01*
X8057Y7917D01*
X8030Y7924D01*
X7999Y7929D01*
X7964Y7932D01*
X7925Y7933D01*
Y8137D01*
X7964Y8138D01*
X7999Y8141D01*
X8030Y8146D01*
X8057Y8153D01*
X8080Y8162D01*
X8098Y8173D01*
X8113Y8186D01*
X8123Y8202D01*
X8129Y8219D01*
X8131Y8238D01*
Y7832D01*
D02*
G37*
G36*
Y12352D02*
X8129Y12372D01*
X8123Y12389D01*
X8113Y12404D01*
X8098Y12417D01*
X8080Y12429D01*
X8057Y12438D01*
X8030Y12445D01*
X7999Y12450D01*
X7964Y12453D01*
X7925Y12454D01*
Y12657D01*
X7964Y12658D01*
X7999Y12661D01*
X8030Y12666D01*
X8057Y12673D01*
X8080Y12683D01*
X8098Y12694D01*
X8113Y12707D01*
X8123Y12722D01*
X8129Y12740D01*
X8131Y12759D01*
Y12352D01*
D02*
G37*
G36*
X16905Y4894D02*
X16887Y4872D01*
X16873Y4849D01*
X16863Y4825D01*
X16857Y4801D01*
X16855Y4775D01*
X16856Y4749D01*
X16862Y4723D01*
X16871Y4695D01*
X16885Y4667D01*
X16902Y4637D01*
X16468Y4733D01*
X16492Y4749D01*
X16540Y4785D01*
X16562Y4804D01*
X16606Y4847D01*
X16627Y4870D01*
X16668Y4919D01*
X16687Y4946D01*
X16905Y4894D01*
D02*
G37*
G36*
X21844Y9666D02*
X21932Y9590D01*
X21955Y9573D01*
X21975Y9560D01*
X21993Y9552D01*
X22007Y9548D01*
X22019Y9549D01*
X22027Y9554D01*
X21811Y9340D01*
X21816Y9349D01*
X21817Y9360D01*
X21813Y9375D01*
X21805Y9392D01*
X21792Y9412D01*
X21776Y9436D01*
X21754Y9462D01*
X21699Y9523D01*
X21665Y9558D01*
X21809Y9700D01*
X21844Y9666D01*
D02*
G37*
G36*
X18481Y9129D02*
X18479Y9148D01*
X18473Y9165D01*
X18463Y9180D01*
X18448Y9194D01*
X18430Y9205D01*
X18407Y9214D01*
X18380Y9221D01*
X18349Y9226D01*
X18314Y9229D01*
X18275Y9230D01*
Y9433D01*
X18314Y9434D01*
X18349Y9437D01*
X18380Y9443D01*
X18407Y9450D01*
X18430Y9459D01*
X18448Y9470D01*
X18463Y9483D01*
X18473Y9498D01*
X18479Y9516D01*
X18481Y9535D01*
Y9129D01*
D02*
G37*
G36*
X21967Y10443D02*
X21965Y10442D01*
X21960Y10438D01*
X21942Y10421D01*
X21818Y10300D01*
X21672Y10441D01*
X21808Y10582D01*
X21967Y10443D01*
D02*
G37*
G36*
X19278Y10296D02*
X19281Y10261D01*
X19286Y10230D01*
X19293Y10203D01*
X19302Y10180D01*
X19313Y10162D01*
X19326Y10147D01*
X19342Y10137D01*
X19359Y10131D01*
X19378Y10129D01*
X18972D01*
X18991Y10131D01*
X19008Y10137D01*
X19024Y10147D01*
X19037Y10162D01*
X19048Y10180D01*
X19057Y10203D01*
X19064Y10230D01*
X19069Y10261D01*
X19072Y10296D01*
X19073Y10335D01*
X19277D01*
X19278Y10296D01*
D02*
G37*
G36*
X16489Y5143D02*
X16463Y5124D01*
X16414Y5084D01*
X16391Y5063D01*
X16348Y5019D01*
X16329Y4996D01*
X16293Y4949D01*
X16277Y4924D01*
X16181Y5358D01*
X16210Y5341D01*
X16239Y5328D01*
X16266Y5318D01*
X16293Y5312D01*
X16319Y5311D01*
X16344Y5313D01*
X16369Y5319D01*
X16392Y5329D01*
X16415Y5344D01*
X16437Y5361D01*
X16489Y5143D01*
D02*
G37*
G36*
X19742Y14026D02*
X19725Y14020D01*
X19709Y14010D01*
X19696Y13996D01*
X19685Y13978D01*
X19676Y13955D01*
X19669Y13929D01*
X19664Y13898D01*
X19661Y13864D01*
X19660Y13825D01*
X19456D01*
X19455Y13864D01*
X19452Y13898D01*
X19447Y13929D01*
X19440Y13955D01*
X19431Y13978D01*
X19420Y13996D01*
X19407Y14010D01*
X19391Y14020D01*
X19374Y14026D01*
X19355Y14028D01*
X19761D01*
X19742Y14026D01*
D02*
G37*
D10*
X20373Y7077D02*
G03*
X20825Y8167I-1091J1091D01*
G01*
X21701Y9666D02*
G03*
X21425Y9780I-276J-276D01*
G01*
D02*
G03*
X21177Y9677I0J-351D01*
G01*
X20950Y9450D02*
G03*
X20825Y9148I302J-302D01*
G01*
X18475Y5825D02*
G03*
X19579Y6282I0J1561D01*
G01*
X18358Y5825D02*
G03*
X17221Y5354I0J-1608D01*
G01*
X16852Y4985D02*
G03*
X16636Y4464I521J-521D01*
G01*
X21425Y10237D02*
G03*
X21744Y10369I0J451D01*
G01*
X21425Y10237D02*
G03*
X20854Y10000I0J-808D01*
G01*
X20627Y9773D02*
G03*
X20368Y9148I625J-625D01*
G01*
X20050Y7400D02*
G03*
X20368Y8167I-767J767D01*
G01*
X18475Y6282D02*
G03*
X19255Y6605I0J1104D01*
G01*
X18358Y6282D02*
G03*
X16898Y5677I0J-2065D01*
G01*
X16008Y5092D02*
G03*
X16529Y5308I0J737D01*
G01*
X19175Y9332D02*
Y10793D01*
Y9235D02*
Y9332D01*
X18872Y18542D02*
X18923Y18593D01*
X19175Y14925D02*
X19558Y14542D01*
Y11176D02*
Y14542D01*
X19175Y10793D02*
X19558Y11176D01*
X5309Y14004D02*
X5889Y13424D01*
X5309Y14004D02*
Y14046D01*
X7345Y14635D02*
X8875D01*
X7853Y15735D02*
X8875D01*
X8755Y12556D02*
X8875Y12435D01*
X7315Y12556D02*
X8755D01*
X7290Y12530D02*
X7315Y12556D01*
X5325Y8035D02*
X8875D01*
X2164Y11197D02*
X5325Y8035D01*
X22366Y9000D02*
X23245D01*
X19579Y6282D02*
X20373Y7077D01*
X22375Y11000D02*
X23245D01*
X21744Y10369D02*
X22375Y11000D01*
X2164Y11197D02*
Y11246D01*
X20452Y2100D02*
X21052Y1501D01*
X18848Y2100D02*
X20452D01*
X18249Y1500D02*
X18848Y2100D01*
X21177Y9677D02*
X21177Y9677D01*
X20950Y9450D02*
X21177Y9677D01*
X21701Y9666D02*
X22366Y9000D01*
X20825Y8167D02*
Y9148D01*
X18358Y5825D02*
X18475D01*
X16852Y4985D02*
X17221Y5354D01*
X20627Y9773D02*
X20854Y10000D01*
X20627Y9773D02*
X20627Y9773D01*
X20368Y8167D02*
Y9148D01*
X19255Y6605D02*
X20050Y7400D01*
X18358Y6282D02*
X18475D01*
X16529Y5308D02*
X16898Y5677D01*
X11750Y9225D02*
X11797Y9178D01*
X13298D01*
X13452Y9332D01*
X19175D01*
X6169Y14051D02*
X6175D01*
X6798Y13793D02*
Y14087D01*
X7345Y14635D01*
X6429Y13424D02*
X6798Y13793D01*
X5889Y13424D02*
X6429D01*
X6169Y14051D02*
X7853Y15735D01*
X3379Y12475D02*
X5050D01*
X7290Y10235D01*
X8875D01*
X2743Y11838D02*
X5087D01*
X7790Y9135D01*
X9275D01*
X28900Y6500D02*
X35175Y12775D01*
Y16100D01*
X23245Y6500D02*
X28900D01*
D11*
X21177Y9677D02*
D03*
X20627Y9773D02*
D03*
D12*
X23245Y6500D02*
D03*
Y13500D02*
D03*
X23245Y11000D02*
D03*
X23245Y9000D02*
D03*
D13*
X8875Y8035D02*
D03*
X9275Y9135D02*
D03*
X8875Y10235D02*
D03*
X8675Y11335D02*
D03*
X8875Y12435D02*
D03*
X8675Y13535D02*
D03*
X8875Y14635D02*
D03*
Y15735D02*
D03*
D14*
X5025Y3375D02*
D03*
X6175Y16525D02*
D03*
D15*
X19175Y9235D02*
D03*
Y14925D02*
D03*
D16*
X16851Y1500D02*
D03*
X18249D02*
D03*
D17*
X22448Y1501D02*
D03*
X21052D02*
D03*
D18*
X3658Y17374D02*
X3683D01*
X3012Y16728D02*
X3658Y17374D01*
X3012Y14063D02*
Y16728D01*
X23245Y13500D02*
X25184D01*
X8666Y13526D02*
X8675Y13535D01*
X7425Y13526D02*
X8666D01*
X3012Y14063D02*
X3928Y13146D01*
X5272D01*
X7084Y11335D01*
X8675D01*
D19*
X6175Y16525D02*
X7580D01*
X5025Y3375D02*
X6525D01*
X15494Y1321D02*
X15545Y1270D01*
X16231Y1500D02*
X16851D01*
X15508Y2223D02*
X16231Y1500D01*
X11874Y2223D02*
X15508D01*
D20*
X16586Y18415D02*
D03*
D21*
X14046D02*
D03*
X11506D02*
D03*
X8966D02*
D03*
D22*
X26695Y3425D02*
D03*
X26695Y16575D02*
D03*
D23*
X3683Y17374D02*
D03*
X22530Y17323D02*
D03*
X18923Y18593D02*
D03*
Y16434D02*
D03*
X10211Y15850D02*
D03*
X2900Y7650D02*
D03*
X22885Y14732D02*
D03*
X11874Y2223D02*
D03*
X11874Y3619D02*
D03*
X25184Y13500D02*
D03*
X20980Y16535D02*
D03*
X17907Y15342D02*
D03*
X7580Y16525D02*
D03*
X6525Y3375D02*
D03*
X26162Y7341D02*
D03*
X23851Y12090D02*
D03*
X25222Y11506D02*
D03*
X25730Y10795D02*
D03*
X32588Y3404D02*
D03*
X29845Y18771D02*
D03*
X34424Y18764D02*
D03*
X1194Y18250D02*
D03*
X5309Y14046D02*
D03*
X8622Y5600D02*
D03*
X20821Y14503D02*
D03*
X-11201Y7696D02*
D03*
X10566Y11151D02*
D03*
X1778Y14467D02*
D03*
X15545Y1270D02*
D03*
X-11207Y9900D02*
D03*
X15443Y5882D02*
D03*
X13741Y6398D02*
D03*
X19970Y1380D02*
D03*
X3850Y14410D02*
D03*
X7290Y12530D02*
D03*
X33565Y7286D02*
D03*
Y5094D02*
D03*
X28485Y14906D02*
D03*
Y12714D02*
D03*
X33565Y14906D02*
D03*
Y12714D02*
D03*
X1524Y5469D02*
D03*
X16850Y2800D02*
D03*
X16008Y5092D02*
D03*
X2743Y11838D02*
D03*
X3379Y12475D02*
D03*
X2164Y11197D02*
D03*
X-5283Y9144D02*
D03*
X2870Y2210D02*
D03*
X18875Y11525D02*
D03*
X20000Y10650D02*
D03*
X17725Y10000D02*
D03*
X17965Y12546D02*
D03*
X15454Y9965D02*
D03*
X18035Y7454D02*
D03*
X16745Y8710D02*
D03*
X16727Y11273D02*
D03*
X11278Y13292D02*
D03*
X16636Y4464D02*
D03*
X11750Y9225D02*
D03*
X10875Y12400D02*
D03*
X12475Y9800D02*
D03*
X11375Y1400D02*
D03*
X9622Y2374D02*
D03*
X7075Y4875D02*
D03*
X4511Y10000D02*
D03*
X5218Y9293D02*
D03*
X5925Y10000D02*
D03*
X5218Y10707D02*
D03*
X6175Y14051D02*
D03*
X7425Y13526D02*
D03*
X35175Y16100D02*
D03*
X25975Y5850D02*
D03*
M02*
