G04 Layer_Physical_Order=3*
G04 Layer_Color=128*
%FSLAX43Y43*%
%MOMM*%
G71*
G01*
G75*
%ADD24C,1.016*%
G04:AMPARAMS|DCode=25|XSize=2.424mm|YSize=2.424mm|CornerRadius=0mm|HoleSize=0mm|Usage=FLASHONLY|Rotation=0.000|XOffset=0mm|YOffset=0mm|HoleType=Round|Shape=Relief|Width=0.305mm|Gap=0.254mm|Entries=4|*
%AMTHD25*
7,0,0,2.424,1.916,0.305,45*
%
%ADD25THD25*%
%ADD26C,1.814*%
%ADD27C,3.214*%
%ADD28C,1.295*%
G36*
X1783Y20924D02*
X1924Y20783D01*
X2000Y20599D01*
Y20500D01*
Y20401D01*
X1924Y20217D01*
X1783Y20076D01*
X1599Y20000D01*
X1000D01*
X902Y19995D01*
X710Y19957D01*
X529Y19882D01*
X366Y19773D01*
X227Y19634D01*
X118Y19471D01*
X43Y19290D01*
X5Y19098D01*
X0Y19000D01*
Y16500D01*
Y16402D01*
X-38Y16208D01*
X-114Y16026D01*
X-223Y15863D01*
X-363Y15723D01*
X-526Y15614D01*
X-708Y15538D01*
X-902Y15500D01*
X-1000D01*
Y15500D01*
X-6200D01*
X-6783Y14917D01*
X-6783Y14917D01*
X-6811Y14889D01*
X-6877Y14845D01*
X-6949Y14815D01*
X-7027Y14800D01*
X-7066D01*
Y14800D01*
X-7940D01*
X-8013Y14830D01*
X-8070Y14887D01*
X-8100Y14960D01*
Y15000D01*
X-8100D01*
Y15400D01*
X-8102Y15420D01*
X-8117Y15456D01*
X-8144Y15483D01*
X-8180Y15498D01*
X-8200Y15500D01*
Y15500D01*
X-9434D01*
Y15500D01*
X-9474Y15498D01*
X-9551Y15483D01*
X-9623Y15453D01*
X-9688Y15409D01*
X-9717Y15383D01*
X-9717D01*
X-9717Y15383D01*
X-10783Y14317D01*
X-10811Y14289D01*
X-10876Y14245D01*
X-10949Y14215D01*
X-11026Y14200D01*
X-11066D01*
Y14200D01*
X-15200D01*
X-15278Y14196D01*
X-15432Y14166D01*
X-15577Y14106D01*
X-15708Y14018D01*
X-15818Y13908D01*
X-15906Y13777D01*
X-15966Y13632D01*
X-15996Y13478D01*
X-16000Y13400D01*
Y5300D01*
X-15996Y5222D01*
X-15966Y5068D01*
X-15906Y4923D01*
X-15818Y4792D01*
X-15708Y4682D01*
X-15577Y4594D01*
X-15432Y4534D01*
X-15278Y4504D01*
X-15200Y4500D01*
X-1000D01*
X-902Y4500D01*
X-708Y4462D01*
X-526Y4386D01*
X-363Y4277D01*
X-223Y4137D01*
X-114Y3974D01*
X-38Y3792D01*
X0Y3598D01*
Y3500D01*
Y1000D01*
X5Y902D01*
X43Y710D01*
X118Y529D01*
X227Y366D01*
X366Y227D01*
X529Y118D01*
X710Y43D01*
X902Y5D01*
X1000Y0D01*
X1599D01*
X1783Y-76D01*
X1924Y-217D01*
X2000Y-401D01*
Y-500D01*
Y-599D01*
X1924Y-783D01*
X1783Y-924D01*
X1599Y-1000D01*
X-20099D01*
X-20283Y-924D01*
X-20424Y-783D01*
X-20500Y-599D01*
Y-500D01*
Y-401D01*
X-20424Y-217D01*
X-20283Y-76D01*
X-20099Y0D01*
X-20000D01*
X-19902Y5D01*
X-19710Y43D01*
X-19529Y118D01*
X-19366Y227D01*
X-19227Y366D01*
X-19118Y529D01*
X-19043Y710D01*
X-19005Y902D01*
X-19000Y1000D01*
Y19000D01*
X-19005Y19098D01*
X-19043Y19290D01*
X-19118Y19471D01*
X-19227Y19634D01*
X-19366Y19773D01*
X-19529Y19882D01*
X-19710Y19957D01*
X-19902Y19995D01*
X-20000Y20000D01*
X-20099D01*
X-20283Y20076D01*
X-20424Y20217D01*
X-20500Y20401D01*
Y20500D01*
Y20599D01*
X-20424Y20783D01*
X-20283Y20924D01*
X-20099Y21000D01*
X1599D01*
X1783Y20924D01*
D02*
G37*
D24*
X1000Y20000D02*
X36000D01*
X0Y1000D02*
Y3500D01*
Y16500D02*
Y19000D01*
X-9434Y15500D02*
X-8200D01*
X-6783Y14917D02*
X-6200Y15500D01*
X-1000D01*
X-16000Y5300D02*
Y13400D01*
X1000Y0D02*
X36000D01*
X-15200Y4500D02*
X-1000D01*
X36292Y19962D02*
X36474Y19886D01*
X36637Y19777D01*
X36777Y19637D01*
X36886Y19474D01*
X36962Y19292D01*
X37000Y19098D01*
X37000Y19000D02*
X37000Y19098D01*
X-15200Y14200D02*
X-11066Y14200D01*
X-7900Y14800D02*
X-7066Y14800D01*
X36000Y20000D02*
X36098Y20000D01*
X36292Y19962D01*
X37000Y1000D02*
Y19000D01*
Y1000D02*
X37000Y901D01*
X36962Y708D02*
X37000Y901D01*
X36886Y526D02*
X36962Y708D01*
X36777Y363D02*
X36886Y526D01*
X36637Y223D02*
X36777Y363D01*
X36474Y114D02*
X36637Y223D01*
X36292Y38D02*
X36474Y114D01*
X36098Y-0D02*
X36292Y38D01*
X36000Y0D02*
X36098Y-0D01*
X902Y5D02*
X1000Y0D01*
X710Y43D02*
X902Y5D01*
X529Y118D02*
X710Y43D01*
X366Y227D02*
X529Y118D01*
X227Y366D02*
X366Y227D01*
X118Y529D02*
X227Y366D01*
X43Y710D02*
X118Y529D01*
X5Y902D02*
X43Y710D01*
X0Y1000D02*
X5Y902D01*
X0Y3500D02*
Y3598D01*
X-38Y3792D02*
X0Y3598D01*
X-114Y3974D02*
X-38Y3792D01*
X-223Y4137D02*
X-114Y3974D01*
X-363Y4277D02*
X-223Y4137D01*
X-526Y4386D02*
X-363Y4277D01*
X-708Y4462D02*
X-526Y4386D01*
X-902Y4500D02*
X-708Y4462D01*
X-1000Y4500D02*
X-902Y4500D01*
X-15278Y4504D02*
X-15200Y4500D01*
X-15432Y4534D02*
X-15278Y4504D01*
X-15577Y4594D02*
X-15432Y4534D01*
X-15708Y4682D02*
X-15577Y4594D01*
X-15818Y4792D02*
X-15708Y4682D01*
X-15906Y4923D02*
X-15818Y4792D01*
X-15966Y5068D02*
X-15906Y4923D01*
X-15996Y5222D02*
X-15966Y5068D01*
X-16000Y5300D02*
X-15996Y5222D01*
X-16000Y13400D02*
X-15996Y13478D01*
X-15966Y13632D01*
X-15906Y13777D01*
X-15818Y13908D01*
X-15708Y14018D01*
X-15577Y14106D01*
X-15432Y14166D01*
X-15278Y14196D01*
X-15200Y14200D01*
X-11066Y14200D02*
X-11026D01*
X-10949Y14215D01*
X-10876Y14245D01*
X-10811Y14289D01*
X-10783Y14317D01*
X-9717Y15383D01*
X-9717Y15383D02*
X-9717Y15383D01*
X-9717Y15383D02*
X-9717D01*
X-9717D02*
X-9688Y15409D01*
X-9623Y15453D01*
X-9551Y15483D01*
X-9474Y15498D01*
X-9437Y15500D01*
X-9434Y15500D01*
X-8200Y15500D02*
Y15500D01*
Y15500D02*
X-8180Y15498D01*
X-8144Y15483D01*
X-8117Y15456D01*
X-8102Y15420D01*
X-8100Y15400D01*
Y15000D02*
Y15400D01*
Y15000D02*
X-8100D01*
Y14960D02*
Y15000D01*
Y14960D02*
X-8070Y14887D01*
X-8013Y14830D01*
X-7940Y14800D01*
X-7900D01*
X-7066Y14800D02*
X-7027D01*
X-6949Y14815D01*
X-6877Y14845D01*
X-6811Y14889D01*
X-6785Y14915D01*
X-6783Y14917D01*
X-1000Y15500D02*
Y15500D01*
Y15500D02*
X-902D01*
X-708Y15538D01*
X-526Y15614D01*
X-363Y15723D01*
X-223Y15863D01*
X-114Y16026D01*
X-38Y16208D01*
X0Y16402D01*
Y16500D01*
Y19000D02*
X5Y19098D01*
X43Y19290D01*
X118Y19471D01*
X227Y19634D01*
X366Y19773D01*
X529Y19882D01*
X710Y19957D01*
X902Y19995D01*
X1000Y20000D01*
D25*
X16586Y18415D02*
D03*
D26*
X14046D02*
D03*
X11506D02*
D03*
X8966D02*
D03*
D27*
X26695Y3425D02*
D03*
X26695Y16575D02*
D03*
D28*
X3683Y17374D02*
D03*
X18923Y18593D02*
D03*
Y16434D02*
D03*
X10211Y15850D02*
D03*
X2900Y7650D02*
D03*
X22885Y14732D02*
D03*
X11874Y2223D02*
D03*
X11874Y3619D02*
D03*
X17907Y15342D02*
D03*
X7580Y16525D02*
D03*
X6525Y3375D02*
D03*
X26162Y7341D02*
D03*
X23851Y12090D02*
D03*
X25222Y11506D02*
D03*
X34424Y18764D02*
D03*
X1194Y18250D02*
D03*
X5309Y14046D02*
D03*
X8622Y5600D02*
D03*
X20821Y14503D02*
D03*
X-11207Y9900D02*
D03*
X15443Y5882D02*
D03*
X3850Y14410D02*
D03*
X7290Y12530D02*
D03*
X33565Y14906D02*
D03*
Y12714D02*
D03*
X16008Y5092D02*
D03*
X2743Y11838D02*
D03*
X3379Y12475D02*
D03*
X2164Y11197D02*
D03*
X16636Y4464D02*
D03*
X11750Y9225D02*
D03*
X10875Y12400D02*
D03*
X12475Y9800D02*
D03*
X11375Y1400D02*
D03*
X9622Y2374D02*
D03*
X7075Y4875D02*
D03*
X6175Y14051D02*
D03*
X35175Y16100D02*
D03*
M02*
