M48
;Layer_Color=9474304
;FILE_FORMAT=4:3
METRIC,LZ
;TYPE=PLATED
T1F00S00C0.381
T2F00S00C0.900
T3F00S00C2.300
%
T01
X-0011201Y0007696
X-0011207Y00099
X-0005283Y0009144
X0002164Y0011197
X0002743Y0011838
X0003379Y0012475
X000385Y001441
X0005309Y0014046
X0006175Y0014051
X0007425Y0013526
X000729Y001253
X0005925Y001
X0004511
X0005218Y0009293
Y0010707
X00029Y000765
X0001524Y0005469
X000287Y000221
X0006525Y0003375
X0007075Y0004875
X0008622Y00056
X000758Y0016525
X0003683Y0017374
X0001194Y001825
X0001778Y0014467
X0010211Y001585
X0011278Y0013292
X0010875Y00124
X0010566Y0011151
X001175Y0009225
X0012475Y00098
X0015454Y0009965
X0017725Y001
X0016745Y000871
X0018035Y0007454
X0015443Y0005882
X0016008Y0005092
X0016636Y0004464
X001685Y00028
X0015545Y000127
X0011375Y00014
X0011874Y0002223
X0011874Y0003619
X0009622Y0002374
X0013741Y0006398
X0016727Y0011273
X0018875Y0011525
X0017965Y0012546
X0017907Y0015342
X0018923Y0016434
Y0018593
X002098Y0016535
X0020821Y0014503
X0022885Y0014732
X002253Y0017323
X0025184Y00135
X0025222Y0011506
X002573Y0010795
X0023851Y001209
X0028485Y0012714
Y0014906
X0033565
Y0012714
X0035175Y00161
X0034424Y0018764
X0029845Y0018771
X0026162Y0007341
X0025975Y000585
X0033565Y0005094
Y0007286
X0032588Y0003404
X001997Y000138
X002Y001065
T02
X0008966Y0018415
X0011506
X0014046
X0016586
T03
X0026695Y0003425
X0026695Y0016575
M30
